<?xml version="1.0" encoding="UTF-8" standalone="no"?>
<!DOCTYPE svg PUBLIC "-//W3C//DTD SVG 1.1//EN"
 "http://www.w3.org/Graphics/SVG/1.1/DTD/svg11.dtd">
<!-- Generated by graphviz version 5.0.0 (20220707.1540)
 -->
<!-- Title: g Pages: 1 -->
<svg width="206pt" height="188pt"
 viewBox="0.00 0.00 206.00 188.00" xmlns="http://www.w3.org/2000/svg" xmlns:xlink="http://www.w3.org/1999/xlink">
<g id="graph0" class="graph" transform="scale(1 1) rotate(0) translate(4 184)">
<title>g</title>
<polygon fill="white" stroke="transparent" points="-4,4 -4,-184 202,-184 202,4 -4,4"/>
<!-- 4454470592 -->
<g id="node1" class="node">
<title>4454470592</title>
<ellipse fill="none" stroke="black" cx="135" cy="-162" rx="27" ry="18"/>
<text text-anchor="middle" x="135" y="-158.3" font-family="Times,serif" font-size="14.00">&#45;</text>
</g>
<!-- 4455431296 -->
<g id="node2" class="node">
<title>4455431296</title>
<ellipse fill="none" stroke="black" cx="99" cy="-90" rx="27" ry="18"/>
<text text-anchor="middle" x="99" y="-86.3" font-family="Times,serif" font-size="14.00">**</text>
</g>
<!-- 4454470592&#45;&gt;4455431296 -->
<g id="edge1" class="edge">
<title>4454470592&#45;&gt;4455431296</title>
<path fill="none" stroke="black" d="M126.65,-144.76C122.29,-136.28 116.85,-125.71 111.96,-116.2"/>
<polygon fill="black" stroke="black" points="114.99,-114.44 107.3,-107.15 108.77,-117.64 114.99,-114.44"/>
</g>
<!-- 4453520576 -->
<g id="node5" class="node">
<title>4453520576</title>
<ellipse fill="none" stroke="black" cx="171" cy="-90" rx="27" ry="18"/>
<text text-anchor="middle" x="171" y="-86.3" font-family="Times,serif" font-size="14.00">log</text>
</g>
<!-- 4454470592&#45;&gt;4453520576 -->
<g id="edge4" class="edge">
<title>4454470592&#45;&gt;4453520576</title>
<path fill="none" stroke="black" d="M143.35,-144.76C147.71,-136.28 153.15,-125.71 158.04,-116.2"/>
<polygon fill="black" stroke="black" points="161.23,-117.64 162.7,-107.15 155.01,-114.44 161.23,-117.64"/>
</g>
<!-- 4454572800 -->
<g id="node3" class="node">
<title>4454572800</title>
<ellipse fill="none" stroke="black" cx="27" cy="-18" rx="27" ry="18"/>
<text text-anchor="middle" x="27" y="-14.3" font-family="Times,serif" font-size="14.00">x</text>
</g>
<!-- 4455431296&#45;&gt;4454572800 -->
<g id="edge2" class="edge">
<title>4455431296&#45;&gt;4454572800</title>
<path fill="none" stroke="black" d="M84.43,-74.83C74.25,-64.94 60.48,-51.55 48.97,-40.36"/>
<polygon fill="black" stroke="black" points="51.41,-37.85 41.8,-33.38 46.53,-42.87 51.41,-37.85"/>
</g>
<!-- 4455428992 -->
<g id="node4" class="node">
<title>4455428992</title>
<ellipse fill="none" stroke="black" cx="99" cy="-18" rx="27" ry="18"/>
<text text-anchor="middle" x="99" y="-14.3" font-family="Times,serif" font-size="14.00">2</text>
</g>
<!-- 4455431296&#45;&gt;4455428992 -->
<g id="edge3" class="edge">
<title>4455431296&#45;&gt;4455428992</title>
<path fill="none" stroke="black" d="M99,-71.7C99,-63.98 99,-54.71 99,-46.11"/>
<polygon fill="black" stroke="black" points="102.5,-46.1 99,-36.1 95.5,-46.1 102.5,-46.1"/>
</g>
<!-- 4455394944 -->
<g id="node6" class="node">
<title>4455394944</title>
<ellipse fill="none" stroke="black" cx="171" cy="-18" rx="27" ry="18"/>
<text text-anchor="middle" x="171" y="-14.3" font-family="Times,serif" font-size="14.00">x</text>
</g>
<!-- 4453520576&#45;&gt;4455394944 -->
<g id="edge5" class="edge">
<title>4453520576&#45;&gt;4455394944</title>
<path fill="none" stroke="black" d="M171,-71.7C171,-63.98 171,-54.71 171,-46.11"/>
<polygon fill="black" stroke="black" points="174.5,-46.1 171,-36.1 167.5,-46.1 174.5,-46.1"/>
</g>
</g>
</svg>
