<?xml version="1.0" encoding="UTF-8" standalone="no"?>
<!DOCTYPE svg PUBLIC "-//W3C//DTD SVG 1.1//EN"
 "http://www.w3.org/Graphics/SVG/1.1/DTD/svg11.dtd">
<!-- Generated by graphviz version 2.49.3 (20211023.0002)
 -->
<!-- Title: G Pages: 1 -->
<svg width="191pt" height="692pt"
 viewBox="0.00 0.00 191.00 692.00" xmlns="http://www.w3.org/2000/svg" xmlns:xlink="http://www.w3.org/1999/xlink">
<g id="graph0" class="graph" transform="scale(1 1) rotate(0) translate(4 688)">
<title>G</title>
<polygon fill="white" stroke="transparent" points="-4,4 -4,-688 187,-688 187,4 -4,4"/>
<!-- 0 -->
<g id="node1" class="node">
<title>0</title>
<ellipse fill="none" stroke="black" cx="99" cy="-306" rx="27" ry="18"/>
<text text-anchor="middle" x="99" y="-302.3" font-family="Times,serif" font-size="14.00">0</text>
</g>
<!-- 4 -->
<g id="node5" class="node">
<title>4</title>
<ellipse fill="none" stroke="black" cx="99" cy="-234" rx="27" ry="18"/>
<text text-anchor="middle" x="99" y="-230.3" font-family="Times,serif" font-size="14.00">4</text>
</g>
<!-- 0&#45;&gt;4 -->
<g id="edge1" class="edge">
<title>0&#45;&gt;4</title>
<path fill="none" stroke="black" d="M99,-287.7C99,-279.98 99,-270.71 99,-262.11"/>
<polygon fill="black" stroke="black" points="102.5,-262.1 99,-252.1 95.5,-262.1 102.5,-262.1"/>
</g>
<!-- 1 -->
<g id="node2" class="node">
<title>1</title>
<ellipse fill="none" stroke="black" cx="156" cy="-450" rx="27" ry="18"/>
<text text-anchor="middle" x="156" y="-446.3" font-family="Times,serif" font-size="14.00">1</text>
</g>
<!-- 7 -->
<g id="node8" class="node">
<title>7</title>
<ellipse fill="none" stroke="black" cx="136" cy="-378" rx="27" ry="18"/>
<text text-anchor="middle" x="136" y="-374.3" font-family="Times,serif" font-size="14.00">7</text>
</g>
<!-- 1&#45;&gt;7 -->
<g id="edge2" class="edge">
<title>1&#45;&gt;7</title>
<path fill="none" stroke="black" d="M151.16,-432.05C148.9,-424.14 146.15,-414.54 143.63,-405.69"/>
<polygon fill="black" stroke="black" points="146.91,-404.44 140.8,-395.79 140.18,-406.37 146.91,-404.44"/>
</g>
<!-- 2 -->
<g id="node3" class="node">
<title>2</title>
<ellipse fill="none" stroke="black" cx="27" cy="-234" rx="27" ry="18"/>
<text text-anchor="middle" x="27" y="-230.3" font-family="Times,serif" font-size="14.00">2</text>
</g>
<!-- 11 -->
<g id="node12" class="node">
<title>11</title>
<ellipse fill="none" stroke="black" cx="82" cy="-90" rx="27" ry="18"/>
<text text-anchor="middle" x="82" y="-86.3" font-family="Times,serif" font-size="14.00">11</text>
</g>
<!-- 2&#45;&gt;11 -->
<g id="edge3" class="edge">
<title>2&#45;&gt;11</title>
<path fill="none" stroke="black" d="M28.66,-216.01C30.89,-197.65 35.83,-167.83 46,-144 50.39,-133.72 56.88,-123.34 63.15,-114.53"/>
<polygon fill="black" stroke="black" points="66.11,-116.41 69.25,-106.3 60.48,-112.24 66.11,-116.41"/>
</g>
<!-- 3 -->
<g id="node4" class="node">
<title>3</title>
<ellipse fill="none" stroke="black" cx="110" cy="-522" rx="27" ry="18"/>
<text text-anchor="middle" x="110" y="-518.3" font-family="Times,serif" font-size="14.00">3</text>
</g>
<!-- 3&#45;&gt;1 -->
<g id="edge4" class="edge">
<title>3&#45;&gt;1</title>
<path fill="none" stroke="black" d="M120.44,-505.12C126.2,-496.34 133.48,-485.26 139.96,-475.42"/>
<polygon fill="black" stroke="black" points="143.04,-477.1 145.6,-466.82 137.19,-473.26 143.04,-477.1"/>
</g>
<!-- 3&#45;&gt;7 -->
<g id="edge5" class="edge">
<title>3&#45;&gt;7</title>
<path fill="none" stroke="black" d="M111.01,-503.79C112.27,-485.76 114.93,-456.67 120,-432 121.79,-423.3 124.37,-413.97 126.94,-405.61"/>
<polygon fill="black" stroke="black" points="130.3,-406.57 130.01,-395.98 123.64,-404.44 130.3,-406.57"/>
</g>
<!-- 5 -->
<g id="node6" class="node">
<title>5</title>
<ellipse fill="none" stroke="black" cx="82" cy="-162" rx="27" ry="18"/>
<text text-anchor="middle" x="82" y="-158.3" font-family="Times,serif" font-size="14.00">5</text>
</g>
<!-- 4&#45;&gt;5 -->
<g id="edge6" class="edge">
<title>4&#45;&gt;5</title>
<path fill="none" stroke="black" d="M94.88,-216.05C92.99,-208.26 90.7,-198.82 88.58,-190.08"/>
<polygon fill="black" stroke="black" points="91.96,-189.17 86.2,-180.28 85.15,-190.82 91.96,-189.17"/>
</g>
<!-- 5&#45;&gt;11 -->
<g id="edge7" class="edge">
<title>5&#45;&gt;11</title>
<path fill="none" stroke="black" d="M82,-143.7C82,-135.98 82,-126.71 82,-118.11"/>
<polygon fill="black" stroke="black" points="85.5,-118.1 82,-108.1 78.5,-118.1 85.5,-118.1"/>
</g>
<!-- 6 -->
<g id="node7" class="node">
<title>6</title>
<ellipse fill="none" stroke="black" cx="154" cy="-162" rx="27" ry="18"/>
<text text-anchor="middle" x="154" y="-158.3" font-family="Times,serif" font-size="14.00">6</text>
</g>
<!-- 12 -->
<g id="node13" class="node">
<title>12</title>
<ellipse fill="none" stroke="black" cx="109" cy="-18" rx="27" ry="18"/>
<text text-anchor="middle" x="109" y="-14.3" font-family="Times,serif" font-size="14.00">12</text>
</g>
<!-- 6&#45;&gt;12 -->
<g id="edge8" class="edge">
<title>6&#45;&gt;12</title>
<path fill="none" stroke="black" d="M148.66,-144.15C140.95,-119.81 126.61,-74.57 117.45,-45.67"/>
<polygon fill="black" stroke="black" points="120.69,-44.3 114.33,-35.82 114.02,-46.42 120.69,-44.3"/>
</g>
<!-- 7&#45;&gt;0 -->
<g id="edge9" class="edge">
<title>7&#45;&gt;0</title>
<path fill="none" stroke="black" d="M127.42,-360.76C122.94,-352.28 117.35,-341.71 112.32,-332.2"/>
<polygon fill="black" stroke="black" points="115.3,-330.35 107.54,-323.15 109.11,-333.62 115.3,-330.35"/>
</g>
<!-- 7&#45;&gt;6 -->
<g id="edge10" class="edge">
<title>7&#45;&gt;6</title>
<path fill="none" stroke="black" d="M137.44,-359.85C140.56,-322.83 147.93,-235.18 151.7,-190.39"/>
<polygon fill="black" stroke="black" points="155.2,-190.49 152.55,-180.23 148.22,-189.9 155.2,-190.49"/>
</g>
<!-- 8 -->
<g id="node9" class="node">
<title>8</title>
<ellipse fill="none" stroke="black" cx="55" cy="-378" rx="27" ry="18"/>
<text text-anchor="middle" x="55" y="-374.3" font-family="Times,serif" font-size="14.00">8</text>
</g>
<!-- 8&#45;&gt;0 -->
<g id="edge11" class="edge">
<title>8&#45;&gt;0</title>
<path fill="none" stroke="black" d="M64.98,-361.12C70.5,-352.34 77.46,-341.26 83.65,-331.42"/>
<polygon fill="black" stroke="black" points="86.7,-333.15 89.06,-322.82 80.77,-329.42 86.7,-333.15"/>
</g>
<!-- 8&#45;&gt;2 -->
<g id="edge12" class="edge">
<title>8&#45;&gt;2</title>
<path fill="none" stroke="black" d="M51.62,-359.87C46.83,-335.56 38.01,-290.82 32.33,-262.01"/>
<polygon fill="black" stroke="black" points="35.76,-261.32 30.39,-252.19 28.89,-262.68 35.76,-261.32"/>
</g>
<!-- 9 -->
<g id="node10" class="node">
<title>9</title>
<ellipse fill="none" stroke="black" cx="110" cy="-594" rx="27" ry="18"/>
<text text-anchor="middle" x="110" y="-590.3" font-family="Times,serif" font-size="14.00">9</text>
</g>
<!-- 9&#45;&gt;3 -->
<g id="edge13" class="edge">
<title>9&#45;&gt;3</title>
<path fill="none" stroke="black" d="M110,-575.7C110,-567.98 110,-558.71 110,-550.11"/>
<polygon fill="black" stroke="black" points="113.5,-550.1 110,-540.1 106.5,-550.1 113.5,-550.1"/>
</g>
<!-- 10 -->
<g id="node11" class="node">
<title>10</title>
<ellipse fill="none" stroke="black" cx="82" cy="-666" rx="27" ry="18"/>
<text text-anchor="middle" x="82" y="-662.3" font-family="Times,serif" font-size="14.00">10</text>
</g>
<!-- 10&#45;&gt;8 -->
<g id="edge14" class="edge">
<title>10&#45;&gt;8</title>
<path fill="none" stroke="black" d="M79.11,-647.85C77.44,-637.5 75.4,-624.02 74,-612 65.37,-537.67 59.32,-449.55 56.6,-406.06"/>
<polygon fill="black" stroke="black" points="60.09,-405.76 55.99,-396 53.1,-406.19 60.09,-405.76"/>
</g>
<!-- 10&#45;&gt;9 -->
<g id="edge15" class="edge">
<title>10&#45;&gt;9</title>
<path fill="none" stroke="black" d="M88.64,-648.41C91.91,-640.22 95.94,-630.14 99.62,-620.95"/>
<polygon fill="black" stroke="black" points="102.95,-622.05 103.41,-611.47 96.45,-619.45 102.95,-622.05"/>
</g>
<!-- 11&#45;&gt;12 -->
<g id="edge16" class="edge">
<title>11&#45;&gt;12</title>
<path fill="none" stroke="black" d="M88.4,-72.41C91.51,-64.34 95.33,-54.43 98.83,-45.35"/>
<polygon fill="black" stroke="black" points="102.13,-46.55 102.46,-35.96 95.6,-44.03 102.13,-46.55"/>
</g>
</g>
</svg>
