<?xml version="1.0" encoding="UTF-8" standalone="no"?>
<!DOCTYPE svg PUBLIC "-//W3C//DTD SVG 1.1//EN"
 "http://www.w3.org/Graphics/SVG/1.1/DTD/svg11.dtd">
<!-- Generated by graphviz version 5.0.0 (20220707.1540)
 -->
<!-- Title: G Pages: 1 -->
<svg width="692pt" height="205pt"
 viewBox="0.00 0.00 692.00 205.00" xmlns="http://www.w3.org/2000/svg" xmlns:xlink="http://www.w3.org/1999/xlink">
<g id="graph0" class="graph" transform="scale(1 1) rotate(0) translate(4 201)">
<title>G</title>
<polygon fill="white" stroke="transparent" points="-4,4 -4,-201 688,-201 688,4 -4,4"/>
<!-- 0 -->
<g id="node1" class="node">
<title>0</title>
<ellipse fill="none" stroke="black" cx="567" cy="-179" rx="27" ry="18"/>
<text text-anchor="middle" x="567" y="-175.3" font-family="Times,serif" font-size="14.00">0</text>
</g>
<!-- 12 -->
<g id="node2" class="node">
<title>12</title>
<ellipse fill="none" stroke="black" cx="657" cy="-129" rx="27" ry="18"/>
<text text-anchor="middle" x="657" y="-125.3" font-family="Times,serif" font-size="14.00">12</text>
</g>
<!-- 0&#45;&gt;12 -->
<g id="edge1" class="edge">
<title>0&#45;&gt;12</title>
<path fill="none" stroke="black" d="M587.97,-167.65C599.48,-161.12 614.15,-152.78 626.92,-145.52"/>
<polygon fill="black" stroke="black" points="628.84,-148.46 635.81,-140.47 625.38,-142.37 628.84,-148.46"/>
</g>
<!-- 1 -->
<g id="node3" class="node">
<title>1</title>
<ellipse fill="none" stroke="black" cx="477" cy="-33" rx="27" ry="18"/>
<text text-anchor="middle" x="477" y="-29.3" font-family="Times,serif" font-size="14.00">1</text>
</g>
<!-- 4 -->
<g id="node4" class="node">
<title>4</title>
<ellipse fill="none" stroke="black" cx="567" cy="-102" rx="27" ry="18"/>
<text text-anchor="middle" x="567" y="-98.3" font-family="Times,serif" font-size="14.00">4</text>
</g>
<!-- 1&#45;&gt;4 -->
<g id="edge2" class="edge">
<title>1&#45;&gt;4</title>
<path fill="none" stroke="black" d="M495.39,-46.63C508.28,-56.74 526.07,-70.69 540.56,-82.05"/>
<polygon fill="black" stroke="black" points="538.62,-84.98 548.65,-88.4 542.94,-79.47 538.62,-84.98"/>
</g>
<!-- 4&#45;&gt;12 -->
<g id="edge3" class="edge">
<title>4&#45;&gt;12</title>
<path fill="none" stroke="black" d="M592.05,-109.38C601.44,-112.26 612.36,-115.61 622.5,-118.72"/>
<polygon fill="black" stroke="black" points="621.7,-122.14 632.29,-121.72 623.75,-115.45 621.7,-122.14"/>
</g>
<!-- 2 -->
<g id="node5" class="node">
<title>2</title>
<ellipse fill="none" stroke="black" cx="387" cy="-156" rx="27" ry="18"/>
<text text-anchor="middle" x="387" y="-152.3" font-family="Times,serif" font-size="14.00">2</text>
</g>
<!-- 8 -->
<g id="node6" class="node">
<title>8</title>
<ellipse fill="none" stroke="black" cx="477" cy="-102" rx="27" ry="18"/>
<text text-anchor="middle" x="477" y="-98.3" font-family="Times,serif" font-size="14.00">8</text>
</g>
<!-- 2&#45;&gt;8 -->
<g id="edge4" class="edge">
<title>2&#45;&gt;8</title>
<path fill="none" stroke="black" d="M407.53,-144.02C419.38,-136.74 434.7,-127.34 447.84,-119.28"/>
<polygon fill="black" stroke="black" points="449.83,-122.16 456.52,-113.95 446.17,-116.2 449.83,-122.16"/>
</g>
<!-- 8&#45;&gt;4 -->
<g id="edge5" class="edge">
<title>8&#45;&gt;4</title>
<path fill="none" stroke="black" d="M504.4,-102C512.39,-102 521.31,-102 529.82,-102"/>
<polygon fill="black" stroke="black" points="529.92,-105.5 539.92,-102 529.92,-98.5 529.92,-105.5"/>
</g>
<!-- 3 -->
<g id="node7" class="node">
<title>3</title>
<ellipse fill="none" stroke="black" cx="387" cy="-102" rx="27" ry="18"/>
<text text-anchor="middle" x="387" y="-98.3" font-family="Times,serif" font-size="14.00">3</text>
</g>
<!-- 3&#45;&gt;8 -->
<g id="edge6" class="edge">
<title>3&#45;&gt;8</title>
<path fill="none" stroke="black" d="M414.4,-102C422.39,-102 431.31,-102 439.82,-102"/>
<polygon fill="black" stroke="black" points="439.92,-105.5 449.92,-102 439.92,-98.5 439.92,-105.5"/>
</g>
<!-- 5 -->
<g id="node8" class="node">
<title>5</title>
<ellipse fill="none" stroke="black" cx="207" cy="-110" rx="27" ry="18"/>
<text text-anchor="middle" x="207" y="-106.3" font-family="Times,serif" font-size="14.00">5</text>
</g>
<!-- 5&#45;&gt;3 -->
<g id="edge7" class="edge">
<title>5&#45;&gt;3</title>
<path fill="none" stroke="black" d="M234.26,-108.82C264.85,-107.44 315.55,-105.17 349.84,-103.63"/>
<polygon fill="black" stroke="black" points="350.08,-107.12 359.92,-103.17 349.77,-100.12 350.08,-107.12"/>
</g>
<!-- 6 -->
<g id="node9" class="node">
<title>6</title>
<ellipse fill="none" stroke="black" cx="297" cy="-156" rx="27" ry="18"/>
<text text-anchor="middle" x="297" y="-152.3" font-family="Times,serif" font-size="14.00">6</text>
</g>
<!-- 5&#45;&gt;6 -->
<g id="edge8" class="edge">
<title>5&#45;&gt;6</title>
<path fill="none" stroke="black" d="M228.85,-120.9C240.03,-126.74 254,-134.04 266.29,-140.47"/>
<polygon fill="black" stroke="black" points="264.81,-143.65 275.29,-145.18 268.05,-137.44 264.81,-143.65"/>
</g>
<!-- 6&#45;&gt;0 -->
<g id="edge9" class="edge">
<title>6&#45;&gt;0</title>
<path fill="none" stroke="black" d="M318.24,-167.34C330.03,-173.29 345.4,-179.96 360,-183 418.79,-195.25 489.07,-189.71 530.48,-184.45"/>
<polygon fill="black" stroke="black" points="531.17,-187.89 540.61,-183.09 530.24,-180.95 531.17,-187.89"/>
</g>
<!-- 6&#45;&gt;2 -->
<g id="edge10" class="edge">
<title>6&#45;&gt;2</title>
<path fill="none" stroke="black" d="M324.4,-156C332.39,-156 341.31,-156 349.82,-156"/>
<polygon fill="black" stroke="black" points="349.92,-159.5 359.92,-156 349.92,-152.5 349.92,-159.5"/>
</g>
<!-- 7 -->
<g id="node10" class="node">
<title>7</title>
<ellipse fill="none" stroke="black" cx="297" cy="-64" rx="27" ry="18"/>
<text text-anchor="middle" x="297" y="-60.3" font-family="Times,serif" font-size="14.00">7</text>
</g>
<!-- 7&#45;&gt;2 -->
<g id="edge11" class="edge">
<title>7&#45;&gt;2</title>
<path fill="none" stroke="black" d="M312.26,-78.99C324.82,-92.18 343.6,-111.89 360,-129 361.54,-130.6 363.13,-132.26 364.73,-133.92"/>
<polygon fill="black" stroke="black" points="362.23,-136.38 371.68,-141.16 367.27,-131.52 362.23,-136.38"/>
</g>
<!-- 7&#45;&gt;8 -->
<g id="edge12" class="edge">
<title>7&#45;&gt;8</title>
<path fill="none" stroke="black" d="M324.21,-64.14C347.99,-64.81 383.84,-67.21 414,-75 424.85,-77.8 436.24,-82.27 446.24,-86.77"/>
<polygon fill="black" stroke="black" points="444.81,-89.97 455.35,-91.04 447.79,-83.63 444.81,-89.97"/>
</g>
<!-- 9 -->
<g id="node11" class="node">
<title>9</title>
<ellipse fill="none" stroke="black" cx="117" cy="-18" rx="27" ry="18"/>
<text text-anchor="middle" x="117" y="-14.3" font-family="Times,serif" font-size="14.00">9</text>
</g>
<!-- 9&#45;&gt;1 -->
<g id="edge13" class="edge">
<title>9&#45;&gt;1</title>
<path fill="none" stroke="black" d="M144.03,-19.09C206.91,-21.73 367.19,-28.44 439.56,-31.47"/>
<polygon fill="black" stroke="black" points="439.44,-34.97 449.58,-31.89 439.73,-27.98 439.44,-34.97"/>
</g>
<!-- 10 -->
<g id="node12" class="node">
<title>10</title>
<ellipse fill="none" stroke="black" cx="117" cy="-72" rx="27" ry="18"/>
<text text-anchor="middle" x="117" y="-68.3" font-family="Times,serif" font-size="14.00">10</text>
</g>
<!-- 10&#45;&gt;5 -->
<g id="edge14" class="edge">
<title>10&#45;&gt;5</title>
<path fill="none" stroke="black" d="M140.21,-81.59C150.63,-86.09 163.23,-91.53 174.61,-96.44"/>
<polygon fill="black" stroke="black" points="173.23,-99.66 183.8,-100.41 176.01,-93.24 173.23,-99.66"/>
</g>
<!-- 10&#45;&gt;7 -->
<g id="edge15" class="edge">
<title>10&#45;&gt;7</title>
<path fill="none" stroke="black" d="M144.26,-70.82C174.85,-69.44 225.55,-67.17 259.84,-65.63"/>
<polygon fill="black" stroke="black" points="260.08,-69.12 269.92,-65.17 259.77,-62.12 260.08,-69.12"/>
</g>
<!-- 11 -->
<g id="node13" class="node">
<title>11</title>
<ellipse fill="none" stroke="black" cx="27" cy="-45" rx="27" ry="18"/>
<text text-anchor="middle" x="27" y="-41.3" font-family="Times,serif" font-size="14.00">11</text>
</g>
<!-- 11&#45;&gt;9 -->
<g id="edge16" class="edge">
<title>11&#45;&gt;9</title>
<path fill="none" stroke="black" d="M52.05,-37.62C61.44,-34.74 72.36,-31.39 82.5,-28.28"/>
<polygon fill="black" stroke="black" points="83.75,-31.55 92.29,-25.28 81.7,-24.86 83.75,-31.55"/>
</g>
<!-- 11&#45;&gt;10 -->
<g id="edge17" class="edge">
<title>11&#45;&gt;10</title>
<path fill="none" stroke="black" d="M52.05,-52.38C61.44,-55.26 72.36,-58.61 82.5,-61.72"/>
<polygon fill="black" stroke="black" points="81.7,-65.14 92.29,-64.72 83.75,-58.45 81.7,-65.14"/>
</g>
</g>
</svg>
