<?xml version="1.0" encoding="UTF-8" standalone="no"?>
<!DOCTYPE svg PUBLIC "-//W3C//DTD SVG 1.1//EN"
 "http://www.w3.org/Graphics/SVG/1.1/DTD/svg11.dtd">
<!-- Generated by graphviz version 2.49.3 (20211023.0002)
 -->
<!-- Title: G Pages: 1 -->
<svg width="1509pt" height="205pt"
 viewBox="0.00 0.00 1508.70 205.00" xmlns="http://www.w3.org/2000/svg" xmlns:xlink="http://www.w3.org/1999/xlink">
<g id="graph0" class="graph" transform="scale(1 1) rotate(0) translate(4 201)">
<title>G</title>
<polygon fill="white" stroke="transparent" points="-4,4 -4,-201 1504.7,-201 1504.7,4 -4,4"/>
<!-- 0 -->
<g id="node1" class="node">
<title>0</title>
<ellipse fill="none" stroke="black" cx="979.85" cy="-179" rx="38.99" ry="18"/>
<text text-anchor="middle" x="979.85" y="-175.3" font-family="Times,serif" font-size="14.00">/AB/CE</text>
</g>
<!-- 12 -->
<g id="node2" class="node">
<title>12</title>
<ellipse fill="none" stroke="black" cx="1327.82" cy="-129" rx="172.77" ry="18"/>
<text text-anchor="middle" x="1327.82" y="-125.3" font-family="Times,serif" font-size="14.00">/AB/CE+A+/AB/C/E+/A/BD+/ABC+/A/B/D</text>
</g>
<!-- 0&#45;&gt;12 -->
<g id="edge1" class="edge">
<title>0&#45;&gt;12</title>
<path fill="none" stroke="black" d="M1017.22,-173.74C1064.01,-166.98 1147.43,-154.93 1215.9,-145.03"/>
<polygon fill="black" stroke="black" points="1216.49,-148.48 1225.88,-143.59 1215.49,-141.55 1216.49,-148.48"/>
</g>
<!-- 1 -->
<g id="node3" class="node">
<title>1</title>
<ellipse fill="none" stroke="black" cx="677.37" cy="-33" rx="27" ry="18"/>
<text text-anchor="middle" x="677.37" y="-29.3" font-family="Times,serif" font-size="14.00">A</text>
</g>
<!-- 4 -->
<g id="node4" class="node">
<title>4</title>
<ellipse fill="none" stroke="black" cx="979.85" cy="-102" rx="139.18" ry="18"/>
<text text-anchor="middle" x="979.85" y="-98.3" font-family="Times,serif" font-size="14.00">A+/AB/C/E+/A/BD+/ABC+/A/B/D</text>
</g>
<!-- 1&#45;&gt;4 -->
<g id="edge2" class="edge">
<title>1&#45;&gt;4</title>
<path fill="none" stroke="black" d="M703.22,-38.71C746.01,-48.53 835.34,-69.04 900.74,-84.06"/>
<polygon fill="black" stroke="black" points="900.09,-87.51 910.62,-86.33 901.65,-80.68 900.09,-87.51"/>
</g>
<!-- 4&#45;&gt;12 -->
<g id="edge3" class="edge">
<title>4&#45;&gt;12</title>
<path fill="none" stroke="black" d="M1099.43,-111.25C1125.01,-113.25 1152.36,-115.39 1178.91,-117.46"/>
<polygon fill="black" stroke="black" points="1178.8,-120.96 1189.04,-118.25 1179.34,-113.98 1178.8,-120.96"/>
</g>
<!-- 2 -->
<g id="node5" class="node">
<title>2</title>
<ellipse fill="none" stroke="black" cx="443.79" cy="-156" rx="70.39" ry="18"/>
<text text-anchor="middle" x="443.79" y="-152.3" font-family="Times,serif" font-size="14.00">/AB/C/E+/A/BD</text>
</g>
<!-- 8 -->
<g id="node6" class="node">
<title>8</title>
<ellipse fill="none" stroke="black" cx="677.37" cy="-102" rx="127.28" ry="18"/>
<text text-anchor="middle" x="677.37" y="-98.3" font-family="Times,serif" font-size="14.00">/AB/C/E+/A/BD+/ABC+/A/B/D</text>
</g>
<!-- 2&#45;&gt;8 -->
<g id="edge4" class="edge">
<title>2&#45;&gt;8</title>
<path fill="none" stroke="black" d="M496.18,-144.02C526.87,-136.86 566.4,-127.64 600.61,-119.67"/>
<polygon fill="black" stroke="black" points="601.63,-123.02 610.57,-117.34 600.04,-116.2 601.63,-123.02"/>
</g>
<!-- 8&#45;&gt;4 -->
<g id="edge5" class="edge">
<title>8&#45;&gt;4</title>
<path fill="none" stroke="black" d="M804.93,-102C813.25,-102 821.68,-102 830.09,-102"/>
<polygon fill="black" stroke="black" points="830.35,-105.5 840.35,-102 830.35,-98.5 830.35,-105.5"/>
</g>
<!-- 3 -->
<g id="node7" class="node">
<title>3</title>
<ellipse fill="none" stroke="black" cx="443.79" cy="-102" rx="31.4" ry="18"/>
<text text-anchor="middle" x="443.79" y="-98.3" font-family="Times,serif" font-size="14.00">/ABC</text>
</g>
<!-- 3&#45;&gt;8 -->
<g id="edge6" class="edge">
<title>3&#45;&gt;8</title>
<path fill="none" stroke="black" d="M475.06,-102C492.36,-102 515.4,-102 539.72,-102"/>
<polygon fill="black" stroke="black" points="539.83,-105.5 549.83,-102 539.83,-98.5 539.83,-105.5"/>
</g>
<!-- 5 -->
<g id="node8" class="node">
<title>5</title>
<ellipse fill="none" stroke="black" cx="207" cy="-110" rx="27" ry="18"/>
<text text-anchor="middle" x="207" y="-106.3" font-family="Times,serif" font-size="14.00">/AB</text>
</g>
<!-- 5&#45;&gt;3 -->
<g id="edge7" class="edge">
<title>5&#45;&gt;3</title>
<path fill="none" stroke="black" d="M234.02,-109.11C274.85,-107.72 354.25,-105.02 402.49,-103.37"/>
<polygon fill="black" stroke="black" points="402.71,-106.87 412.58,-103.03 402.47,-99.87 402.71,-106.87"/>
</g>
<!-- 6 -->
<g id="node9" class="node">
<title>6</title>
<ellipse fill="none" stroke="black" cx="303.8" cy="-156" rx="33.6" ry="18"/>
<text text-anchor="middle" x="303.8" y="-152.3" font-family="Times,serif" font-size="14.00">/AB/C</text>
</g>
<!-- 5&#45;&gt;6 -->
<g id="edge8" class="edge">
<title>5&#45;&gt;6</title>
<path fill="none" stroke="black" d="M229.51,-120.44C241.2,-126.11 255.93,-133.26 269.11,-139.65"/>
<polygon fill="black" stroke="black" points="267.84,-142.93 278.36,-144.14 270.89,-136.63 267.84,-142.93"/>
</g>
<!-- 6&#45;&gt;0 -->
<g id="edge9" class="edge">
<title>6&#45;&gt;0</title>
<path fill="none" stroke="black" d="M328.97,-168.06C341.87,-173.82 358.21,-180.09 373.59,-183 434.9,-194.6 451.59,-183.27 513.98,-183 666.03,-182.35 846.04,-180.49 930.52,-179.55"/>
<polygon fill="black" stroke="black" points="930.62,-183.05 940.58,-179.44 930.54,-176.05 930.62,-183.05"/>
</g>
<!-- 6&#45;&gt;2 -->
<g id="edge10" class="edge">
<title>6&#45;&gt;2</title>
<path fill="none" stroke="black" d="M337.85,-156C345.67,-156 354.35,-156 363.26,-156"/>
<polygon fill="black" stroke="black" points="363.4,-159.5 373.4,-156 363.4,-152.5 363.4,-159.5"/>
</g>
<!-- 7 -->
<g id="node10" class="node">
<title>7</title>
<ellipse fill="none" stroke="black" cx="303.8" cy="-64" rx="27.9" ry="18"/>
<text text-anchor="middle" x="303.8" y="-60.3" font-family="Times,serif" font-size="14.00">/A/B</text>
</g>
<!-- 7&#45;&gt;2 -->
<g id="edge11" class="edge">
<title>7&#45;&gt;2</title>
<path fill="none" stroke="black" d="M318.18,-79.73C331.13,-94.15 351.94,-115.29 373.59,-129 378.62,-132.18 384.08,-135.09 389.66,-137.73"/>
<polygon fill="black" stroke="black" points="388.53,-141.06 399.09,-141.9 391.36,-134.66 388.53,-141.06"/>
</g>
<!-- 7&#45;&gt;8 -->
<g id="edge12" class="edge">
<title>7&#45;&gt;8</title>
<path fill="none" stroke="black" d="M331.95,-64.46C371.93,-65.35 448.91,-67.9 513.98,-75 538.95,-77.72 565.92,-81.76 590.56,-85.89"/>
<polygon fill="black" stroke="black" points="590.16,-89.37 600.61,-87.59 591.34,-82.47 590.16,-89.37"/>
</g>
<!-- 9 -->
<g id="node11" class="node">
<title>9</title>
<ellipse fill="none" stroke="black" cx="117" cy="-18" rx="27" ry="18"/>
<text text-anchor="middle" x="117" y="-14.3" font-family="Times,serif" font-size="14.00">A</text>
</g>
<!-- 9&#45;&gt;1 -->
<g id="edge13" class="edge">
<title>9&#45;&gt;1</title>
<path fill="none" stroke="black" d="M144.18,-18.7C234.86,-21.14 535.64,-29.22 640.18,-32.03"/>
<polygon fill="black" stroke="black" points="640.15,-35.53 650.24,-32.3 640.34,-28.53 640.15,-35.53"/>
</g>
<!-- 10 -->
<g id="node12" class="node">
<title>10</title>
<ellipse fill="none" stroke="black" cx="117" cy="-72" rx="27" ry="18"/>
<text text-anchor="middle" x="117" y="-68.3" font-family="Times,serif" font-size="14.00">/A</text>
</g>
<!-- 10&#45;&gt;5 -->
<g id="edge14" class="edge">
<title>10&#45;&gt;5</title>
<path fill="none" stroke="black" d="M140.21,-81.59C150.63,-86.09 163.23,-91.53 174.61,-96.44"/>
<polygon fill="black" stroke="black" points="173.23,-99.66 183.8,-100.41 176.01,-93.24 173.23,-99.66"/>
</g>
<!-- 10&#45;&gt;7 -->
<g id="edge15" class="edge">
<title>10&#45;&gt;7</title>
<path fill="none" stroke="black" d="M144.08,-70.87C175.78,-69.5 229.47,-67.17 265.52,-65.61"/>
<polygon fill="black" stroke="black" points="265.8,-69.1 275.64,-65.18 265.5,-62.11 265.8,-69.1"/>
</g>
<!-- 11 -->
<g id="node13" class="node">
<title>11</title>
<ellipse fill="none" stroke="black" cx="27" cy="-45" rx="27" ry="18"/>
<text text-anchor="middle" x="27" y="-41.3" font-family="Times,serif" font-size="14.00">T</text>
</g>
<!-- 11&#45;&gt;9 -->
<g id="edge16" class="edge">
<title>11&#45;&gt;9</title>
<path fill="none" stroke="black" d="M52.05,-37.62C61.44,-34.74 72.36,-31.39 82.5,-28.28"/>
<polygon fill="black" stroke="black" points="83.75,-31.55 92.29,-25.28 81.7,-24.86 83.75,-31.55"/>
</g>
<!-- 11&#45;&gt;10 -->
<g id="edge17" class="edge">
<title>11&#45;&gt;10</title>
<path fill="none" stroke="black" d="M52.05,-52.38C61.44,-55.26 72.36,-58.61 82.5,-61.72"/>
<polygon fill="black" stroke="black" points="81.7,-65.14 92.29,-64.72 83.75,-58.45 81.7,-65.14"/>
</g>
</g>
</svg>
