<?xml version="1.0" encoding="UTF-8" standalone="no"?>
<!DOCTYPE svg PUBLIC "-//W3C//DTD SVG 1.1//EN"
 "http://www.w3.org/Graphics/SVG/1.1/DTD/svg11.dtd">
<!-- Generated by graphviz version 2.49.3 (20211023.0002)
 -->
<!-- Title: G Pages: 1 -->
<svg width="1613pt" height="150pt"
 viewBox="0.00 0.00 1612.61 150.00" xmlns="http://www.w3.org/2000/svg" xmlns:xlink="http://www.w3.org/1999/xlink">
<g id="graph0" class="graph" transform="scale(1 1) rotate(0) translate(4 146)">
<title>G</title>
<polygon fill="white" stroke="transparent" points="-4,4 -4,-146 1608.61,-146 1608.61,4 -4,4"/>
<!-- 0 -->
<g id="node1" class="node">
<title>0</title>
<ellipse fill="none" stroke="black" cx="569.53" cy="-70" rx="77.19" ry="18"/>
<text text-anchor="middle" x="569.53" y="-66.3" font-family="Times,serif" font-size="14.00">(/AC+/A/C)D+AB</text>
</g>
<!-- 4 -->
<g id="node2" class="node">
<title>4</title>
<ellipse fill="none" stroke="black" cx="760.22" cy="-70" rx="77.19" ry="18"/>
<text text-anchor="middle" x="760.22" y="-66.3" font-family="Times,serif" font-size="14.00">(/AC+/A/C)D+AB</text>
</g>
<!-- 0&#45;&gt;4 -->
<g id="edge1" class="edge">
<title>0&#45;&gt;4</title>
<path fill="none" stroke="black" d="M647.01,-70C655.36,-70 663.91,-70 672.37,-70"/>
<polygon fill="black" stroke="black" points="672.64,-73.5 682.64,-70 672.64,-66.5 672.64,-73.5"/>
</g>
<!-- 5 -->
<g id="node8" class="node">
<title>5</title>
<ellipse fill="none" stroke="black" cx="950.91" cy="-78" rx="77.19" ry="18"/>
<text text-anchor="middle" x="950.91" y="-74.3" font-family="Times,serif" font-size="14.00">(/AC+/A/C)D+AB</text>
</g>
<!-- 4&#45;&gt;5 -->
<g id="edge2" class="edge">
<title>4&#45;&gt;5</title>
<path fill="none" stroke="black" d="M836.61,-73.2C845.8,-73.59 855.25,-73.99 864.58,-74.38"/>
<polygon fill="black" stroke="black" points="864.5,-77.88 874.64,-74.81 864.8,-70.89 864.5,-77.88"/>
</g>
<!-- 1 -->
<g id="node3" class="node">
<title>1</title>
<ellipse fill="none" stroke="black" cx="297" cy="-18" rx="27" ry="18"/>
<text text-anchor="middle" x="297" y="-14.3" font-family="Times,serif" font-size="14.00">/AC</text>
</g>
<!-- 7 -->
<g id="node4" class="node">
<title>7</title>
<ellipse fill="none" stroke="black" cx="408.1" cy="-43" rx="48.19" ry="18"/>
<text text-anchor="middle" x="408.1" y="-39.3" font-family="Times,serif" font-size="14.00">/AC+/A/C</text>
</g>
<!-- 1&#45;&gt;7 -->
<g id="edge3" class="edge">
<title>1&#45;&gt;7</title>
<path fill="none" stroke="black" d="M322.76,-23.67C332.87,-25.99 344.96,-28.76 356.79,-31.47"/>
<polygon fill="black" stroke="black" points="356.08,-34.9 366.61,-33.72 357.64,-28.08 356.08,-34.9"/>
</g>
<!-- 7&#45;&gt;0 -->
<g id="edge4" class="edge">
<title>7&#45;&gt;0</title>
<path fill="none" stroke="black" d="M452.24,-50.31C465.94,-52.63 481.47,-55.26 496.62,-57.82"/>
<polygon fill="black" stroke="black" points="496.05,-61.28 506.5,-59.49 497.22,-54.37 496.05,-61.28"/>
</g>
<!-- 6 -->
<g id="node9" class="node">
<title>6</title>
<ellipse fill="none" stroke="black" cx="950.91" cy="-24" rx="62.29" ry="18"/>
<text text-anchor="middle" x="950.91" y="-20.3" font-family="Times,serif" font-size="14.00">(/AC+/A/C)/D</text>
</g>
<!-- 7&#45;&gt;6 -->
<g id="edge5" class="edge">
<title>7&#45;&gt;6</title>
<path fill="none" stroke="black" d="M456.14,-41.35C551.09,-38.01 766.12,-30.46 878.49,-26.51"/>
<polygon fill="black" stroke="black" points="878.83,-30 888.71,-26.15 878.59,-23 878.83,-30"/>
</g>
<!-- 2 -->
<g id="node5" class="node">
<title>2</title>
<ellipse fill="none" stroke="black" cx="760.22" cy="-124" rx="27" ry="18"/>
<text text-anchor="middle" x="760.22" y="-120.3" font-family="Times,serif" font-size="14.00">A/B</text>
</g>
<!-- 11 -->
<g id="node6" class="node">
<title>11</title>
<ellipse fill="none" stroke="black" cx="1161.74" cy="-78" rx="97.48" ry="18"/>
<text text-anchor="middle" x="1161.74" y="-74.3" font-family="Times,serif" font-size="14.00">A/B+(/AC+/A/C)D+AB</text>
</g>
<!-- 2&#45;&gt;11 -->
<g id="edge6" class="edge">
<title>2&#45;&gt;11</title>
<path fill="none" stroke="black" d="M787.49,-123.26C835.5,-121.67 940.53,-117.01 1028.25,-105 1048.54,-102.22 1070.4,-98.2 1090.39,-94.11"/>
<polygon fill="black" stroke="black" points="1091.27,-97.5 1100.34,-92.03 1089.84,-90.65 1091.27,-97.5"/>
</g>
<!-- 12 -->
<g id="node10" class="node">
<title>12</title>
<ellipse fill="none" stroke="black" cx="1449.92" cy="-55" rx="154.87" ry="18"/>
<text text-anchor="middle" x="1449.92" y="-51.3" font-family="Times,serif" font-size="14.00">(/AC+/A/C)/D+A/B+(/AC+/A/C)D+AB</text>
</g>
<!-- 11&#45;&gt;12 -->
<g id="edge7" class="edge">
<title>11&#45;&gt;12</title>
<path fill="none" stroke="black" d="M1251.33,-70.88C1270.59,-69.33 1291.39,-67.66 1312.02,-66"/>
<polygon fill="black" stroke="black" points="1312.44,-69.48 1322.13,-65.19 1311.88,-62.5 1312.44,-69.48"/>
</g>
<!-- 3 -->
<g id="node7" class="node">
<title>3</title>
<ellipse fill="none" stroke="black" cx="207" cy="-60" rx="27" ry="18"/>
<text text-anchor="middle" x="207" y="-56.3" font-family="Times,serif" font-size="14.00">/A</text>
</g>
<!-- 3&#45;&gt;1 -->
<g id="edge8" class="edge">
<title>3&#45;&gt;1</title>
<path fill="none" stroke="black" d="M229.3,-49.83C240.14,-44.66 253.51,-38.28 265.42,-32.59"/>
<polygon fill="black" stroke="black" points="267.07,-35.69 274.59,-28.22 264.06,-29.37 267.07,-35.69"/>
</g>
<!-- 3&#45;&gt;7 -->
<g id="edge9" class="edge">
<title>3&#45;&gt;7</title>
<path fill="none" stroke="black" d="M234.03,-57.78C263.54,-55.26 312.53,-51.07 350.87,-47.8"/>
<polygon fill="black" stroke="black" points="351.2,-51.29 360.87,-46.95 350.61,-44.31 351.2,-51.29"/>
</g>
<!-- 5&#45;&gt;11 -->
<g id="edge10" class="edge">
<title>5&#45;&gt;11</title>
<path fill="none" stroke="black" d="M1028.48,-78C1036.77,-78 1045.3,-78 1053.86,-78"/>
<polygon fill="black" stroke="black" points="1053.9,-81.5 1063.9,-78 1053.9,-74.5 1053.9,-81.5"/>
</g>
<!-- 6&#45;&gt;12 -->
<g id="edge11" class="edge">
<title>6&#45;&gt;12</title>
<path fill="none" stroke="black" d="M1012.35,-27.77C1084.06,-32.24 1206.08,-39.85 1302.92,-45.89"/>
<polygon fill="black" stroke="black" points="1302.91,-49.4 1313.11,-46.53 1303.34,-42.41 1302.91,-49.4"/>
</g>
<!-- 8 -->
<g id="node11" class="node">
<title>8</title>
<ellipse fill="none" stroke="black" cx="408.1" cy="-106" rx="27" ry="18"/>
<text text-anchor="middle" x="408.1" y="-102.3" font-family="Times,serif" font-size="14.00">A</text>
</g>
<!-- 8&#45;&gt;0 -->
<g id="edge12" class="edge">
<title>8&#45;&gt;0</title>
<path fill="none" stroke="black" d="M434.01,-100.38C452.64,-96.17 479,-90.22 503.46,-84.69"/>
<polygon fill="black" stroke="black" points="504.46,-88.06 513.44,-82.44 502.92,-81.23 504.46,-88.06"/>
</g>
<!-- 8&#45;&gt;2 -->
<g id="edge13" class="edge">
<title>8&#45;&gt;2</title>
<path fill="none" stroke="black" d="M435.13,-107.34C496.78,-110.51 651.85,-118.48 722.78,-122.13"/>
<polygon fill="black" stroke="black" points="722.85,-125.63 733.02,-122.65 723.21,-118.64 722.85,-125.63"/>
</g>
<!-- 9 -->
<g id="node12" class="node">
<title>9</title>
<ellipse fill="none" stroke="black" cx="117" cy="-60" rx="27" ry="18"/>
<text text-anchor="middle" x="117" y="-56.3" font-family="Times,serif" font-size="14.00">/A</text>
</g>
<!-- 9&#45;&gt;3 -->
<g id="edge14" class="edge">
<title>9&#45;&gt;3</title>
<path fill="none" stroke="black" d="M144.4,-60C152.39,-60 161.31,-60 169.82,-60"/>
<polygon fill="black" stroke="black" points="169.92,-63.5 179.92,-60 169.92,-56.5 169.92,-63.5"/>
</g>
<!-- 10 -->
<g id="node13" class="node">
<title>10</title>
<ellipse fill="none" stroke="black" cx="27" cy="-83" rx="27" ry="18"/>
<text text-anchor="middle" x="27" y="-79.3" font-family="Times,serif" font-size="14.00">T</text>
</g>
<!-- 10&#45;&gt;8 -->
<g id="edge15" class="edge">
<title>10&#45;&gt;8</title>
<path fill="none" stroke="black" d="M53.94,-84.7C65.05,-85.42 78.16,-86.26 90,-87 191.56,-93.32 311.45,-100.4 370.49,-103.86"/>
<polygon fill="black" stroke="black" points="370.6,-107.37 380.78,-104.46 371.01,-100.39 370.6,-107.37"/>
</g>
<!-- 10&#45;&gt;9 -->
<g id="edge16" class="edge">
<title>10&#45;&gt;9</title>
<path fill="none" stroke="black" d="M52.51,-76.59C61.57,-74.23 72.01,-71.5 81.78,-68.95"/>
<polygon fill="black" stroke="black" points="82.83,-72.29 91.62,-66.37 81.06,-65.51 82.83,-72.29"/>
</g>
</g>
</svg>
