<?xml version="1.0" encoding="UTF-8" standalone="no"?>
<!DOCTYPE svg PUBLIC "-//W3C//DTD SVG 1.1//EN"
 "http://www.w3.org/Graphics/SVG/1.1/DTD/svg11.dtd">
<!-- Generated by graphviz version 2.49.3 (20211023.0002)
 -->
<!-- Title: G Pages: 1 -->
<svg width="254pt" height="548pt"
 viewBox="0.00 0.00 254.00 548.00" xmlns="http://www.w3.org/2000/svg" xmlns:xlink="http://www.w3.org/1999/xlink">
<g id="graph0" class="graph" transform="scale(1 1) rotate(0) translate(4 544)">
<title>G</title>
<polygon fill="white" stroke="transparent" points="-4,4 -4,-544 250,-544 250,4 -4,4"/>
<!-- 0 -->
<g id="node1" class="node">
<title>0</title>
<ellipse fill="none" stroke="black" cx="219" cy="-90" rx="27" ry="18"/>
<text text-anchor="middle" x="219" y="-86.3" font-family="Times,serif" font-size="14.00">0</text>
</g>
<!-- 12 -->
<g id="node13" class="node">
<title>12</title>
<ellipse fill="none" stroke="black" cx="156" cy="-18" rx="27" ry="18"/>
<text text-anchor="middle" x="156" y="-14.3" font-family="Times,serif" font-size="14.00">12</text>
</g>
<!-- 0&#45;&gt;12 -->
<g id="edge1" class="edge">
<title>0&#45;&gt;12</title>
<path fill="none" stroke="black" d="M205.64,-74.15C197.12,-64.69 185.91,-52.24 176.31,-41.56"/>
<polygon fill="black" stroke="black" points="178.63,-38.92 169.34,-33.82 173.43,-43.6 178.63,-38.92"/>
</g>
<!-- 1 -->
<g id="node2" class="node">
<title>1</title>
<ellipse fill="none" stroke="black" cx="38" cy="-162" rx="27" ry="18"/>
<text text-anchor="middle" x="38" y="-158.3" font-family="Times,serif" font-size="14.00">1</text>
</g>
<!-- 4 -->
<g id="node5" class="node">
<title>4</title>
<ellipse fill="none" stroke="black" cx="120" cy="-90" rx="27" ry="18"/>
<text text-anchor="middle" x="120" y="-86.3" font-family="Times,serif" font-size="14.00">4</text>
</g>
<!-- 1&#45;&gt;4 -->
<g id="edge2" class="edge">
<title>1&#45;&gt;4</title>
<path fill="none" stroke="black" d="M54.2,-147.17C66.18,-136.94 82.69,-122.85 96.18,-111.34"/>
<polygon fill="black" stroke="black" points="98.78,-113.72 104.11,-104.56 94.23,-108.39 98.78,-113.72"/>
</g>
<!-- 2 -->
<g id="node3" class="node">
<title>2</title>
<ellipse fill="none" stroke="black" cx="192" cy="-234" rx="27" ry="18"/>
<text text-anchor="middle" x="192" y="-230.3" font-family="Times,serif" font-size="14.00">2</text>
</g>
<!-- 8 -->
<g id="node9" class="node">
<title>8</title>
<ellipse fill="none" stroke="black" cx="120" cy="-162" rx="27" ry="18"/>
<text text-anchor="middle" x="120" y="-158.3" font-family="Times,serif" font-size="14.00">8</text>
</g>
<!-- 2&#45;&gt;8 -->
<g id="edge3" class="edge">
<title>2&#45;&gt;8</title>
<path fill="none" stroke="black" d="M177.43,-218.83C167.25,-208.94 153.48,-195.55 141.97,-184.36"/>
<polygon fill="black" stroke="black" points="144.41,-181.85 134.8,-177.38 139.53,-186.87 144.41,-181.85"/>
</g>
<!-- 3 -->
<g id="node4" class="node">
<title>3</title>
<ellipse fill="none" stroke="black" cx="120" cy="-234" rx="27" ry="18"/>
<text text-anchor="middle" x="120" y="-230.3" font-family="Times,serif" font-size="14.00">3</text>
</g>
<!-- 3&#45;&gt;8 -->
<g id="edge4" class="edge">
<title>3&#45;&gt;8</title>
<path fill="none" stroke="black" d="M120,-215.7C120,-207.98 120,-198.71 120,-190.11"/>
<polygon fill="black" stroke="black" points="123.5,-190.1 120,-180.1 116.5,-190.1 123.5,-190.1"/>
</g>
<!-- 4&#45;&gt;12 -->
<g id="edge5" class="edge">
<title>4&#45;&gt;12</title>
<path fill="none" stroke="black" d="M128.35,-72.76C132.71,-64.28 138.15,-53.71 143.04,-44.2"/>
<polygon fill="black" stroke="black" points="146.23,-45.64 147.7,-35.15 140.01,-42.44 146.23,-45.64"/>
</g>
<!-- 5 -->
<g id="node6" class="node">
<title>5</title>
<ellipse fill="none" stroke="black" cx="137" cy="-378" rx="27" ry="18"/>
<text text-anchor="middle" x="137" y="-374.3" font-family="Times,serif" font-size="14.00">5</text>
</g>
<!-- 5&#45;&gt;3 -->
<g id="edge6" class="edge">
<title>5&#45;&gt;3</title>
<path fill="none" stroke="black" d="M134.95,-359.87C132.05,-335.67 126.73,-291.21 123.28,-262.39"/>
<polygon fill="black" stroke="black" points="126.72,-261.7 122.06,-252.19 119.77,-262.53 126.72,-261.7"/>
</g>
<!-- 6 -->
<g id="node7" class="node">
<title>6</title>
<ellipse fill="none" stroke="black" cx="192" cy="-306" rx="27" ry="18"/>
<text text-anchor="middle" x="192" y="-302.3" font-family="Times,serif" font-size="14.00">6</text>
</g>
<!-- 5&#45;&gt;6 -->
<g id="edge7" class="edge">
<title>5&#45;&gt;6</title>
<path fill="none" stroke="black" d="M148.93,-361.81C156.21,-352.55 165.66,-340.52 173.85,-330.09"/>
<polygon fill="black" stroke="black" points="176.66,-332.18 180.09,-322.16 171.16,-327.86 176.66,-332.18"/>
</g>
<!-- 6&#45;&gt;0 -->
<g id="edge8" class="edge">
<title>6&#45;&gt;0</title>
<path fill="none" stroke="black" d="M205.75,-290.07C213.96,-280.1 223.62,-266.25 228,-252 241.97,-206.56 233.45,-150.57 226.13,-118.01"/>
<polygon fill="black" stroke="black" points="229.44,-116.84 223.72,-107.92 222.63,-118.46 229.44,-116.84"/>
</g>
<!-- 6&#45;&gt;2 -->
<g id="edge9" class="edge">
<title>6&#45;&gt;2</title>
<path fill="none" stroke="black" d="M192,-287.7C192,-279.98 192,-270.71 192,-262.11"/>
<polygon fill="black" stroke="black" points="195.5,-262.1 192,-252.1 188.5,-262.1 195.5,-262.1"/>
</g>
<!-- 7 -->
<g id="node8" class="node">
<title>7</title>
<ellipse fill="none" stroke="black" cx="82" cy="-306" rx="27" ry="18"/>
<text text-anchor="middle" x="82" y="-302.3" font-family="Times,serif" font-size="14.00">7</text>
</g>
<!-- 7&#45;&gt;2 -->
<g id="edge10" class="edge">
<title>7&#45;&gt;2</title>
<path fill="none" stroke="black" d="M101.16,-292.81C118.67,-281.67 144.76,-265.06 164.49,-252.5"/>
<polygon fill="black" stroke="black" points="166.5,-255.37 173.06,-247.05 162.74,-249.47 166.5,-255.37"/>
</g>
<!-- 7&#45;&gt;8 -->
<g id="edge11" class="edge">
<title>7&#45;&gt;8</title>
<path fill="none" stroke="black" d="M79.56,-287.8C77.61,-269.52 76.33,-239.99 84,-216 87.41,-205.35 93.69,-194.9 100.06,-186.12"/>
<polygon fill="black" stroke="black" points="103.02,-188.02 106.36,-177.97 97.48,-183.74 103.02,-188.02"/>
</g>
<!-- 8&#45;&gt;4 -->
<g id="edge12" class="edge">
<title>8&#45;&gt;4</title>
<path fill="none" stroke="black" d="M120,-143.7C120,-135.98 120,-126.71 120,-118.11"/>
<polygon fill="black" stroke="black" points="123.5,-118.1 120,-108.1 116.5,-118.1 123.5,-118.1"/>
</g>
<!-- 9 -->
<g id="node10" class="node">
<title>9</title>
<ellipse fill="none" stroke="black" cx="27" cy="-450" rx="27" ry="18"/>
<text text-anchor="middle" x="27" y="-446.3" font-family="Times,serif" font-size="14.00">9</text>
</g>
<!-- 9&#45;&gt;1 -->
<g id="edge13" class="edge">
<title>9&#45;&gt;1</title>
<path fill="none" stroke="black" d="M27.66,-431.97C29.49,-384.29 34.69,-249.18 36.94,-190.63"/>
<polygon fill="black" stroke="black" points="40.45,-190.43 37.33,-180.31 33.45,-190.16 40.45,-190.43"/>
</g>
<!-- 10 -->
<g id="node11" class="node">
<title>10</title>
<ellipse fill="none" stroke="black" cx="99" cy="-450" rx="27" ry="18"/>
<text text-anchor="middle" x="99" y="-446.3" font-family="Times,serif" font-size="14.00">10</text>
</g>
<!-- 10&#45;&gt;5 -->
<g id="edge14" class="edge">
<title>10&#45;&gt;5</title>
<path fill="none" stroke="black" d="M107.81,-432.76C112.42,-424.28 118.16,-413.71 123.32,-404.2"/>
<polygon fill="black" stroke="black" points="126.54,-405.61 128.23,-395.15 120.39,-402.27 126.54,-405.61"/>
</g>
<!-- 10&#45;&gt;7 -->
<g id="edge15" class="edge">
<title>10&#45;&gt;7</title>
<path fill="none" stroke="black" d="M96.95,-431.87C94.05,-407.67 88.73,-363.21 85.28,-334.39"/>
<polygon fill="black" stroke="black" points="88.72,-333.7 84.06,-324.19 81.77,-334.53 88.72,-333.7"/>
</g>
<!-- 11 -->
<g id="node12" class="node">
<title>11</title>
<ellipse fill="none" stroke="black" cx="63" cy="-522" rx="27" ry="18"/>
<text text-anchor="middle" x="63" y="-518.3" font-family="Times,serif" font-size="14.00">11</text>
</g>
<!-- 11&#45;&gt;9 -->
<g id="edge16" class="edge">
<title>11&#45;&gt;9</title>
<path fill="none" stroke="black" d="M54.65,-504.76C50.29,-496.28 44.85,-485.71 39.96,-476.2"/>
<polygon fill="black" stroke="black" points="42.99,-474.44 35.3,-467.15 36.77,-477.64 42.99,-474.44"/>
</g>
<!-- 11&#45;&gt;10 -->
<g id="edge17" class="edge">
<title>11&#45;&gt;10</title>
<path fill="none" stroke="black" d="M71.35,-504.76C75.71,-496.28 81.15,-485.71 86.04,-476.2"/>
<polygon fill="black" stroke="black" points="89.23,-477.64 90.7,-467.15 83.01,-474.44 89.23,-477.64"/>
</g>
</g>
</svg>
