<?xml version="1.0" encoding="UTF-8" standalone="no"?>
<!DOCTYPE svg PUBLIC "-//W3C//DTD SVG 1.1//EN"
 "http://www.w3.org/Graphics/SVG/1.1/DTD/svg11.dtd">
<!-- Generated by graphviz version 2.49.3 (20211023.0002)
 -->
<!-- Title: G Pages: 1 -->
<svg width="1406pt" height="150pt"
 viewBox="0.00 0.00 1405.92 150.00" xmlns="http://www.w3.org/2000/svg" xmlns:xlink="http://www.w3.org/1999/xlink">
<g id="graph0" class="graph" transform="scale(1 1) rotate(0) translate(4 146)">
<title>G</title>
<polygon fill="white" stroke="transparent" points="-4,4 -4,-146 1401.92,-146 1401.92,4 -4,4"/>
<!-- 0 -->
<g id="node1" class="node">
<title>0</title>
<ellipse fill="none" stroke="black" cx="540.94" cy="-70" rx="77.19" ry="18"/>
<text text-anchor="middle" x="540.94" y="-66.3" font-family="Times,serif" font-size="14.00">(/AC+/A/C)D+AB</text>
</g>
<!-- 4 -->
<g id="node2" class="node">
<title>4</title>
<ellipse fill="none" stroke="black" cx="731.62" cy="-70" rx="77.19" ry="18"/>
<text text-anchor="middle" x="731.62" y="-66.3" font-family="Times,serif" font-size="14.00">(/AC+/A/C)D+AB</text>
</g>
<!-- 0&#45;&gt;4 -->
<g id="edge1" class="edge">
<title>0&#45;&gt;4</title>
<path fill="none" stroke="black" d="M618.41,-70C626.76,-70 635.31,-70 643.77,-70"/>
<polygon fill="black" stroke="black" points="644.04,-73.5 654.04,-70 644.04,-66.5 644.04,-73.5"/>
</g>
<!-- 5 -->
<g id="node8" class="node">
<title>5</title>
<ellipse fill="none" stroke="black" cx="922.31" cy="-78" rx="77.19" ry="18"/>
<text text-anchor="middle" x="922.31" y="-74.3" font-family="Times,serif" font-size="14.00">(/AC+/A/C)D+AB</text>
</g>
<!-- 4&#45;&gt;5 -->
<g id="edge2" class="edge">
<title>4&#45;&gt;5</title>
<path fill="none" stroke="black" d="M808.01,-73.2C817.21,-73.59 826.65,-73.99 835.98,-74.38"/>
<polygon fill="black" stroke="black" points="835.9,-77.88 846.04,-74.81 836.2,-70.89 835.9,-77.88"/>
</g>
<!-- 1 -->
<g id="node3" class="node">
<title>1</title>
<ellipse fill="none" stroke="black" cx="297" cy="-18" rx="27" ry="18"/>
<text text-anchor="middle" x="297" y="-14.3" font-family="Times,serif" font-size="14.00">/AC</text>
</g>
<!-- 7 -->
<g id="node4" class="node">
<title>7</title>
<ellipse fill="none" stroke="black" cx="393.8" cy="-43" rx="33.6" ry="18"/>
<text text-anchor="middle" x="393.8" y="-39.3" font-family="Times,serif" font-size="14.00">/A+/A</text>
</g>
<!-- 1&#45;&gt;7 -->
<g id="edge3" class="edge">
<title>1&#45;&gt;7</title>
<path fill="none" stroke="black" d="M322.41,-24.44C331.81,-26.92 342.79,-29.81 353.25,-32.57"/>
<polygon fill="black" stroke="black" points="352.49,-35.99 363.05,-35.16 354.28,-29.22 352.49,-35.99"/>
</g>
<!-- 7&#45;&gt;0 -->
<g id="edge4" class="edge">
<title>7&#45;&gt;0</title>
<path fill="none" stroke="black" d="M425.93,-48.79C438.85,-51.19 454.39,-54.09 469.79,-56.95"/>
<polygon fill="black" stroke="black" points="469.39,-60.44 479.86,-58.82 470.67,-53.55 469.39,-60.44"/>
</g>
<!-- 6 -->
<g id="node9" class="node">
<title>6</title>
<ellipse fill="none" stroke="black" cx="922.31" cy="-24" rx="62.29" ry="18"/>
<text text-anchor="middle" x="922.31" y="-20.3" font-family="Times,serif" font-size="14.00">(/AC+/A/C)/D</text>
</g>
<!-- 7&#45;&gt;6 -->
<g id="edge5" class="edge">
<title>7&#45;&gt;6</title>
<path fill="none" stroke="black" d="M427.73,-41.81C511.54,-38.79 734.41,-30.74 849.81,-26.58"/>
<polygon fill="black" stroke="black" points="850.09,-30.07 859.96,-26.21 849.84,-23.08 850.09,-30.07"/>
</g>
<!-- 2 -->
<g id="node5" class="node">
<title>2</title>
<ellipse fill="none" stroke="black" cx="731.62" cy="-124" rx="27" ry="18"/>
<text text-anchor="middle" x="731.62" y="-120.3" font-family="Times,serif" font-size="14.00">A/B</text>
</g>
<!-- 11 -->
<g id="node6" class="node">
<title>11</title>
<ellipse fill="none" stroke="black" cx="1118.85" cy="-78" rx="83.39" ry="18"/>
<text text-anchor="middle" x="1118.85" y="-74.3" font-family="Times,serif" font-size="14.00">A+(/AC+/A/C)D+A</text>
</g>
<!-- 2&#45;&gt;11 -->
<g id="edge6" class="edge">
<title>2&#45;&gt;11</title>
<path fill="none" stroke="black" d="M758.92,-123.47C806.97,-122.19 912.08,-118.04 999.65,-105 1017.92,-102.28 1037.55,-98.25 1055.47,-94.13"/>
<polygon fill="black" stroke="black" points="1056.29,-97.54 1065.22,-91.84 1054.69,-90.72 1056.29,-97.54"/>
</g>
<!-- 12 -->
<g id="node10" class="node">
<title>12</title>
<ellipse fill="none" stroke="black" cx="1317.98" cy="-55" rx="79.89" ry="18"/>
<text text-anchor="middle" x="1317.98" y="-51.3" font-family="Times,serif" font-size="14.00">C+/C+/B+C+/C+B</text>
</g>
<!-- 11&#45;&gt;12 -->
<g id="edge7" class="edge">
<title>11&#45;&gt;12</title>
<path fill="none" stroke="black" d="M1192.41,-69.53C1206.77,-67.86 1221.93,-66.09 1236.53,-64.39"/>
<polygon fill="black" stroke="black" points="1237.01,-67.85 1246.54,-63.22 1236.2,-60.9 1237.01,-67.85"/>
</g>
<!-- 3 -->
<g id="node7" class="node">
<title>3</title>
<ellipse fill="none" stroke="black" cx="207" cy="-60" rx="27" ry="18"/>
<text text-anchor="middle" x="207" y="-56.3" font-family="Times,serif" font-size="14.00">/A</text>
</g>
<!-- 3&#45;&gt;1 -->
<g id="edge8" class="edge">
<title>3&#45;&gt;1</title>
<path fill="none" stroke="black" d="M229.3,-49.83C240.14,-44.66 253.51,-38.28 265.42,-32.59"/>
<polygon fill="black" stroke="black" points="267.07,-35.69 274.59,-28.22 264.06,-29.37 267.07,-35.69"/>
</g>
<!-- 3&#45;&gt;7 -->
<g id="edge9" class="edge">
<title>3&#45;&gt;7</title>
<path fill="none" stroke="black" d="M234.08,-57.6C264.24,-54.83 314.31,-50.22 350.15,-46.92"/>
<polygon fill="black" stroke="black" points="350.68,-50.39 360.31,-45.99 350.03,-43.42 350.68,-50.39"/>
</g>
<!-- 5&#45;&gt;11 -->
<g id="edge10" class="edge">
<title>5&#45;&gt;11</title>
<path fill="none" stroke="black" d="M999.92,-78C1008.32,-78 1016.94,-78 1025.52,-78"/>
<polygon fill="black" stroke="black" points="1025.54,-81.5 1035.54,-78 1025.54,-74.5 1025.54,-81.5"/>
</g>
<!-- 6&#45;&gt;12 -->
<g id="edge11" class="edge">
<title>6&#45;&gt;12</title>
<path fill="none" stroke="black" d="M982.67,-28.67C1048.94,-33.89 1156.71,-42.38 1231.92,-48.3"/>
<polygon fill="black" stroke="black" points="1232.07,-51.82 1242.31,-49.12 1232.62,-44.85 1232.07,-51.82"/>
</g>
<!-- 8 -->
<g id="node11" class="node">
<title>8</title>
<ellipse fill="none" stroke="black" cx="393.8" cy="-106" rx="27" ry="18"/>
<text text-anchor="middle" x="393.8" y="-102.3" font-family="Times,serif" font-size="14.00">A</text>
</g>
<!-- 8&#45;&gt;0 -->
<g id="edge12" class="edge">
<title>8&#45;&gt;0</title>
<path fill="none" stroke="black" d="M419.42,-99.89C435.4,-95.93 457.01,-90.57 477.51,-85.48"/>
<polygon fill="black" stroke="black" points="478.59,-88.82 487.46,-83.02 476.91,-82.03 478.59,-88.82"/>
</g>
<!-- 8&#45;&gt;2 -->
<g id="edge13" class="edge">
<title>8&#45;&gt;2</title>
<path fill="none" stroke="black" d="M420.87,-107.4C480.26,-110.58 625.74,-118.38 694.06,-122.04"/>
<polygon fill="black" stroke="black" points="694.16,-125.55 704.34,-122.59 694.54,-118.56 694.16,-125.55"/>
</g>
<!-- 9 -->
<g id="node12" class="node">
<title>9</title>
<ellipse fill="none" stroke="black" cx="117" cy="-60" rx="27" ry="18"/>
<text text-anchor="middle" x="117" y="-56.3" font-family="Times,serif" font-size="14.00">/A</text>
</g>
<!-- 9&#45;&gt;3 -->
<g id="edge14" class="edge">
<title>9&#45;&gt;3</title>
<path fill="none" stroke="black" d="M144.4,-60C152.39,-60 161.31,-60 169.82,-60"/>
<polygon fill="black" stroke="black" points="169.92,-63.5 179.92,-60 169.92,-56.5 169.92,-63.5"/>
</g>
<!-- 10 -->
<g id="node13" class="node">
<title>10</title>
<ellipse fill="none" stroke="black" cx="27" cy="-83" rx="27" ry="18"/>
<text text-anchor="middle" x="27" y="-79.3" font-family="Times,serif" font-size="14.00">T</text>
</g>
<!-- 10&#45;&gt;8 -->
<g id="edge15" class="edge">
<title>10&#45;&gt;8</title>
<path fill="none" stroke="black" d="M53.94,-84.68C65.05,-85.4 78.16,-86.25 90,-87 186.3,-93.13 299.83,-100.21 356.62,-103.75"/>
<polygon fill="black" stroke="black" points="356.68,-107.26 366.87,-104.39 357.11,-100.27 356.68,-107.26"/>
</g>
<!-- 10&#45;&gt;9 -->
<g id="edge16" class="edge">
<title>10&#45;&gt;9</title>
<path fill="none" stroke="black" d="M52.51,-76.59C61.57,-74.23 72.01,-71.5 81.78,-68.95"/>
<polygon fill="black" stroke="black" points="82.83,-72.29 91.62,-66.37 81.06,-65.51 82.83,-72.29"/>
</g>
</g>
</svg>
