<?xml version="1.0" encoding="UTF-8" standalone="no"?>
<!DOCTYPE svg PUBLIC "-//W3C//DTD SVG 1.1//EN"
 "http://www.w3.org/Graphics/SVG/1.1/DTD/svg11.dtd">
<!-- Generated by graphviz version 5.0.0 (20220707.1540)
 -->
<!-- Title: G Pages: 1 -->
<svg width="1707pt" height="189pt"
 viewBox="0.00 0.00 1707.40 188.74" xmlns="http://www.w3.org/2000/svg" xmlns:xlink="http://www.w3.org/1999/xlink">
<g id="graph0" class="graph" transform="scale(1 1) rotate(0) translate(4 184.74)">
<title>G</title>
<polygon fill="white" stroke="transparent" points="-4,4 -4,-184.74 1703.4,-184.74 1703.4,4 -4,4"/>
<!-- 0 -->
<g id="node1" class="node">
<title>0</title>
<ellipse fill="none" stroke="black" cx="585.95" cy="-81.87" rx="84.29" ry="26.74"/>
<text text-anchor="start" x="534.45" y="-85.67" font-family="Times,serif" font-size="14.00">0:</text>
<text text-anchor="middle" x="585.95" y="-70.67" font-family="Times,serif" font-size="14.00">(/AC+/A/C)D+AB</text>
</g>
<!-- 4 -->
<g id="node2" class="node">
<title>4</title>
<ellipse fill="none" stroke="black" cx="790.24" cy="-81.87" rx="84.29" ry="26.74"/>
<text text-anchor="start" x="738.74" y="-85.67" font-family="Times,serif" font-size="14.00">4:</text>
<text text-anchor="middle" x="790.24" y="-70.67" font-family="Times,serif" font-size="14.00">(/AC+/A/C)D+AB</text>
</g>
<!-- 0&#45;&gt;4 -->
<g id="edge1" class="edge">
<title>0&#45;&gt;4</title>
<path fill="none" stroke="black" d="M670.11,-81.87C678.64,-81.87 687.36,-81.87 696,-81.87"/>
<polygon fill="black" stroke="black" points="696.08,-85.37 706.08,-81.87 696.08,-78.37 696.08,-85.37"/>
</g>
<!-- 5 -->
<g id="node8" class="node">
<title>5</title>
<ellipse fill="none" stroke="black" cx="994.53" cy="-98.87" rx="84.29" ry="26.74"/>
<text text-anchor="start" x="943.03" y="-102.67" font-family="Times,serif" font-size="14.00">5:</text>
<text text-anchor="middle" x="994.53" y="-87.67" font-family="Times,serif" font-size="14.00">(/AC+/A/C)D+AB</text>
</g>
<!-- 4&#45;&gt;5 -->
<g id="edge2" class="edge">
<title>4&#45;&gt;5</title>
<path fill="none" stroke="black" d="M871.78,-88.64C881.94,-89.49 892.39,-90.37 902.7,-91.24"/>
<polygon fill="black" stroke="black" points="902.69,-94.75 912.95,-92.1 903.28,-87.77 902.69,-94.75"/>
</g>
<!-- 1 -->
<g id="node3" class="node">
<title>1</title>
<ellipse fill="none" stroke="black" cx="297.58" cy="-26.87" rx="27.65" ry="26.74"/>
<text text-anchor="start" x="286.08" y="-30.67" font-family="Times,serif" font-size="14.00">1:</text>
<text text-anchor="middle" x="297.58" y="-15.67" font-family="Times,serif" font-size="14.00">/AC</text>
</g>
<!-- 7 -->
<g id="node4" class="node">
<title>7</title>
<ellipse fill="none" stroke="black" cx="413.48" cy="-45.87" rx="52.15" ry="26.74"/>
<text text-anchor="start" x="384.48" y="-49.67" font-family="Times,serif" font-size="14.00">7:</text>
<text text-anchor="middle" x="413.48" y="-34.67" font-family="Times,serif" font-size="14.00">/AC+/A/C</text>
</g>
<!-- 1&#45;&gt;7 -->
<g id="edge3" class="edge">
<title>1&#45;&gt;7</title>
<path fill="none" stroke="black" d="M325,-31.28C333.57,-32.71 343.46,-34.36 353.43,-36.02"/>
<polygon fill="black" stroke="black" points="352.95,-39.49 363.39,-37.68 354.1,-32.58 352.95,-39.49"/>
</g>
<!-- 7&#45;&gt;0 -->
<g id="edge4" class="edge">
<title>7&#45;&gt;0</title>
<path fill="none" stroke="black" d="M462.42,-55.99C475.78,-58.82 490.67,-61.96 505.33,-65.06"/>
<polygon fill="black" stroke="black" points="504.92,-68.55 515.43,-67.19 506.36,-61.7 504.92,-68.55"/>
</g>
<!-- 6 -->
<g id="node9" class="node">
<title>6</title>
<ellipse fill="none" stroke="black" cx="994.53" cy="-26.87" rx="67.76" ry="26.74"/>
<text text-anchor="start" x="954.53" y="-30.67" font-family="Times,serif" font-size="14.00">6:</text>
<text text-anchor="middle" x="994.53" y="-15.67" font-family="Times,serif" font-size="14.00">(/AC+/A/C)/D</text>
</g>
<!-- 7&#45;&gt;6 -->
<g id="edge5" class="edge">
<title>7&#45;&gt;6</title>
<path fill="none" stroke="black" d="M465.87,-44.18C567.8,-40.84 796.09,-33.35 916.23,-29.41"/>
<polygon fill="black" stroke="black" points="916.57,-32.9 926.45,-29.07 916.34,-25.9 916.57,-32.9"/>
</g>
<!-- 2 -->
<g id="node5" class="node">
<title>2</title>
<ellipse fill="none" stroke="black" cx="790.24" cy="-153.87" rx="27.65" ry="26.74"/>
<text text-anchor="start" x="778.74" y="-157.67" font-family="Times,serif" font-size="14.00">2:</text>
<text text-anchor="middle" x="790.24" y="-142.67" font-family="Times,serif" font-size="14.00">A/B</text>
</g>
<!-- 11 -->
<g id="node6" class="node">
<title>11</title>
<ellipse fill="none" stroke="black" cx="1220.75" cy="-98.87" rx="106.13" ry="26.74"/>
<text text-anchor="start" x="1153.75" y="-102.67" font-family="Times,serif" font-size="14.00">11:</text>
<text text-anchor="middle" x="1220.75" y="-87.67" font-family="Times,serif" font-size="14.00">A/B+(/AC+/A/C)D+AB</text>
</g>
<!-- 2&#45;&gt;11 -->
<g id="edge6" class="edge">
<title>2&#45;&gt;11</title>
<path fill="none" stroke="black" d="M817.98,-153.74C868.99,-153.12 983.61,-150.01 1078.68,-134.87 1099.06,-131.62 1120.79,-126.79 1140.93,-121.7"/>
<polygon fill="black" stroke="black" points="1141.87,-125.08 1150.68,-119.2 1140.12,-118.3 1141.87,-125.08"/>
</g>
<!-- 12 -->
<g id="node10" class="node">
<title>12</title>
<ellipse fill="none" stroke="black" cx="1531.1" cy="-62.87" rx="168.08" ry="26.74"/>
<text text-anchor="start" x="1420.1" y="-66.67" font-family="Times,serif" font-size="14.00">12:</text>
<text text-anchor="middle" x="1531.1" y="-51.67" font-family="Times,serif" font-size="14.00">(/AC+/A/C)/D+A/B+(/AC+/A/C)D+AB</text>
</g>
<!-- 11&#45;&gt;12 -->
<g id="edge7" class="edge">
<title>11&#45;&gt;12</title>
<path fill="none" stroke="black" d="M1317.62,-87.68C1338.88,-85.2 1361.86,-82.51 1384.59,-79.86"/>
<polygon fill="black" stroke="black" points="1385.14,-83.32 1394.66,-78.68 1384.33,-76.37 1385.14,-83.32"/>
</g>
<!-- 3 -->
<g id="node7" class="node">
<title>3</title>
<ellipse fill="none" stroke="black" cx="207" cy="-72.87" rx="27" ry="26.74"/>
<text text-anchor="start" x="195.91" y="-76.67" font-family="Times,serif" font-size="14.00">3:</text>
<text text-anchor="middle" x="207" y="-61.67" font-family="Times,serif" font-size="14.00">/A</text>
</g>
<!-- 3&#45;&gt;1 -->
<g id="edge8" class="edge">
<title>3&#45;&gt;1</title>
<path fill="none" stroke="black" d="M231.27,-60.78C241.18,-55.64 252.92,-49.54 263.7,-43.95"/>
<polygon fill="black" stroke="black" points="265.58,-46.91 272.84,-39.2 262.36,-40.7 265.58,-46.91"/>
</g>
<!-- 3&#45;&gt;7 -->
<g id="edge9" class="edge">
<title>3&#45;&gt;7</title>
<path fill="none" stroke="black" d="M234.15,-71.44C257.95,-69.95 294.02,-67.22 325.15,-62.87 334.91,-61.51 345.22,-59.77 355.2,-57.93"/>
<polygon fill="black" stroke="black" points="355.87,-61.36 365.05,-56.06 354.57,-54.49 355.87,-61.36"/>
</g>
<!-- 5&#45;&gt;11 -->
<g id="edge10" class="edge">
<title>5&#45;&gt;11</title>
<path fill="none" stroke="black" d="M1078.7,-98.87C1087.12,-98.87 1095.78,-98.87 1104.46,-98.87"/>
<polygon fill="black" stroke="black" points="1104.65,-102.37 1114.65,-98.87 1104.65,-95.37 1104.65,-102.37"/>
</g>
<!-- 6&#45;&gt;12 -->
<g id="edge11" class="edge">
<title>6&#45;&gt;12</title>
<path fill="none" stroke="black" d="M1061.62,-31.32C1137.04,-36.4 1263.21,-44.9 1365.62,-51.79"/>
<polygon fill="black" stroke="black" points="1365.55,-55.3 1375.77,-52.48 1366.02,-48.31 1365.55,-55.3"/>
</g>
<!-- 8 -->
<g id="node11" class="node">
<title>8</title>
<ellipse fill="none" stroke="black" cx="413.48" cy="-127.87" rx="27" ry="26.74"/>
<text text-anchor="start" x="402.39" y="-131.67" font-family="Times,serif" font-size="14.00">8:</text>
<text text-anchor="middle" x="413.48" y="-116.67" font-family="Times,serif" font-size="14.00">A</text>
</g>
<!-- 8&#45;&gt;0 -->
<g id="edge12" class="edge">
<title>8&#45;&gt;0</title>
<path fill="none" stroke="black" d="M439.63,-121.08C458.6,-115.96 485.65,-108.66 511.28,-101.75"/>
<polygon fill="black" stroke="black" points="512.27,-105.11 521.02,-99.12 510.45,-98.35 512.27,-105.11"/>
</g>
<!-- 8&#45;&gt;2 -->
<g id="edge13" class="edge">
<title>8&#45;&gt;2</title>
<path fill="none" stroke="black" d="M440.54,-129.68C505.85,-134.21 676.74,-146.06 752.34,-151.31"/>
<polygon fill="black" stroke="black" points="752.14,-154.8 762.36,-152 752.63,-147.82 752.14,-154.8"/>
</g>
<!-- 9 -->
<g id="node12" class="node">
<title>9</title>
<ellipse fill="none" stroke="black" cx="117" cy="-72.87" rx="27" ry="26.74"/>
<text text-anchor="start" x="105.91" y="-76.67" font-family="Times,serif" font-size="14.00">9:</text>
<text text-anchor="middle" x="117" y="-61.67" font-family="Times,serif" font-size="14.00">/A</text>
</g>
<!-- 9&#45;&gt;3 -->
<g id="edge14" class="edge">
<title>9&#45;&gt;3</title>
<path fill="none" stroke="black" d="M144.4,-72.87C152.39,-72.87 161.31,-72.87 169.82,-72.87"/>
<polygon fill="black" stroke="black" points="169.92,-76.37 179.92,-72.87 169.92,-69.37 169.92,-76.37"/>
</g>
<!-- 10 -->
<g id="node13" class="node">
<title>10</title>
<ellipse fill="none" stroke="black" cx="27" cy="-99.87" rx="27" ry="26.74"/>
<text text-anchor="start" x="15.91" y="-103.67" font-family="Times,serif" font-size="14.00">10:</text>
<text text-anchor="middle" x="27" y="-88.67" font-family="Times,serif" font-size="14.00">T</text>
</g>
<!-- 10&#45;&gt;8 -->
<g id="edge15" class="edge">
<title>10&#45;&gt;8</title>
<path fill="none" stroke="black" d="M53.88,-104.13C64.98,-105.83 78.1,-107.66 90,-108.87 193.43,-119.4 316.15,-124.64 376,-126.73"/>
<polygon fill="black" stroke="black" points="375.97,-130.24 386.08,-127.08 376.21,-123.24 375.97,-130.24"/>
</g>
<!-- 10&#45;&gt;9 -->
<g id="edge16" class="edge">
<title>10&#45;&gt;9</title>
<path fill="none" stroke="black" d="M52.98,-92.21C61.81,-89.5 71.9,-86.4 81.38,-83.49"/>
<polygon fill="black" stroke="black" points="82.42,-86.83 90.96,-80.55 80.37,-80.14 82.42,-86.83"/>
</g>
</g>
</svg>
