<?xml version="1.0" encoding="UTF-8" standalone="no"?>
<!DOCTYPE svg PUBLIC "-//W3C//DTD SVG 1.1//EN"
 "http://www.w3.org/Graphics/SVG/1.1/DTD/svg11.dtd">
<!-- Generated by graphviz version 5.0.0 (20220707.1540)
 -->
<!-- Title: G Pages: 1 -->
<svg width="1191pt" height="150pt"
 viewBox="0.00 0.00 1190.85 150.00" xmlns="http://www.w3.org/2000/svg" xmlns:xlink="http://www.w3.org/1999/xlink">
<g id="graph0" class="graph" transform="scale(1 1) rotate(0) translate(4 146)">
<title>G</title>
<polygon fill="white" stroke="transparent" points="-4,4 -4,-146 1186.85,-146 1186.85,4 -4,4"/>
<!-- 0 -->
<g id="node1" class="node">
<title>0</title>
<ellipse fill="none" stroke="black" cx="527.29" cy="-70" rx="63.89" ry="18"/>
<text text-anchor="middle" x="527.29" y="-66.3" font-family="Times,serif" font-size="14.00">(/A+/A)D+AB</text>
</g>
<!-- 4 -->
<g id="node2" class="node">
<title>4</title>
<ellipse fill="none" stroke="black" cx="690.68" cy="-70" rx="63.89" ry="18"/>
<text text-anchor="middle" x="690.68" y="-66.3" font-family="Times,serif" font-size="14.00">(/A+/A)D+AB</text>
</g>
<!-- 0&#45;&gt;4 -->
<g id="edge1" class="edge">
<title>0&#45;&gt;4</title>
<path fill="none" stroke="black" d="M591.15,-70C599.45,-70 608.02,-70 616.48,-70"/>
<polygon fill="black" stroke="black" points="616.72,-73.5 626.72,-70 616.72,-66.5 616.72,-73.5"/>
</g>
<!-- 5 -->
<g id="node8" class="node">
<title>5</title>
<ellipse fill="none" stroke="black" cx="854.07" cy="-78" rx="63.89" ry="18"/>
<text text-anchor="middle" x="854.07" y="-74.3" font-family="Times,serif" font-size="14.00">(/A+/A)D+AB</text>
</g>
<!-- 4&#45;&gt;5 -->
<g id="edge2" class="edge">
<title>4&#45;&gt;5</title>
<path fill="none" stroke="black" d="M753.61,-73.07C762.59,-73.52 771.9,-73.98 781.05,-74.43"/>
<polygon fill="black" stroke="black" points="781.13,-77.94 791.3,-74.94 781.48,-70.95 781.13,-77.94"/>
</g>
<!-- 1 -->
<g id="node3" class="node">
<title>1</title>
<ellipse fill="none" stroke="black" cx="297" cy="-18" rx="27" ry="18"/>
<text text-anchor="middle" x="297" y="-14.3" font-family="Times,serif" font-size="14.00">/AC</text>
</g>
<!-- 7 -->
<g id="node4" class="node">
<title>7</title>
<ellipse fill="none" stroke="black" cx="393.8" cy="-43" rx="33.6" ry="18"/>
<text text-anchor="middle" x="393.8" y="-39.3" font-family="Times,serif" font-size="14.00">/A+/A</text>
</g>
<!-- 1&#45;&gt;7 -->
<g id="edge3" class="edge">
<title>1&#45;&gt;7</title>
<path fill="none" stroke="black" d="M322.41,-24.44C331.81,-26.92 342.79,-29.81 353.25,-32.57"/>
<polygon fill="black" stroke="black" points="352.49,-35.99 363.05,-35.16 354.28,-29.22 352.49,-35.99"/>
</g>
<!-- 7&#45;&gt;0 -->
<g id="edge4" class="edge">
<title>7&#45;&gt;0</title>
<path fill="none" stroke="black" d="M425.63,-49.33C437.54,-51.78 451.6,-54.66 465.38,-57.49"/>
<polygon fill="black" stroke="black" points="464.83,-60.95 475.33,-59.54 466.24,-54.1 464.83,-60.95"/>
</g>
<!-- 6 -->
<g id="node9" class="node">
<title>6</title>
<ellipse fill="none" stroke="black" cx="854.07" cy="-24" rx="48.19" ry="18"/>
<text text-anchor="middle" x="854.07" y="-20.3" font-family="Times,serif" font-size="14.00">(/A+/A)/D</text>
</g>
<!-- 7&#45;&gt;6 -->
<g id="edge5" class="edge">
<title>7&#45;&gt;6</title>
<path fill="none" stroke="black" d="M427.75,-41.63C505.08,-38.43 698.92,-30.39 795.91,-26.37"/>
<polygon fill="black" stroke="black" points="796.27,-29.86 806.12,-25.95 795.98,-22.86 796.27,-29.86"/>
</g>
<!-- 2 -->
<g id="node5" class="node">
<title>2</title>
<ellipse fill="none" stroke="black" cx="690.68" cy="-124" rx="27" ry="18"/>
<text text-anchor="middle" x="690.68" y="-120.3" font-family="Times,serif" font-size="14.00">A/B</text>
</g>
<!-- 11 -->
<g id="node6" class="node">
<title>11</title>
<ellipse fill="none" stroke="black" cx="1023.3" cy="-78" rx="69.59" ry="18"/>
<text text-anchor="middle" x="1023.3" y="-74.3" font-family="Times,serif" font-size="14.00">A+(/A+/A)D+A</text>
</g>
<!-- 2&#45;&gt;11 -->
<g id="edge6" class="edge">
<title>2&#45;&gt;11</title>
<path fill="none" stroke="black" d="M717.97,-123.23C760.31,-121.67 846.11,-117.17 917.76,-105 933.83,-102.27 951.04,-98.28 966.77,-94.2"/>
<polygon fill="black" stroke="black" points="968.1,-97.47 976.86,-91.52 966.3,-90.7 968.1,-97.47"/>
</g>
<!-- 12 -->
<g id="node10" class="node">
<title>12</title>
<ellipse fill="none" stroke="black" cx="1155.85" cy="-55" rx="27" ry="18"/>
<text text-anchor="middle" x="1155.85" y="-51.3" font-family="Times,serif" font-size="14.00">T</text>
</g>
<!-- 11&#45;&gt;12 -->
<g id="edge7" class="edge">
<title>11&#45;&gt;12</title>
<path fill="none" stroke="black" d="M1081.18,-67.98C1094.26,-65.68 1107.79,-63.29 1119.63,-61.21"/>
<polygon fill="black" stroke="black" points="1120.3,-64.64 1129.54,-59.46 1119.09,-57.75 1120.3,-64.64"/>
</g>
<!-- 3 -->
<g id="node7" class="node">
<title>3</title>
<ellipse fill="none" stroke="black" cx="207" cy="-60" rx="27" ry="18"/>
<text text-anchor="middle" x="207" y="-56.3" font-family="Times,serif" font-size="14.00">/A</text>
</g>
<!-- 3&#45;&gt;1 -->
<g id="edge8" class="edge">
<title>3&#45;&gt;1</title>
<path fill="none" stroke="black" d="M229.3,-49.83C240.14,-44.66 253.51,-38.28 265.42,-32.59"/>
<polygon fill="black" stroke="black" points="267.07,-35.69 274.59,-28.22 264.06,-29.37 267.07,-35.69"/>
</g>
<!-- 3&#45;&gt;7 -->
<g id="edge9" class="edge">
<title>3&#45;&gt;7</title>
<path fill="none" stroke="black" d="M234.08,-57.6C264.24,-54.83 314.31,-50.22 350.15,-46.92"/>
<polygon fill="black" stroke="black" points="350.68,-50.39 360.31,-45.99 350.03,-43.42 350.68,-50.39"/>
</g>
<!-- 5&#45;&gt;11 -->
<g id="edge10" class="edge">
<title>5&#45;&gt;11</title>
<path fill="none" stroke="black" d="M917.81,-78C926.21,-78 934.9,-78 943.53,-78"/>
<polygon fill="black" stroke="black" points="943.6,-81.5 953.6,-78 943.6,-74.5 943.6,-81.5"/>
</g>
<!-- 6&#45;&gt;12 -->
<g id="edge11" class="edge">
<title>6&#45;&gt;12</title>
<path fill="none" stroke="black" d="M900.6,-28.71C960.33,-34.89 1063.96,-45.6 1118.65,-51.26"/>
<polygon fill="black" stroke="black" points="1118.6,-54.77 1128.91,-52.32 1119.32,-47.81 1118.6,-54.77"/>
</g>
<!-- 8 -->
<g id="node11" class="node">
<title>8</title>
<ellipse fill="none" stroke="black" cx="393.8" cy="-106" rx="27" ry="18"/>
<text text-anchor="middle" x="393.8" y="-102.3" font-family="Times,serif" font-size="14.00">A</text>
</g>
<!-- 8&#45;&gt;0 -->
<g id="edge12" class="edge">
<title>8&#45;&gt;0</title>
<path fill="none" stroke="black" d="M419.22,-99.31C433.89,-95.3 453.17,-90.02 471.33,-85.05"/>
<polygon fill="black" stroke="black" points="472.25,-88.42 480.98,-82.41 470.41,-81.67 472.25,-88.42"/>
</g>
<!-- 8&#45;&gt;2 -->
<g id="edge13" class="edge">
<title>8&#45;&gt;2</title>
<path fill="none" stroke="black" d="M420.71,-107.58C473.34,-110.79 592.89,-118.09 653.29,-121.78"/>
<polygon fill="black" stroke="black" points="653.31,-125.29 663.51,-122.4 653.74,-118.3 653.31,-125.29"/>
</g>
<!-- 9 -->
<g id="node12" class="node">
<title>9</title>
<ellipse fill="none" stroke="black" cx="117" cy="-60" rx="27" ry="18"/>
<text text-anchor="middle" x="117" y="-56.3" font-family="Times,serif" font-size="14.00">/A</text>
</g>
<!-- 9&#45;&gt;3 -->
<g id="edge14" class="edge">
<title>9&#45;&gt;3</title>
<path fill="none" stroke="black" d="M144.4,-60C152.39,-60 161.31,-60 169.82,-60"/>
<polygon fill="black" stroke="black" points="169.92,-63.5 179.92,-60 169.92,-56.5 169.92,-63.5"/>
</g>
<!-- 10 -->
<g id="node13" class="node">
<title>10</title>
<ellipse fill="none" stroke="black" cx="27" cy="-83" rx="27" ry="18"/>
<text text-anchor="middle" x="27" y="-79.3" font-family="Times,serif" font-size="14.00">T</text>
</g>
<!-- 10&#45;&gt;8 -->
<g id="edge15" class="edge">
<title>10&#45;&gt;8</title>
<path fill="none" stroke="black" d="M53.94,-84.68C65.05,-85.4 78.16,-86.25 90,-87 186.3,-93.13 299.83,-100.21 356.62,-103.75"/>
<polygon fill="black" stroke="black" points="356.68,-107.26 366.87,-104.39 357.11,-100.27 356.68,-107.26"/>
</g>
<!-- 10&#45;&gt;9 -->
<g id="edge16" class="edge">
<title>10&#45;&gt;9</title>
<path fill="none" stroke="black" d="M52.51,-76.59C61.57,-74.23 72.01,-71.5 81.78,-68.95"/>
<polygon fill="black" stroke="black" points="82.83,-72.29 91.62,-66.37 81.06,-65.51 82.83,-72.29"/>
</g>
</g>
</svg>
