<?xml version="1.0" encoding="UTF-8" standalone="no"?>
<!DOCTYPE svg PUBLIC "-//W3C//DTD SVG 1.1//EN"
 "http://www.w3.org/Graphics/SVG/1.1/DTD/svg11.dtd">
<!-- Generated by graphviz version 5.0.0 (20220707.1540)
 -->
<!-- Title: G Pages: 1 -->
<svg width="872pt" height="150pt"
 viewBox="0.00 0.00 872.00 150.00" xmlns="http://www.w3.org/2000/svg" xmlns:xlink="http://www.w3.org/1999/xlink">
<g id="graph0" class="graph" transform="scale(1 1) rotate(0) translate(4 146)">
<title>G</title>
<polygon fill="white" stroke="transparent" points="-4,4 -4,-146 868,-146 868,4 -4,4"/>
<!-- 0 -->
<g id="node1" class="node">
<title>0</title>
<ellipse fill="none" stroke="black" cx="477" cy="-70" rx="27" ry="18"/>
<text text-anchor="middle" x="477" y="-66.3" font-family="Times,serif" font-size="14.00">0</text>
</g>
<!-- 4 -->
<g id="node2" class="node">
<title>4</title>
<ellipse fill="none" stroke="black" cx="567" cy="-70" rx="27" ry="18"/>
<text text-anchor="middle" x="567" y="-66.3" font-family="Times,serif" font-size="14.00">4</text>
</g>
<!-- 0&#45;&gt;4 -->
<g id="edge1" class="edge">
<title>0&#45;&gt;4</title>
<path fill="none" stroke="black" d="M504.4,-70C512.39,-70 521.31,-70 529.82,-70"/>
<polygon fill="black" stroke="black" points="529.92,-73.5 539.92,-70 529.92,-66.5 529.92,-73.5"/>
</g>
<!-- 5 -->
<g id="node8" class="node">
<title>5</title>
<ellipse fill="none" stroke="black" cx="657" cy="-78" rx="27" ry="18"/>
<text text-anchor="middle" x="657" y="-74.3" font-family="Times,serif" font-size="14.00">5</text>
</g>
<!-- 4&#45;&gt;5 -->
<g id="edge2" class="edge">
<title>4&#45;&gt;5</title>
<path fill="none" stroke="black" d="M593.93,-72.36C602.09,-73.1 611.26,-73.93 619.99,-74.73"/>
<polygon fill="black" stroke="black" points="619.68,-78.21 629.95,-75.63 620.31,-71.24 619.68,-78.21"/>
</g>
<!-- 1 -->
<g id="node3" class="node">
<title>1</title>
<ellipse fill="none" stroke="black" cx="297" cy="-18" rx="27" ry="18"/>
<text text-anchor="middle" x="297" y="-14.3" font-family="Times,serif" font-size="14.00">1</text>
</g>
<!-- 7 -->
<g id="node4" class="node">
<title>7</title>
<ellipse fill="none" stroke="black" cx="387" cy="-43" rx="27" ry="18"/>
<text text-anchor="middle" x="387" y="-39.3" font-family="Times,serif" font-size="14.00">7</text>
</g>
<!-- 1&#45;&gt;7 -->
<g id="edge3" class="edge">
<title>1&#45;&gt;7</title>
<path fill="none" stroke="black" d="M322.05,-24.83C331.36,-27.48 342.18,-30.55 352.25,-33.41"/>
<polygon fill="black" stroke="black" points="351.41,-36.81 361.98,-36.18 353.32,-30.08 351.41,-36.81"/>
</g>
<!-- 7&#45;&gt;0 -->
<g id="edge4" class="edge">
<title>7&#45;&gt;0</title>
<path fill="none" stroke="black" d="M412.05,-50.38C421.44,-53.26 432.36,-56.61 442.5,-59.72"/>
<polygon fill="black" stroke="black" points="441.7,-63.14 452.29,-62.72 443.75,-56.45 441.7,-63.14"/>
</g>
<!-- 6 -->
<g id="node9" class="node">
<title>6</title>
<ellipse fill="none" stroke="black" cx="657" cy="-24" rx="27" ry="18"/>
<text text-anchor="middle" x="657" y="-20.3" font-family="Times,serif" font-size="14.00">6</text>
</g>
<!-- 7&#45;&gt;6 -->
<g id="edge5" class="edge">
<title>7&#45;&gt;6</title>
<path fill="none" stroke="black" d="M414.18,-41.14C462.34,-37.73 565.03,-30.45 619.82,-26.57"/>
<polygon fill="black" stroke="black" points="620.38,-30.03 630.1,-25.84 619.88,-23.05 620.38,-30.03"/>
</g>
<!-- 2 -->
<g id="node5" class="node">
<title>2</title>
<ellipse fill="none" stroke="black" cx="567" cy="-124" rx="27" ry="18"/>
<text text-anchor="middle" x="567" y="-120.3" font-family="Times,serif" font-size="14.00">2</text>
</g>
<!-- 11 -->
<g id="node6" class="node">
<title>11</title>
<ellipse fill="none" stroke="black" cx="747" cy="-78" rx="27" ry="18"/>
<text text-anchor="middle" x="747" y="-74.3" font-family="Times,serif" font-size="14.00">11</text>
</g>
<!-- 2&#45;&gt;11 -->
<g id="edge6" class="edge">
<title>2&#45;&gt;11</title>
<path fill="none" stroke="black" d="M594.21,-121.58C618,-118.95 653.85,-113.88 684,-105 694.67,-101.86 705.93,-97.34 715.89,-92.9"/>
<polygon fill="black" stroke="black" points="717.35,-96.08 724.97,-88.72 714.42,-89.72 717.35,-96.08"/>
</g>
<!-- 12 -->
<g id="node10" class="node">
<title>12</title>
<ellipse fill="none" stroke="black" cx="837" cy="-55" rx="27" ry="18"/>
<text text-anchor="middle" x="837" y="-51.3" font-family="Times,serif" font-size="14.00">12</text>
</g>
<!-- 11&#45;&gt;12 -->
<g id="edge7" class="edge">
<title>11&#45;&gt;12</title>
<path fill="none" stroke="black" d="M772.51,-71.59C781.57,-69.23 792.01,-66.5 801.78,-63.95"/>
<polygon fill="black" stroke="black" points="802.83,-67.29 811.62,-61.37 801.06,-60.51 802.83,-67.29"/>
</g>
<!-- 3 -->
<g id="node7" class="node">
<title>3</title>
<ellipse fill="none" stroke="black" cx="207" cy="-60" rx="27" ry="18"/>
<text text-anchor="middle" x="207" y="-56.3" font-family="Times,serif" font-size="14.00">3</text>
</g>
<!-- 3&#45;&gt;1 -->
<g id="edge8" class="edge">
<title>3&#45;&gt;1</title>
<path fill="none" stroke="black" d="M229.3,-49.83C240.14,-44.66 253.51,-38.28 265.42,-32.59"/>
<polygon fill="black" stroke="black" points="267.07,-35.69 274.59,-28.22 264.06,-29.37 267.07,-35.69"/>
</g>
<!-- 3&#45;&gt;7 -->
<g id="edge9" class="edge">
<title>3&#45;&gt;7</title>
<path fill="none" stroke="black" d="M233.88,-57.53C264.47,-54.61 315.54,-49.73 349.97,-46.44"/>
<polygon fill="black" stroke="black" points="350.46,-49.91 360.09,-45.47 349.8,-42.94 350.46,-49.91"/>
</g>
<!-- 5&#45;&gt;11 -->
<g id="edge10" class="edge">
<title>5&#45;&gt;11</title>
<path fill="none" stroke="black" d="M684.4,-78C692.39,-78 701.31,-78 709.82,-78"/>
<polygon fill="black" stroke="black" points="709.92,-81.5 719.92,-78 709.92,-74.5 709.92,-81.5"/>
</g>
<!-- 6&#45;&gt;12 -->
<g id="edge11" class="edge">
<title>6&#45;&gt;12</title>
<path fill="none" stroke="black" d="M683.5,-28.44C714.17,-33.78 765.82,-42.78 800.4,-48.8"/>
<polygon fill="black" stroke="black" points="800.09,-52.3 810.54,-50.57 801.29,-45.4 800.09,-52.3"/>
</g>
<!-- 8 -->
<g id="node11" class="node">
<title>8</title>
<ellipse fill="none" stroke="black" cx="387" cy="-106" rx="27" ry="18"/>
<text text-anchor="middle" x="387" y="-102.3" font-family="Times,serif" font-size="14.00">8</text>
</g>
<!-- 8&#45;&gt;0 -->
<g id="edge12" class="edge">
<title>8&#45;&gt;0</title>
<path fill="none" stroke="black" d="M410.66,-96.73C420.82,-92.57 432.99,-87.6 444.05,-83.07"/>
<polygon fill="black" stroke="black" points="445.48,-86.27 453.41,-79.24 442.83,-79.79 445.48,-86.27"/>
</g>
<!-- 8&#45;&gt;2 -->
<g id="edge13" class="edge">
<title>8&#45;&gt;2</title>
<path fill="none" stroke="black" d="M413.88,-108.62C444.47,-111.71 495.54,-116.87 529.97,-120.36"/>
<polygon fill="black" stroke="black" points="529.78,-123.86 540.09,-121.38 530.49,-116.89 529.78,-123.86"/>
</g>
<!-- 9 -->
<g id="node12" class="node">
<title>9</title>
<ellipse fill="none" stroke="black" cx="117" cy="-60" rx="27" ry="18"/>
<text text-anchor="middle" x="117" y="-56.3" font-family="Times,serif" font-size="14.00">9</text>
</g>
<!-- 9&#45;&gt;3 -->
<g id="edge14" class="edge">
<title>9&#45;&gt;3</title>
<path fill="none" stroke="black" d="M144.4,-60C152.39,-60 161.31,-60 169.82,-60"/>
<polygon fill="black" stroke="black" points="169.92,-63.5 179.92,-60 169.92,-56.5 169.92,-63.5"/>
</g>
<!-- 10 -->
<g id="node13" class="node">
<title>10</title>
<ellipse fill="none" stroke="black" cx="27" cy="-83" rx="27" ry="18"/>
<text text-anchor="middle" x="27" y="-79.3" font-family="Times,serif" font-size="14.00">10</text>
</g>
<!-- 10&#45;&gt;8 -->
<g id="edge15" class="edge">
<title>10&#45;&gt;8</title>
<path fill="none" stroke="black" d="M53.94,-84.68C65.05,-85.39 78.16,-86.24 90,-87 183.66,-93.03 293.99,-100.1 349.78,-103.68"/>
<polygon fill="black" stroke="black" points="349.66,-107.18 359.87,-104.33 350.11,-100.19 349.66,-107.18"/>
</g>
<!-- 10&#45;&gt;9 -->
<g id="edge16" class="edge">
<title>10&#45;&gt;9</title>
<path fill="none" stroke="black" d="M52.51,-76.59C61.57,-74.23 72.01,-71.5 81.78,-68.95"/>
<polygon fill="black" stroke="black" points="82.83,-72.29 91.62,-66.37 81.06,-65.51 82.83,-72.29"/>
</g>
</g>
</svg>
