<?xml version="1.0" encoding="UTF-8" standalone="no"?>
<!DOCTYPE svg PUBLIC "-//W3C//DTD SVG 1.1//EN"
 "http://www.w3.org/Graphics/SVG/1.1/DTD/svg11.dtd">
<!-- Generated by graphviz version 5.0.0 (20220707.1540)
 -->
<!-- Title: G Pages: 1 -->
<svg width="1605pt" height="254pt"
 viewBox="0.00 0.00 1605.44 253.74" xmlns="http://www.w3.org/2000/svg" xmlns:xlink="http://www.w3.org/1999/xlink">
<g id="graph0" class="graph" transform="scale(1 1) rotate(0) translate(4 249.74)">
<title>G</title>
<polygon fill="white" stroke="transparent" points="-4,4 -4,-249.74 1601.44,-249.74 1601.44,4 -4,4"/>
<!-- 0 -->
<g id="node1" class="node">
<title>0</title>
<ellipse fill="none" stroke="black" cx="1033.94" cy="-218.87" rx="42.35" ry="26.74"/>
<text text-anchor="start" x="1011.94" y="-222.67" font-family="Times,serif" font-size="14.00">0:</text>
<text text-anchor="middle" x="1033.94" y="-207.67" font-family="Times,serif" font-size="14.00">/AB/CE</text>
</g>
<!-- 12 -->
<g id="node2" class="node">
<title>12</title>
<ellipse fill="none" stroke="black" cx="1409.35" cy="-155.87" rx="188.18" ry="26.74"/>
<text text-anchor="start" x="1284.35" y="-159.67" font-family="Times,serif" font-size="14.00">12:</text>
<text text-anchor="middle" x="1409.35" y="-144.67" font-family="Times,serif" font-size="14.00">/AB/CE+A+/AB/C/E+/A/BD+/ABC+/A/B/D</text>
</g>
<!-- 0&#45;&gt;12 -->
<g id="edge1" class="edge">
<title>0&#45;&gt;12</title>
<path fill="none" stroke="black" d="M1075.25,-212.07C1123.34,-203.95 1206.16,-189.98 1277.18,-178"/>
<polygon fill="black" stroke="black" points="1277.84,-181.44 1287.12,-176.32 1276.67,-174.54 1277.84,-181.44"/>
</g>
<!-- 1 -->
<g id="node3" class="node">
<title>1</title>
<ellipse fill="none" stroke="black" cx="708.02" cy="-37.87" rx="27" ry="26.74"/>
<text text-anchor="start" x="696.93" y="-41.67" font-family="Times,serif" font-size="14.00">1:</text>
<text text-anchor="middle" x="708.02" y="-26.67" font-family="Times,serif" font-size="14.00">A</text>
</g>
<!-- 4 -->
<g id="node4" class="node">
<title>4</title>
<ellipse fill="none" stroke="black" cx="1033.94" cy="-119.87" rx="151.14" ry="26.74"/>
<text text-anchor="start" x="934.94" y="-123.67" font-family="Times,serif" font-size="14.00">4:</text>
<text text-anchor="middle" x="1033.94" y="-108.67" font-family="Times,serif" font-size="14.00">A+/AB/C/E+/A/BD+/ABC+/A/B/D</text>
</g>
<!-- 1&#45;&gt;4 -->
<g id="edge2" class="edge">
<title>1&#45;&gt;4</title>
<path fill="none" stroke="black" d="M734.44,-44.3C777.46,-55.19 866.74,-77.8 936.5,-95.46"/>
<polygon fill="black" stroke="black" points="935.66,-98.85 946.21,-97.92 937.38,-92.07 935.66,-98.85"/>
</g>
<!-- 4&#45;&gt;12 -->
<g id="edge3" class="edge">
<title>4&#45;&gt;12</title>
<path fill="none" stroke="black" d="M1167.37,-132.64C1191.81,-134.99 1217.61,-137.48 1242.88,-139.92"/>
<polygon fill="black" stroke="black" points="1242.62,-143.41 1252.91,-140.88 1243.29,-136.44 1242.62,-143.41"/>
</g>
<!-- 2 -->
<g id="node5" class="node">
<title>2</title>
<ellipse fill="none" stroke="black" cx="457.06" cy="-191.87" rx="76.24" ry="26.74"/>
<text text-anchor="start" x="411.06" y="-195.67" font-family="Times,serif" font-size="14.00">2:</text>
<text text-anchor="middle" x="457.06" y="-180.67" font-family="Times,serif" font-size="14.00">/AB/C/E+/A/BD</text>
</g>
<!-- 8 -->
<g id="node6" class="node">
<title>8</title>
<ellipse fill="none" stroke="black" cx="708.02" cy="-119.87" rx="138.69" ry="26.74"/>
<text text-anchor="start" x="618.02" y="-123.67" font-family="Times,serif" font-size="14.00">8:</text>
<text text-anchor="middle" x="708.02" y="-108.67" font-family="Times,serif" font-size="14.00">/AB/C/E+/A/BD+/ABC+/A/B/D</text>
</g>
<!-- 2&#45;&gt;8 -->
<g id="edge4" class="edge">
<title>2&#45;&gt;8</title>
<path fill="none" stroke="black" d="M516.75,-174.9C547.49,-166.01 585.76,-154.94 619.89,-145.07"/>
<polygon fill="black" stroke="black" points="621.23,-148.32 629.87,-142.18 619.29,-141.6 621.23,-148.32"/>
</g>
<!-- 8&#45;&gt;4 -->
<g id="edge5" class="edge">
<title>8&#45;&gt;4</title>
<path fill="none" stroke="black" d="M846.86,-119.87C855.34,-119.87 863.91,-119.87 872.47,-119.87"/>
<polygon fill="black" stroke="black" points="872.51,-123.37 882.51,-119.87 872.51,-116.37 872.51,-123.37"/>
</g>
<!-- 3 -->
<g id="node7" class="node">
<title>3</title>
<ellipse fill="none" stroke="black" cx="457.06" cy="-119.87" rx="33.88" ry="26.74"/>
<text text-anchor="start" x="441.06" y="-123.67" font-family="Times,serif" font-size="14.00">3:</text>
<text text-anchor="middle" x="457.06" y="-108.67" font-family="Times,serif" font-size="14.00">/ABC</text>
</g>
<!-- 3&#45;&gt;8 -->
<g id="edge6" class="edge">
<title>3&#45;&gt;8</title>
<path fill="none" stroke="black" d="M491.12,-119.87C509.4,-119.87 533.53,-119.87 559.03,-119.87"/>
<polygon fill="black" stroke="black" points="559.24,-123.37 569.24,-119.87 559.24,-116.37 559.24,-123.37"/>
</g>
<!-- 5 -->
<g id="node8" class="node">
<title>5</title>
<ellipse fill="none" stroke="black" cx="207.58" cy="-136.87" rx="27.65" ry="26.74"/>
<text text-anchor="start" x="196.08" y="-140.67" font-family="Times,serif" font-size="14.00">5:</text>
<text text-anchor="middle" x="207.58" y="-125.67" font-family="Times,serif" font-size="14.00">/AB</text>
</g>
<!-- 5&#45;&gt;3 -->
<g id="edge7" class="edge">
<title>5&#45;&gt;3</title>
<path fill="none" stroke="black" d="M235.53,-135.02C278.2,-132.09 361.66,-126.35 412.78,-122.84"/>
<polygon fill="black" stroke="black" points="413.13,-126.33 422.86,-122.15 412.65,-119.34 413.13,-126.33"/>
</g>
<!-- 6 -->
<g id="node9" class="node">
<title>6</title>
<ellipse fill="none" stroke="black" cx="307.92" cy="-191.87" rx="36.54" ry="26.74"/>
<text text-anchor="start" x="289.92" y="-195.67" font-family="Times,serif" font-size="14.00">6:</text>
<text text-anchor="middle" x="307.92" y="-180.67" font-family="Times,serif" font-size="14.00">/AB/C</text>
</g>
<!-- 5&#45;&gt;6 -->
<g id="edge8" class="edge">
<title>5&#45;&gt;6</title>
<path fill="none" stroke="black" d="M231.88,-149.9C243.04,-156.14 256.67,-163.77 269.24,-170.8"/>
<polygon fill="black" stroke="black" points="267.72,-173.96 278.16,-175.78 271.14,-167.85 267.72,-173.96"/>
</g>
<!-- 6&#45;&gt;0 -->
<g id="edge9" class="edge">
<title>6&#45;&gt;0</title>
<path fill="none" stroke="black" d="M336.06,-209.24C349.03,-216.54 365.09,-224.18 380.69,-227.87 446.75,-243.51 465.55,-228.48 533.43,-227.87 697.11,-226.4 890.93,-222.2 981.49,-220.1"/>
<polygon fill="black" stroke="black" points="981.58,-223.6 991.49,-219.87 981.42,-216.6 981.58,-223.6"/>
</g>
<!-- 6&#45;&gt;2 -->
<g id="edge10" class="edge">
<title>6&#45;&gt;2</title>
<path fill="none" stroke="black" d="M344.92,-191.87C352.83,-191.87 361.53,-191.87 370.48,-191.87"/>
<polygon fill="black" stroke="black" points="370.66,-195.37 380.66,-191.87 370.66,-188.37 370.66,-195.37"/>
</g>
<!-- 7 -->
<g id="node10" class="node">
<title>7</title>
<ellipse fill="none" stroke="black" cx="307.92" cy="-81.87" rx="30.31" ry="26.74"/>
<text text-anchor="start" x="294.42" y="-85.67" font-family="Times,serif" font-size="14.00">7:</text>
<text text-anchor="middle" x="307.92" y="-70.67" font-family="Times,serif" font-size="14.00">/A/B</text>
</g>
<!-- 7&#45;&gt;2 -->
<g id="edge11" class="edge">
<title>7&#45;&gt;2</title>
<path fill="none" stroke="black" d="M326.38,-103.67C339.95,-119.59 359.91,-140.93 380.69,-155.87 386.07,-159.74 391.93,-163.37 397.93,-166.73"/>
<polygon fill="black" stroke="black" points="396.31,-169.83 406.78,-171.45 399.6,-163.65 396.31,-169.83"/>
</g>
<!-- 7&#45;&gt;8 -->
<g id="edge12" class="edge">
<title>7&#45;&gt;8</title>
<path fill="none" stroke="black" d="M338.45,-80.3C381.48,-78.43 463.86,-76.42 533.43,-83.87 559.1,-86.62 586.58,-91.43 611.93,-96.66"/>
<polygon fill="black" stroke="black" points="611.39,-100.12 621.9,-98.76 612.84,-93.27 611.39,-100.12"/>
</g>
<!-- 9 -->
<g id="node11" class="node">
<title>9</title>
<ellipse fill="none" stroke="black" cx="117" cy="-26.87" rx="27" ry="26.74"/>
<text text-anchor="start" x="105.91" y="-30.67" font-family="Times,serif" font-size="14.00">9:</text>
<text text-anchor="middle" x="117" y="-15.67" font-family="Times,serif" font-size="14.00">A</text>
</g>
<!-- 9&#45;&gt;1 -->
<g id="edge13" class="edge">
<title>9&#45;&gt;1</title>
<path fill="none" stroke="black" d="M144.07,-27.36C238.34,-29.12 561.67,-35.16 670.75,-37.19"/>
<polygon fill="black" stroke="black" points="670.86,-40.7 680.92,-37.38 670.99,-33.7 670.86,-40.7"/>
</g>
<!-- 10 -->
<g id="node12" class="node">
<title>10</title>
<ellipse fill="none" stroke="black" cx="117" cy="-98.87" rx="27" ry="26.74"/>
<text text-anchor="start" x="105.91" y="-102.67" font-family="Times,serif" font-size="14.00">10:</text>
<text text-anchor="middle" x="117" y="-87.67" font-family="Times,serif" font-size="14.00">/A</text>
</g>
<!-- 10&#45;&gt;5 -->
<g id="edge14" class="edge">
<title>10&#45;&gt;5</title>
<path fill="none" stroke="black" d="M142.2,-109.25C151.6,-113.28 162.52,-117.97 172.67,-122.32"/>
<polygon fill="black" stroke="black" points="171.52,-125.64 182.09,-126.37 174.28,-119.21 171.52,-125.64"/>
</g>
<!-- 10&#45;&gt;7 -->
<g id="edge15" class="edge">
<title>10&#45;&gt;7</title>
<path fill="none" stroke="black" d="M144.27,-96.51C176.11,-93.64 230.07,-88.79 267.05,-85.46"/>
<polygon fill="black" stroke="black" points="267.82,-88.9 277.46,-84.52 267.19,-81.93 267.82,-88.9"/>
</g>
<!-- 11 -->
<g id="node13" class="node">
<title>11</title>
<ellipse fill="none" stroke="black" cx="27" cy="-62.87" rx="27" ry="26.74"/>
<text text-anchor="start" x="15.91" y="-66.67" font-family="Times,serif" font-size="14.00">11:</text>
<text text-anchor="middle" x="27" y="-51.67" font-family="Times,serif" font-size="14.00">T</text>
</g>
<!-- 11&#45;&gt;9 -->
<g id="edge16" class="edge">
<title>11&#45;&gt;9</title>
<path fill="none" stroke="black" d="M52.51,-52.84C61.67,-49.1 72.23,-44.78 82.08,-40.75"/>
<polygon fill="black" stroke="black" points="83.69,-43.87 91.62,-36.84 81.04,-37.39 83.69,-43.87"/>
</g>
<!-- 11&#45;&gt;10 -->
<g id="edge17" class="edge">
<title>11&#45;&gt;10</title>
<path fill="none" stroke="black" d="M52.51,-72.9C61.67,-76.64 72.23,-80.96 82.08,-84.99"/>
<polygon fill="black" stroke="black" points="81.04,-88.35 91.62,-88.9 83.69,-81.87 81.04,-88.35"/>
</g>
</g>
</svg>
