P3
4 4
255
# The part above is the header
# "P3" means this is a RGB color image in ASCII
# "3 2" is the width and height of the image in pixels
# "255" is the maximum value for each color
# The part below is image data: RGB triplets

0 0 0		29 43 83		126 37 83		0 135 81
171 82 54	95 87 79		194 195 199		255 241 232
255 0 77	255 163 0		255 236 39		0 228 54
41 173 255	131 118 156		255 119 168		255 204 170
