<?xml version="1.0" encoding="UTF-8" standalone="no"?>
<!DOCTYPE svg PUBLIC "-//W3C//DTD SVG 1.1//EN"
 "http://www.w3.org/Graphics/SVG/1.1/DTD/svg11.dtd">
<!-- Generated by graphviz version 2.49.3 (20211023.0002)
 -->
<!-- Title: G Pages: 1 -->
<svg width="576pt" height="147pt"
 viewBox="0.00 0.00 576.00 147.13" xmlns="http://www.w3.org/2000/svg" xmlns:xlink="http://www.w3.org/1999/xlink">
<g id="graph0" class="graph" transform="scale(0.58 0.58) rotate(0) translate(4 247.85)">
<title>G</title>
<polygon fill="white" stroke="transparent" points="-4,4 -4,-247.85 982,-247.85 982,4 -4,4"/>
<!-- A -->
<g id="node1" class="node">
<title>A</title>
<polygon fill="red" stroke="black" points="85,-66 0,-66 0,-28 85,-28 85,-66"/>
<text text-anchor="start" x="8" y="-50.8" font-family="Times,serif" font-size="14.00">binaryninja.</text>
<text text-anchor="middle" x="42.5" y="-35.8" font-family="Times,serif" font-size="14.00">open_view()</text>
</g>
<!-- F -->
<g id="node3" class="node">
<title>F</title>
<polygon fill="green" stroke="black" points="316,-66 121,-66 121,-28 316,-28 316,-66"/>
<text text-anchor="start" x="129" y="-50.8" font-family="Times,serif" font-size="14.00">BinaryViewType.</text>
<text text-anchor="middle" x="218.5" y="-35.8" font-family="Times,serif" font-size="14.00">get_view_of_file_with_options()</text>
</g>
<!-- A&#45;&gt;F -->
<g id="edge1" class="edge">
<title>A&#45;&gt;F</title>
<path fill="none" stroke="black" d="M85.18,-47C93.14,-47 101.8,-47 110.76,-47"/>
<polygon fill="black" stroke="black" points="110.98,-50.5 120.98,-47 110.98,-43.5 110.98,-50.5"/>
</g>
<!-- B -->
<g id="node2" class="node">
<title>B</title>
<polygon fill="red" stroke="black" points="257.5,-122 179.5,-122 179.5,-84 257.5,-84 257.5,-122"/>
<text text-anchor="start" x="187.5" y="-106.8" font-family="Times,serif" font-size="14.00">binarynina.</text>
<text text-anchor="middle" x="218.5" y="-91.8" font-family="Times,serif" font-size="14.00">load()</text>
</g>
<!-- C -->
<g id="node5" class="node">
<title>C</title>
<polygon fill="green" stroke="black" points="467.5,-94 354.5,-94 354.5,-56 467.5,-56 467.5,-94"/>
<text text-anchor="start" x="362.5" y="-78.8" font-family="Times,serif" font-size="14.00">BinaryViewType.</text>
<text text-anchor="middle" x="411" y="-63.8" font-family="Times,serif" font-size="14.00">load()</text>
</g>
<!-- B&#45;&gt;C -->
<g id="edge2" class="edge">
<title>B&#45;&gt;C</title>
<path fill="none" stroke="black" d="M257.59,-97.4C282.36,-93.76 315.31,-88.92 344.23,-84.67"/>
<polygon fill="black" stroke="black" points="344.89,-88.11 354.28,-83.19 343.88,-81.18 344.89,-88.11"/>
</g>
<!-- F&#45;&gt;C -->
<g id="edge3" class="edge">
<title>F&#45;&gt;C</title>
<path fill="none" stroke="black" d="M316.15,-61.21C325.65,-62.6 335.13,-64 344.22,-65.33"/>
<polygon fill="black" stroke="black" points="343.89,-68.82 354.29,-66.81 344.9,-61.89 343.89,-68.82"/>
</g>
<!-- E -->
<g id="node4" class="node">
<title>E</title>
<polygon fill="green" stroke="black" points="470,-226 352,-226 352,-188 470,-188 470,-226"/>
<text text-anchor="start" x="360" y="-210.8" font-family="Times,serif" font-size="14.00">BinaryViewType.</text>
<text text-anchor="middle" x="411" y="-195.8" font-family="Times,serif" font-size="14.00">get_view_of_file()</text>
</g>
<!-- J -->
<g id="node8" class="node">
<title>J</title>
<polygon fill="green" stroke="black" points="655.5,-226 542.5,-226 542.5,-188 655.5,-188 655.5,-226"/>
<text text-anchor="start" x="550.5" y="-210.8" font-family="Times,serif" font-size="14.00">BinaryViewType.</text>
<text text-anchor="middle" x="599" y="-195.8" font-family="Times,serif" font-size="14.00">open()</text>
</g>
<!-- E&#45;&gt;J -->
<g id="edge13" class="edge">
<title>E&#45;&gt;J</title>
<path fill="none" stroke="black" d="M470.09,-207C489.78,-207 511.92,-207 532.18,-207"/>
<polygon fill="black" stroke="black" points="532.26,-210.5 542.26,-207 532.26,-203.5 532.26,-210.5"/>
</g>
<!-- Q -->
<g id="node9" class="node">
<title>Q</title>
<polygon fill="cyan" stroke="black" points="832,-226 747,-226 747,-188 832,-188 832,-226"/>
<text text-anchor="start" x="755" y="-210.8" font-family="Times,serif" font-size="14.00">BinaryView.</text>
<text text-anchor="start" x="755" y="-195.8" font-family="Times,serif" font-size="14.00">open()</text>
</g>
<!-- E&#45;&gt;Q -->
<g id="edge12" class="edge">
<title>E&#45;&gt;Q</title>
<path fill="none" stroke="black" d="M466.08,-226.01C479,-229.74 492.86,-233.08 506,-235 587.8,-246.92 610.16,-246.63 692,-235 706.87,-232.89 722.66,-229.02 737.07,-224.83"/>
<polygon fill="black" stroke="black" points="738.23,-228.14 746.79,-221.89 736.2,-221.44 738.23,-228.14"/>
</g>
<!-- U -->
<g id="node12" class="node">
<title>U</title>
<polygon fill="cyan" stroke="black" points="851,-104 728,-104 728,-66 851,-66 851,-104"/>
<text text-anchor="start" x="736" y="-88.8" font-family="Times,serif" font-size="14.00">BinaryView.</text>
<text text-anchor="middle" x="789.5" y="-73.8" font-family="Times,serif" font-size="14.00">get_view_of_type()</text>
</g>
<!-- E&#45;&gt;U -->
<g id="edge14" class="edge">
<title>E&#45;&gt;U</title>
<path fill="none" stroke="black" d="M470,-188.2C537.38,-166.37 648.42,-130.39 719.98,-107.2"/>
<polygon fill="black" stroke="black" points="721.38,-110.43 729.81,-104.02 719.22,-103.77 721.38,-110.43"/>
</g>
<!-- D -->
<g id="node6" class="node">
<title>D</title>
<polygon fill="green" stroke="black" points="692,-94 506,-94 506,-56 692,-56 692,-94"/>
<text text-anchor="start" x="514" y="-78.8" font-family="Times,serif" font-size="14.00">BinaryViewType.</text>
<text text-anchor="middle" x="599" y="-63.8" font-family="Times,serif" font-size="14.00">load_raw_view_with_options()</text>
</g>
<!-- C&#45;&gt;D -->
<g id="edge6" class="edge">
<title>C&#45;&gt;D</title>
<path fill="none" stroke="black" d="M467.55,-75C476.53,-75 486.07,-75 495.74,-75"/>
<polygon fill="black" stroke="black" points="495.85,-78.5 505.85,-75 495.85,-71.5 495.85,-78.5"/>
</g>
<!-- C&#45;&gt;Q -->
<g id="edge7" class="edge">
<title>C&#45;&gt;Q</title>
<path fill="none" stroke="black" d="M466.34,-94.05C538.89,-119.49 666.45,-164.21 737.34,-189.06"/>
<polygon fill="black" stroke="black" points="736.36,-192.43 746.96,-192.43 738.68,-185.82 736.36,-192.43"/>
</g>
<!-- R -->
<g id="node10" class="node">
<title>R</title>
<polygon fill="cyan" stroke="black" points="641.5,-38 556.5,-38 556.5,0 641.5,0 641.5,-38"/>
<text text-anchor="start" x="564.5" y="-22.8" font-family="Times,serif" font-size="14.00">BinaryView.</text>
<text text-anchor="start" x="564.5" y="-7.8" font-family="Times,serif" font-size="14.00">new()</text>
</g>
<!-- C&#45;&gt;R -->
<g id="edge8" class="edge">
<title>C&#45;&gt;R</title>
<path fill="none" stroke="black" d="M467.55,-58.27C492.58,-50.74 521.95,-41.9 546.48,-34.51"/>
<polygon fill="black" stroke="black" points="547.75,-37.78 556.32,-31.55 545.73,-31.08 547.75,-37.78"/>
</g>
<!-- H -->
<g id="node7" class="node">
<title>H</title>
<polygon fill="green" stroke="black" points="846,-165 733,-165 733,-127 846,-127 846,-165"/>
<text text-anchor="start" x="741" y="-149.8" font-family="Times,serif" font-size="14.00">BinaryViewType.</text>
<text text-anchor="middle" x="789.5" y="-134.8" font-family="Times,serif" font-size="14.00">create()</text>
</g>
<!-- D&#45;&gt;H -->
<g id="edge5" class="edge">
<title>D&#45;&gt;H</title>
<path fill="none" stroke="black" d="M650.51,-94.03C674.5,-103.06 703.33,-113.92 728.43,-123.37"/>
<polygon fill="black" stroke="black" points="727.25,-126.67 737.85,-126.92 729.72,-120.12 727.25,-126.67"/>
</g>
<!-- D&#45;&gt;U -->
<g id="edge4" class="edge">
<title>D&#45;&gt;U</title>
<path fill="none" stroke="black" d="M692.04,-79.88C700.68,-80.34 709.34,-80.8 717.74,-81.25"/>
<polygon fill="black" stroke="black" points="717.66,-84.75 727.83,-81.78 718.03,-77.76 717.66,-84.75"/>
</g>
<!-- T -->
<g id="node11" class="node">
<title>T</title>
<polygon fill="cyan" stroke="black" points="978,-165 887,-165 887,-127 978,-127 978,-165"/>
<text text-anchor="start" x="895" y="-149.8" font-family="Times,serif" font-size="14.00">BinaryView.</text>
<text text-anchor="start" x="895" y="-134.8" font-family="Times,serif" font-size="14.00">BinaryView()</text>
</g>
<!-- H&#45;&gt;T -->
<g id="edge9" class="edge">
<title>H&#45;&gt;T</title>
<path fill="none" stroke="black" d="M846.23,-146C856.17,-146 866.52,-146 876.44,-146"/>
<polygon fill="black" stroke="black" points="876.59,-149.5 886.59,-146 876.59,-142.5 876.59,-149.5"/>
</g>
<!-- J&#45;&gt;H -->
<g id="edge11" class="edge">
<title>J&#45;&gt;H</title>
<path fill="none" stroke="black" d="M655.54,-189.03C676.73,-182.17 701.08,-174.29 723.1,-167.16"/>
<polygon fill="black" stroke="black" points="724.27,-170.46 732.71,-164.05 722.12,-163.8 724.27,-170.46"/>
</g>
<!-- J&#45;&gt;Q -->
<g id="edge10" class="edge">
<title>J&#45;&gt;Q</title>
<path fill="none" stroke="black" d="M655.54,-207C681.21,-207 711.53,-207 736.72,-207"/>
<polygon fill="black" stroke="black" points="736.82,-210.5 746.82,-207 736.82,-203.5 736.82,-210.5"/>
</g>
</g>
</svg>
