<?xml version="1.0" encoding="UTF-8" standalone="no"?>
<!DOCTYPE svg PUBLIC "-//W3C//DTD SVG 1.1//EN"
 "http://www.w3.org/Graphics/SVG/1.1/DTD/svg11.dtd">
<!-- Generated by graphviz version 2.49.3 (20211023.0002)
 -->
<!-- Title: G Pages: 1 -->
<svg width="1607pt" height="404pt"
 viewBox="0.00 0.00 1606.98 404.00" xmlns="http://www.w3.org/2000/svg" xmlns:xlink="http://www.w3.org/1999/xlink">
<g id="graph0" class="graph" transform="scale(1 1) rotate(0) translate(4 400)">
<title>G</title>
<polygon fill="white" stroke="transparent" points="-4,4 -4,-400 1602.98,-400 1602.98,4 -4,4"/>
<!-- 0 -->
<g id="node1" class="node">
<title>0</title>
<ellipse fill="none" stroke="black" cx="618.69" cy="-378" rx="40.09" ry="18"/>
<text text-anchor="middle" x="618.69" y="-374.3" font-family="Times,serif" font-size="14.00">BLOCK</text>
</g>
<!-- 1 -->
<g id="node2" class="node">
<title>1</title>
<ellipse fill="none" stroke="black" cx="167.69" cy="-306" rx="94.78" ry="18"/>
<text text-anchor="middle" x="167.69" y="-302.3" font-family="Times,serif" font-size="14.00">VAR_DECLARE &quot;rax&quot;</text>
</g>
<!-- 0&#45;&gt;1 -->
<g id="edge1" class="edge">
<title>0&#45;&gt;1</title>
<path fill="none" stroke="black" d="M581.19,-371.4C517.52,-361.87 384.25,-341.8 271.69,-324 263.57,-322.72 255.1,-321.36 246.65,-320"/>
<polygon fill="black" stroke="black" points="247.19,-316.54 236.76,-318.39 246.07,-323.45 247.19,-316.54"/>
</g>
<!-- 2 -->
<g id="node3" class="node">
<title>2</title>
<ellipse fill="none" stroke="black" cx="322.69" cy="-306" rx="42.49" ry="18"/>
<text text-anchor="middle" x="322.69" y="-302.3" font-family="Times,serif" font-size="14.00">ASSIGN</text>
</g>
<!-- 0&#45;&gt;2 -->
<g id="edge2" class="edge">
<title>0&#45;&gt;2</title>
<path fill="none" stroke="black" d="M583.87,-368.76C530.41,-356.12 428.11,-331.93 368.64,-317.87"/>
<polygon fill="black" stroke="black" points="369.3,-314.43 358.77,-315.53 367.69,-321.24 369.3,-314.43"/>
</g>
<!-- 6 -->
<g id="node7" class="node">
<title>6</title>
<ellipse fill="none" stroke="black" cx="463.69" cy="-306" rx="33.6" ry="18"/>
<text text-anchor="middle" x="463.69" y="-302.3" font-family="Times,serif" font-size="14.00">CALL</text>
</g>
<!-- 0&#45;&gt;6 -->
<g id="edge3" class="edge">
<title>0&#45;&gt;6</title>
<path fill="none" stroke="black" d="M591.34,-364.65C565.37,-352.92 526.24,-335.25 498.16,-322.57"/>
<polygon fill="black" stroke="black" points="499.28,-319.23 488.72,-318.3 496.4,-325.61 499.28,-319.23"/>
</g>
<!-- 8 -->
<g id="node9" class="node">
<title>8</title>
<ellipse fill="none" stroke="black" cx="618.69" cy="-306" rx="103.18" ry="18"/>
<text text-anchor="middle" x="618.69" y="-302.3" font-family="Times,serif" font-size="14.00">VAR_DECLARE &quot;rax_1&quot;</text>
</g>
<!-- 0&#45;&gt;8 -->
<g id="edge4" class="edge">
<title>0&#45;&gt;8</title>
<path fill="none" stroke="black" d="M618.69,-359.7C618.69,-351.98 618.69,-342.71 618.69,-334.11"/>
<polygon fill="black" stroke="black" points="622.19,-334.1 618.69,-324.1 615.19,-334.1 622.19,-334.1"/>
</g>
<!-- 9 -->
<g id="node10" class="node">
<title>9</title>
<ellipse fill="none" stroke="black" cx="767.69" cy="-306" rx="27.9" ry="18"/>
<text text-anchor="middle" x="767.69" y="-302.3" font-family="Times,serif" font-size="14.00">FOR</text>
</g>
<!-- 0&#45;&gt;9 -->
<g id="edge5" class="edge">
<title>0&#45;&gt;9</title>
<path fill="none" stroke="black" d="M645.33,-364.49C670.83,-352.51 709.29,-334.44 736.27,-321.76"/>
<polygon fill="black" stroke="black" points="738.09,-324.78 745.65,-317.36 735.11,-318.44 738.09,-324.78"/>
</g>
<!-- 27 -->
<g id="node28" class="node">
<title>27</title>
<ellipse fill="none" stroke="black" cx="1194.69" cy="-306" rx="42.49" ry="18"/>
<text text-anchor="middle" x="1194.69" y="-302.3" font-family="Times,serif" font-size="14.00">ASSIGN</text>
</g>
<!-- 0&#45;&gt;27 -->
<g id="edge6" class="edge">
<title>0&#45;&gt;27</title>
<path fill="none" stroke="black" d="M657.38,-372.3C758.64,-359.99 1031.46,-326.84 1144.54,-313.1"/>
<polygon fill="black" stroke="black" points="1145.14,-316.55 1154.65,-311.87 1144.3,-309.6 1145.14,-316.55"/>
</g>
<!-- 31 -->
<g id="node32" class="node">
<title>31</title>
<ellipse fill="none" stroke="black" cx="1381.69" cy="-306" rx="27.1" ry="18"/>
<text text-anchor="middle" x="1381.69" y="-302.3" font-family="Times,serif" font-size="14.00">RET</text>
</g>
<!-- 0&#45;&gt;31 -->
<g id="edge7" class="edge">
<title>0&#45;&gt;31</title>
<path fill="none" stroke="black" d="M658.36,-374.2C757.5,-367.08 1024.05,-347.21 1245.69,-324 1279.48,-320.46 1317.87,-315.58 1345.23,-311.96"/>
<polygon fill="black" stroke="black" points="1345.7,-315.43 1355.15,-310.64 1344.77,-308.49 1345.7,-315.43"/>
</g>
<!-- 3 -->
<g id="node4" class="node">
<title>3</title>
<ellipse fill="none" stroke="black" cx="102.69" cy="-234" rx="102.88" ry="18"/>
<text text-anchor="middle" x="102.69" y="-230.3" font-family="Times,serif" font-size="14.00">STRUCT_FIELD (rax+0)</text>
</g>
<!-- 2&#45;&gt;3 -->
<g id="edge8" class="edge">
<title>2&#45;&gt;3</title>
<path fill="none" stroke="black" d="M290.62,-294.21C284.35,-292.13 277.82,-289.98 271.69,-288 234.97,-276.12 193.63,-263.15 161.03,-253.01"/>
<polygon fill="black" stroke="black" points="161.8,-249.59 151.21,-249.96 159.72,-256.27 161.8,-249.59"/>
</g>
<!-- 5 -->
<g id="node6" class="node">
<title>5</title>
<ellipse fill="none" stroke="black" cx="275.69" cy="-234" rx="51.99" ry="18"/>
<text text-anchor="middle" x="275.69" y="-230.3" font-family="Times,serif" font-size="14.00">CONST (0)</text>
</g>
<!-- 2&#45;&gt;5 -->
<g id="edge9" class="edge">
<title>2&#45;&gt;5</title>
<path fill="none" stroke="black" d="M311.55,-288.41C305.96,-280.08 299.05,-269.8 292.8,-260.49"/>
<polygon fill="black" stroke="black" points="295.56,-258.31 287.08,-251.96 289.74,-262.21 295.56,-258.31"/>
</g>
<!-- 4 -->
<g id="node5" class="node">
<title>4</title>
<ellipse fill="none" stroke="black" cx="102.69" cy="-162" rx="50.09" ry="18"/>
<text text-anchor="middle" x="102.69" y="-158.3" font-family="Times,serif" font-size="14.00">VAR &quot;rax&quot;</text>
</g>
<!-- 3&#45;&gt;4 -->
<g id="edge10" class="edge">
<title>3&#45;&gt;4</title>
<path fill="none" stroke="black" d="M102.69,-215.7C102.69,-207.98 102.69,-198.71 102.69,-190.11"/>
<polygon fill="black" stroke="black" points="106.19,-190.1 102.69,-180.1 99.19,-190.1 106.19,-190.1"/>
</g>
<!-- 7 -->
<g id="node8" class="node">
<title>7</title>
<ellipse fill="none" stroke="black" cx="463.69" cy="-234" rx="118.08" ry="18"/>
<text text-anchor="middle" x="463.69" y="-230.3" font-family="Times,serif" font-size="14.00">CONST_PTR (0x100003D38)</text>
</g>
<!-- 6&#45;&gt;7 -->
<g id="edge11" class="edge">
<title>6&#45;&gt;7</title>
<path fill="none" stroke="black" d="M463.69,-287.7C463.69,-279.98 463.69,-270.71 463.69,-262.11"/>
<polygon fill="black" stroke="black" points="467.19,-262.1 463.69,-252.1 460.19,-262.1 467.19,-262.1"/>
</g>
<!-- 10 -->
<g id="node11" class="node">
<title>10</title>
<ellipse fill="none" stroke="black" cx="649.69" cy="-234" rx="50.09" ry="18"/>
<text text-anchor="middle" x="649.69" y="-230.3" font-family="Times,serif" font-size="14.00">VAR_INIT</text>
</g>
<!-- 9&#45;&gt;10 -->
<g id="edge12" class="edge">
<title>9&#45;&gt;10</title>
<path fill="none" stroke="black" d="M747.67,-293.13C730.15,-282.73 704.31,-267.4 683.57,-255.1"/>
<polygon fill="black" stroke="black" points="685.13,-251.95 674.74,-249.86 681.56,-257.97 685.13,-251.95"/>
</g>
<!-- 12 -->
<g id="node13" class="node">
<title>12</title>
<ellipse fill="none" stroke="black" cx="766.69" cy="-234" rx="49.29" ry="18"/>
<text text-anchor="middle" x="766.69" y="-230.3" font-family="Times,serif" font-size="14.00">CMP_SLT</text>
</g>
<!-- 9&#45;&gt;12 -->
<g id="edge13" class="edge">
<title>9&#45;&gt;12</title>
<path fill="none" stroke="black" d="M767.44,-287.7C767.33,-279.98 767.2,-270.71 767.08,-262.11"/>
<polygon fill="black" stroke="black" points="770.58,-262.05 766.94,-252.1 763.58,-262.15 770.58,-262.05"/>
</g>
<!-- 15 -->
<g id="node16" class="node">
<title>15</title>
<ellipse fill="none" stroke="black" cx="876.69" cy="-234" rx="42.49" ry="18"/>
<text text-anchor="middle" x="876.69" y="-230.3" font-family="Times,serif" font-size="14.00">ASSIGN</text>
</g>
<!-- 9&#45;&gt;15 -->
<g id="edge14" class="edge">
<title>9&#45;&gt;15</title>
<path fill="none" stroke="black" d="M786.93,-292.65C803.18,-282.21 826.76,-267.07 845.67,-254.92"/>
<polygon fill="black" stroke="black" points="847.74,-257.75 854.26,-249.4 843.96,-251.86 847.74,-257.75"/>
</g>
<!-- 20 -->
<g id="node21" class="node">
<title>20</title>
<ellipse fill="none" stroke="black" cx="1024.69" cy="-234" rx="40.09" ry="18"/>
<text text-anchor="middle" x="1024.69" y="-230.3" font-family="Times,serif" font-size="14.00">BLOCK</text>
</g>
<!-- 9&#45;&gt;20 -->
<g id="edge15" class="edge">
<title>9&#45;&gt;20</title>
<path fill="none" stroke="black" d="M793.27,-298.03C837.17,-286.08 927.3,-261.53 981.21,-246.84"/>
<polygon fill="black" stroke="black" points="982.43,-250.14 991.16,-244.13 980.59,-243.38 982.43,-250.14"/>
</g>
<!-- 11 -->
<g id="node12" class="node">
<title>11</title>
<ellipse fill="none" stroke="black" cx="460.69" cy="-162" rx="51.99" ry="18"/>
<text text-anchor="middle" x="460.69" y="-158.3" font-family="Times,serif" font-size="14.00">CONST (0)</text>
</g>
<!-- 10&#45;&gt;11 -->
<g id="edge16" class="edge">
<title>10&#45;&gt;11</title>
<path fill="none" stroke="black" d="M615.9,-220.49C584.78,-208.96 538.44,-191.79 504.49,-179.22"/>
<polygon fill="black" stroke="black" points="505.42,-175.83 494.83,-175.64 502.99,-182.4 505.42,-175.83"/>
</g>
<!-- 13 -->
<g id="node14" class="node">
<title>13</title>
<ellipse fill="none" stroke="black" cx="588.69" cy="-162" rx="57.69" ry="18"/>
<text text-anchor="middle" x="588.69" y="-158.3" font-family="Times,serif" font-size="14.00">VAR &quot;var_c&quot;</text>
</g>
<!-- 12&#45;&gt;13 -->
<g id="edge17" class="edge">
<title>12&#45;&gt;13</title>
<path fill="none" stroke="black" d="M734.46,-220.32C705.95,-209.11 664.1,-192.66 632.55,-180.25"/>
<polygon fill="black" stroke="black" points="633.7,-176.94 623.11,-176.54 631.14,-183.45 633.7,-176.94"/>
</g>
<!-- 14 -->
<g id="node15" class="node">
<title>14</title>
<ellipse fill="none" stroke="black" cx="720.69" cy="-162" rx="56.59" ry="18"/>
<text text-anchor="middle" x="720.69" y="-158.3" font-family="Times,serif" font-size="14.00">CONST (10)</text>
</g>
<!-- 12&#45;&gt;14 -->
<g id="edge18" class="edge">
<title>12&#45;&gt;14</title>
<path fill="none" stroke="black" d="M755.79,-216.41C750.31,-208.08 743.56,-197.8 737.44,-188.49"/>
<polygon fill="black" stroke="black" points="740.25,-186.39 731.83,-179.96 734.4,-190.24 740.25,-186.39"/>
</g>
<!-- 16 -->
<g id="node17" class="node">
<title>16</title>
<ellipse fill="none" stroke="black" cx="852.69" cy="-162" rx="57.69" ry="18"/>
<text text-anchor="middle" x="852.69" y="-158.3" font-family="Times,serif" font-size="14.00">VAR &quot;var_c&quot;</text>
</g>
<!-- 15&#45;&gt;16 -->
<g id="edge19" class="edge">
<title>15&#45;&gt;16</title>
<path fill="none" stroke="black" d="M870.88,-216.05C868.18,-208.18 864.9,-198.62 861.88,-189.79"/>
<polygon fill="black" stroke="black" points="865.17,-188.6 858.61,-180.28 858.55,-190.87 865.17,-188.6"/>
</g>
<!-- 17 -->
<g id="node18" class="node">
<title>17</title>
<ellipse fill="none" stroke="black" cx="958.69" cy="-162" rx="29.8" ry="18"/>
<text text-anchor="middle" x="958.69" y="-158.3" font-family="Times,serif" font-size="14.00">ADD</text>
</g>
<!-- 15&#45;&gt;17 -->
<g id="edge20" class="edge">
<title>15&#45;&gt;17</title>
<path fill="none" stroke="black" d="M894.89,-217.46C906.5,-207.55 921.69,-194.59 934.34,-183.79"/>
<polygon fill="black" stroke="black" points="936.88,-186.22 942.21,-177.07 932.34,-180.9 936.88,-186.22"/>
</g>
<!-- 18 -->
<g id="node19" class="node">
<title>18</title>
<ellipse fill="none" stroke="black" cx="738.69" cy="-90" rx="57.69" ry="18"/>
<text text-anchor="middle" x="738.69" y="-86.3" font-family="Times,serif" font-size="14.00">VAR &quot;var_c&quot;</text>
</g>
<!-- 17&#45;&gt;18 -->
<g id="edge21" class="edge">
<title>17&#45;&gt;18</title>
<path fill="none" stroke="black" d="M935.37,-150.27C930.26,-148.07 924.83,-145.86 919.69,-144 877.35,-128.64 828.25,-114.48 791.88,-104.67"/>
<polygon fill="black" stroke="black" points="792.54,-101.23 781.97,-102.02 790.73,-107.99 792.54,-101.23"/>
</g>
<!-- 19 -->
<g id="node20" class="node">
<title>19</title>
<ellipse fill="none" stroke="black" cx="866.69" cy="-90" rx="51.99" ry="18"/>
<text text-anchor="middle" x="866.69" y="-86.3" font-family="Times,serif" font-size="14.00">CONST (1)</text>
</g>
<!-- 17&#45;&gt;19 -->
<g id="edge22" class="edge">
<title>17&#45;&gt;19</title>
<path fill="none" stroke="black" d="M940.95,-147.5C928.12,-137.74 910.5,-124.33 895.64,-113.02"/>
<polygon fill="black" stroke="black" points="897.34,-109.92 887.27,-106.65 893.1,-115.5 897.34,-109.92"/>
</g>
<!-- 21 -->
<g id="node22" class="node">
<title>21</title>
<ellipse fill="none" stroke="black" cx="1048.69" cy="-162" rx="42.49" ry="18"/>
<text text-anchor="middle" x="1048.69" y="-158.3" font-family="Times,serif" font-size="14.00">ASSIGN</text>
</g>
<!-- 20&#45;&gt;21 -->
<g id="edge23" class="edge">
<title>20&#45;&gt;21</title>
<path fill="none" stroke="black" d="M1030.5,-216.05C1033.2,-208.18 1036.48,-198.62 1039.5,-189.79"/>
<polygon fill="black" stroke="black" points="1042.84,-190.87 1042.77,-180.28 1036.21,-188.6 1042.84,-190.87"/>
</g>
<!-- 25 -->
<g id="node26" class="node">
<title>25</title>
<ellipse fill="none" stroke="black" cx="1142.69" cy="-162" rx="33.6" ry="18"/>
<text text-anchor="middle" x="1142.69" y="-158.3" font-family="Times,serif" font-size="14.00">CALL</text>
</g>
<!-- 20&#45;&gt;25 -->
<g id="edge24" class="edge">
<title>20&#45;&gt;25</title>
<path fill="none" stroke="black" d="M1048,-219.17C1066.41,-208.25 1092.24,-192.93 1112.27,-181.05"/>
<polygon fill="black" stroke="black" points="1114.2,-183.97 1121.02,-175.86 1110.63,-177.95 1114.2,-183.97"/>
</g>
<!-- 22 -->
<g id="node23" class="node">
<title>22</title>
<ellipse fill="none" stroke="black" cx="1048.69" cy="-90" rx="111.58" ry="18"/>
<text text-anchor="middle" x="1048.69" y="-86.3" font-family="Times,serif" font-size="14.00">STRUCT_FIELD (rax_1+0)</text>
</g>
<!-- 21&#45;&gt;22 -->
<g id="edge25" class="edge">
<title>21&#45;&gt;22</title>
<path fill="none" stroke="black" d="M1048.69,-143.7C1048.69,-135.98 1048.69,-126.71 1048.69,-118.11"/>
<polygon fill="black" stroke="black" points="1052.19,-118.1 1048.69,-108.1 1045.19,-118.1 1052.19,-118.1"/>
</g>
<!-- 24 -->
<g id="node25" class="node">
<title>24</title>
<ellipse fill="none" stroke="black" cx="1230.69" cy="-90" rx="51.99" ry="18"/>
<text text-anchor="middle" x="1230.69" y="-86.3" font-family="Times,serif" font-size="14.00">CONST (0)</text>
</g>
<!-- 21&#45;&gt;24 -->
<g id="edge26" class="edge">
<title>21&#45;&gt;24</title>
<path fill="none" stroke="black" d="M1079.15,-149.28C1108.9,-137.84 1154.45,-120.32 1187.84,-107.48"/>
<polygon fill="black" stroke="black" points="1189.27,-110.68 1197.35,-103.82 1186.76,-104.15 1189.27,-110.68"/>
</g>
<!-- 23 -->
<g id="node24" class="node">
<title>23</title>
<ellipse fill="none" stroke="black" cx="1048.69" cy="-18" rx="58.49" ry="18"/>
<text text-anchor="middle" x="1048.69" y="-14.3" font-family="Times,serif" font-size="14.00">VAR &quot;rax_1&quot;</text>
</g>
<!-- 22&#45;&gt;23 -->
<g id="edge27" class="edge">
<title>22&#45;&gt;23</title>
<path fill="none" stroke="black" d="M1048.69,-71.7C1048.69,-63.98 1048.69,-54.71 1048.69,-46.11"/>
<polygon fill="black" stroke="black" points="1052.19,-46.1 1048.69,-36.1 1045.19,-46.1 1052.19,-46.1"/>
</g>
<!-- 26 -->
<g id="node27" class="node">
<title>26</title>
<ellipse fill="none" stroke="black" cx="1418.69" cy="-90" rx="118.08" ry="18"/>
<text text-anchor="middle" x="1418.69" y="-86.3" font-family="Times,serif" font-size="14.00">CONST_PTR (0x100003D38)</text>
</g>
<!-- 25&#45;&gt;26 -->
<g id="edge28" class="edge">
<title>25&#45;&gt;26</title>
<path fill="none" stroke="black" d="M1168.38,-150.1C1174.03,-147.92 1180.02,-145.76 1185.69,-144 1235.25,-128.67 1291.98,-115.67 1337.06,-106.38"/>
<polygon fill="black" stroke="black" points="1337.98,-109.76 1347.08,-104.34 1336.58,-102.91 1337.98,-109.76"/>
</g>
<!-- 28 -->
<g id="node29" class="node">
<title>28</title>
<ellipse fill="none" stroke="black" cx="1194.69" cy="-234" rx="111.58" ry="18"/>
<text text-anchor="middle" x="1194.69" y="-230.3" font-family="Times,serif" font-size="14.00">STRUCT_FIELD (rax_1+0)</text>
</g>
<!-- 27&#45;&gt;28 -->
<g id="edge29" class="edge">
<title>27&#45;&gt;28</title>
<path fill="none" stroke="black" d="M1194.69,-287.7C1194.69,-279.98 1194.69,-270.71 1194.69,-262.11"/>
<polygon fill="black" stroke="black" points="1198.19,-262.1 1194.69,-252.1 1191.19,-262.1 1198.19,-262.1"/>
</g>
<!-- 30 -->
<g id="node31" class="node">
<title>30</title>
<ellipse fill="none" stroke="black" cx="1376.69" cy="-234" rx="51.99" ry="18"/>
<text text-anchor="middle" x="1376.69" y="-230.3" font-family="Times,serif" font-size="14.00">CONST (0)</text>
</g>
<!-- 27&#45;&gt;30 -->
<g id="edge30" class="edge">
<title>27&#45;&gt;30</title>
<path fill="none" stroke="black" d="M1225.15,-293.28C1254.9,-281.84 1300.45,-264.32 1333.84,-251.48"/>
<polygon fill="black" stroke="black" points="1335.27,-254.68 1343.35,-247.82 1332.76,-248.15 1335.27,-254.68"/>
</g>
<!-- 29 -->
<g id="node30" class="node">
<title>29</title>
<ellipse fill="none" stroke="black" cx="1252.69" cy="-162" rx="58.49" ry="18"/>
<text text-anchor="middle" x="1252.69" y="-158.3" font-family="Times,serif" font-size="14.00">VAR &quot;rax_1&quot;</text>
</g>
<!-- 28&#45;&gt;29 -->
<g id="edge31" class="edge">
<title>28&#45;&gt;29</title>
<path fill="none" stroke="black" d="M1208.73,-216.05C1215.78,-207.54 1224.46,-197.07 1232.24,-187.68"/>
<polygon fill="black" stroke="black" points="1235.09,-189.72 1238.78,-179.79 1229.7,-185.26 1235.09,-189.72"/>
</g>
<!-- 32 -->
<g id="node33" class="node">
<title>32</title>
<ellipse fill="none" stroke="black" cx="1480.69" cy="-234" rx="33.6" ry="18"/>
<text text-anchor="middle" x="1480.69" y="-230.3" font-family="Times,serif" font-size="14.00">CALL</text>
</g>
<!-- 31&#45;&gt;32 -->
<g id="edge32" class="edge">
<title>31&#45;&gt;32</title>
<path fill="none" stroke="black" d="M1399.85,-292.16C1414.58,-281.74 1435.62,-266.87 1452.53,-254.91"/>
<polygon fill="black" stroke="black" points="1454.81,-257.59 1460.95,-248.96 1450.76,-251.87 1454.81,-257.59"/>
</g>
<!-- 33 -->
<g id="node34" class="node">
<title>33</title>
<ellipse fill="none" stroke="black" cx="1480.69" cy="-162" rx="118.08" ry="18"/>
<text text-anchor="middle" x="1480.69" y="-158.3" font-family="Times,serif" font-size="14.00">CONST_PTR (0x100003D38)</text>
</g>
<!-- 32&#45;&gt;33 -->
<g id="edge33" class="edge">
<title>32&#45;&gt;33</title>
<path fill="none" stroke="black" d="M1480.69,-215.7C1480.69,-207.98 1480.69,-198.71 1480.69,-190.11"/>
<polygon fill="black" stroke="black" points="1484.19,-190.1 1480.69,-180.1 1477.19,-190.1 1484.19,-190.1"/>
</g>
</g>
</svg>
