<?xml version="1.0" encoding="UTF-8" standalone="no"?>
<!DOCTYPE svg PUBLIC "-//W3C//DTD SVG 1.1//EN"
 "http://www.w3.org/Graphics/SVG/1.1/DTD/svg11.dtd">
<!-- Generated by graphviz version 2.49.3 (20211023.0002)
 -->
<!-- Title: G Pages: 1 -->
<svg width="3046pt" height="676pt"
 viewBox="0.00 0.00 3046.00 676.00" xmlns="http://www.w3.org/2000/svg" xmlns:xlink="http://www.w3.org/1999/xlink">
<g id="graph0" class="graph" transform="scale(1 1) rotate(0) translate(4 672)">
<title>G</title>
<polygon fill="white" stroke="transparent" points="-4,4 -4,-672 3042,-672 3042,4 -4,4"/>
<!-- asm -->
<g id="node1" class="node">
<title>asm</title>
<polygon fill="none" stroke="black" points="0,-0.5 0,-667.5 263,-667.5 263,-0.5 0,-0.5"/>
<text text-anchor="start" x="8" y="-652.3" font-family="Times,serif" font-size="14.00">100003A10: push rbp</text>
<polyline fill="none" stroke="black" points="0,-644.5 263,-644.5 "/>
<text text-anchor="start" x="8" y="-629.3" font-family="Times,serif" font-size="14.00">100003A11: mov rbp, rsp</text>
<polyline fill="none" stroke="black" points="0,-621.5 263,-621.5 "/>
<text text-anchor="start" x="8" y="-606.3" font-family="Times,serif" font-size="14.00">100003A14: sub rsp, 0x10</text>
<polyline fill="none" stroke="black" points="0,-598.5 263,-598.5 "/>
<text text-anchor="start" x="8" y="-583.3" font-family="Times,serif" font-size="14.00">100003A18: mov dword [rbp&#45;0x8], 0x0</text>
<polyline fill="none" stroke="black" points="0,-575.5 263,-575.5 "/>
<text text-anchor="start" x="8" y="-560.3" font-family="Times,serif" font-size="14.00">100003A1F: mov dword [rbp&#45;0xc], 0x0</text>
<polyline fill="none" stroke="black" points="0,-552.5 263,-552.5 "/>
<text text-anchor="start" x="8" y="-537.3" font-family="Times,serif" font-size="14.00">100003A26: cmp dword [rbp&#45;0xc], 0x8</text>
<polyline fill="none" stroke="black" points="0,-529.5 263,-529.5 "/>
<text text-anchor="start" x="8" y="-514.3" font-family="Times,serif" font-size="14.00">100003A2A: jge 0x100003a47</text>
<polyline fill="none" stroke="black" points="0,-506.5 263,-506.5 "/>
<text text-anchor="start" x="8" y="-491.3" font-family="Times,serif" font-size="14.00">100003A30: mov eax, dword [rbp&#45;0x8]</text>
<polyline fill="none" stroke="black" points="0,-483.5 263,-483.5 "/>
<text text-anchor="start" x="8" y="-468.3" font-family="Times,serif" font-size="14.00">100003A33: add eax, dword [rbp&#45;0xc]</text>
<polyline fill="none" stroke="black" points="0,-460.5 263,-460.5 "/>
<text text-anchor="start" x="8" y="-445.3" font-family="Times,serif" font-size="14.00">100003A36: mov dword [rbp&#45;0x8], eax</text>
<polyline fill="none" stroke="black" points="0,-437.5 263,-437.5 "/>
<text text-anchor="start" x="8" y="-422.3" font-family="Times,serif" font-size="14.00">100003A39: mov eax, dword [rbp&#45;0xc]</text>
<polyline fill="none" stroke="black" points="0,-414.5 263,-414.5 "/>
<text text-anchor="start" x="8" y="-399.3" font-family="Times,serif" font-size="14.00">100003A3C: add eax, 0x1</text>
<polyline fill="none" stroke="black" points="0,-391.5 263,-391.5 "/>
<text text-anchor="start" x="8" y="-376.3" font-family="Times,serif" font-size="14.00">100003A3F: mov dword [rbp&#45;0xc], eax</text>
<polyline fill="none" stroke="black" points="0,-368.5 263,-368.5 "/>
<text text-anchor="start" x="8" y="-353.3" font-family="Times,serif" font-size="14.00">100003A42: jmp 0x100003a26</text>
<polyline fill="none" stroke="black" points="0,-345.5 263,-345.5 "/>
<text text-anchor="start" x="8" y="-330.3" font-family="Times,serif" font-size="14.00">100003A47: cmp dword [rbp&#45;0x8], 0x14</text>
<polyline fill="none" stroke="black" points="0,-322.5 263,-322.5 "/>
<text text-anchor="start" x="8" y="-307.3" font-family="Times,serif" font-size="14.00">100003A4B: jle 0x100003a6b</text>
<polyline fill="none" stroke="black" points="0,-299.5 263,-299.5 "/>
<text text-anchor="start" x="8" y="-284.3" font-family="Times,serif" font-size="14.00">100003A51: lea rdi, [rel 0x100003e82]</text>
<polyline fill="none" stroke="black" points="0,-276.5 263,-276.5 "/>
<text text-anchor="start" x="8" y="-261.3" font-family="Times,serif" font-size="14.00">100003A58: mov al, 0x0</text>
<polyline fill="none" stroke="black" points="0,-253.5 263,-253.5 "/>
<text text-anchor="start" x="8" y="-238.3" font-family="Times,serif" font-size="14.00">100003A5A: call 0x100003d34</text>
<polyline fill="none" stroke="black" points="0,-230.5 263,-230.5 "/>
<text text-anchor="start" x="8" y="-215.3" font-family="Times,serif" font-size="14.00">100003A5F: mov dword [rbp&#45;0x4], 0x0</text>
<polyline fill="none" stroke="black" points="0,-207.5 263,-207.5 "/>
<text text-anchor="start" x="8" y="-192.3" font-family="Times,serif" font-size="14.00">100003A66: jmp 0x100003a80</text>
<polyline fill="none" stroke="black" points="0,-184.5 263,-184.5 "/>
<text text-anchor="start" x="8" y="-169.3" font-family="Times,serif" font-size="14.00">100003A6B: lea rdi, [rel 0x100003e87]</text>
<polyline fill="none" stroke="black" points="0,-161.5 263,-161.5 "/>
<text text-anchor="start" x="8" y="-146.3" font-family="Times,serif" font-size="14.00">100003A72: mov al, 0x0</text>
<polyline fill="none" stroke="black" points="0,-138.5 263,-138.5 "/>
<text text-anchor="start" x="8" y="-123.3" font-family="Times,serif" font-size="14.00">100003A74: call 0x100003d34</text>
<polyline fill="none" stroke="black" points="0,-115.5 263,-115.5 "/>
<text text-anchor="start" x="8" y="-100.3" font-family="Times,serif" font-size="14.00">100003A79: mov dword [rbp&#45;0x4], 0xffffffff</text>
<polyline fill="none" stroke="black" points="0,-92.5 263,-92.5 "/>
<text text-anchor="start" x="8" y="-77.3" font-family="Times,serif" font-size="14.00">100003A80: mov eax, dword [rbp&#45;0x4]</text>
<polyline fill="none" stroke="black" points="0,-69.5 263,-69.5 "/>
<text text-anchor="start" x="8" y="-54.3" font-family="Times,serif" font-size="14.00">100003A83: add rsp, 0x10</text>
<polyline fill="none" stroke="black" points="0,-46.5 263,-46.5 "/>
<text text-anchor="start" x="8" y="-31.3" font-family="Times,serif" font-size="14.00">100003A87: pop rbp</text>
<polyline fill="none" stroke="black" points="0,-23.5 263,-23.5 "/>
<text text-anchor="start" x="8" y="-8.3" font-family="Times,serif" font-size="14.00">100003A88: retn</text>
</g>
<!-- llil -->
<g id="node2" class="node">
<title>llil</title>
<polygon fill="none" stroke="black" points="839,-0.5 839,-667.5 1318,-667.5 1318,-0.5 839,-0.5"/>
<text text-anchor="start" x="847" y="-652.3" font-family="Times,serif" font-size="14.00">push(rbp)</text>
<polyline fill="none" stroke="black" points="839,-644.5 1318,-644.5 "/>
<text text-anchor="start" x="847" y="-629.3" font-family="Times,serif" font-size="14.00">rbp = rsp {__saved_rbp}</text>
<polyline fill="none" stroke="black" points="839,-621.5 1318,-621.5 "/>
<text text-anchor="start" x="847" y="-606.3" font-family="Times,serif" font-size="14.00">rsp = rsp &#45; 0x10</text>
<polyline fill="none" stroke="black" points="839,-598.5 1318,-598.5 "/>
<text text-anchor="start" x="847" y="-583.3" font-family="Times,serif" font-size="14.00">[rbp &#45; 8 {var_10}].d = 0</text>
<polyline fill="none" stroke="black" points="839,-575.5 1318,-575.5 "/>
<text text-anchor="start" x="847" y="-560.3" font-family="Times,serif" font-size="14.00">[rbp &#45; 0xc {var_14}].d = 0</text>
<polyline fill="none" stroke="black" points="839,-552.5 1318,-552.5 "/>
<text text-anchor="start" x="847" y="-537.3" font-family="Times,serif" font-size="14.00">goto 6 @ 0x100003a2a</text>
<polyline fill="none" stroke="black" points="839,-529.5 1318,-529.5 "/>
<text text-anchor="start" x="847" y="-514.3" font-family="Times,serif" font-size="14.00">if ([rbp &#45; 0xc {var_14}].d s&gt;= 8) then 7 @ 0x100003a4b else 8 @ 0x100003a30</text>
<polyline fill="none" stroke="black" points="839,-506.5 1318,-506.5 "/>
<text text-anchor="start" x="847" y="-491.3" font-family="Times,serif" font-size="14.00">eax = [rbp &#45; 8 {var_10}].d</text>
<polyline fill="none" stroke="black" points="839,-483.5 1318,-483.5 "/>
<text text-anchor="start" x="847" y="-468.3" font-family="Times,serif" font-size="14.00">eax = eax + [rbp &#45; 0xc {var_14}].d</text>
<polyline fill="none" stroke="black" points="839,-460.5 1318,-460.5 "/>
<text text-anchor="start" x="847" y="-445.3" font-family="Times,serif" font-size="14.00">[rbp &#45; 8 {var_10}].d = eax</text>
<polyline fill="none" stroke="black" points="839,-437.5 1318,-437.5 "/>
<text text-anchor="start" x="847" y="-422.3" font-family="Times,serif" font-size="14.00">eax = [rbp &#45; 0xc {var_14}].d</text>
<polyline fill="none" stroke="black" points="839,-414.5 1318,-414.5 "/>
<text text-anchor="start" x="847" y="-399.3" font-family="Times,serif" font-size="14.00">eax = eax + 1</text>
<polyline fill="none" stroke="black" points="839,-391.5 1318,-391.5 "/>
<text text-anchor="start" x="847" y="-376.3" font-family="Times,serif" font-size="14.00">[rbp &#45; 0xc {var_14}].d = eax</text>
<polyline fill="none" stroke="black" points="839,-368.5 1318,-368.5 "/>
<text text-anchor="start" x="847" y="-353.3" font-family="Times,serif" font-size="14.00">goto 6 @ 0x100003a2a</text>
<polyline fill="none" stroke="black" points="839,-345.5 1318,-345.5 "/>
<text text-anchor="start" x="847" y="-330.3" font-family="Times,serif" font-size="14.00">if ([rbp &#45; 8 {var_10}].d s&lt;= 0x14) then 15 @ 0x100003a6b else 20 @ 0x100003a51</text>
<polyline fill="none" stroke="black" points="839,-322.5 1318,-322.5 "/>
<text text-anchor="start" x="847" y="-307.3" font-family="Times,serif" font-size="14.00">rdi = 0x100003e82</text>
<polyline fill="none" stroke="black" points="839,-299.5 1318,-299.5 "/>
<text text-anchor="start" x="847" y="-284.3" font-family="Times,serif" font-size="14.00">al = 0</text>
<polyline fill="none" stroke="black" points="839,-276.5 1318,-276.5 "/>
<text text-anchor="start" x="847" y="-261.3" font-family="Times,serif" font-size="14.00">call(0x100003d34)</text>
<polyline fill="none" stroke="black" points="839,-253.5 1318,-253.5 "/>
<text text-anchor="start" x="847" y="-238.3" font-family="Times,serif" font-size="14.00">[rbp &#45; 4 {var_c}].d = 0</text>
<polyline fill="none" stroke="black" points="839,-230.5 1318,-230.5 "/>
<text text-anchor="start" x="847" y="-215.3" font-family="Times,serif" font-size="14.00">goto 25 @ 0x100003a80</text>
<polyline fill="none" stroke="black" points="839,-207.5 1318,-207.5 "/>
<text text-anchor="start" x="847" y="-192.3" font-family="Times,serif" font-size="14.00">rdi = 0x100003e87</text>
<polyline fill="none" stroke="black" points="839,-184.5 1318,-184.5 "/>
<text text-anchor="start" x="847" y="-169.3" font-family="Times,serif" font-size="14.00">al = 0</text>
<polyline fill="none" stroke="black" points="839,-161.5 1318,-161.5 "/>
<text text-anchor="start" x="847" y="-146.3" font-family="Times,serif" font-size="14.00">call(0x100003d34)</text>
<polyline fill="none" stroke="black" points="839,-138.5 1318,-138.5 "/>
<text text-anchor="start" x="847" y="-123.3" font-family="Times,serif" font-size="14.00">[rbp &#45; 4 {var_c}].d = &#45;1</text>
<polyline fill="none" stroke="black" points="839,-115.5 1318,-115.5 "/>
<text text-anchor="start" x="847" y="-100.3" font-family="Times,serif" font-size="14.00">goto 25 @ 0x100003a80</text>
<polyline fill="none" stroke="black" points="839,-92.5 1318,-92.5 "/>
<text text-anchor="start" x="847" y="-77.3" font-family="Times,serif" font-size="14.00">eax = [rbp &#45; 4 {var_c}].d</text>
<polyline fill="none" stroke="black" points="839,-69.5 1318,-69.5 "/>
<text text-anchor="start" x="847" y="-54.3" font-family="Times,serif" font-size="14.00">rsp = rsp + 0x10</text>
<polyline fill="none" stroke="black" points="839,-46.5 1318,-46.5 "/>
<text text-anchor="start" x="847" y="-31.3" font-family="Times,serif" font-size="14.00">rbp = pop</text>
<polyline fill="none" stroke="black" points="839,-23.5 1318,-23.5 "/>
<text text-anchor="start" x="847" y="-8.3" font-family="Times,serif" font-size="14.00">&lt;return&gt; jump(pop)</text>
</g>
<!-- asm&#45;&gt;llil -->
<g id="edge1" class="edge">
<title>asm:100003A10&#45;&gt;llil:0</title>
<path fill="none" stroke="black" d="M263,-656C515.62,-656 581.28,-656 828.97,-656"/>
<polygon fill="black" stroke="black" points="829,-659.5 839,-656 829,-652.5 829,-659.5"/>
</g>
<!-- asm&#45;&gt;llil -->
<g id="edge2" class="edge">
<title>asm:100003A11&#45;&gt;llil:1</title>
<path fill="none" stroke="black" d="M263,-633C515.62,-633 581.28,-633 828.97,-633"/>
<polygon fill="black" stroke="black" points="829,-636.5 839,-633 829,-629.5 829,-636.5"/>
</g>
<!-- asm&#45;&gt;llil -->
<g id="edge3" class="edge">
<title>asm:100003A14&#45;&gt;llil:2</title>
<path fill="none" stroke="black" d="M263,-610C515.62,-610 581.28,-610 828.97,-610"/>
<polygon fill="black" stroke="black" points="829,-613.5 839,-610 829,-606.5 829,-613.5"/>
</g>
<!-- asm&#45;&gt;llil -->
<g id="edge4" class="edge">
<title>asm:100003A18&#45;&gt;llil:3</title>
<path fill="none" stroke="black" d="M263,-587C515.62,-587 581.28,-587 828.97,-587"/>
<polygon fill="black" stroke="black" points="829,-590.5 839,-587 829,-583.5 829,-590.5"/>
</g>
<!-- asm&#45;&gt;llil -->
<g id="edge5" class="edge">
<title>asm:100003A1F&#45;&gt;llil:4</title>
<path fill="none" stroke="black" d="M263,-564C515.62,-564 581.28,-564 828.97,-564"/>
<polygon fill="black" stroke="black" points="829,-567.5 839,-564 829,-560.5 829,-567.5"/>
</g>
<!-- asm&#45;&gt;llil -->
<g id="edge6" class="edge">
<title>asm:100003A1F&#45;&gt;llil:5</title>
<path fill="none" stroke="black" d="M263,-564C515.83,-564 581.09,-541.6 828.97,-541.01"/>
<polygon fill="black" stroke="black" points="829,-544.51 839,-541 829,-537.51 829,-544.51"/>
</g>
<!-- asm&#45;&gt;llil -->
<g id="edge7" class="edge">
<title>asm:100003A2A&#45;&gt;llil:6</title>
<path fill="none" stroke="black" d="M263,-518C515.62,-518 581.28,-518 828.97,-518"/>
<polygon fill="black" stroke="black" points="829,-521.5 839,-518 829,-514.5 829,-521.5"/>
</g>
<!-- asm&#45;&gt;llil -->
<g id="edge8" class="edge">
<title>asm:100003A30&#45;&gt;llil:8</title>
<path fill="none" stroke="black" d="M263,-495C515.62,-495 581.28,-495 828.97,-495"/>
<polygon fill="black" stroke="black" points="829,-498.5 839,-495 829,-491.5 829,-498.5"/>
</g>
<!-- asm&#45;&gt;llil -->
<g id="edge9" class="edge">
<title>asm:100003A33&#45;&gt;llil:9</title>
<path fill="none" stroke="black" d="M263,-472C515.62,-472 581.28,-472 828.97,-472"/>
<polygon fill="black" stroke="black" points="829,-475.5 839,-472 829,-468.5 829,-475.5"/>
</g>
<!-- asm&#45;&gt;llil -->
<g id="edge10" class="edge">
<title>asm:100003A36&#45;&gt;llil:10</title>
<path fill="none" stroke="black" d="M263,-449C515.62,-449 581.28,-449 828.97,-449"/>
<polygon fill="black" stroke="black" points="829,-452.5 839,-449 829,-445.5 829,-452.5"/>
</g>
<!-- asm&#45;&gt;llil -->
<g id="edge11" class="edge">
<title>asm:100003A39&#45;&gt;llil:11</title>
<path fill="none" stroke="black" d="M263,-426C515.62,-426 581.28,-426 828.97,-426"/>
<polygon fill="black" stroke="black" points="829,-429.5 839,-426 829,-422.5 829,-429.5"/>
</g>
<!-- asm&#45;&gt;llil -->
<g id="edge12" class="edge">
<title>asm:100003A3C&#45;&gt;llil:12</title>
<path fill="none" stroke="black" d="M263,-403C515.62,-403 581.28,-403 828.97,-403"/>
<polygon fill="black" stroke="black" points="829,-406.5 839,-403 829,-399.5 829,-406.5"/>
</g>
<!-- asm&#45;&gt;llil -->
<g id="edge13" class="edge">
<title>asm:100003A3F&#45;&gt;llil:13</title>
<path fill="none" stroke="black" d="M263,-380C515.62,-380 581.28,-380 828.97,-380"/>
<polygon fill="black" stroke="black" points="829,-383.5 839,-380 829,-376.5 829,-383.5"/>
</g>
<!-- asm&#45;&gt;llil -->
<g id="edge14" class="edge">
<title>asm:100003A42&#45;&gt;llil:14</title>
<path fill="none" stroke="black" d="M263,-357C515.62,-357 581.28,-357 828.97,-357"/>
<polygon fill="black" stroke="black" points="829,-360.5 839,-357 829,-353.5 829,-360.5"/>
</g>
<!-- asm&#45;&gt;llil -->
<g id="edge15" class="edge">
<title>asm:100003A4B&#45;&gt;llil:7</title>
<path fill="none" stroke="black" d="M263,-311C515.83,-311 581.09,-333.4 828.97,-333.99"/>
<polygon fill="black" stroke="black" points="829,-337.49 839,-334 829,-330.49 829,-337.49"/>
</g>
<!-- asm&#45;&gt;llil -->
<g id="edge16" class="edge">
<title>asm:100003A51&#45;&gt;llil:20</title>
<path fill="none" stroke="black" d="M263,-288C515.83,-288 581.09,-310.4 828.97,-310.99"/>
<polygon fill="black" stroke="black" points="829,-314.49 839,-311 829,-307.49 829,-314.49"/>
</g>
<!-- asm&#45;&gt;llil -->
<g id="edge17" class="edge">
<title>asm:100003A58&#45;&gt;llil:21</title>
<path fill="none" stroke="black" d="M263,-265C515.83,-265 581.09,-287.4 828.97,-287.99"/>
<polygon fill="black" stroke="black" points="829,-291.49 839,-288 829,-284.49 829,-291.49"/>
</g>
<!-- asm&#45;&gt;llil -->
<g id="edge18" class="edge">
<title>asm:100003A5A&#45;&gt;llil:22</title>
<path fill="none" stroke="black" d="M263,-242C515.83,-242 581.09,-264.4 828.97,-264.99"/>
<polygon fill="black" stroke="black" points="829,-268.49 839,-265 829,-261.49 829,-268.49"/>
</g>
<!-- asm&#45;&gt;llil -->
<g id="edge19" class="edge">
<title>asm:100003A5F&#45;&gt;llil:23</title>
<path fill="none" stroke="black" d="M263,-219C515.83,-219 581.09,-241.4 828.97,-241.99"/>
<polygon fill="black" stroke="black" points="829,-245.49 839,-242 829,-238.49 829,-245.49"/>
</g>
<!-- asm&#45;&gt;llil -->
<g id="edge20" class="edge">
<title>asm:100003A66&#45;&gt;llil:24</title>
<path fill="none" stroke="black" d="M263,-196C515.83,-196 581.09,-218.4 828.97,-218.99"/>
<polygon fill="black" stroke="black" points="829,-222.49 839,-219 829,-215.49 829,-222.49"/>
</g>
<!-- asm&#45;&gt;llil -->
<g id="edge21" class="edge">
<title>asm:100003A6B&#45;&gt;llil:15</title>
<path fill="none" stroke="black" d="M263,-173C515.83,-173 581.09,-195.4 828.97,-195.99"/>
<polygon fill="black" stroke="black" points="829,-199.49 839,-196 829,-192.49 829,-199.49"/>
</g>
<!-- asm&#45;&gt;llil -->
<g id="edge22" class="edge">
<title>asm:100003A72&#45;&gt;llil:16</title>
<path fill="none" stroke="black" d="M263,-150C515.83,-150 581.09,-172.4 828.97,-172.99"/>
<polygon fill="black" stroke="black" points="829,-176.49 839,-173 829,-169.49 829,-176.49"/>
</g>
<!-- asm&#45;&gt;llil -->
<g id="edge23" class="edge">
<title>asm:100003A74&#45;&gt;llil:17</title>
<path fill="none" stroke="black" d="M263,-127C515.83,-127 581.09,-149.4 828.97,-149.99"/>
<polygon fill="black" stroke="black" points="829,-153.49 839,-150 829,-146.49 829,-153.49"/>
</g>
<!-- asm&#45;&gt;llil -->
<g id="edge24" class="edge">
<title>asm:100003A79&#45;&gt;llil:18</title>
<path fill="none" stroke="black" d="M263,-104C515.83,-104 581.09,-126.4 828.97,-126.99"/>
<polygon fill="black" stroke="black" points="829,-130.49 839,-127 829,-123.49 829,-130.49"/>
</g>
<!-- asm&#45;&gt;llil -->
<g id="edge25" class="edge">
<title>asm:100003A79&#45;&gt;llil:19</title>
<path fill="none" stroke="black" d="M263,-104C515.62,-104 581.28,-104 828.97,-104"/>
<polygon fill="black" stroke="black" points="829,-107.5 839,-104 829,-100.5 829,-107.5"/>
</g>
<!-- asm&#45;&gt;llil -->
<g id="edge26" class="edge">
<title>asm:100003A80&#45;&gt;llil:25</title>
<path fill="none" stroke="black" d="M263,-81C515.62,-81 581.28,-81 828.97,-81"/>
<polygon fill="black" stroke="black" points="829,-84.5 839,-81 829,-77.5 829,-84.5"/>
</g>
<!-- asm&#45;&gt;llil -->
<g id="edge27" class="edge">
<title>asm:100003A83&#45;&gt;llil:26</title>
<path fill="none" stroke="black" d="M263,-58C515.62,-58 581.28,-58 828.97,-58"/>
<polygon fill="black" stroke="black" points="829,-61.5 839,-58 829,-54.5 829,-61.5"/>
</g>
<!-- asm&#45;&gt;llil -->
<g id="edge28" class="edge">
<title>asm:100003A87&#45;&gt;llil:27</title>
<path fill="none" stroke="black" d="M263,-35C515.62,-35 581.28,-35 828.97,-35"/>
<polygon fill="black" stroke="black" points="829,-38.5 839,-35 829,-31.5 829,-38.5"/>
</g>
<!-- asm&#45;&gt;llil -->
<g id="edge29" class="edge">
<title>asm:100003A88&#45;&gt;llil:28</title>
<path fill="none" stroke="black" d="M263,-12C515.62,-12 581.28,-12 828.97,-12"/>
<polygon fill="black" stroke="black" points="829,-15.5 839,-12 829,-8.5 829,-15.5"/>
</g>
<!-- mlil -->
<g id="node3" class="node">
<title>mlil</title>
<polygon fill="none" stroke="black" points="1894,-138 1894,-644 2299,-644 2299,-138 1894,-138"/>
<text text-anchor="start" x="1902" y="-628.8" font-family="Times,serif" font-size="14.00">var_10 = 0</text>
<polyline fill="none" stroke="black" points="1894,-621 2299,-621 "/>
<text text-anchor="start" x="1902" y="-605.8" font-family="Times,serif" font-size="14.00">var_14 = 0</text>
<polyline fill="none" stroke="black" points="1894,-598 2299,-598 "/>
<text text-anchor="start" x="1902" y="-582.8" font-family="Times,serif" font-size="14.00">goto 3 @ 0x100003a2a</text>
<polyline fill="none" stroke="black" points="1894,-575 2299,-575 "/>
<text text-anchor="start" x="1902" y="-559.8" font-family="Times,serif" font-size="14.00">if (var_14 s&gt;= 8) then 4 @ 0x100003a4b else 5 @ 0x100003a30</text>
<polyline fill="none" stroke="black" points="1894,-552 2299,-552 "/>
<text text-anchor="start" x="1902" y="-536.8" font-family="Times,serif" font-size="14.00">if (var_10 s&lt;= 0x14) then 12 @ 0x100003a72 else 16 @ 0x100003a58</text>
<polyline fill="none" stroke="black" points="1894,-529 2299,-529 "/>
<text text-anchor="start" x="1902" y="-513.8" font-family="Times,serif" font-size="14.00">rax_1 = var_10</text>
<polyline fill="none" stroke="black" points="1894,-506 2299,-506 "/>
<text text-anchor="start" x="1902" y="-490.8" font-family="Times,serif" font-size="14.00">rax_2 = rax_1 + var_14</text>
<polyline fill="none" stroke="black" points="1894,-483 2299,-483 "/>
<text text-anchor="start" x="1902" y="-467.8" font-family="Times,serif" font-size="14.00">var_10 = rax_2</text>
<polyline fill="none" stroke="black" points="1894,-460 2299,-460 "/>
<text text-anchor="start" x="1902" y="-444.8" font-family="Times,serif" font-size="14.00">rax_3 = var_14</text>
<polyline fill="none" stroke="black" points="1894,-437 2299,-437 "/>
<text text-anchor="start" x="1902" y="-421.8" font-family="Times,serif" font-size="14.00">rax = rax_3 + 1</text>
<polyline fill="none" stroke="black" points="1894,-414 2299,-414 "/>
<text text-anchor="start" x="1902" y="-398.8" font-family="Times,serif" font-size="14.00">var_14 = rax</text>
<polyline fill="none" stroke="black" points="1894,-391 2299,-391 "/>
<text text-anchor="start" x="1902" y="-375.8" font-family="Times,serif" font-size="14.00">goto 3 @ 0x100003a2a</text>
<polyline fill="none" stroke="black" points="1894,-368 2299,-368 "/>
<text text-anchor="start" x="1902" y="-352.8" font-family="Times,serif" font-size="14.00">rax.al = 0</text>
<polyline fill="none" stroke="black" points="1894,-345 2299,-345 "/>
<text text-anchor="start" x="1902" y="-329.8" font-family="Times,serif" font-size="14.00">0x100003d34(0x100003e87)</text>
<polyline fill="none" stroke="black" points="1894,-322 2299,-322 "/>
<text text-anchor="start" x="1902" y="-306.8" font-family="Times,serif" font-size="14.00">var_c = 0xffffffff</text>
<polyline fill="none" stroke="black" points="1894,-299 2299,-299 "/>
<text text-anchor="start" x="1902" y="-283.8" font-family="Times,serif" font-size="14.00">goto 20 @ 0x100003a80</text>
<polyline fill="none" stroke="black" points="1894,-276 2299,-276 "/>
<text text-anchor="start" x="1902" y="-260.8" font-family="Times,serif" font-size="14.00">rax.al = 0</text>
<polyline fill="none" stroke="black" points="1894,-253 2299,-253 "/>
<text text-anchor="start" x="1902" y="-237.8" font-family="Times,serif" font-size="14.00">0x100003d34(&quot;YES\n&quot;)</text>
<polyline fill="none" stroke="black" points="1894,-230 2299,-230 "/>
<text text-anchor="start" x="1902" y="-214.8" font-family="Times,serif" font-size="14.00">var_c = 0</text>
<polyline fill="none" stroke="black" points="1894,-207 2299,-207 "/>
<text text-anchor="start" x="1902" y="-191.8" font-family="Times,serif" font-size="14.00">goto 20 @ 0x100003a80</text>
<polyline fill="none" stroke="black" points="1894,-184 2299,-184 "/>
<text text-anchor="start" x="1902" y="-168.8" font-family="Times,serif" font-size="14.00">rax_4 = zx.q(var_c)</text>
<polyline fill="none" stroke="black" points="1894,-161 2299,-161 "/>
<text text-anchor="start" x="1902" y="-145.8" font-family="Times,serif" font-size="14.00">return rax_4</text>
</g>
<!-- llil&#45;&gt;mlil -->
<g id="edge30" class="edge">
<title>llil:1&#45;&gt;mlil:3</title>
<path fill="none" stroke="black" d="M1318,-633C1572.43,-633 1634.54,-565.81 1883.9,-564.04"/>
<polygon fill="black" stroke="black" points="1884.01,-567.54 1894,-564 1883.99,-560.54 1884.01,-567.54"/>
</g>
<!-- llil&#45;&gt;mlil -->
<g id="edge31" class="edge">
<title>llil:1&#45;&gt;mlil:4</title>
<path fill="none" stroke="black" d="M1318,-633C1573.83,-633 1633.2,-543.41 1883.85,-541.05"/>
<polygon fill="black" stroke="black" points="1884.02,-544.55 1894,-541 1883.98,-537.55 1884.02,-544.55"/>
</g>
<!-- llil&#45;&gt;mlil -->
<g id="edge32" class="edge">
<title>llil:1&#45;&gt;mlil:5</title>
<path fill="none" stroke="black" d="M1318,-633C1575.61,-633 1631.49,-521.01 1883.78,-518.06"/>
<polygon fill="black" stroke="black" points="1884.02,-521.56 1894,-518 1883.98,-514.56 1884.02,-521.56"/>
</g>
<!-- llil&#45;&gt;mlil -->
<g id="edge33" class="edge">
<title>llil:1&#45;&gt;mlil:6</title>
<path fill="none" stroke="black" d="M1318,-633C1577.77,-624.12 1629.41,-489.62 1883.7,-494.72"/>
<polygon fill="black" stroke="black" points="1883.91,-498.23 1894,-495 1884.1,-491.23 1883.91,-498.23"/>
</g>
<!-- llil&#45;&gt;mlil -->
<g id="edge34" class="edge">
<title>llil:1&#45;&gt;mlil:6</title>
<path fill="none" stroke="black" d="M1318.39,-633.01C1577.7,-641.74 1629.49,-507.74 1883.33,-495.44"/>
<polygon fill="black" stroke="black" points="1883.77,-498.93 1893.61,-495.01 1883.48,-491.93 1883.77,-498.93"/>
</g>
<!-- llil&#45;&gt;mlil -->
<g id="edge35" class="edge">
<title>llil:1&#45;&gt;mlil:7</title>
<path fill="none" stroke="black" d="M1318,-633C1580.44,-633 1627.03,-476.06 1883.98,-472.08"/>
<polygon fill="black" stroke="black" points="1884.03,-475.58 1894,-472 1883.97,-468.58 1884.03,-475.58"/>
</g>
<!-- llil&#45;&gt;mlil -->
<g id="edge36" class="edge">
<title>llil:1&#45;&gt;mlil:8</title>
<path fill="none" stroke="black" d="M1318,-633C1583.33,-633 1624.24,-453.64 1883.87,-449.09"/>
<polygon fill="black" stroke="black" points="1884.03,-452.59 1894,-449 1883.97,-445.59 1884.03,-452.59"/>
</g>
<!-- llil&#45;&gt;mlil -->
<g id="edge37" class="edge">
<title>llil:1&#45;&gt;mlil:9</title>
<path fill="none" stroke="black" d="M1318,-633C1586.58,-633 1621.12,-431.22 1883.75,-426.1"/>
<polygon fill="black" stroke="black" points="1884.03,-429.6 1894,-426 1883.97,-422.6 1884.03,-429.6"/>
</g>
<!-- llil&#45;&gt;mlil -->
<g id="edge38" class="edge">
<title>llil:1&#45;&gt;mlil:10</title>
<path fill="none" stroke="black" d="M1318,-633C1590.15,-633 1617.68,-408.8 1883.62,-403.11"/>
<polygon fill="black" stroke="black" points="1884.04,-406.61 1894,-403 1883.96,-399.61 1884.04,-406.61"/>
</g>
<!-- llil&#45;&gt;mlil -->
<g id="edge39" class="edge">
<title>llil:1&#45;&gt;mlil:20</title>
<path fill="none" stroke="black" d="M1318,-633C1642.37,-633 1567.77,-181.85 1883.57,-172.16"/>
<polygon fill="black" stroke="black" points="1884.05,-175.65 1894,-172 1883.95,-168.65 1884.05,-175.65"/>
</g>
<!-- llil&#45;&gt;mlil -->
<g id="edge40" class="edge">
<title>llil:3&#45;&gt;mlil:0</title>
<path fill="none" stroke="black" d="M1318,-587C1571.43,-587 1635.51,-631.8 1883.94,-632.98"/>
<polygon fill="black" stroke="black" points="1883.99,-636.48 1894,-633 1884.01,-629.48 1883.99,-636.48"/>
</g>
<!-- llil&#45;&gt;mlil -->
<g id="edge41" class="edge">
<title>llil:4&#45;&gt;mlil:1</title>
<path fill="none" stroke="black" d="M1318,-564C1571.43,-564 1635.51,-608.8 1883.94,-609.98"/>
<polygon fill="black" stroke="black" points="1883.99,-613.48 1894,-610 1884.01,-606.48 1883.99,-613.48"/>
</g>
<!-- llil&#45;&gt;mlil -->
<g id="edge42" class="edge">
<title>llil:5&#45;&gt;mlil:2</title>
<path fill="none" stroke="black" d="M1318,-541C1571.43,-541 1635.51,-585.8 1883.94,-586.98"/>
<polygon fill="black" stroke="black" points="1883.99,-590.48 1894,-587 1884.01,-583.48 1883.99,-590.48"/>
</g>
<!-- llil&#45;&gt;mlil -->
<g id="edge43" class="edge">
<title>llil:6&#45;&gt;mlil:3</title>
<path fill="none" stroke="black" d="M1318,-518C1571.43,-518 1635.51,-562.8 1883.94,-563.98"/>
<polygon fill="black" stroke="black" points="1883.99,-567.48 1894,-564 1884.01,-560.48 1883.99,-567.48"/>
</g>
<!-- llil&#45;&gt;mlil -->
<g id="edge44" class="edge">
<title>llil:8&#45;&gt;mlil:5</title>
<path fill="none" stroke="black" d="M1318,-495C1570.83,-495 1636.09,-517.4 1883.97,-517.99"/>
<polygon fill="black" stroke="black" points="1884,-521.49 1894,-518 1884,-514.49 1884,-521.49"/>
</g>
<!-- llil&#45;&gt;mlil -->
<g id="edge45" class="edge">
<title>llil:8&#45;&gt;mlil:6</title>
<path fill="none" stroke="black" d="M1318,-495C1570.62,-495 1636.28,-495 1883.97,-495"/>
<polygon fill="black" stroke="black" points="1884,-498.5 1894,-495 1884,-491.5 1884,-498.5"/>
</g>
<!-- llil&#45;&gt;mlil -->
<g id="edge46" class="edge">
<title>llil:8&#45;&gt;mlil:7</title>
<path fill="none" stroke="black" d="M1318,-495C1570.83,-495 1636.09,-472.6 1883.97,-472.01"/>
<polygon fill="black" stroke="black" points="1884,-475.51 1894,-472 1884,-468.51 1884,-475.51"/>
</g>
<!-- llil&#45;&gt;mlil -->
<g id="edge47" class="edge">
<title>llil:9&#45;&gt;mlil:6</title>
<path fill="none" stroke="black" d="M1318,-472C1570.83,-472 1636.09,-494.4 1883.97,-494.99"/>
<polygon fill="black" stroke="black" points="1884,-498.49 1894,-495 1884,-491.49 1884,-498.49"/>
</g>
<!-- llil&#45;&gt;mlil -->
<g id="edge48" class="edge">
<title>llil:9&#45;&gt;mlil:7</title>
<path fill="none" stroke="black" d="M1318,-472C1570.62,-472 1636.28,-472 1883.97,-472"/>
<polygon fill="black" stroke="black" points="1884,-475.5 1894,-472 1884,-468.5 1884,-475.5"/>
</g>
<!-- llil&#45;&gt;mlil -->
<g id="edge49" class="edge">
<title>llil:10&#45;&gt;mlil:7</title>
<path fill="none" stroke="black" d="M1318,-449C1570.83,-449 1636.09,-471.4 1883.97,-471.99"/>
<polygon fill="black" stroke="black" points="1884,-475.49 1894,-472 1884,-468.49 1884,-475.49"/>
</g>
<!-- llil&#45;&gt;mlil -->
<g id="edge50" class="edge">
<title>llil:11&#45;&gt;mlil:8</title>
<path fill="none" stroke="black" d="M1318,-426C1570.83,-426 1636.09,-448.4 1883.97,-448.99"/>
<polygon fill="black" stroke="black" points="1884,-452.49 1894,-449 1884,-445.49 1884,-452.49"/>
</g>
<!-- llil&#45;&gt;mlil -->
<g id="edge51" class="edge">
<title>llil:11&#45;&gt;mlil:9</title>
<path fill="none" stroke="black" d="M1318,-426C1570.62,-426 1636.28,-426 1883.97,-426"/>
<polygon fill="black" stroke="black" points="1884,-429.5 1894,-426 1884,-422.5 1884,-429.5"/>
</g>
<!-- llil&#45;&gt;mlil -->
<g id="edge52" class="edge">
<title>llil:11&#45;&gt;mlil:10</title>
<path fill="none" stroke="black" d="M1318,-426C1570.83,-426 1636.09,-403.6 1883.97,-403.01"/>
<polygon fill="black" stroke="black" points="1884,-406.51 1894,-403 1884,-399.51 1884,-406.51"/>
</g>
<!-- llil&#45;&gt;mlil -->
<g id="edge53" class="edge">
<title>llil:12&#45;&gt;mlil:9</title>
<path fill="none" stroke="black" d="M1318,-403C1570.83,-403 1636.09,-425.4 1883.97,-425.99"/>
<polygon fill="black" stroke="black" points="1884,-429.49 1894,-426 1884,-422.49 1884,-429.49"/>
</g>
<!-- llil&#45;&gt;mlil -->
<g id="edge54" class="edge">
<title>llil:12&#45;&gt;mlil:10</title>
<path fill="none" stroke="black" d="M1318,-403C1570.62,-403 1636.28,-403 1883.97,-403"/>
<polygon fill="black" stroke="black" points="1884,-406.5 1894,-403 1884,-399.5 1884,-406.5"/>
</g>
<!-- llil&#45;&gt;mlil -->
<g id="edge55" class="edge">
<title>llil:13&#45;&gt;mlil:10</title>
<path fill="none" stroke="black" d="M1318,-380C1570.83,-380 1636.09,-402.4 1883.97,-402.99"/>
<polygon fill="black" stroke="black" points="1884,-406.49 1894,-403 1884,-399.49 1884,-406.49"/>
</g>
<!-- llil&#45;&gt;mlil -->
<g id="edge56" class="edge">
<title>llil:14&#45;&gt;mlil:11</title>
<path fill="none" stroke="black" d="M1318,-357C1570.81,-357 1636.1,-378.42 1883.97,-378.99"/>
<polygon fill="black" stroke="black" points="1884,-382.49 1894,-379 1884,-375.49 1884,-382.49"/>
</g>
<!-- llil&#45;&gt;mlil -->
<g id="edge57" class="edge">
<title>llil:7&#45;&gt;mlil:4</title>
<path fill="none" stroke="black" d="M1318,-334C1586.58,-334 1621.12,-535.78 1883.75,-540.9"/>
<polygon fill="black" stroke="black" points="1883.97,-544.4 1894,-541 1884.03,-537.4 1883.97,-544.4"/>
</g>
<!-- llil&#45;&gt;mlil -->
<g id="edge58" class="edge">
<title>llil:20&#45;&gt;mlil:17</title>
<path fill="none" stroke="black" d="M1318,-311C1572.48,-311 1634.49,-242.83 1883.9,-241.04"/>
<polygon fill="black" stroke="black" points="1884.01,-244.54 1894,-241 1883.99,-237.54 1884.01,-244.54"/>
</g>
<!-- llil&#45;&gt;mlil -->
<g id="edge59" class="edge">
<title>llil:21&#45;&gt;mlil:16</title>
<path fill="none" stroke="black" d="M1318,-288C1570.84,-288 1636.07,-264.63 1883.97,-264.01"/>
<polygon fill="black" stroke="black" points="1884,-267.51 1894,-264 1884,-260.51 1884,-267.51"/>
</g>
<!-- llil&#45;&gt;mlil -->
<g id="edge60" class="edge">
<title>llil:22&#45;&gt;mlil:17</title>
<path fill="none" stroke="black" d="M1318,-265C1570.84,-265 1636.07,-241.63 1883.97,-241.01"/>
<polygon fill="black" stroke="black" points="1884,-244.51 1894,-241 1884,-237.51 1884,-244.51"/>
</g>
<!-- llil&#45;&gt;mlil -->
<g id="edge61" class="edge">
<title>llil:23&#45;&gt;mlil:18</title>
<path fill="none" stroke="black" d="M1318,-242C1570.84,-242 1636.07,-218.63 1883.97,-218.01"/>
<polygon fill="black" stroke="black" points="1884,-221.51 1894,-218 1884,-214.51 1884,-221.51"/>
</g>
<!-- llil&#45;&gt;mlil -->
<g id="edge62" class="edge">
<title>llil:24&#45;&gt;mlil:19</title>
<path fill="none" stroke="black" d="M1318,-219C1570.84,-219 1636.07,-195.63 1883.97,-195.01"/>
<polygon fill="black" stroke="black" points="1884,-198.51 1894,-195 1884,-191.51 1884,-198.51"/>
</g>
<!-- llil&#45;&gt;mlil -->
<g id="edge63" class="edge">
<title>llil:15&#45;&gt;mlil:13</title>
<path fill="none" stroke="black" d="M1318,-196C1577.67,-196 1629.51,-329.41 1883.7,-332.93"/>
<polygon fill="black" stroke="black" points="1883.98,-336.43 1894,-333 1884.02,-329.43 1883.98,-336.43"/>
</g>
<!-- llil&#45;&gt;mlil -->
<g id="edge64" class="edge">
<title>llil:16&#45;&gt;mlil:12</title>
<path fill="none" stroke="black" d="M1318,-173C1583.2,-173 1624.37,-351.38 1883.88,-355.91"/>
<polygon fill="black" stroke="black" points="1883.97,-359.41 1894,-356 1884.03,-352.41 1883.97,-359.41"/>
</g>
<!-- llil&#45;&gt;mlil -->
<g id="edge65" class="edge">
<title>llil:17&#45;&gt;mlil:13</title>
<path fill="none" stroke="black" d="M1318,-150C1583.2,-150 1624.37,-328.38 1883.88,-332.91"/>
<polygon fill="black" stroke="black" points="1883.97,-336.41 1894,-333 1884.03,-329.41 1883.97,-336.41"/>
</g>
<!-- llil&#45;&gt;mlil -->
<g id="edge66" class="edge">
<title>llil:18&#45;&gt;mlil:14</title>
<path fill="none" stroke="black" d="M1318,-127C1583.2,-127 1624.37,-305.38 1883.88,-309.91"/>
<polygon fill="black" stroke="black" points="1883.97,-313.41 1894,-310 1884.03,-306.41 1883.97,-313.41"/>
</g>
<!-- llil&#45;&gt;mlil -->
<g id="edge67" class="edge">
<title>llil:19&#45;&gt;mlil:15</title>
<path fill="none" stroke="black" d="M1318,-104C1583.2,-104 1624.37,-282.38 1883.88,-286.91"/>
<polygon fill="black" stroke="black" points="1883.97,-290.41 1894,-287 1884.03,-283.41 1883.97,-290.41"/>
</g>
<!-- llil&#45;&gt;mlil -->
<g id="edge68" class="edge">
<title>llil:25&#45;&gt;mlil:20</title>
<path fill="none" stroke="black" d="M1318,-81C1573.76,-81 1633.27,-169.62 1883.85,-171.95"/>
<polygon fill="black" stroke="black" points="1883.98,-175.45 1894,-172 1884.02,-168.45 1883.98,-175.45"/>
</g>
<!-- llil&#45;&gt;mlil -->
<g id="edge69" class="edge">
<title>llil:28&#45;&gt;mlil:21</title>
<path fill="none" stroke="black" d="M1318,-12C1577.67,-12 1629.51,-145.41 1883.7,-148.93"/>
<polygon fill="black" stroke="black" points="1883.98,-152.43 1894,-149 1884.02,-145.43 1883.98,-152.43"/>
</g>
<!-- hlil -->
<g id="node4" class="node">
<title>hlil</title>
<polygon fill="none" stroke="black" points="2875,-207.5 2875,-552.5 3038,-552.5 3038,-207.5 2875,-207.5"/>
<text text-anchor="start" x="2883" y="-537.3" font-family="Times,serif" font-size="14.00">int32_t var_10 = 0</text>
<polyline fill="none" stroke="black" points="2875,-529.5 3038,-529.5 "/>
<text text-anchor="start" x="2883" y="-514.3" font-family="Times,serif" font-size="14.00">int32_t var_14 = 0</text>
<polyline fill="none" stroke="black" points="2875,-506.5 3038,-506.5 "/>
<text text-anchor="start" x="2883" y="-491.3" font-family="Times,serif" font-size="14.00">while (var_14 s&lt; 8)</text>
<polyline fill="none" stroke="black" points="2875,-483.5 3038,-483.5 "/>
<text text-anchor="start" x="2883" y="-468.3" font-family="Times,serif" font-size="14.00">var_10 = var_10 + var_14</text>
<polyline fill="none" stroke="black" points="2875,-460.5 3038,-460.5 "/>
<text text-anchor="start" x="2883" y="-445.3" font-family="Times,serif" font-size="14.00">var_14 = var_14 + 1</text>
<polyline fill="none" stroke="black" points="2875,-437.5 3038,-437.5 "/>
<text text-anchor="start" x="2883" y="-422.3" font-family="Times,serif" font-size="14.00">int32_t var_c</text>
<polyline fill="none" stroke="black" points="2875,-414.5 3038,-414.5 "/>
<text text-anchor="start" x="2883" y="-399.3" font-family="Times,serif" font-size="14.00">int32_t rax</text>
<polyline fill="none" stroke="black" points="2875,-391.5 3038,-391.5 "/>
<text text-anchor="start" x="2883" y="-376.3" font-family="Times,serif" font-size="14.00">if (var_10 s&lt;= 0x14)</text>
<polyline fill="none" stroke="black" points="2875,-368.5 3038,-368.5 "/>
<text text-anchor="start" x="2883" y="-353.3" font-family="Times,serif" font-size="14.00">rax.b = 0</text>
<polyline fill="none" stroke="black" points="2875,-345.5 3038,-345.5 "/>
<text text-anchor="start" x="2883" y="-330.3" font-family="Times,serif" font-size="14.00">_printf(&amp;data_100003e87)</text>
<polyline fill="none" stroke="black" points="2875,-322.5 3038,-322.5 "/>
<text text-anchor="start" x="2883" y="-307.3" font-family="Times,serif" font-size="14.00">var_c = 0xffffffff</text>
<polyline fill="none" stroke="black" points="2875,-299.5 3038,-299.5 "/>
<text text-anchor="start" x="2883" y="-284.3" font-family="Times,serif" font-size="14.00">rax.b = 0</text>
<polyline fill="none" stroke="black" points="2875,-276.5 3038,-276.5 "/>
<text text-anchor="start" x="2883" y="-261.3" font-family="Times,serif" font-size="14.00">_printf(&quot;YES\n&quot;)</text>
<polyline fill="none" stroke="black" points="2875,-253.5 3038,-253.5 "/>
<text text-anchor="start" x="2883" y="-238.3" font-family="Times,serif" font-size="14.00">var_c = 0</text>
<polyline fill="none" stroke="black" points="2875,-230.5 3038,-230.5 "/>
<text text-anchor="start" x="2883" y="-215.3" font-family="Times,serif" font-size="14.00">return zx.q(var_c)</text>
</g>
<!-- mlil&#45;&gt;hlil -->
<g id="edge70" class="edge">
<title>mlil:0&#45;&gt;hlil:18446744073709551615</title>
<path fill="none" stroke="black" d="M2299,-633C2573.07,-633 2606.54,-469.4 2864.92,-394.35"/>
<polygon fill="black" stroke="black" points="2865.94,-397.7 2874.61,-391.61 2864.03,-390.96 2865.94,-397.7"/>
</g>
<!-- mlil&#45;&gt;hlil -->
<g id="edge71" class="edge">
<title>mlil:0&#45;&gt;hlil:0</title>
<path fill="none" stroke="black" d="M2299,-633C2554.83,-633 2614.2,-543.41 2864.85,-541.05"/>
<polygon fill="black" stroke="black" points="2865.02,-544.55 2875,-541 2864.98,-537.55 2865.02,-544.55"/>
</g>
<!-- mlil&#45;&gt;hlil -->
<g id="edge72" class="edge">
<title>mlil:1&#45;&gt;hlil:18446744073709551615</title>
<path fill="none" stroke="black" d="M2299,-610C2569.19,-610 2608.79,-463.54 2864.63,-394.23"/>
<polygon fill="black" stroke="black" points="2865.84,-397.54 2874.61,-391.6 2864.05,-390.77 2865.84,-397.54"/>
</g>
<!-- mlil&#45;&gt;hlil -->
<g id="edge73" class="edge">
<title>mlil:1&#45;&gt;hlil:1</title>
<path fill="none" stroke="black" d="M2299,-610C2554.83,-610 2614.2,-520.41 2864.85,-518.05"/>
<polygon fill="black" stroke="black" points="2865.02,-521.55 2875,-518 2864.98,-514.55 2865.02,-521.55"/>
</g>
<!-- mlil&#45;&gt;hlil -->
<g id="edge74" class="edge">
<title>mlil:3&#45;&gt;hlil:2</title>
<path fill="none" stroke="black" d="M2299,-564C2553.43,-564 2615.54,-496.81 2864.9,-495.04"/>
<polygon fill="black" stroke="black" points="2865.01,-498.54 2875,-495 2864.99,-491.54 2865.01,-498.54"/>
</g>
<!-- mlil&#45;&gt;hlil -->
<g id="edge75" class="edge">
<title>mlil:4&#45;&gt;hlil:18446744073709551615</title>
<path fill="none" stroke="black" d="M2299,-541C2559.87,-532.12 2614.17,-436.94 2864.48,-384.65"/>
<polygon fill="black" stroke="black" points="2865.52,-388.01 2874.62,-382.58 2864.12,-381.15 2865.52,-388.01"/>
</g>
<!-- mlil&#45;&gt;hlil -->
<g id="edge76" class="edge">
<title>mlil:4&#45;&gt;hlil:7</title>
<path fill="none" stroke="black" d="M2299.39,-541.01C2563.53,-549.9 2615.76,-452.26 2875,-400.5 2888.27,-397.85 2902.87,-395.59 2916.01,-393.33"/>
<polygon fill="black" stroke="black" points="2916.94,-396.72 2926.17,-391.52 2915.71,-389.83 2916.94,-396.72"/>
</g>
<!-- mlil&#45;&gt;hlil -->
<g id="edge77" class="edge">
<title>mlil:5&#45;&gt;hlil:3</title>
<path fill="none" stroke="black" d="M2299,-518C2552.43,-509.12 2616.51,-464.21 2864.94,-471.67"/>
<polygon fill="black" stroke="black" points="2864.89,-475.17 2875,-472 2865.12,-468.18 2864.89,-475.17"/>
</g>
<!-- mlil&#45;&gt;hlil -->
<g id="edge78" class="edge">
<title>mlil:5&#45;&gt;hlil:3</title>
<path fill="none" stroke="black" d="M2299.38,-518.01C2552.37,-526.83 2616.57,-482.24 2864.58,-472.39"/>
<polygon fill="black" stroke="black" points="2864.76,-475.89 2874.62,-472.01 2864.5,-468.89 2864.76,-475.89"/>
</g>
<!-- mlil&#45;&gt;hlil -->
<g id="edge79" class="edge">
<title>mlil:6&#45;&gt;hlil:3</title>
<path fill="none" stroke="black" d="M2299,-495C2551.83,-495 2617.09,-472.6 2864.97,-472.01"/>
<polygon fill="black" stroke="black" points="2865,-475.51 2875,-472 2865,-468.51 2865,-475.51"/>
</g>
<!-- mlil&#45;&gt;hlil -->
<g id="edge80" class="edge">
<title>mlil:7&#45;&gt;hlil:3</title>
<path fill="none" stroke="black" d="M2299,-472C2551.62,-463.12 2617.28,-463 2864.97,-471.65"/>
<polygon fill="black" stroke="black" points="2864.88,-475.15 2875,-472 2865.13,-468.15 2864.88,-475.15"/>
</g>
<!-- mlil&#45;&gt;hlil -->
<g id="edge81" class="edge">
<title>mlil:7&#45;&gt;hlil:3</title>
<path fill="none" stroke="black" d="M2299.37,-472.01C2551.57,-480.88 2617.34,-480.99 2864.62,-472.36"/>
<polygon fill="black" stroke="black" points="2864.75,-475.86 2874.63,-472.01 2864.51,-468.87 2864.75,-475.86"/>
</g>
<!-- mlil&#45;&gt;hlil -->
<g id="edge82" class="edge">
<title>mlil:8&#45;&gt;hlil:4</title>
<path fill="none" stroke="black" d="M2299,-449C2551.62,-440.12 2617.28,-440 2864.97,-448.65"/>
<polygon fill="black" stroke="black" points="2864.88,-452.15 2875,-449 2865.13,-445.15 2864.88,-452.15"/>
</g>
<!-- mlil&#45;&gt;hlil -->
<g id="edge83" class="edge">
<title>mlil:8&#45;&gt;hlil:4</title>
<path fill="none" stroke="black" d="M2299.37,-449.01C2551.57,-457.88 2617.34,-457.99 2864.62,-449.36"/>
<polygon fill="black" stroke="black" points="2864.75,-452.86 2874.63,-449.01 2864.51,-445.87 2864.75,-452.86"/>
</g>
<!-- mlil&#45;&gt;hlil -->
<g id="edge84" class="edge">
<title>mlil:9&#45;&gt;hlil:4</title>
<path fill="none" stroke="black" d="M2299,-426C2551.83,-426 2617.09,-448.4 2864.97,-448.99"/>
<polygon fill="black" stroke="black" points="2865,-452.49 2875,-449 2865,-445.49 2865,-452.49"/>
</g>
<!-- mlil&#45;&gt;hlil -->
<g id="edge85" class="edge">
<title>mlil:10&#45;&gt;hlil:4</title>
<path fill="none" stroke="black" d="M2299,-403C2552.43,-394.12 2616.51,-438.8 2864.94,-448.62"/>
<polygon fill="black" stroke="black" points="2864.88,-452.12 2875,-449 2865.14,-445.13 2864.88,-452.12"/>
</g>
<!-- mlil&#45;&gt;hlil -->
<g id="edge86" class="edge">
<title>mlil:10&#45;&gt;hlil:4</title>
<path fill="none" stroke="black" d="M2299.38,-403.01C2552.37,-411.92 2616.57,-456.75 2864.58,-449.34"/>
<polygon fill="black" stroke="black" points="2864.74,-452.84 2874.62,-449.01 2864.52,-445.84 2864.74,-452.84"/>
</g>
<!-- mlil&#45;&gt;hlil -->
<g id="edge87" class="edge">
<title>mlil:12&#45;&gt;hlil:8</title>
<path fill="none" stroke="black" d="M2299,-356C2551.63,-356 2617.28,-356.97 2864.97,-357"/>
<polygon fill="black" stroke="black" points="2865,-360.5 2875,-357 2865,-353.5 2865,-360.5"/>
</g>
<!-- mlil&#45;&gt;hlil -->
<g id="edge88" class="edge">
<title>mlil:13&#45;&gt;hlil:9</title>
<path fill="none" stroke="black" d="M2299,-333C2551.63,-333 2617.28,-333.97 2864.97,-334"/>
<polygon fill="black" stroke="black" points="2865,-337.5 2875,-334 2865,-330.5 2865,-337.5"/>
</g>
<!-- mlil&#45;&gt;hlil -->
<g id="edge89" class="edge">
<title>mlil:14&#45;&gt;hlil:10</title>
<path fill="none" stroke="black" d="M2299,-310C2551.63,-301.12 2617.28,-301.98 2864.97,-310.65"/>
<polygon fill="black" stroke="black" points="2864.88,-314.15 2875,-311 2865.13,-307.15 2864.88,-314.15"/>
</g>
<!-- mlil&#45;&gt;hlil -->
<g id="edge90" class="edge">
<title>mlil:14&#45;&gt;hlil:10</title>
<path fill="none" stroke="black" d="M2299.37,-310.01C2551.57,-318.88 2617.34,-319.97 2864.62,-311.36"/>
<polygon fill="black" stroke="black" points="2864.75,-314.86 2874.63,-311.01 2864.51,-307.86 2864.75,-314.86"/>
</g>
<!-- mlil&#45;&gt;hlil -->
<g id="edge91" class="edge">
<title>mlil:16&#45;&gt;hlil:11</title>
<path fill="none" stroke="black" d="M2299,-264C2551.84,-264 2617.07,-287.37 2864.97,-287.99"/>
<polygon fill="black" stroke="black" points="2865,-291.49 2875,-288 2865,-284.49 2865,-291.49"/>
</g>
<!-- mlil&#45;&gt;hlil -->
<g id="edge92" class="edge">
<title>mlil:17&#45;&gt;hlil:12</title>
<path fill="none" stroke="black" d="M2299,-241C2551.84,-241 2617.07,-264.37 2864.97,-264.99"/>
<polygon fill="black" stroke="black" points="2865,-268.49 2875,-265 2865,-261.49 2865,-268.49"/>
</g>
<!-- mlil&#45;&gt;hlil -->
<g id="edge93" class="edge">
<title>mlil:18&#45;&gt;hlil:13</title>
<path fill="none" stroke="black" d="M2299,-218C2551.84,-209.12 2617.07,-232.37 2864.97,-241.64"/>
<polygon fill="black" stroke="black" points="2864.88,-245.14 2875,-242 2865.13,-238.14 2864.88,-245.14"/>
</g>
<!-- mlil&#45;&gt;hlil -->
<g id="edge94" class="edge">
<title>mlil:18&#45;&gt;hlil:13</title>
<path fill="none" stroke="black" d="M2299.38,-218.01C2551.79,-226.9 2617.13,-250.34 2864.61,-242.35"/>
<polygon fill="black" stroke="black" points="2864.75,-245.85 2874.62,-242.01 2864.51,-238.85 2864.75,-245.85"/>
</g>
<!-- mlil&#45;&gt;hlil -->
<g id="edge95" class="edge">
<title>mlil:21&#45;&gt;hlil:14</title>
<path fill="none" stroke="black" d="M2299,-149C2553.48,-149 2615.49,-217.17 2864.9,-218.96"/>
<polygon fill="black" stroke="black" points="2864.99,-222.46 2875,-219 2865.01,-215.46 2864.99,-222.46"/>
</g>
</g>
</svg>
