<svg version="1.1" xmlns="http://www.w3.org/2000/svg" viewBox="0 0 1360 620" width="1360" height="620">
  <!-- svg-source:excalidraw -->
  
  <defs>
    <style class="style-fonts">
      @font-face {
        font-family: "Virgil";
        src: url("https://file%2B.vscode-resource.vscode-cdn.net/Users/andrewl/.vscode/extensions/pomdtr.excalidraw-editor-3.5.1/public//dist/excalidraw-assets/Virgil.woff2");
      }
      @font-face {
        font-family: "Cascadia";
        src: url("https://file%2B.vscode-resource.vscode-cdn.net/Users/andrewl/.vscode/extensions/pomdtr.excalidraw-editor-3.5.1/public//dist/excalidraw-assets/Cascadia.woff2");
      }
    </style>
  </defs>
  <rect x="0" y="0" width="1360" height="620" fill="#ffffff"></rect><g stroke-linecap="round" transform="translate(470 10) rotate(0 210 60)"><path d="M0 0 L420 0 L420 120 L0 120" stroke="none" stroke-width="0" fill="#be4bdb40"></path><path d="M0 0 C136.85 0, 273.7 0, 420 0 M0 0 C163.69 0, 327.38 0, 420 0 M420 0 C420 46.72, 420 93.44, 420 120 M420 0 C420 39.69, 420 79.37, 420 120 M420 120 C323.02 120, 226.03 120, 0 120 M420 120 C320.59 120, 221.18 120, 0 120 M0 120 C0 83.36, 0 46.71, 0 0 M0 120 C0 74.41, 0 28.82, 0 0" stroke="#000000" stroke-width="1" fill="none"></path></g><g transform="translate(520.625 15) rotate(0 159.375 9.600000000000023)"><text x="159.375" y="0" font-family="Cascadia, Segoe UI Emoji" font-size="16px" fill="#000000" text-anchor="middle" style="white-space: pre;" direction="ltr" dominant-baseline="text-before-edge">header data (AvbVBMetaImageHeader)</text></g><g stroke-linecap="round" transform="translate(470 130) rotate(0 210 70)"><path d="M0 0 L420 0 L420 140 L0 140" stroke="none" stroke-width="0" fill="#be4bdb40"></path><path d="M0 0 C136.85 0, 273.7 0, 420 0 M0 0 C163.69 0, 327.38 0, 420 0 M420 0 C420 54.51, 420 109.01, 420 140 M420 0 C420 46.3, 420 92.6, 420 140 M420 140 C323.02 140, 226.03 140, 0 140 M420 140 C320.59 140, 221.18 140, 0 140 M0 140 C0 97.25, 0 54.5, 0 0 M0 140 C0 86.81, 0 33.62, 0 0" stroke="#000000" stroke-width="1" fill="none"></path></g><g transform="translate(590.9375 135) rotate(0 89.0625 9.600000000000023)"><text x="89.0625" y="0" font-family="Cascadia, Segoe UI Emoji" font-size="16px" fill="#000000" text-anchor="middle" style="white-space: pre;" direction="ltr" dominant-baseline="text-before-edge">authentication data</text></g><g stroke-linecap="round" transform="translate(470 270) rotate(0 210 170)"><path d="M0 0 L420 0 L420 340 L0 340" stroke="none" stroke-width="0" fill="#be4bdb40"></path><path d="M0 0 C136.85 0, 273.7 0, 420 0 M0 0 C163.69 0, 327.38 0, 420 0 M420 0 C420 132.37, 420 264.75, 420 340 M420 0 C420 112.44, 420 224.89, 420 340 M420 340 C323.02 340, 226.03 340, 0 340 M420 340 C320.59 340, 221.18 340, 0 340 M0 340 C0 236.17, 0 132.35, 0 0 M0 340 C0 210.82, 0 81.64, 0 0" stroke="#000000" stroke-width="1" fill="none"></path></g><g transform="translate(614.375 275) rotate(0 65.625 9.600000000000023)"><text x="65.625" y="0" font-family="Cascadia, Segoe UI Emoji" font-size="16px" fill="#000000" text-anchor="middle" style="white-space: pre;" direction="ltr" dominant-baseline="text-before-edge">auxiliary data</text></g><g stroke-linecap="round" transform="translate(10 150) rotate(0 200 130)"><path d="M0 0 L400 0 L400 260 L0 260" stroke="none" stroke-width="0" fill="#efefef"></path><path d="M0 0 C96.88 0, 193.75 0, 400 0 M400 0 C400 62.36, 400 124.72, 400 260 M400 260 C270.88 260, 141.75 260, 0 260 M0 260 C0 194.55, 0 129.09, 0 0" stroke="#000000" stroke-width="1.5" fill="none" stroke-dasharray="1.5 7"></path></g><g transform="translate(177.1875 155) rotate(0 32.8125 9.600000000000023)"><text x="32.8125" y="0" font-family="Cascadia, Segoe UI Emoji" font-size="16px" fill="#000000" text-anchor="middle" style="white-space: pre;" direction="ltr" dominant-baseline="text-before-edge">signing</text></g><g stroke-linecap="round" transform="translate(490 170) rotate(0 190 20)"><path d="M0 0 L380 0 L380 40 L0 40" stroke="none" stroke-width="0" fill="#fab00580"></path><path d="M0 0 C137.74 0, 275.48 0, 380 0 M0 0 C103.76 0, 207.51 0, 380 0 M380 0 C380 11.89, 380 23.79, 380 40 M380 0 C380 15.84, 380 31.68, 380 40 M380 40 C274.03 40, 168.07 40, 0 40 M380 40 C241.84 40, 103.69 40, 0 40 M0 40 C0 27.53, 0 15.06, 0 0 M0 40 C0 31.27, 0 22.53, 0 0" stroke="#000000" stroke-width="1" fill="none"></path></g><g transform="translate(661.25 180.4000000000001) rotate(0 18.75 9.600000000000023)"><text x="18.75" y="0" font-family="Cascadia, Segoe UI Emoji" font-size="16px" fill="#000000" text-anchor="middle" style="white-space: pre;" direction="ltr" dominant-baseline="text-before-edge">hash</text></g><g stroke-linecap="round" transform="translate(490 210) rotate(0 190 20)"><path d="M0 0 L380 0 L380 40 L0 40" stroke="none" stroke-width="0" fill="#fab00580"></path><path d="M0 0 C137.74 0, 275.48 0, 380 0 M0 0 C103.76 0, 207.51 0, 380 0 M380 0 C380 11.89, 380 23.79, 380 40 M380 0 C380 15.84, 380 31.68, 380 40 M380 40 C274.03 40, 168.07 40, 0 40 M380 40 C241.84 40, 103.69 40, 0 40 M0 40 C0 27.53, 0 15.06, 0 0 M0 40 C0 31.27, 0 22.53, 0 0" stroke="#000000" stroke-width="1" fill="none"></path></g><g transform="translate(637.8125 220.4000000000001) rotate(0 42.1875 9.600000000000023)"><text x="42.1875" y="0" font-family="Cascadia, Segoe UI Emoji" font-size="16px" fill="#000000" text-anchor="middle" style="white-space: pre;" direction="ltr" dominant-baseline="text-before-edge">signature</text></g><g stroke-linecap="round" transform="translate(490 370) rotate(0 190 80)"><path d="M0 0 L380 0 L380 160 L0 160" stroke="none" stroke-width="0" fill="#82c91e"></path><path d="M0 0 C137.74 0, 275.48 0, 380 0 M0 0 C103.76 0, 207.51 0, 380 0 M380 0 C380 47.58, 380 95.15, 380 160 M380 0 C380 63.37, 380 126.73, 380 160 M380 160 C274.03 160, 168.07 160, 0 160 M380 160 C241.84 160, 103.69 160, 0 160 M0 160 C0 110.12, 0 60.25, 0 0 M0 160 C0 125.07, 0 90.14, 0 0" stroke="#000000" stroke-width="1" fill="none"></path></g><g stroke-linecap="round" transform="translate(490 310) rotate(0 190 20)"><path d="M0 0 L380 0 L380 40 L0 40" stroke="none" stroke-width="0" fill="#82c91e"></path><path d="M0 0 C137.74 0, 275.48 0, 380 0 M0 0 C103.76 0, 207.51 0, 380 0 M380 0 C380 11.89, 380 23.79, 380 40 M380 0 C380 15.84, 380 31.68, 380 40 M380 40 C274.03 40, 168.07 40, 0 40 M380 40 C241.84 40, 103.69 40, 0 40 M0 40 C0 27.53, 0 15.06, 0 0 M0 40 C0 31.27, 0 22.53, 0 0" stroke="#000000" stroke-width="1" fill="none"></path></g><g transform="translate(544.0625 320.4000000000001) rotate(0 135.9375 9.600000000000023)"><text x="135.9375" y="0" font-family="Cascadia, Segoe UI Emoji" font-size="16px" fill="#000000" text-anchor="middle" style="white-space: pre;" direction="ltr" dominant-baseline="text-before-edge">descriptors (AvbDescriptor[])</text></g><g stroke-linecap="round" transform="translate(490 550) rotate(0 190 20)"><path d="M0 0 L380 0 L380 40 L0 40" stroke="none" stroke-width="0" fill="#82c91e"></path><path d="M0 0 C137.74 0, 275.48 0, 380 0 M0 0 C103.76 0, 207.51 0, 380 0 M380 0 C380 11.89, 380 23.79, 380 40 M380 0 C380 15.84, 380 31.68, 380 40 M380 40 C274.03 40, 168.07 40, 0 40 M380 40 C241.84 40, 103.69 40, 0 40 M0 40 C0 27.53, 0 15.06, 0 0 M0 40 C0 31.27, 0 22.53, 0 0" stroke="#000000" stroke-width="1" fill="none"></path></g><g transform="translate(590.9375 560.4000000000001) rotate(0 89.0625 9.600000000000023)"><text x="89.0625" y="0" font-family="Cascadia, Segoe UI Emoji" font-size="16px" fill="#000000" text-anchor="middle" style="white-space: pre;" direction="ltr" dominant-baseline="text-before-edge">public key metadata</text></g><g stroke-linecap="round" transform="translate(490 50) rotate(0 190 30)"><path d="M0 0 L380 0 L380 60 L0 60" stroke="none" stroke-width="0" fill="#82c91e"></path><path d="M0 0 C137.74 0, 275.48 0, 380 0 M0 0 C103.76 0, 207.51 0, 380 0 M380 0 C380 17.84, 380 35.68, 380 60 M380 0 C380 23.76, 380 47.53, 380 60 M380 60 C274.03 60, 168.07 60, 0 60 M380 60 C241.84 60, 103.69 60, 0 60 M0 60 C0 41.3, 0 22.59, 0 0 M0 60 C0 46.9, 0 33.8, 0 0" stroke="#000000" stroke-width="1" fill="none"></path></g><g transform="translate(609.6875 60.799999999999955) rotate(0 70.3125 19.19999999999999)"><text x="70.3125" y="0" font-family="Cascadia, Segoe UI Emoji" font-size="16px" fill="#000000" text-anchor="middle" style="white-space: pre;" direction="ltr" dominant-baseline="text-before-edge">offsets + sizes</text><text x="70.3125" y="19.2" font-family="Cascadia, Segoe UI Emoji" font-size="16px" fill="#000000" text-anchor="middle" style="white-space: pre;" direction="ltr" dominant-baseline="text-before-edge">of data below</text></g><g transform="translate(650 370) rotate(0 44.619140625 9.14285714285711)"><text x="44.619140625" y="0" font-family="Cascadia, Segoe UI Emoji" font-size="15.238095238095237px" fill="#000000" text-anchor="middle" style="white-space: pre;" direction="ltr" dominant-baseline="text-before-edge">public key</text></g><g stroke-linecap="round" transform="translate(510 430) rotate(0 170 20)"><path d="M0 0 L340 0 L340 40 L0 40" stroke="none" stroke-width="0" fill="#40c057"></path><path d="M0 0 C123.24 0, 246.48 0, 340 0 M0 0 C92.83 0, 185.67 0, 340 0 M340 0 C340 11.89, 340 23.79, 340 40 M340 0 C340 15.84, 340 31.68, 340 40 M340 40 C245.19 40, 150.38 40, 0 40 M340 40 C216.39 40, 92.77 40, 0 40 M0 40 C0 27.53, 0 15.06, 0 0 M0 40 C0 31.27, 0 22.53, 0 0" stroke="#000000" stroke-width="1" fill="none"></path></g><g transform="translate(530 450) rotate(0 4.4619140625 9.14285714285711)"><text x="4.4619140625" y="0" font-family="Cascadia, Segoe UI Emoji" font-size="15.238095238095237px" fill="#000000" text-anchor="middle" style="white-space: pre;" direction="ltr" dominant-baseline="text-before-edge">N</text></g><g stroke-linecap="round" transform="translate(510 470) rotate(0 170 20)"><path d="M0 0 L340 0 L340 40 L0 40" stroke="none" stroke-width="0" fill="#40c057"></path><path d="M0 0 C123.24 0, 246.48 0, 340 0 M0 0 C92.83 0, 185.67 0, 340 0 M340 0 C340 11.89, 340 23.79, 340 40 M340 0 C340 15.84, 340 31.68, 340 40 M340 40 C245.19 40, 150.38 40, 0 40 M340 40 C216.39 40, 92.77 40, 0 40 M0 40 C0 27.53, 0 15.06, 0 0 M0 40 C0 31.27, 0 22.53, 0 0" stroke="#000000" stroke-width="1" fill="none"></path></g><g transform="translate(530 490) rotate(0 8.923828125 9.14285714285711)"><text x="8.923828125" y="0" font-family="Cascadia, Segoe UI Emoji" font-size="15.238095238095237px" fill="#000000" text-anchor="middle" style="white-space: pre;" direction="ltr" dominant-baseline="text-before-edge">RR</text></g><g stroke-linecap="round" transform="translate(510 390) rotate(0 170 20)"><path d="M0 0 L340 0 L340 40 L0 40" stroke="none" stroke-width="0" fill="#40c057"></path><path d="M0 0 C123.24 0, 246.48 0, 340 0 M0 0 C92.83 0, 185.67 0, 340 0 M340 0 C340 11.89, 340 23.79, 340 40 M340 0 C340 15.84, 340 31.68, 340 40 M340 40 C245.19 40, 150.38 40, 0 40 M340 40 C216.39 40, 92.77 40, 0 40 M0 40 C0 27.53, 0 15.06, 0 0 M0 40 C0 31.27, 0 22.53, 0 0" stroke="#000000" stroke-width="1" fill="none"></path></g><g transform="translate(530 410) rotate(0 22.3095703125 9.14285714285711)"><text x="22.3095703125" y="0" font-family="Cascadia, Segoe UI Emoji" font-size="15.238095238095237px" fill="#000000" text-anchor="middle" style="white-space: pre;" direction="ltr" dominant-baseline="text-before-edge">n0inv</text></g><g stroke-linecap="round" transform="translate(230 210) rotate(0 80 50)"><path d="M0 0 L160 0 L160 100 L0 100" stroke="none" stroke-width="0" fill="#fab005"></path><path d="M0 0 C57.99 0, 115.99 0, 160 0 M160 0 C160 27.3, 160 54.61, 160 100 M160 100 C112.42 100, 64.85 100, 0 100 M0 100 C0 60.4, 0 20.79, 0 0" stroke="#000000" stroke-width="1.5" fill="none" stroke-dasharray="1.5 7"></path></g><g transform="translate(244.375 231.20000000000005) rotate(0 65.625 28.799999999999955)"><text x="65.625" y="0" font-family="Cascadia, Segoe UI Emoji" font-size="16px" fill="#000000" text-anchor="middle" style="white-space: pre;" direction="ltr" dominant-baseline="text-before-edge">RSA</text><text x="65.625" y="19.2" font-family="Cascadia, Segoe UI Emoji" font-size="16px" fill="#000000" text-anchor="middle" style="white-space: pre;" direction="ltr" dominant-baseline="text-before-edge">exponentiation</text><text x="65.625" y="38.4" font-family="Cascadia, Segoe UI Emoji" font-size="16px" fill="#000000" text-anchor="middle" style="white-space: pre;" direction="ltr" dominant-baseline="text-before-edge">"decrypt"</text></g><g stroke-linecap="round" transform="translate(230 350) rotate(0 80 20)"><path d="M0 0 L160 0 L160 40 L0 40" stroke="none" stroke-width="0" fill="#fa5252"></path><path d="M0 0 C57.99 0, 115.99 0, 160 0 M0 0 C43.69 0, 87.37 0, 160 0 M160 0 C160 11.89, 160 23.79, 160 40 M160 0 C160 15.84, 160 31.68, 160 40 M160 40 C115.38 40, 70.76 40, 0 40 M160 40 C101.83 40, 43.66 40, 0 40 M0 40 C0 27.53, 0 15.06, 0 0 M0 40 C0 31.27, 0 22.53, 0 0" stroke="#000000" stroke-width="1" fill="none"></path></g><g transform="translate(267.8125 360.4000000000001) rotate(0 42.1875 9.600000000000023)"><text x="42.1875" y="0" font-family="Cascadia, Segoe UI Emoji" font-size="16px" fill="#000000" text-anchor="middle" style="white-space: pre;" direction="ltr" dominant-baseline="text-before-edge">private d</text></g><g stroke-linecap="round" transform="translate(90 250) rotate(0 40 20)"><path d="M0 0 L80 0 L80 40 L0 40" stroke="none" stroke-width="0" fill="#ced4da"></path><path d="M0 0 C29 0, 57.99 0, 80 0 M0 0 C21.84 0, 43.69 0, 80 0 M80 0 C80 11.89, 80 23.79, 80 40 M80 0 C80 15.84, 80 31.68, 80 40 M80 40 C57.69 40, 35.38 40, 0 40 M80 40 C50.91 40, 21.83 40, 0 40 M0 40 C0 27.53, 0 15.06, 0 0 M0 40 C0 31.27, 0 22.53, 0 0" stroke="#000000" stroke-width="1" fill="none"></path></g><g transform="translate(97.1875 260.4000000000001) rotate(0 32.8125 9.600000000000023)"><text x="32.8125" y="0" font-family="Cascadia, Segoe UI Emoji" font-size="16px" fill="#000000" text-anchor="middle" style="white-space: pre;" direction="ltr" dominant-baseline="text-before-edge">padding</text></g><g stroke-linecap="round"><g transform="translate(430 70) rotate(0 -180 50)"><path d="M0 0 C-104.67 0, -209.34 0, -360 0 M0 0 C-131.28 0, -262.57 0, -360 0 M-360 0 C-360 33.82, -360 67.65, -360 100 M-360 0 C-360 28.77, -360 57.54, -360 100" stroke="#000000" stroke-width="1" fill="none"></path></g><g transform="translate(430 70) rotate(0 -180 50)"><path d="M-360 100 L-366.34 86.41 L-353.66 86.41 L-360 100" stroke="none" stroke-width="0" fill="#000000" fill-rule="evenodd"></path><path d="M-360 100 C-361.84 96.05, -363.69 92.09, -366.34 86.41 M-360 100 C-362.31 95.04, -364.62 90.08, -366.34 86.41 M-366.34 86.41 C-362.05 86.41, -357.76 86.41, -353.66 86.41 M-366.34 86.41 C-362.69 86.41, -359.04 86.41, -353.66 86.41 M-353.66 86.41 C-356.17 91.78, -358.67 97.15, -360 100 M-353.66 86.41 C-355.63 90.63, -357.6 94.86, -360 100 M-360 100 C-360 100, -360 100, -360 100 M-360 100 C-360 100, -360 100, -360 100" stroke="#000000" stroke-width="1" fill="none"></path></g></g><mask></mask><g stroke-linecap="round" transform="translate(30 170) rotate(0 40 20)"><path d="M0 0 L80 0 L80 40 L0 40" stroke="none" stroke-width="0" fill="#fab005"></path><path d="M0 0 C29 0, 57.99 0, 80 0 M80 0 C80 10.92, 80 21.84, 80 40 M80 40 C56.21 40, 32.42 40, 0 40 M0 40 C0 24.16, 0 8.32, 0 0" stroke="#000000" stroke-width="1.5" fill="none" stroke-dasharray="1.5 7"></path></g><g transform="translate(41.875 180.4000000000001) rotate(0 28.125 9.600000000000023)"><text x="28.125" y="0" font-family="Cascadia, Segoe UI Emoji" font-size="16px" fill="#000000" text-anchor="middle" style="white-space: pre;" direction="ltr" dominant-baseline="text-before-edge">sha256</text></g><g stroke-linecap="round"><g transform="translate(430 470) rotate(0 -180 -130)"><path d="M0 0 C-104.67 0, -209.34 0, -360 0 M0 0 C-131.28 0, -262.57 0, -360 0 M-360 0 C-359.2 -87.94, -358.4 -175.88, -357.64 -260 M-360 0 C-359.32 -74.8, -358.64 -149.59, -357.64 -260" stroke="#000000" stroke-width="1" fill="none"></path></g><g transform="translate(430 470) rotate(0 -180 -130)"><path d="M-357.64 -260 L-351.42 -246.35 L-364.1 -246.46 L-357.64 -260" stroke="none" stroke-width="0" fill="#000000" fill-rule="evenodd"></path><path d="M-357.64 -260 C-355.83 -256.03, -354.02 -252.06, -351.42 -246.35 M-357.64 -260 C-355.37 -255.02, -353.11 -250.04, -351.42 -246.35 M-351.42 -246.35 C-355.71 -246.39, -360 -246.43, -364.1 -246.46 M-351.42 -246.35 C-355.07 -246.38, -358.72 -246.41, -364.1 -246.46 M-364.1 -246.46 C-361.55 -251.81, -358.99 -257.16, -357.64 -260 M-364.1 -246.46 C-362.09 -250.67, -360.08 -254.88, -357.64 -260 M-357.64 -260 C-357.64 -260, -357.64 -260, -357.64 -260 M-357.64 -260 C-357.64 -260, -357.64 -260, -357.64 -260" stroke="#000000" stroke-width="1" fill="none"></path></g></g><mask></mask><g stroke-linecap="round"><g transform="translate(450 10) rotate(0 -10 60)"><path d="M0 0 C-5.42 0, -10.84 0, -20 0 M0 0 C-7.71 0, -15.41 0, -20 0 M-20 0 C-20 44.18, -20 88.35, -20 120 M-20 0 C-20 44.22, -20 88.44, -20 120 M-20 120 C-15.42 120, -10.84 120, 0 120 M-20 120 C-13.71 120, -7.42 120, 0 120" stroke="#000000" stroke-width="1" fill="none"></path></g></g><mask></mask><g stroke-linecap="round"><g transform="translate(450 270) rotate(0 -10 170)"><path d="M0 0 C-5.42 0, -10.84 0, -20 0 M0 0 C-7.71 0, -15.41 0, -20 0 M-20 0 C-20 125.17, -20 250.33, -20 340 M-20 0 C-20 125.29, -20 250.58, -20 340 M-20 340 C-15.42 340, -10.84 340, 0 340 M-20 340 C-13.71 340, -7.42 340, 0 340" stroke="#000000" stroke-width="1" fill="none"></path></g></g><mask></mask><g stroke-linecap="round"><g transform="translate(391 230) rotate(0 49 0)"><path d="M0 0 C35.29 0, 70.59 0, 98 0 M0 0 C32.66 0, 65.33 0, 98 0" stroke="#000000" stroke-width="1" fill="none"></path></g><g transform="translate(391 230) rotate(0 49 0)"><path d="M98 0 L84.41 6.34 L84.41 -6.34 L98 0" stroke="none" stroke-width="0" fill="#000000" fill-rule="evenodd"></path><path d="M98 0 C93.1 2.28, 88.21 4.57, 84.41 6.34 M98 0 C93.47 2.11, 88.94 4.23, 84.41 6.34 M84.41 6.34 C84.41 3.68, 84.41 1.02, 84.41 -6.34 M84.41 6.34 C84.41 1.85, 84.41 -2.63, 84.41 -6.34 M84.41 -6.34 C89.05 -4.17, 93.7 -2, 98 0 M84.41 -6.34 C88.03 -4.65, 91.65 -2.96, 98 0 M98 0 C98 0, 98 0, 98 0 M98 0 C98 0, 98 0, 98 0" stroke="#000000" stroke-width="1" fill="none"></path></g></g><mask></mask><g stroke-linecap="round"><g transform="translate(111 190) rotate(0 189 0)"><path d="M0 0 C136.13 0, 272.27 0, 378 0 M0 0 C125.99 0, 251.98 0, 378 0" stroke="#000000" stroke-width="1" fill="none"></path></g><g transform="translate(111 190) rotate(0 189 0)"><path d="M378 0 L364.41 6.34 L364.41 -6.34 L378 0" stroke="none" stroke-width="0" fill="#000000" fill-rule="evenodd"></path><path d="M378 0 C373.1 2.28, 368.21 4.57, 364.41 6.34 M378 0 C373.47 2.11, 368.94 4.23, 364.41 6.34 M364.41 6.34 C364.41 3.68, 364.41 1.02, 364.41 -6.34 M364.41 6.34 C364.41 1.85, 364.41 -2.63, 364.41 -6.34 M364.41 -6.34 C369.05 -4.17, 373.7 -2, 378 0 M364.41 -6.34 C368.03 -4.65, 371.65 -2.96, 378 0 M378 0 C378 0, 378 0, 378 0 M378 0 C378 0, 378 0, 378 0" stroke="#000000" stroke-width="1" fill="none"></path></g></g><mask></mask><g stroke-linecap="round"><g transform="translate(171 270) rotate(0 29 0)"><path d="M0 0 C20.89 0, 41.78 0, 58 0 M0 0 C19.33 0, 38.66 0, 58 0" stroke="#000000" stroke-width="1" fill="none"></path></g><g transform="translate(171 270) rotate(0 29 0)"><path d="M58 0 L44.41 6.34 L44.41 -6.34 L58 0" stroke="none" stroke-width="0" fill="#000000" fill-rule="evenodd"></path><path d="M58 0 C53.1 2.28, 48.21 4.57, 44.41 6.34 M58 0 C53.47 2.11, 48.94 4.23, 44.41 6.34 M44.41 6.34 C44.41 3.68, 44.41 1.02, 44.41 -6.34 M44.41 6.34 C44.41 1.85, 44.41 -2.63, 44.41 -6.34 M44.41 -6.34 C49.05 -4.17, 53.7 -2, 58 0 M44.41 -6.34 C48.03 -4.65, 51.65 -2.96, 58 0 M58 0 C58 0, 58 0, 58 0 M58 0 C58 0, 58 0, 58 0" stroke="#000000" stroke-width="1" fill="none"></path></g></g><mask></mask><g stroke-linecap="round"><g transform="translate(190 190) rotate(0 0 40)"><path d="M0 0 C0 28.81, 0 57.62, 0 80 M0 0 C0 26.66, 0 53.33, 0 80" stroke="#000000" stroke-width="1" fill="none"></path></g><g transform="translate(190 190) rotate(0 0 40)"><path d="M0 80 L-6.34 66.41 L6.34 66.41 L0 80" stroke="none" stroke-width="0" fill="#000000" fill-rule="evenodd"></path><path d="M0 80 C-2.28 75.1, -4.57 70.21, -6.34 66.41 M0 80 C-2.11 75.47, -4.23 70.94, -6.34 66.41 M-6.34 66.41 C-3.68 66.41, -1.02 66.41, 6.34 66.41 M-6.34 66.41 C-1.85 66.41, 2.63 66.41, 6.34 66.41 M6.34 66.41 C4.17 71.05, 2 75.7, 0 80 M6.34 66.41 C4.65 70.03, 2.96 73.65, 0 80 M0 80 C0 80, 0 80, 0 80 M0 80 C0 80, 0 80, 0 80" stroke="#000000" stroke-width="1" fill="none"></path></g></g><mask></mask><g stroke-linecap="round"><g transform="translate(309.99999899197377 349) rotate(0 2.1519659298974148e-7 -19)"><path d="M0 0 C0 -13.69, 0 -27.37, 0 -38 M0 0 C0 -12.67, 0 -25.33, 0 -38" stroke="#000000" stroke-width="1" fill="none"></path></g><g transform="translate(309.99999899197377 349) rotate(0 2.1519659298974148e-7 -19)"><path d="M0 -38 L6.34 -24.41 L-6.34 -24.41 L0 -38" stroke="none" stroke-width="0" fill="#000000" fill-rule="evenodd"></path><path d="M0 -38 C2.28 -33.1, 4.57 -28.21, 6.34 -24.41 M0 -38 C2.11 -33.47, 4.23 -28.94, 6.34 -24.41 M6.34 -24.41 C3.68 -24.41, 1.02 -24.41, -6.34 -24.41 M6.34 -24.41 C1.85 -24.41, -2.63 -24.41, -6.34 -24.41 M-6.34 -24.41 C-4.17 -29.05, -2 -33.7, 0 -38 M-6.34 -24.41 C-4.65 -28.03, -2.96 -31.65, 0 -38 M0 -38 C0 -38, 0 -38, 0 -38 M0 -38 C0 -38, 0 -38, 0 -38" stroke="#000000" stroke-width="1" fill="none"></path></g></g><mask></mask><g stroke-linecap="round" transform="translate(950 170) rotate(0 200 140)"><path d="M0 0 L400 0 L400 280 L0 280" stroke="none" stroke-width="0" fill="#efefef"></path><path d="M0 0 C96.88 0, 193.75 0, 400 0 M400 0 C400 67.16, 400 134.31, 400 280 M400 280 C270.88 280, 141.75 280, 0 280 M0 280 C0 209.51, 0 139.02, 0 0" stroke="#000000" stroke-width="1.5" fill="none" stroke-dasharray="1.5 7"></path></g><g transform="translate(1107.8125 175) rotate(0 42.1875 9.600000000000023)"><text x="42.1875" y="0" font-family="Cascadia, Segoe UI Emoji" font-size="16px" fill="#000000" text-anchor="middle" style="white-space: pre;" direction="ltr" dominant-baseline="text-before-edge">verifying</text></g><g stroke-linecap="round" transform="translate(1170 210) rotate(0 80 40)"><path d="M0 0 L160 0 L160 80 L0 80" stroke="none" stroke-width="0" fill="#fab005"></path><path d="M0 0 C57.99 0, 115.99 0, 160 0 M160 0 C160 21.84, 160 43.69, 160 80 M160 80 C112.42 80, 64.85 80, 0 80 M0 80 C0 48.32, 0 16.63, 0 0" stroke="#000000" stroke-width="1.5" fill="none" stroke-dasharray="1.5 7"></path></g><g transform="translate(1184.375 221.20000000000005) rotate(0 65.625 28.799999999999955)"><text x="65.625" y="0" font-family="Cascadia, Segoe UI Emoji" font-size="16px" fill="#000000" text-anchor="middle" style="white-space: pre;" direction="ltr" dominant-baseline="text-before-edge">RSA</text><text x="65.625" y="19.2" font-family="Cascadia, Segoe UI Emoji" font-size="16px" fill="#000000" text-anchor="middle" style="white-space: pre;" direction="ltr" dominant-baseline="text-before-edge">exponentiation</text><text x="65.625" y="38.4" font-family="Cascadia, Segoe UI Emoji" font-size="16px" fill="#000000" text-anchor="middle" style="white-space: pre;" direction="ltr" dominant-baseline="text-before-edge">"encrypt"</text></g><g stroke-linecap="round" transform="translate(1050 250) rotate(0 40 30.5)"><path d="M0 0 L80 0 L80 61 L0 61" stroke="none" stroke-width="0" fill="#40c057"></path><path d="M0 0 C29 0, 57.99 0, 80 0 M0 0 C21.84 0, 43.69 0, 80 0 M80 0 C80 18.14, 80 36.28, 80 61 M80 0 C80 24.16, 80 48.32, 80 61 M80 61 C57.69 61, 35.38 61, 0 61 M80 61 C50.91 61, 21.83 61, 0 61 M0 61 C0 41.98, 0 22.97, 0 0 M0 61 C0 47.68, 0 34.36, 0 0" stroke="#000000" stroke-width="1" fill="none"></path></g><g transform="translate(1057.1875 261.29999999999995) rotate(0 32.8125 19.200000000000045)"><text x="32.8125" y="0" font-family="Cascadia, Segoe UI Emoji" font-size="16px" fill="#000000" text-anchor="middle" style="white-space: pre;" direction="ltr" dominant-baseline="text-before-edge">public</text><text x="32.8125" y="19.2" font-family="Cascadia, Segoe UI Emoji" font-size="16px" fill="#000000" text-anchor="middle" style="white-space: pre;" direction="ltr" dominant-baseline="text-before-edge">e=65537</text></g><g stroke-linecap="round" transform="translate(970 350) rotate(0 40 20)"><path d="M0 0 L80 0 L80 40 L0 40" stroke="none" stroke-width="0" fill="#fab005"></path><path d="M0 0 C29 0, 57.99 0, 80 0 M80 0 C80 10.92, 80 21.84, 80 40 M80 40 C56.21 40, 32.42 40, 0 40 M0 40 C0 24.16, 0 8.32, 0 0" stroke="#000000" stroke-width="1.5" fill="none" stroke-dasharray="1.5 7"></path></g><g transform="translate(981.875 360.4000000000001) rotate(0 28.125 9.600000000000023)"><text x="28.125" y="0" font-family="Cascadia, Segoe UI Emoji" font-size="16px" fill="#000000" text-anchor="middle" style="white-space: pre;" direction="ltr" dominant-baseline="text-before-edge">sha256</text></g><g stroke-linecap="round"><g transform="translate(910 10) rotate(0 10 60)"><path d="M0 0 C5.42 0, 10.84 0, 20 0 M0 0 C7.71 0, 15.41 0, 20 0 M20 0 C20 44.18, 20 88.35, 20 120 M20 0 C20 44.22, 20 88.44, 20 120 M20 120 C15.42 120, 10.84 120, 0 120 M20 120 C13.71 120, 7.42 120, 0 120" stroke="#000000" stroke-width="1" fill="none"></path></g></g><mask></mask><g stroke-linecap="round"><g transform="translate(910 270) rotate(0 10 170)"><path d="M0 0 C5.42 0, 10.84 0, 20 0 M0 0 C7.71 0, 15.41 0, 20 0 M20 0 C20 125.17, 20 250.33, 20 340 M20 0 C20 125.29, 20 250.58, 20 340 M20 340 C15.42 340, 10.84 340, 0 340 M20 340 C13.71 340, 7.42 340, 0 340" stroke="#000000" stroke-width="1" fill="none"></path></g></g><mask></mask><g stroke-linecap="round"><g transform="translate(870 230) rotate(0 150 0)"><path d="M0 0 C108.04 0, 216.09 0, 300 0 M0 0 C99.99 0, 199.98 0, 300 0" stroke="#000000" stroke-width="1" fill="none"></path></g><g transform="translate(870 230) rotate(0 150 0)"><path d="M300 0 L286.41 6.34 L286.41 -6.34 L300 0" stroke="none" stroke-width="0" fill="#000000" fill-rule="evenodd"></path><path d="M300 0 C295.1 2.28, 290.21 4.57, 286.41 6.34 M300 0 C295.47 2.11, 290.94 4.23, 286.41 6.34 M286.41 6.34 C286.41 3.68, 286.41 1.02, 286.41 -6.34 M286.41 6.34 C286.41 1.85, 286.41 -2.63, 286.41 -6.34 M286.41 -6.34 C291.05 -4.17, 295.7 -2, 300 0 M286.41 -6.34 C290.03 -4.65, 293.65 -2.96, 300 0 M300 0 C300 0, 300 0, 300 0 M300 0 C300 0, 300 0, 300 0" stroke="#000000" stroke-width="1" fill="none"></path></g></g><mask></mask><g stroke-linecap="round"><g transform="translate(1270 291) rotate(0 0 29)"><path d="M0 0 C0 20.89, 0 41.78, 0 58 M0 0 C0 19.33, 0 38.66, 0 58" stroke="#000000" stroke-width="1" fill="none"></path></g><g transform="translate(1270 291) rotate(0 0 29)"><path d="M0 58 L-6.34 44.41 L6.34 44.41 L0 58" stroke="none" stroke-width="0" fill="#000000" fill-rule="evenodd"></path><path d="M0 58 C-2.28 53.1, -4.57 48.21, -6.34 44.41 M0 58 C-2.11 53.47, -4.23 48.94, -6.34 44.41 M-6.34 44.41 C-3.68 44.41, -1.02 44.41, 6.34 44.41 M-6.34 44.41 C-1.85 44.41, 2.63 44.41, 6.34 44.41 M6.34 44.41 C4.17 49.05, 2 53.7, 0 58 M6.34 44.41 C4.65 48.03, 2.96 51.65, 0 58 M0 58 C0 58, 0 58, 0 58 M0 58 C0 58, 0 58, 0 58" stroke="#000000" stroke-width="1" fill="none"></path></g></g><mask></mask><g stroke-linecap="round"><g transform="translate(1130 270) rotate(0 20 0)"><path d="M0 0 C14.41 0, 28.81 0, 40 0 M0 0 C13.33 0, 26.66 0, 40 0" stroke="#000000" stroke-width="1" fill="none"></path></g><g transform="translate(1130 270) rotate(0 20 0)"><path d="M40 0 L26.41 6.34 L26.41 -6.34 L40 0" stroke="none" stroke-width="0" fill="#000000" fill-rule="evenodd"></path><path d="M40 0 C35.1 2.28, 30.21 4.57, 26.41 6.34 M40 0 C35.47 2.11, 30.94 4.23, 26.41 6.34 M26.41 6.34 C26.41 3.68, 26.41 1.02, 26.41 -6.34 M26.41 6.34 C26.41 1.85, 26.41 -2.63, 26.41 -6.34 M26.41 -6.34 C31.05 -4.17, 35.7 -2, 40 0 M26.41 -6.34 C30.03 -4.65, 33.65 -2.96, 40 0 M40 0 C40 0, 40 0, 40 0 M40 0 C40 0, 40 0, 40 0" stroke="#000000" stroke-width="1" fill="none"></path></g></g><mask></mask><g stroke-linecap="round" transform="translate(1230 390) rotate(0 40 20)"><path d="M0 0 L80 0 L80 40 L0 40" stroke="none" stroke-width="0" fill="#ced4da"></path><path d="M0 0 C29 0, 57.99 0, 80 0 M0 0 C21.84 0, 43.69 0, 80 0 M80 0 C80 11.89, 80 23.79, 80 40 M80 0 C80 15.84, 80 31.68, 80 40 M80 40 C57.69 40, 35.38 40, 0 40 M80 40 C50.91 40, 21.83 40, 0 40 M0 40 C0 27.53, 0 15.06, 0 0 M0 40 C0 31.27, 0 22.53, 0 0" stroke="#000000" stroke-width="1" fill="none"></path></g><g transform="translate(1237.1875 400.4000000000001) rotate(0 32.8125 9.600000000000023)"><text x="32.8125" y="0" font-family="Cascadia, Segoe UI Emoji" font-size="16px" fill="#000000" text-anchor="middle" style="white-space: pre;" direction="ltr" dominant-baseline="text-before-edge">padding</text></g><g stroke-linecap="round" transform="translate(1230 350) rotate(0 40 20)"><path d="M0 0 L80 0 L80 40 L0 40" stroke="none" stroke-width="0" fill="#fab00580"></path><path d="M0 0 C29 0, 57.99 0, 80 0 M0 0 C21.84 0, 43.69 0, 80 0 M80 0 C80 11.89, 80 23.79, 80 40 M80 0 C80 15.84, 80 31.68, 80 40 M80 40 C57.69 40, 35.38 40, 0 40 M80 40 C50.91 40, 21.83 40, 0 40 M0 40 C0 27.53, 0 15.06, 0 0 M0 40 C0 31.27, 0 22.53, 0 0" stroke="#000000" stroke-width="1" fill="none"></path></g><g transform="translate(1251.25 360.4000000000001) rotate(0 18.75 9.600000000000023)"><text x="18.75" y="0" font-family="Cascadia, Segoe UI Emoji" font-size="16px" fill="#000000" text-anchor="middle" style="white-space: pre;" direction="ltr" dominant-baseline="text-before-edge">hash</text></g><g stroke-linecap="round" transform="translate(1090 350) rotate(0 50 20)"><path d="M0 0 L100 0 L100 40 L0 40" stroke="none" stroke-width="0" fill="#ffffff"></path><path d="M0 0 C36.25 0, 72.49 0, 100 0 M100 0 C100 10.92, 100 21.84, 100 40 M100 40 C70.27 40, 40.53 40, 0 40 M0 40 C0 24.16, 0 8.32, 0 0" stroke="#000000" stroke-width="1.5" fill="none" stroke-dasharray="1.5 7"></path></g><g transform="translate(1102.5 360.4000000000001) rotate(0 37.5 9.600000000000023)"><text x="37.5" y="0" font-family="Cascadia, Segoe UI Emoji" font-size="16px" fill="#000000" text-anchor="middle" style="white-space: pre;" direction="ltr" dominant-baseline="text-before-edge">compare!</text></g><g stroke-linecap="round"><g transform="translate(1050 370) rotate(0 20 0)"><path d="M0 0 C14.41 0, 28.81 0, 40 0 M0 0 C13.33 0, 26.66 0, 40 0" stroke="#000000" stroke-width="1" fill="none"></path></g><g transform="translate(1050 370) rotate(0 20 0)"><path d="M40 0 L26.41 6.34 L26.41 -6.34 L40 0" stroke="none" stroke-width="0" fill="#000000" fill-rule="evenodd"></path><path d="M40 0 C35.1 2.28, 30.21 4.57, 26.41 6.34 M40 0 C35.47 2.11, 30.94 4.23, 26.41 6.34 M26.41 6.34 C26.41 3.68, 26.41 1.02, 26.41 -6.34 M26.41 6.34 C26.41 1.85, 26.41 -2.63, 26.41 -6.34 M26.41 -6.34 C31.05 -4.17, 35.7 -2, 40 0 M26.41 -6.34 C30.03 -4.65, 33.65 -2.96, 40 0 M40 0 C40 0, 40 0, 40 0 M40 0 C40 0, 40 0, 40 0" stroke="#000000" stroke-width="1" fill="none"></path></g></g><mask></mask><g stroke-linecap="round"><g transform="translate(1230 370) rotate(0 -20 0)"><path d="M0 0 C-14.41 0, -28.81 0, -40 0 M0 0 C-13.33 0, -26.66 0, -40 0" stroke="#000000" stroke-width="1" fill="none"></path></g><g transform="translate(1230 370) rotate(0 -20 0)"><path d="M-40 0 L-26.41 -6.34 L-26.41 6.34 L-40 0" stroke="none" stroke-width="0" fill="#000000" fill-rule="evenodd"></path><path d="M-40 0 C-35.1 -2.28, -30.21 -4.57, -26.41 -6.34 M-40 0 C-35.47 -2.11, -30.94 -4.23, -26.41 -6.34 M-26.41 -6.34 C-26.41 -3.68, -26.41 -1.02, -26.41 6.34 M-26.41 -6.34 C-26.41 -1.85, -26.41 2.63, -26.41 6.34 M-26.41 6.34 C-31.05 4.17, -35.7 2, -40 0 M-26.41 6.34 C-30.03 4.65, -33.65 2.96, -40 0 M-40 0 C-40 0, -40 0, -40 0 M-40 0 C-40 0, -40 0, -40 0" stroke="#000000" stroke-width="1" fill="none"></path></g></g><mask></mask><g stroke-linecap="round"><g transform="translate(930 70) rotate(0 40 139.5)"><path d="M0 0 C23.26 0, 46.52 0, 80 0 M0 0 C29.17 0, 58.35 0, 80 0 M80 0 C80 94.37, 80 188.74, 80 279 M80 0 C80 80.26, 80 160.53, 80 279" stroke="#000000" stroke-width="1" fill="none"></path></g><g transform="translate(930 70) rotate(0 40 139.5)"><path d="M80 279 L73.66 265.41 L86.34 265.41 L80 279" stroke="none" stroke-width="0" fill="#000000" fill-rule="evenodd"></path><path d="M80 279 C78.16 275.05, 76.31 271.09, 73.66 265.41 M80 279 C77.69 274.04, 75.38 269.08, 73.66 265.41 M73.66 265.41 C77.95 265.41, 82.24 265.41, 86.34 265.41 M73.66 265.41 C77.31 265.41, 80.96 265.41, 86.34 265.41 M86.34 265.41 C83.83 270.78, 81.33 276.15, 80 279 M86.34 265.41 C84.37 269.63, 82.4 273.86, 80 279 M80 279 C80 279, 80 279, 80 279 M80 279 C80 279, 80 279, 80 279" stroke="#000000" stroke-width="1" fill="none"></path></g></g><mask></mask><g stroke-linecap="round"><g transform="translate(930 530) rotate(0 40 -69.5)"><path d="M0 0 C23.26 0, 46.52 0, 80 0 M0 0 C29.17 0, 58.35 0, 80 0 M80 0 C80 -47.01, 80 -94.03, 80 -139 M80 0 C80 -39.99, 80 -79.98, 80 -139" stroke="#000000" stroke-width="1" fill="none"></path></g><g transform="translate(930 530) rotate(0 40 -69.5)"><path d="M80 -139 L86.34 -125.41 L73.66 -125.41 L80 -139" stroke="none" stroke-width="0" fill="#000000" fill-rule="evenodd"></path><path d="M80 -139 C81.84 -135.05, 83.69 -131.09, 86.34 -125.41 M80 -139 C82.31 -134.04, 84.62 -129.08, 86.34 -125.41 M86.34 -125.41 C82.05 -125.41, 77.76 -125.41, 73.66 -125.41 M86.34 -125.41 C82.69 -125.41, 79.04 -125.41, 73.66 -125.41 M73.66 -125.41 C76.17 -130.78, 78.67 -136.15, 80 -139 M73.66 -125.41 C75.63 -129.63, 77.6 -133.86, 80 -139 M80 -139 C80 -139, 80 -139, 80 -139 M80 -139 C80 -139, 80 -139, 80 -139" stroke="#000000" stroke-width="1" fill="none"></path></g></g><mask></mask></svg>