<?xml version="1.0" encoding="UTF-8" standalone="no"?>
<!DOCTYPE svg PUBLIC "-//W3C//DTD SVG 1.1//EN"
 "http://www.w3.org/Graphics/SVG/1.1/DTD/svg11.dtd">
<!-- Generated by graphviz version 2.49.3 (20211023.0002)
 -->
<!-- Title: G Pages: 1 -->
<svg width="1507pt" height="1038pt"
 viewBox="0.00 0.00 1507.00 1038.00" xmlns="http://www.w3.org/2000/svg" xmlns:xlink="http://www.w3.org/1999/xlink">
<g id="graph0" class="graph" transform="scale(1 1) rotate(0) translate(4 1034)">
<title>G</title>
<polygon fill="white" stroke="transparent" points="-4,4 -4,-1034 1503,-1034 1503,4 -4,4"/>
<!-- 466 -->
<g id="node1" class="node">
<title>466</title>
<path fill="#b3e2cd" stroke="#b3e2cd" d="M696.5,-848.5C696.5,-848.5 841.5,-848.5 841.5,-848.5 847.5,-848.5 853.5,-854.5 853.5,-860.5 853.5,-860.5 853.5,-874.5 853.5,-874.5 853.5,-880.5 847.5,-886.5 841.5,-886.5 841.5,-886.5 696.5,-886.5 696.5,-886.5 690.5,-886.5 684.5,-880.5 684.5,-874.5 684.5,-874.5 684.5,-860.5 684.5,-860.5 684.5,-854.5 690.5,-848.5 696.5,-848.5"/>
<text text-anchor="start" x="692.5" y="-871.3" font-family="Times,serif" font-size="14.00">0x1D2: DW_TAG_typedef</text>
<text text-anchor="middle" x="769" y="-856.3" font-family="Times,serif" font-size="14.00">uint64_t</text>
</g>
<!-- 477 -->
<g id="node24" class="node">
<title>477</title>
<path fill="#cccccc" stroke="#cccccc" d="M902,-848.5C902,-848.5 1064,-848.5 1064,-848.5 1070,-848.5 1076,-854.5 1076,-860.5 1076,-860.5 1076,-874.5 1076,-874.5 1076,-880.5 1070,-886.5 1064,-886.5 1064,-886.5 902,-886.5 902,-886.5 896,-886.5 890,-880.5 890,-874.5 890,-874.5 890,-860.5 890,-860.5 890,-854.5 896,-848.5 902,-848.5"/>
<text text-anchor="start" x="898" y="-871.3" font-family="Times,serif" font-size="14.00">0x1DD: DW_TAG_base_type</text>
<text text-anchor="middle" x="983" y="-856.3" font-family="Times,serif" font-size="14.00">long unsigned int</text>
</g>
<!-- 466&#45;&gt;477 -->
<g id="edge1" class="edge">
<title>466&#45;&gt;477</title>
<path fill="none" stroke="darkgray" stroke-dasharray="5,2" d="M853.79,-867.5C862.27,-867.5 870.96,-867.5 879.61,-867.5"/>
<polygon fill="darkgray" stroke="darkgray" points="879.74,-871 889.74,-867.5 879.74,-864 879.74,-871"/>
</g>
<!-- 348 -->
<g id="node2" class="node">
<title>348</title>
<path fill="#f1e2cc" stroke="#f1e2cc" d="M247.5,-535.5C247.5,-535.5 395.5,-535.5 395.5,-535.5 401.5,-535.5 407.5,-541.5 407.5,-547.5 407.5,-547.5 407.5,-561.5 407.5,-561.5 407.5,-567.5 401.5,-573.5 395.5,-573.5 395.5,-573.5 247.5,-573.5 247.5,-573.5 241.5,-573.5 235.5,-567.5 235.5,-561.5 235.5,-561.5 235.5,-547.5 235.5,-547.5 235.5,-541.5 241.5,-535.5 247.5,-535.5"/>
<text text-anchor="start" x="243.5" y="-558.3" font-family="Times,serif" font-size="14.00">0x15C: DW_TAG_member</text>
<text text-anchor="middle" x="321.5" y="-543.3" font-family="Times,serif" font-size="14.00">stx_ctime</text>
</g>
<!-- 513 -->
<g id="node9" class="node">
<title>513</title>
<path fill="#f4cae4" stroke="#f4cae4" d="M456,-493.5C456,-493.5 636,-493.5 636,-493.5 642,-493.5 648,-499.5 648,-505.5 648,-505.5 648,-519.5 648,-519.5 648,-525.5 642,-531.5 636,-531.5 636,-531.5 456,-531.5 456,-531.5 450,-531.5 444,-525.5 444,-519.5 444,-519.5 444,-505.5 444,-505.5 444,-499.5 450,-493.5 456,-493.5"/>
<text text-anchor="start" x="452" y="-516.3" font-family="Times,serif" font-size="14.00">0x201: DW_TAG_structure_type</text>
<text text-anchor="middle" x="546" y="-501.3" font-family="Times,serif" font-size="14.00">statx_timestamp</text>
</g>
<!-- 348&#45;&gt;513 -->
<g id="edge2" class="edge">
<title>348&#45;&gt;513</title>
<path fill="none" stroke="darkgray" stroke-dasharray="5,2" d="M407.57,-538.44C416.31,-536.79 425.27,-535.1 434.23,-533.41"/>
<polygon fill="darkgray" stroke="darkgray" points="435.15,-536.8 444.33,-531.5 433.85,-529.92 435.15,-536.8"/>
</g>
<!-- 506 -->
<g id="node3" class="node">
<title>506</title>
<path fill="#cccccc" stroke="#cccccc" d="M903.5,-649.5C903.5,-649.5 1062.5,-649.5 1062.5,-649.5 1068.5,-649.5 1074.5,-655.5 1074.5,-661.5 1074.5,-661.5 1074.5,-675.5 1074.5,-675.5 1074.5,-681.5 1068.5,-687.5 1062.5,-687.5 1062.5,-687.5 903.5,-687.5 903.5,-687.5 897.5,-687.5 891.5,-681.5 891.5,-675.5 891.5,-675.5 891.5,-661.5 891.5,-661.5 891.5,-655.5 897.5,-649.5 903.5,-649.5"/>
<text text-anchor="start" x="899.5" y="-672.3" font-family="Times,serif" font-size="14.00">0x1FA: DW_TAG_base_type</text>
<text text-anchor="middle" x="983" y="-657.3" font-family="Times,serif" font-size="14.00">unsigned short</text>
</g>
<!-- 484 -->
<g id="node4" class="node">
<title>484</title>
<path fill="#b3e2cd" stroke="#b3e2cd" d="M474.5,-649.5C474.5,-649.5 617.5,-649.5 617.5,-649.5 623.5,-649.5 629.5,-655.5 629.5,-661.5 629.5,-661.5 629.5,-675.5 629.5,-675.5 629.5,-681.5 623.5,-687.5 617.5,-687.5 617.5,-687.5 474.5,-687.5 474.5,-687.5 468.5,-687.5 462.5,-681.5 462.5,-675.5 462.5,-675.5 462.5,-661.5 462.5,-661.5 462.5,-655.5 468.5,-649.5 474.5,-649.5"/>
<text text-anchor="start" x="470.5" y="-672.3" font-family="Times,serif" font-size="14.00">0x1E4: DW_TAG_typedef</text>
<text text-anchor="middle" x="546" y="-657.3" font-family="Times,serif" font-size="14.00">__u16</text>
</g>
<!-- 495 -->
<g id="node5" class="node">
<title>495</title>
<path fill="#b3e2cd" stroke="#b3e2cd" d="M697,-649.5C697,-649.5 841,-649.5 841,-649.5 847,-649.5 853,-655.5 853,-661.5 853,-661.5 853,-675.5 853,-675.5 853,-681.5 847,-687.5 841,-687.5 841,-687.5 697,-687.5 697,-687.5 691,-687.5 685,-681.5 685,-675.5 685,-675.5 685,-661.5 685,-661.5 685,-655.5 691,-649.5 697,-649.5"/>
<text text-anchor="start" x="693" y="-672.3" font-family="Times,serif" font-size="14.00">0x1EF: DW_TAG_typedef</text>
<text text-anchor="middle" x="769" y="-657.3" font-family="Times,serif" font-size="14.00">uint16_t</text>
</g>
<!-- 484&#45;&gt;495 -->
<g id="edge3" class="edge">
<title>484&#45;&gt;495</title>
<path fill="none" stroke="darkgray" stroke-dasharray="5,2" d="M629.61,-668.5C644.25,-668.5 659.59,-668.5 674.51,-668.5"/>
<polygon fill="darkgray" stroke="darkgray" points="674.76,-672 684.76,-668.5 674.76,-665 674.76,-672"/>
</g>
<!-- 495&#45;&gt;506 -->
<g id="edge4" class="edge">
<title>495&#45;&gt;506</title>
<path fill="none" stroke="darkgray" stroke-dasharray="5,2" d="M853.18,-668.5C862.38,-668.5 871.82,-668.5 881.21,-668.5"/>
<polygon fill="darkgray" stroke="darkgray" points="881.36,-672 891.36,-668.5 881.36,-665 881.36,-672"/>
</g>
<!-- 336 -->
<g id="node6" class="node">
<title>336</title>
<path fill="#f1e2cc" stroke="#f1e2cc" d="M248.5,-478.5C248.5,-478.5 394.5,-478.5 394.5,-478.5 400.5,-478.5 406.5,-484.5 406.5,-490.5 406.5,-490.5 406.5,-504.5 406.5,-504.5 406.5,-510.5 400.5,-516.5 394.5,-516.5 394.5,-516.5 248.5,-516.5 248.5,-516.5 242.5,-516.5 236.5,-510.5 236.5,-504.5 236.5,-504.5 236.5,-490.5 236.5,-490.5 236.5,-484.5 242.5,-478.5 248.5,-478.5"/>
<text text-anchor="start" x="244.5" y="-501.3" font-family="Times,serif" font-size="14.00">0x150: DW_TAG_member</text>
<text text-anchor="middle" x="321.5" y="-486.3" font-family="Times,serif" font-size="14.00">stx_btime</text>
</g>
<!-- 336&#45;&gt;513 -->
<g id="edge5" class="edge">
<title>336&#45;&gt;513</title>
<path fill="none" stroke="darkgray" stroke-dasharray="5,2" d="M406.62,-503.17C415.47,-503.77 424.57,-504.38 433.66,-504.99"/>
<polygon fill="darkgray" stroke="darkgray" points="433.71,-508.5 443.92,-505.69 434.18,-501.52 433.71,-508.5"/>
</g>
<!-- 568 -->
<g id="node7" class="node">
<title>568</title>
<path fill="#cccccc" stroke="#cccccc" d="M1331,-507.5C1331,-507.5 1487,-507.5 1487,-507.5 1493,-507.5 1499,-513.5 1499,-519.5 1499,-519.5 1499,-533.5 1499,-533.5 1499,-539.5 1493,-545.5 1487,-545.5 1487,-545.5 1331,-545.5 1331,-545.5 1325,-545.5 1319,-539.5 1319,-533.5 1319,-533.5 1319,-519.5 1319,-519.5 1319,-513.5 1325,-507.5 1331,-507.5"/>
<text text-anchor="start" x="1327" y="-530.3" font-family="Times,serif" font-size="14.00">0x238: DW_TAG_base_type</text>
<text text-anchor="middle" x="1409" y="-515.3" font-family="Times,serif" font-size="14.00">long int</text>
</g>
<!-- 324 -->
<g id="node8" class="node">
<title>324</title>
<path fill="#f1e2cc" stroke="#f1e2cc" d="M248.5,-421.5C248.5,-421.5 394.5,-421.5 394.5,-421.5 400.5,-421.5 406.5,-427.5 406.5,-433.5 406.5,-433.5 406.5,-447.5 406.5,-447.5 406.5,-453.5 400.5,-459.5 394.5,-459.5 394.5,-459.5 248.5,-459.5 248.5,-459.5 242.5,-459.5 236.5,-453.5 236.5,-447.5 236.5,-447.5 236.5,-433.5 236.5,-433.5 236.5,-427.5 242.5,-421.5 248.5,-421.5"/>
<text text-anchor="start" x="244.5" y="-444.3" font-family="Times,serif" font-size="14.00">0x144: DW_TAG_member</text>
<text text-anchor="middle" x="321.5" y="-429.3" font-family="Times,serif" font-size="14.00">stx_atime</text>
</g>
<!-- 324&#45;&gt;513 -->
<g id="edge6" class="edge">
<title>324&#45;&gt;513</title>
<path fill="none" stroke="darkgray" stroke-dasharray="5,2" d="M381.25,-459.51C410.41,-468.95 445.82,-480.4 476.23,-490.25"/>
<polygon fill="darkgray" stroke="darkgray" points="475.33,-493.63 485.92,-493.38 477.48,-486.97 475.33,-493.63"/>
</g>
<!-- 521 -->
<g id="node11" class="node">
<title>521</title>
<path fill="#f1e2cc" stroke="#f1e2cc" d="M696,-507.5C696,-507.5 842,-507.5 842,-507.5 848,-507.5 854,-513.5 854,-519.5 854,-519.5 854,-533.5 854,-533.5 854,-539.5 848,-545.5 842,-545.5 842,-545.5 696,-545.5 696,-545.5 690,-545.5 684,-539.5 684,-533.5 684,-533.5 684,-519.5 684,-519.5 684,-513.5 690,-507.5 696,-507.5"/>
<text text-anchor="start" x="692" y="-530.3" font-family="Times,serif" font-size="14.00">0x209: DW_TAG_member</text>
<text text-anchor="middle" x="769" y="-515.3" font-family="Times,serif" font-size="14.00">tv_sec</text>
</g>
<!-- 513&#45;&gt;521 -->
<g id="edge7" class="edge">
<title>513&#45;&gt;521</title>
<path fill="none" stroke="black" d="M648.12,-518.91C656.61,-519.44 665.16,-519.99 673.6,-520.52"/>
<polygon fill="black" stroke="black" points="673.6,-524.03 683.8,-521.17 674.04,-517.04 673.6,-524.03"/>
</g>
<!-- 533 -->
<g id="node15" class="node">
<title>533</title>
<path fill="#f1e2cc" stroke="#f1e2cc" d="M696,-450.5C696,-450.5 842,-450.5 842,-450.5 848,-450.5 854,-456.5 854,-462.5 854,-462.5 854,-476.5 854,-476.5 854,-482.5 848,-488.5 842,-488.5 842,-488.5 696,-488.5 696,-488.5 690,-488.5 684,-482.5 684,-476.5 684,-476.5 684,-462.5 684,-462.5 684,-456.5 690,-450.5 696,-450.5"/>
<text text-anchor="start" x="692" y="-473.3" font-family="Times,serif" font-size="14.00">0x215: DW_TAG_member</text>
<text text-anchor="middle" x="769" y="-458.3" font-family="Times,serif" font-size="14.00">tv_nsec</text>
</g>
<!-- 513&#45;&gt;533 -->
<g id="edge8" class="edge">
<title>513&#45;&gt;533</title>
<path fill="none" stroke="black" d="M644.9,-493.45C654.5,-491.58 664.22,-489.69 673.78,-487.83"/>
<polygon fill="black" stroke="black" points="674.52,-491.25 683.67,-485.91 673.19,-484.38 674.52,-491.25"/>
</g>
<!-- 312 -->
<g id="node10" class="node">
<title>312</title>
<path fill="#f1e2cc" stroke="#f1e2cc" d="M248.5,-877.5C248.5,-877.5 394.5,-877.5 394.5,-877.5 400.5,-877.5 406.5,-883.5 406.5,-889.5 406.5,-889.5 406.5,-903.5 406.5,-903.5 406.5,-909.5 400.5,-915.5 394.5,-915.5 394.5,-915.5 248.5,-915.5 248.5,-915.5 242.5,-915.5 236.5,-909.5 236.5,-903.5 236.5,-903.5 236.5,-889.5 236.5,-889.5 236.5,-883.5 242.5,-877.5 248.5,-877.5"/>
<text text-anchor="start" x="244.5" y="-900.3" font-family="Times,serif" font-size="14.00">0x138: DW_TAG_member</text>
<text text-anchor="middle" x="321.5" y="-885.3" font-family="Times,serif" font-size="14.00">stx_attributes_mask</text>
</g>
<!-- 455 -->
<g id="node36" class="node">
<title>455</title>
<path fill="#b3e2cd" stroke="#b3e2cd" d="M474,-848.5C474,-848.5 618,-848.5 618,-848.5 624,-848.5 630,-854.5 630,-860.5 630,-860.5 630,-874.5 630,-874.5 630,-880.5 624,-886.5 618,-886.5 618,-886.5 474,-886.5 474,-886.5 468,-886.5 462,-880.5 462,-874.5 462,-874.5 462,-860.5 462,-860.5 462,-854.5 468,-848.5 474,-848.5"/>
<text text-anchor="start" x="470" y="-871.3" font-family="Times,serif" font-size="14.00">0x1C7: DW_TAG_typedef</text>
<text text-anchor="middle" x="546" y="-856.3" font-family="Times,serif" font-size="14.00">__u64</text>
</g>
<!-- 312&#45;&gt;455 -->
<g id="edge9" class="edge">
<title>312&#45;&gt;455</title>
<path fill="none" stroke="darkgray" stroke-dasharray="5,2" d="M406.62,-885.54C421.32,-883.62 436.69,-881.62 451.62,-879.67"/>
<polygon fill="darkgray" stroke="darkgray" points="452.41,-883.1 461.87,-878.33 451.5,-876.16 452.41,-883.1"/>
</g>
<!-- 546 -->
<g id="node17" class="node">
<title>546</title>
<path fill="#b3e2cd" stroke="#b3e2cd" d="M912,-507.5C912,-507.5 1054,-507.5 1054,-507.5 1060,-507.5 1066,-513.5 1066,-519.5 1066,-519.5 1066,-533.5 1066,-533.5 1066,-539.5 1060,-545.5 1054,-545.5 1054,-545.5 912,-545.5 912,-545.5 906,-545.5 900,-539.5 900,-533.5 900,-533.5 900,-519.5 900,-519.5 900,-513.5 906,-507.5 912,-507.5"/>
<text text-anchor="start" x="908" y="-530.3" font-family="Times,serif" font-size="14.00">0x222: DW_TAG_typedef</text>
<text text-anchor="middle" x="983" y="-515.3" font-family="Times,serif" font-size="14.00">__s64</text>
</g>
<!-- 521&#45;&gt;546 -->
<g id="edge10" class="edge">
<title>521&#45;&gt;546</title>
<path fill="none" stroke="darkgray" stroke-dasharray="5,2" d="M854.09,-526.5C865.72,-526.5 877.71,-526.5 889.47,-526.5"/>
<polygon fill="darkgray" stroke="darkgray" points="889.74,-530 899.74,-526.5 889.74,-523 889.74,-530"/>
</g>
<!-- 300 -->
<g id="node12" class="node">
<title>300</title>
<path fill="#f1e2cc" stroke="#f1e2cc" d="M247.5,-820.5C247.5,-820.5 395.5,-820.5 395.5,-820.5 401.5,-820.5 407.5,-826.5 407.5,-832.5 407.5,-832.5 407.5,-846.5 407.5,-846.5 407.5,-852.5 401.5,-858.5 395.5,-858.5 395.5,-858.5 247.5,-858.5 247.5,-858.5 241.5,-858.5 235.5,-852.5 235.5,-846.5 235.5,-846.5 235.5,-832.5 235.5,-832.5 235.5,-826.5 241.5,-820.5 247.5,-820.5"/>
<text text-anchor="start" x="243.5" y="-843.3" font-family="Times,serif" font-size="14.00">0x12C: DW_TAG_member</text>
<text text-anchor="middle" x="321.5" y="-828.3" font-family="Times,serif" font-size="14.00">stx_blocks</text>
</g>
<!-- 300&#45;&gt;455 -->
<g id="edge11" class="edge">
<title>300&#45;&gt;455</title>
<path fill="none" stroke="darkgray" stroke-dasharray="5,2" d="M407.57,-850.21C422.02,-852.02 437.1,-853.92 451.75,-855.77"/>
<polygon fill="darkgray" stroke="darkgray" points="451.45,-859.26 461.81,-857.03 452.33,-852.31 451.45,-859.26"/>
</g>
<!-- 557 -->
<g id="node13" class="node">
<title>557</title>
<path fill="#b3e2cd" stroke="#b3e2cd" d="M1125,-507.5C1125,-507.5 1270,-507.5 1270,-507.5 1276,-507.5 1282,-513.5 1282,-519.5 1282,-519.5 1282,-533.5 1282,-533.5 1282,-539.5 1276,-545.5 1270,-545.5 1270,-545.5 1125,-545.5 1125,-545.5 1119,-545.5 1113,-539.5 1113,-533.5 1113,-533.5 1113,-519.5 1113,-519.5 1113,-513.5 1119,-507.5 1125,-507.5"/>
<text text-anchor="start" x="1121" y="-530.3" font-family="Times,serif" font-size="14.00">0x22D: DW_TAG_typedef</text>
<text text-anchor="middle" x="1197.5" y="-515.3" font-family="Times,serif" font-size="14.00">int64_t</text>
</g>
<!-- 557&#45;&gt;568 -->
<g id="edge12" class="edge">
<title>557&#45;&gt;568</title>
<path fill="none" stroke="darkgray" stroke-dasharray="5,2" d="M1282.2,-526.5C1290.98,-526.5 1299.96,-526.5 1308.89,-526.5"/>
<polygon fill="darkgray" stroke="darkgray" points="1308.94,-530 1318.94,-526.5 1308.94,-523 1308.94,-530"/>
</g>
<!-- 288 -->
<g id="node14" class="node">
<title>288</title>
<path fill="#f1e2cc" stroke="#f1e2cc" d="M248.5,-763.5C248.5,-763.5 394.5,-763.5 394.5,-763.5 400.5,-763.5 406.5,-769.5 406.5,-775.5 406.5,-775.5 406.5,-789.5 406.5,-789.5 406.5,-795.5 400.5,-801.5 394.5,-801.5 394.5,-801.5 248.5,-801.5 248.5,-801.5 242.5,-801.5 236.5,-795.5 236.5,-789.5 236.5,-789.5 236.5,-775.5 236.5,-775.5 236.5,-769.5 242.5,-763.5 248.5,-763.5"/>
<text text-anchor="start" x="244.5" y="-786.3" font-family="Times,serif" font-size="14.00">0x120: DW_TAG_member</text>
<text text-anchor="middle" x="321.5" y="-771.3" font-family="Times,serif" font-size="14.00">stx_size</text>
</g>
<!-- 288&#45;&gt;455 -->
<g id="edge13" class="edge">
<title>288&#45;&gt;455</title>
<path fill="none" stroke="darkgray" stroke-dasharray="5,2" d="M382.96,-801.65C391.41,-804.51 399.95,-807.51 408,-810.5 436.05,-820.91 466.86,-833.61 492.14,-844.38"/>
<polygon fill="darkgray" stroke="darkgray" points="490.97,-847.68 501.54,-848.4 493.72,-841.25 490.97,-847.68"/>
</g>
<!-- 433 -->
<g id="node35" class="node">
<title>433</title>
<path fill="#b3e2cd" stroke="#b3e2cd" d="M911,-225.5C911,-225.5 1055,-225.5 1055,-225.5 1061,-225.5 1067,-231.5 1067,-237.5 1067,-237.5 1067,-251.5 1067,-251.5 1067,-257.5 1061,-263.5 1055,-263.5 1055,-263.5 911,-263.5 911,-263.5 905,-263.5 899,-257.5 899,-251.5 899,-251.5 899,-237.5 899,-237.5 899,-231.5 905,-225.5 911,-225.5"/>
<text text-anchor="start" x="907" y="-248.3" font-family="Times,serif" font-size="14.00">0x1B1: DW_TAG_typedef</text>
<text text-anchor="middle" x="983" y="-233.3" font-family="Times,serif" font-size="14.00">__u32</text>
</g>
<!-- 533&#45;&gt;433 -->
<g id="edge14" class="edge">
<title>533&#45;&gt;433</title>
<path fill="none" stroke="darkgray" stroke-dasharray="5,2" d="M838.52,-450.29C844.01,-447.45 849.26,-444.2 854,-440.5 912.15,-395.15 952.17,-315.62 970.55,-273.14"/>
<polygon fill="darkgray" stroke="darkgray" points="973.88,-274.25 974.55,-263.68 967.44,-271.53 973.88,-274.25"/>
</g>
<!-- 276 -->
<g id="node16" class="node">
<title>276</title>
<path fill="#f1e2cc" stroke="#f1e2cc" d="M249,-706.5C249,-706.5 394,-706.5 394,-706.5 400,-706.5 406,-712.5 406,-718.5 406,-718.5 406,-732.5 406,-732.5 406,-738.5 400,-744.5 394,-744.5 394,-744.5 249,-744.5 249,-744.5 243,-744.5 237,-738.5 237,-732.5 237,-732.5 237,-718.5 237,-718.5 237,-712.5 243,-706.5 249,-706.5"/>
<text text-anchor="start" x="245" y="-729.3" font-family="Times,serif" font-size="14.00">0x114: DW_TAG_member</text>
<text text-anchor="middle" x="321.5" y="-714.3" font-family="Times,serif" font-size="14.00">stx_ino</text>
</g>
<!-- 276&#45;&gt;455 -->
<g id="edge15" class="edge">
<title>276&#45;&gt;455</title>
<path fill="none" stroke="darkgray" stroke-dasharray="5,2" d="M389.37,-744.64C395.81,-747.3 402.12,-750.25 408,-753.5 451.13,-777.35 493.62,-815.66 519.58,-841.19"/>
<polygon fill="darkgray" stroke="darkgray" points="517.21,-843.78 526.76,-848.36 522.15,-838.82 517.21,-843.78"/>
</g>
<!-- 546&#45;&gt;557 -->
<g id="edge16" class="edge">
<title>546&#45;&gt;557</title>
<path fill="none" stroke="darkgray" stroke-dasharray="5,2" d="M1066.16,-526.5C1078.11,-526.5 1090.49,-526.5 1102.66,-526.5"/>
<polygon fill="darkgray" stroke="darkgray" points="1102.81,-530 1112.81,-526.5 1102.81,-523 1102.81,-530"/>
</g>
<!-- 264 -->
<g id="node18" class="node">
<title>264</title>
<path fill="#f1e2cc" stroke="#f1e2cc" d="M248.5,-649.5C248.5,-649.5 394.5,-649.5 394.5,-649.5 400.5,-649.5 406.5,-655.5 406.5,-661.5 406.5,-661.5 406.5,-675.5 406.5,-675.5 406.5,-681.5 400.5,-687.5 394.5,-687.5 394.5,-687.5 248.5,-687.5 248.5,-687.5 242.5,-687.5 236.5,-681.5 236.5,-675.5 236.5,-675.5 236.5,-661.5 236.5,-661.5 236.5,-655.5 242.5,-649.5 248.5,-649.5"/>
<text text-anchor="start" x="244.5" y="-672.3" font-family="Times,serif" font-size="14.00">0x108: DW_TAG_member</text>
<text text-anchor="middle" x="321.5" y="-657.3" font-family="Times,serif" font-size="14.00">stx_mode</text>
</g>
<!-- 264&#45;&gt;484 -->
<g id="edge17" class="edge">
<title>264&#45;&gt;484</title>
<path fill="none" stroke="darkgray" stroke-dasharray="5,2" d="M406.62,-668.5C421.42,-668.5 436.9,-668.5 451.92,-668.5"/>
<polygon fill="darkgray" stroke="darkgray" points="452.24,-672 462.24,-668.5 452.24,-665 452.24,-672"/>
</g>
<!-- 252 -->
<g id="node19" class="node">
<title>252</title>
<path fill="#f1e2cc" stroke="#f1e2cc" d="M475,-249.5C475,-249.5 617,-249.5 617,-249.5 623,-249.5 629,-255.5 629,-261.5 629,-261.5 629,-275.5 629,-275.5 629,-281.5 623,-287.5 617,-287.5 617,-287.5 475,-287.5 475,-287.5 469,-287.5 463,-281.5 463,-275.5 463,-275.5 463,-261.5 463,-261.5 463,-255.5 469,-249.5 475,-249.5"/>
<text text-anchor="start" x="471" y="-272.3" font-family="Times,serif" font-size="14.00">0xFC: DW_TAG_member</text>
<text text-anchor="middle" x="546" y="-257.3" font-family="Times,serif" font-size="14.00">stx_gid</text>
</g>
<!-- 252&#45;&gt;433 -->
<g id="edge18" class="edge">
<title>252&#45;&gt;433</title>
<path fill="none" stroke="darkgray" stroke-dasharray="5,2" d="M629.08,-263.97C702.95,-259.9 811.43,-253.91 888.6,-249.65"/>
<polygon fill="darkgray" stroke="darkgray" points="889,-253.14 898.8,-249.09 888.62,-246.15 889,-253.14"/>
</g>
<!-- 204 -->
<g id="node20" class="node">
<title>204</title>
<path fill="#f1e2cc" stroke="#f1e2cc" d="M697.5,-201.5C697.5,-201.5 840.5,-201.5 840.5,-201.5 846.5,-201.5 852.5,-207.5 852.5,-213.5 852.5,-213.5 852.5,-227.5 852.5,-227.5 852.5,-233.5 846.5,-239.5 840.5,-239.5 840.5,-239.5 697.5,-239.5 697.5,-239.5 691.5,-239.5 685.5,-233.5 685.5,-227.5 685.5,-227.5 685.5,-213.5 685.5,-213.5 685.5,-207.5 691.5,-201.5 697.5,-201.5"/>
<text text-anchor="start" x="693.5" y="-224.3" font-family="Times,serif" font-size="14.00">0xCC: DW_TAG_member</text>
<text text-anchor="middle" x="769" y="-209.3" font-family="Times,serif" font-size="14.00">stx_blksize</text>
</g>
<!-- 204&#45;&gt;433 -->
<g id="edge19" class="edge">
<title>204&#45;&gt;433</title>
<path fill="none" stroke="darkgray" stroke-dasharray="5,2" d="M852.57,-229.85C864.47,-231.19 876.78,-232.59 888.87,-233.96"/>
<polygon fill="darkgray" stroke="darkgray" points="888.63,-237.45 898.96,-235.1 889.41,-230.5 888.63,-237.45"/>
</g>
<!-- 216 -->
<g id="node21" class="node">
<title>216</title>
<path fill="#f1e2cc" stroke="#f1e2cc" d="M250.5,-991.5C250.5,-991.5 392.5,-991.5 392.5,-991.5 398.5,-991.5 404.5,-997.5 404.5,-1003.5 404.5,-1003.5 404.5,-1017.5 404.5,-1017.5 404.5,-1023.5 398.5,-1029.5 392.5,-1029.5 392.5,-1029.5 250.5,-1029.5 250.5,-1029.5 244.5,-1029.5 238.5,-1023.5 238.5,-1017.5 238.5,-1017.5 238.5,-1003.5 238.5,-1003.5 238.5,-997.5 244.5,-991.5 250.5,-991.5"/>
<text text-anchor="start" x="246.5" y="-1014.3" font-family="Times,serif" font-size="14.00">0xD8: DW_TAG_member</text>
<text text-anchor="middle" x="321.5" y="-999.3" font-family="Times,serif" font-size="14.00">stx_attributes</text>
</g>
<!-- 216&#45;&gt;455 -->
<g id="edge20" class="edge">
<title>216&#45;&gt;455</title>
<path fill="none" stroke="darkgray" stroke-dasharray="5,2" d="M389.38,-991.38C395.82,-988.72 402.13,-985.76 408,-982.5 451.23,-958.47 493.7,-919.82 519.62,-894.05"/>
<polygon fill="darkgray" stroke="darkgray" points="522.24,-896.39 526.8,-886.82 517.27,-891.45 522.24,-896.39"/>
</g>
<!-- 228 -->
<g id="node22" class="node">
<title>228</title>
<path fill="#f1e2cc" stroke="#f1e2cc" d="M476,-153.5C476,-153.5 616,-153.5 616,-153.5 622,-153.5 628,-159.5 628,-165.5 628,-165.5 628,-179.5 628,-179.5 628,-185.5 622,-191.5 616,-191.5 616,-191.5 476,-191.5 476,-191.5 470,-191.5 464,-185.5 464,-179.5 464,-179.5 464,-165.5 464,-165.5 464,-159.5 470,-153.5 476,-153.5"/>
<text text-anchor="start" x="472" y="-176.3" font-family="Times,serif" font-size="14.00">0xE4: DW_TAG_member</text>
<text text-anchor="middle" x="546" y="-161.3" font-family="Times,serif" font-size="14.00">stx_nlink</text>
</g>
<!-- 228&#45;&gt;433 -->
<g id="edge21" class="edge">
<title>228&#45;&gt;433</title>
<path fill="none" stroke="darkgray" stroke-dasharray="5,2" d="M628.2,-170.28C690.7,-170.31 778.82,-174.12 854,-191.5 882.24,-198.03 912.25,-210.15 936.12,-221.16"/>
<polygon fill="darkgray" stroke="darkgray" points="934.74,-224.38 945.28,-225.47 937.72,-218.05 934.74,-224.38"/>
</g>
<!-- 240 -->
<g id="node23" class="node">
<title>240</title>
<path fill="#f1e2cc" stroke="#f1e2cc" d="M476,-96.5C476,-96.5 616,-96.5 616,-96.5 622,-96.5 628,-102.5 628,-108.5 628,-108.5 628,-122.5 628,-122.5 628,-128.5 622,-134.5 616,-134.5 616,-134.5 476,-134.5 476,-134.5 470,-134.5 464,-128.5 464,-122.5 464,-122.5 464,-108.5 464,-108.5 464,-102.5 470,-96.5 476,-96.5"/>
<text text-anchor="start" x="472" y="-119.3" font-family="Times,serif" font-size="14.00">0xF0: DW_TAG_member</text>
<text text-anchor="middle" x="546" y="-104.3" font-family="Times,serif" font-size="14.00">stx_uid</text>
</g>
<!-- 240&#45;&gt;433 -->
<g id="edge22" class="edge">
<title>240&#45;&gt;433</title>
<path fill="none" stroke="darkgray" stroke-dasharray="5,2" d="M628.27,-121.41C691.4,-127.91 780.29,-141.31 854,-168.5 888.05,-181.06 923.27,-202.71 948.12,-219.7"/>
<polygon fill="darkgray" stroke="darkgray" points="946.25,-222.66 956.46,-225.49 950.24,-216.91 946.25,-222.66"/>
</g>
<!-- 444 -->
<g id="node25" class="node">
<title>444</title>
<path fill="#b3e2cd" stroke="#b3e2cd" d="M1124,-225.5C1124,-225.5 1271,-225.5 1271,-225.5 1277,-225.5 1283,-231.5 1283,-237.5 1283,-237.5 1283,-251.5 1283,-251.5 1283,-257.5 1277,-263.5 1271,-263.5 1271,-263.5 1124,-263.5 1124,-263.5 1118,-263.5 1112,-257.5 1112,-251.5 1112,-251.5 1112,-237.5 1112,-237.5 1112,-231.5 1118,-225.5 1124,-225.5"/>
<text text-anchor="start" x="1120" y="-248.3" font-family="Times,serif" font-size="14.00">0x1BC: DW_TAG_typedef</text>
<text text-anchor="middle" x="1197.5" y="-233.3" font-family="Times,serif" font-size="14.00">uint32_t</text>
</g>
<!-- 167 -->
<g id="node26" class="node">
<title>167</title>
<path fill="#cccccc" stroke="#cccccc" d="M1333,-225.5C1333,-225.5 1485,-225.5 1485,-225.5 1491,-225.5 1497,-231.5 1497,-237.5 1497,-237.5 1497,-251.5 1497,-251.5 1497,-257.5 1491,-263.5 1485,-263.5 1485,-263.5 1333,-263.5 1333,-263.5 1327,-263.5 1321,-257.5 1321,-251.5 1321,-251.5 1321,-237.5 1321,-237.5 1321,-231.5 1327,-225.5 1333,-225.5"/>
<text text-anchor="start" x="1329" y="-248.3" font-family="Times,serif" font-size="14.00">0xA7: DW_TAG_base_type</text>
<text text-anchor="middle" x="1409" y="-233.3" font-family="Times,serif" font-size="14.00">unsigned int</text>
</g>
<!-- 444&#45;&gt;167 -->
<g id="edge23" class="edge">
<title>444&#45;&gt;167</title>
<path fill="none" stroke="darkgray" stroke-dasharray="5,2" d="M1283.11,-244.5C1292.1,-244.5 1301.3,-244.5 1310.43,-244.5"/>
<polygon fill="darkgray" stroke="darkgray" points="1310.69,-248 1320.69,-244.5 1310.69,-241 1310.69,-248"/>
</g>
<!-- 192 -->
<g id="node27" class="node">
<title>192</title>
<path fill="#f1e2cc" stroke="#f1e2cc" d="M698.5,-60.5C698.5,-60.5 839.5,-60.5 839.5,-60.5 845.5,-60.5 851.5,-66.5 851.5,-72.5 851.5,-72.5 851.5,-86.5 851.5,-86.5 851.5,-92.5 845.5,-98.5 839.5,-98.5 839.5,-98.5 698.5,-98.5 698.5,-98.5 692.5,-98.5 686.5,-92.5 686.5,-86.5 686.5,-86.5 686.5,-72.5 686.5,-72.5 686.5,-66.5 692.5,-60.5 698.5,-60.5"/>
<text text-anchor="start" x="694.5" y="-83.3" font-family="Times,serif" font-size="14.00">0xC0: DW_TAG_member</text>
<text text-anchor="middle" x="769" y="-68.3" font-family="Times,serif" font-size="14.00">stx_mask</text>
</g>
<!-- 192&#45;&gt;433 -->
<g id="edge24" class="edge">
<title>192&#45;&gt;433</title>
<path fill="none" stroke="darkgray" stroke-dasharray="5,2" d="M818.65,-98.65C830.65,-104.29 843.16,-110.99 854,-118.5 895.52,-147.28 935.75,-190.09 959.7,-217.65"/>
<polygon fill="darkgray" stroke="darkgray" points="957.13,-220.04 966.3,-225.34 962.44,-215.48 957.13,-220.04"/>
</g>
<!-- 184 -->
<g id="node28" class="node">
<title>184</title>
<path fill="#f4cae4" stroke="#f4cae4" d="M12,-449.5C12,-449.5 187,-449.5 187,-449.5 193,-449.5 199,-455.5 199,-461.5 199,-461.5 199,-475.5 199,-475.5 199,-481.5 193,-487.5 187,-487.5 187,-487.5 12,-487.5 12,-487.5 6,-487.5 0,-481.5 0,-475.5 0,-475.5 0,-461.5 0,-461.5 0,-455.5 6,-449.5 12,-449.5"/>
<text text-anchor="start" x="8" y="-472.3" font-family="Times,serif" font-size="14.00">0xB8: DW_TAG_structure_type</text>
<text text-anchor="middle" x="99.5" y="-457.3" font-family="Times,serif" font-size="14.00">statx</text>
</g>
<!-- 184&#45;&gt;348 -->
<g id="edge38" class="edge">
<title>184&#45;&gt;348</title>
<path fill="none" stroke="black" d="M143.18,-487.54C169.46,-499.03 203.95,-513.67 235,-525.5 240.77,-527.7 246.78,-529.9 252.84,-532.07"/>
<polygon fill="black" stroke="black" points="251.75,-535.39 262.34,-535.42 254.08,-528.79 251.75,-535.39"/>
</g>
<!-- 184&#45;&gt;336 -->
<g id="edge37" class="edge">
<title>184&#45;&gt;336</title>
<path fill="none" stroke="black" d="M199.24,-481.52C208.2,-482.7 217.27,-483.89 226.19,-485.07"/>
<polygon fill="black" stroke="black" points="225.82,-488.55 236.19,-486.39 226.73,-481.61 225.82,-488.55"/>
</g>
<!-- 184&#45;&gt;324 -->
<g id="edge36" class="edge">
<title>184&#45;&gt;324</title>
<path fill="none" stroke="black" d="M199.24,-455.93C208.2,-454.79 217.27,-453.64 226.19,-452.5"/>
<polygon fill="black" stroke="black" points="226.71,-455.96 236.19,-451.23 225.83,-449.02 226.71,-455.96"/>
</g>
<!-- 184&#45;&gt;312 -->
<g id="edge35" class="edge">
<title>184&#45;&gt;312</title>
<path fill="none" stroke="black" d="M101.16,-487.9C104.4,-551.79 123.44,-757.82 235,-868.5 235.94,-869.43 236.9,-870.33 237.9,-871.19"/>
<polygon fill="black" stroke="black" points="235.92,-874.09 246.02,-877.28 240.12,-868.48 235.92,-874.09"/>
</g>
<!-- 184&#45;&gt;300 -->
<g id="edge34" class="edge">
<title>184&#45;&gt;300</title>
<path fill="none" stroke="black" d="M102.47,-487.88C109.37,-545.51 137.57,-717.61 235,-810.5 236.49,-811.92 238.05,-813.27 239.67,-814.55"/>
<polygon fill="black" stroke="black" points="238.01,-817.66 248.23,-820.44 241.98,-811.89 238.01,-817.66"/>
</g>
<!-- 184&#45;&gt;288 -->
<g id="edge33" class="edge">
<title>184&#45;&gt;288</title>
<path fill="none" stroke="black" d="M104.11,-487.54C114.71,-538.3 150.49,-678.11 235,-753.5 236.71,-755.03 238.5,-756.47 240.37,-757.84"/>
<polygon fill="black" stroke="black" points="238.63,-760.89 248.93,-763.38 242.43,-755.01 238.63,-760.89"/>
</g>
<!-- 184&#45;&gt;276 -->
<g id="edge32" class="edge">
<title>184&#45;&gt;276</title>
<path fill="none" stroke="black" d="M106.64,-487.81C121.49,-531.45 163.49,-638.39 235,-696.5 237.02,-698.14 239.14,-699.7 241.34,-701.16"/>
<polygon fill="black" stroke="black" points="239.76,-704.3 250.15,-706.4 243.34,-698.28 239.76,-704.3"/>
</g>
<!-- 184&#45;&gt;264 -->
<g id="edge31" class="edge">
<title>184&#45;&gt;264</title>
<path fill="none" stroke="black" d="M110.57,-487.64C129.98,-522.76 175.95,-597.73 235,-639.5 237.54,-641.3 240.2,-642.99 242.95,-644.59"/>
<polygon fill="black" stroke="black" points="241.5,-647.78 251.98,-649.35 244.77,-641.59 241.5,-647.78"/>
</g>
<!-- 184&#45;&gt;252 -->
<g id="edge30" class="edge">
<title>184&#45;&gt;252</title>
<path fill="none" stroke="black" d="M109.65,-449.24C127.86,-413.33 172.32,-336.7 235,-302.5 301.54,-266.19 388.02,-259.43 452.73,-260.75"/>
<polygon fill="black" stroke="black" points="452.83,-264.26 462.92,-261.03 453.02,-257.26 452.83,-264.26"/>
</g>
<!-- 184&#45;&gt;204 -->
<g id="edge26" class="edge">
<title>184&#45;&gt;204</title>
<path fill="none" stroke="black" d="M106.22,-449.41C120.19,-406.49 160.5,-302.62 235,-257.5 306.67,-214.09 542.65,-213.52 675.32,-216.95"/>
<polygon fill="black" stroke="black" points="675.38,-220.45 685.47,-217.22 675.57,-213.45 675.38,-220.45"/>
</g>
<!-- 184&#45;&gt;216 -->
<g id="edge27" class="edge">
<title>184&#45;&gt;216</title>
<path fill="none" stroke="black" d="M103.04,-487.62C114.54,-571.67 164.35,-907.44 235,-982.5 235.78,-983.32 236.58,-984.12 237.4,-984.9"/>
<polygon fill="black" stroke="black" points="235.37,-987.76 245.37,-991.28 239.75,-982.3 235.37,-987.76"/>
</g>
<!-- 184&#45;&gt;228 -->
<g id="edge28" class="edge">
<title>184&#45;&gt;228</title>
<path fill="none" stroke="black" d="M103.96,-449.26C114.02,-399.48 148.24,-266.22 235,-206.5 298.63,-162.7 387.62,-157.16 453.95,-160.84"/>
<polygon fill="black" stroke="black" points="453.77,-164.34 463.97,-161.48 454.22,-157.35 453.77,-164.34"/>
</g>
<!-- 184&#45;&gt;240 -->
<g id="edge29" class="edge">
<title>184&#45;&gt;240</title>
<path fill="none" stroke="black" d="M102.4,-449.14C108.99,-393.31 136.21,-231.23 235,-156.5 297.08,-109.54 386.87,-102.32 453.86,-105.06"/>
<polygon fill="black" stroke="black" points="453.83,-108.56 463.98,-105.56 454.17,-101.57 453.83,-108.56"/>
</g>
<!-- 184&#45;&gt;192 -->
<g id="edge25" class="edge">
<title>184&#45;&gt;192</title>
<path fill="none" stroke="black" d="M100.81,-449.16C102.95,-386.63 119.01,-188.87 235,-101.5 302.19,-50.89 542.37,-61.03 676.23,-71.18"/>
<polygon fill="black" stroke="black" points="676.23,-74.69 686.47,-71.97 676.77,-67.71 676.23,-74.69"/>
</g>
<!-- 360 -->
<g id="node29" class="node">
<title>360</title>
<path fill="#f1e2cc" stroke="#f1e2cc" d="M248.5,-592.5C248.5,-592.5 394.5,-592.5 394.5,-592.5 400.5,-592.5 406.5,-598.5 406.5,-604.5 406.5,-604.5 406.5,-618.5 406.5,-618.5 406.5,-624.5 400.5,-630.5 394.5,-630.5 394.5,-630.5 248.5,-630.5 248.5,-630.5 242.5,-630.5 236.5,-624.5 236.5,-618.5 236.5,-618.5 236.5,-604.5 236.5,-604.5 236.5,-598.5 242.5,-592.5 248.5,-592.5"/>
<text text-anchor="start" x="244.5" y="-615.3" font-family="Times,serif" font-size="14.00">0x168: DW_TAG_member</text>
<text text-anchor="middle" x="321.5" y="-600.3" font-family="Times,serif" font-size="14.00">stx_mtime</text>
</g>
<!-- 184&#45;&gt;360 -->
<g id="edge39" class="edge">
<title>184&#45;&gt;360</title>
<path fill="none" stroke="black" d="M118.37,-487.59C142.65,-512.53 188.38,-556.11 235,-582.5 238.61,-584.54 242.38,-586.47 246.25,-588.29"/>
<polygon fill="black" stroke="black" points="244.85,-591.5 255.41,-592.33 247.67,-585.09 244.85,-591.5"/>
</g>
<!-- 372 -->
<g id="node30" class="node">
<title>372</title>
<path fill="#f1e2cc" stroke="#f1e2cc" d="M473,-0.5C473,-0.5 619,-0.5 619,-0.5 625,-0.5 631,-6.5 631,-12.5 631,-12.5 631,-26.5 631,-26.5 631,-32.5 625,-38.5 619,-38.5 619,-38.5 473,-38.5 473,-38.5 467,-38.5 461,-32.5 461,-26.5 461,-26.5 461,-12.5 461,-12.5 461,-6.5 467,-0.5 473,-0.5"/>
<text text-anchor="start" x="469" y="-23.3" font-family="Times,serif" font-size="14.00">0x174: DW_TAG_member</text>
<text text-anchor="middle" x="546" y="-8.3" font-family="Times,serif" font-size="14.00">stx_rdev_major</text>
</g>
<!-- 184&#45;&gt;372 -->
<g id="edge40" class="edge">
<title>184&#45;&gt;372</title>
<path fill="none" stroke="black" d="M100.04,-449.3C99.56,-382.26 107.84,-157.03 235,-53.5 294.61,-4.97 383.43,0.19 450.74,-4.84"/>
<polygon fill="black" stroke="black" points="450.68,-8.35 460.93,-5.69 451.26,-1.37 450.68,-8.35"/>
</g>
<!-- 384 -->
<g id="node31" class="node">
<title>384</title>
<path fill="#f1e2cc" stroke="#f1e2cc" d="M696,-393.5C696,-393.5 842,-393.5 842,-393.5 848,-393.5 854,-399.5 854,-405.5 854,-405.5 854,-419.5 854,-419.5 854,-425.5 848,-431.5 842,-431.5 842,-431.5 696,-431.5 696,-431.5 690,-431.5 684,-425.5 684,-419.5 684,-419.5 684,-405.5 684,-405.5 684,-399.5 690,-393.5 696,-393.5"/>
<text text-anchor="start" x="692" y="-416.3" font-family="Times,serif" font-size="14.00">0x180: DW_TAG_member</text>
<text text-anchor="middle" x="769" y="-401.3" font-family="Times,serif" font-size="14.00">stx_rdev_minor</text>
</g>
<!-- 184&#45;&gt;384 -->
<g id="edge41" class="edge">
<title>184&#45;&gt;384</title>
<path fill="none" stroke="black" d="M134.66,-449.49C161.13,-435.9 199.21,-418.77 235,-411.5 316.01,-395.04 543.55,-402.04 673.64,-407.78"/>
<polygon fill="black" stroke="black" points="673.84,-411.29 683.99,-408.24 674.15,-404.29 673.84,-411.29"/>
</g>
<!-- 396 -->
<g id="node32" class="node">
<title>396</title>
<path fill="#f1e2cc" stroke="#f1e2cc" d="M472,-345.5C472,-345.5 620,-345.5 620,-345.5 626,-345.5 632,-351.5 632,-357.5 632,-357.5 632,-371.5 632,-371.5 632,-377.5 626,-383.5 620,-383.5 620,-383.5 472,-383.5 472,-383.5 466,-383.5 460,-377.5 460,-371.5 460,-371.5 460,-357.5 460,-357.5 460,-351.5 466,-345.5 472,-345.5"/>
<text text-anchor="start" x="468" y="-368.3" font-family="Times,serif" font-size="14.00">0x18C: DW_TAG_member</text>
<text text-anchor="middle" x="546" y="-353.3" font-family="Times,serif" font-size="14.00">stx_dev_major</text>
</g>
<!-- 184&#45;&gt;396 -->
<g id="edge42" class="edge">
<title>184&#45;&gt;396</title>
<path fill="none" stroke="black" d="M121.36,-449.13C146.25,-427.39 190.16,-393.23 235,-378.5 304.33,-355.72 387.09,-353.13 449.65,-355.74"/>
<polygon fill="black" stroke="black" points="449.75,-359.25 459.9,-356.22 450.08,-352.25 449.75,-359.25"/>
</g>
<!-- 408 -->
<g id="node33" class="node">
<title>408</title>
<path fill="#f1e2cc" stroke="#f1e2cc" d="M696,-297.5C696,-297.5 842,-297.5 842,-297.5 848,-297.5 854,-303.5 854,-309.5 854,-309.5 854,-323.5 854,-323.5 854,-329.5 848,-335.5 842,-335.5 842,-335.5 696,-335.5 696,-335.5 690,-335.5 684,-329.5 684,-323.5 684,-323.5 684,-309.5 684,-309.5 684,-303.5 690,-297.5 696,-297.5"/>
<text text-anchor="start" x="692" y="-320.3" font-family="Times,serif" font-size="14.00">0x198: DW_TAG_member</text>
<text text-anchor="middle" x="769" y="-305.3" font-family="Times,serif" font-size="14.00">stx_dev_minor</text>
</g>
<!-- 184&#45;&gt;408 -->
<g id="edge43" class="edge">
<title>184&#45;&gt;408</title>
<path fill="none" stroke="black" d="M115.44,-449.37C137.99,-422.11 183.61,-373 235,-351.5 378.94,-291.29 563.9,-295.11 673.79,-304.8"/>
<polygon fill="black" stroke="black" points="673.58,-308.29 683.86,-305.72 674.22,-301.32 673.58,-308.29"/>
</g>
<!-- 420 -->
<g id="node34" class="node">
<title>420</title>
<path fill="#f1e2cc" stroke="#f1e2cc" d="M247,-934.5C247,-934.5 396,-934.5 396,-934.5 402,-934.5 408,-940.5 408,-946.5 408,-946.5 408,-960.5 408,-960.5 408,-966.5 402,-972.5 396,-972.5 396,-972.5 247,-972.5 247,-972.5 241,-972.5 235,-966.5 235,-960.5 235,-960.5 235,-946.5 235,-946.5 235,-940.5 241,-934.5 247,-934.5"/>
<text text-anchor="start" x="243" y="-957.3" font-family="Times,serif" font-size="14.00">0x1A4: DW_TAG_member</text>
<text text-anchor="middle" x="321.5" y="-942.3" font-family="Times,serif" font-size="14.00">stx_mnt_id</text>
</g>
<!-- 184&#45;&gt;420 -->
<g id="edge44" class="edge">
<title>184&#45;&gt;420</title>
<path fill="none" stroke="black" d="M100.21,-487.64C100.24,-556.79 109.74,-796.39 235,-925.5 235.92,-926.45 236.87,-927.36 237.85,-928.24"/>
<polygon fill="black" stroke="black" points="235.82,-931.1 245.88,-934.43 240.09,-925.55 235.82,-931.1"/>
</g>
<!-- 360&#45;&gt;513 -->
<g id="edge45" class="edge">
<title>360&#45;&gt;513</title>
<path fill="none" stroke="darkgray" stroke-dasharray="5,2" d="M382.25,-592.48C390.97,-589.34 399.77,-585.98 408,-582.5 440.24,-568.88 475.38,-550.86 501.99,-536.52"/>
<polygon fill="darkgray" stroke="darkgray" points="503.91,-539.45 511.03,-531.61 500.57,-533.3 503.91,-539.45"/>
</g>
<!-- 372&#45;&gt;433 -->
<g id="edge46" class="edge">
<title>372&#45;&gt;433</title>
<path fill="none" stroke="darkgray" stroke-dasharray="5,2" d="M631.27,-9.33C696.64,-5.62 787.08,-10.01 854,-50.5 917.26,-88.77 955.54,-171.64 972.19,-215.66"/>
<polygon fill="darkgray" stroke="darkgray" points="968.96,-217.02 975.68,-225.2 975.53,-214.61 968.96,-217.02"/>
</g>
<!-- 384&#45;&gt;433 -->
<g id="edge47" class="edge">
<title>384&#45;&gt;433</title>
<path fill="none" stroke="darkgray" stroke-dasharray="5,2" d="M826.82,-393.36C836.25,-389.11 845.67,-384.16 854,-378.5 897.85,-348.73 938.27,-301.78 961.51,-272.1"/>
<polygon fill="darkgray" stroke="darkgray" points="964.55,-273.9 967.88,-263.84 959,-269.62 964.55,-273.9"/>
</g>
<!-- 396&#45;&gt;433 -->
<g id="edge48" class="edge">
<title>396&#45;&gt;433</title>
<path fill="none" stroke="darkgray" stroke-dasharray="5,2" d="M632.26,-372.16C695.51,-374.74 782.75,-371.65 854,-344.5 895.14,-328.82 933.7,-295.08 957.53,-271.14"/>
<polygon fill="darkgray" stroke="darkgray" points="960.26,-273.35 964.74,-263.74 955.25,-268.46 960.26,-273.35"/>
</g>
<!-- 408&#45;&gt;433 -->
<g id="edge49" class="edge">
<title>408&#45;&gt;433</title>
<path fill="none" stroke="darkgray" stroke-dasharray="5,2" d="M825.98,-297.49C853.64,-288.09 887.2,-276.69 916.1,-266.88"/>
<polygon fill="darkgray" stroke="darkgray" points="917.36,-270.15 925.71,-263.62 915.11,-263.52 917.36,-270.15"/>
</g>
<!-- 420&#45;&gt;455 -->
<g id="edge50" class="edge">
<title>420&#45;&gt;455</title>
<path fill="none" stroke="darkgray" stroke-dasharray="5,2" d="M382.98,-934.4C391.42,-931.53 399.96,-928.51 408,-925.5 436.42,-914.85 467.61,-901.76 493.04,-890.71"/>
<polygon fill="darkgray" stroke="darkgray" points="494.72,-893.8 502.49,-886.59 491.92,-887.38 494.72,-893.8"/>
</g>
<!-- 433&#45;&gt;444 -->
<g id="edge51" class="edge">
<title>433&#45;&gt;444</title>
<path fill="none" stroke="darkgray" stroke-dasharray="5,2" d="M1067.07,-244.5C1078.42,-244.5 1090.13,-244.5 1101.66,-244.5"/>
<polygon fill="darkgray" stroke="darkgray" points="1101.74,-248 1111.74,-244.5 1101.74,-241 1101.74,-248"/>
</g>
<!-- 455&#45;&gt;466 -->
<g id="edge52" class="edge">
<title>455&#45;&gt;466</title>
<path fill="none" stroke="darkgray" stroke-dasharray="5,2" d="M630.24,-867.5C644.65,-867.5 659.73,-867.5 674.4,-867.5"/>
<polygon fill="darkgray" stroke="darkgray" points="674.47,-871 684.47,-867.5 674.47,-864 674.47,-871"/>
</g>
</g>
</svg>
