<svg version="1.1" xmlns="http://www.w3.org/2000/svg" viewBox="0 0 800 460" width="800" height="460">
  <!-- svg-source:excalidraw -->
  
  <defs>
    <style class="style-fonts">
      @font-face {
        font-family: "Virgil";
        src: url("https://file%2B.vscode-resource.vscode-cdn.net/Users/andrewl/.vscode/extensions/pomdtr.excalidraw-editor-3.7.4/public//dist/excalidraw-assets/Virgil.woff2");
      }
      @font-face {
        font-family: "Cascadia";
        src: url("https://file%2B.vscode-resource.vscode-cdn.net/Users/andrewl/.vscode/extensions/pomdtr.excalidraw-editor-3.7.4/public//dist/excalidraw-assets/Cascadia.woff2");
      }
      @font-face {
        font-family: "Assistant";
        src: url("https://file%2B.vscode-resource.vscode-cdn.net/Users/andrewl/.vscode/extensions/pomdtr.excalidraw-editor-3.7.4/public//dist/excalidraw-assets/Assistant-Regular.woff2");
      }
    </style>
    
  </defs>
  <rect x="0" y="0" width="800" height="460" fill="#ffffff"></rect><g stroke-linecap="round" transform="translate(590 130) rotate(0 100 160)"><path d="M32 0 C60.58 0, 89.15 0, 168 0 M168 0 C189.33 0, 200 10.67, 200 32 M200 32 C200 109.43, 200 186.86, 200 288 M200 288 C200 309.33, 189.33 320, 168 320 M168 320 C124.51 320, 81.03 320, 32 320 M32 320 C10.67 320, 0 309.33, 0 288 M0 288 C0 192.33, 0 96.66, 0 32 M0 32 C0 10.67, 10.67 0, 32 0" stroke="#1e1e1e" stroke-width="1.5" fill="none" stroke-dasharray="1.5 7"></path></g><g transform="translate(632.1923828125 135) rotate(0 57.8076171875 23)"><text x="57.8076171875" y="0" font-family="Helvetica, Segoe UI Emoji" font-size="20px" fill="#1e1e1e" text-anchor="middle" style="white-space: pre;" direction="ltr" dominant-baseline="text-before-edge">generated</text><text x="57.8076171875" y="23" font-family="Helvetica, Segoe UI Emoji" font-size="20px" fill="#1e1e1e" text-anchor="middle" style="white-space: pre;" direction="ltr" dominant-baseline="text-before-edge">with openssl:</text></g><g stroke-linecap="round" transform="translate(610 250) rotate(0 80 90)"><path d="M0 0 L160 0 L160 180 L0 180" stroke="none" stroke-width="0" fill="#fff9db"></path><path d="M0 0 C38.54 0, 77.08 0, 160 0 M0 0 C54.43 0, 108.85 0, 160 0 M160 0 C160 39.64, 160 79.28, 160 180 M160 0 C160 58.44, 160 116.88, 160 180 M160 180 C114.34 180, 68.68 180, 0 180 M160 180 C103.1 180, 46.2 180, 0 180 M0 180 C0 110.73, 0 41.47, 0 0 M0 180 C0 109.95, 0 39.9, 0 0" stroke="#1e1e1e" stroke-width="1" fill="none"></path></g><g transform="translate(647.20703125 255) rotate(0 42.79296875 11.5)"><text x="42.79296875" y="0" font-family="Helvetica, Segoe UI Emoji" font-size="20px" fill="#1e1e1e" text-anchor="middle" style="white-space: pre;" direction="ltr" dominant-baseline="text-before-edge">certificate</text></g><g stroke-linecap="round" transform="translate(10 10) rotate(0 60 50)"><path d="M0 0 L120 0 L120 100 L0 100" stroke="none" stroke-width="0" fill="#b2f2bb"></path><path d="M0 0 C46.41 0, 92.82 0, 120 0 M0 0 C35.32 0, 70.65 0, 120 0 M120 0 C120 28.49, 120 56.98, 120 100 M120 0 C120 39.32, 120 78.64, 120 100 M120 100 C87.06 100, 54.12 100, 0 100 M120 100 C93.88 100, 67.77 100, 0 100 M0 100 C0 64.22, 0 28.44, 0 0 M0 100 C0 62.51, 0 25.03, 0 0" stroke="#1e1e1e" stroke-width="1" fill="none"></path></g><g transform="translate(46.6552734375 48.5) rotate(0 23.3447265625 11.5)"><text x="23.3447265625" y="0" font-family="Helvetica, Segoe UI Emoji" font-size="20px" fill="#1e1e1e" text-anchor="middle" style="white-space: pre;" direction="ltr" dominant-baseline="text-before-edge">client</text></g><g stroke-linecap="round" transform="translate(610 10) rotate(0 80 50)"><path d="M0 0 L160 0 L160 100 L0 100" stroke="none" stroke-width="0" fill="#b2f2bb"></path><path d="M0 0 C57.47 0, 114.94 0, 160 0 M0 0 C54.19 0, 108.37 0, 160 0 M160 0 C160 23.5, 160 46.99, 160 100 M160 0 C160 24.28, 160 48.55, 160 100 M160 100 C107.73 100, 55.45 100, 0 100 M160 100 C118.35 100, 76.69 100, 0 100 M0 100 C0 66.16, 0 32.32, 0 0 M0 100 C0 78.13, 0 56.25, 0 0" stroke="#1e1e1e" stroke-width="1" fill="none"></path></g><g transform="translate(662.216796875 48.5) rotate(0 27.783203125 11.5)"><text x="27.783203125" y="0" font-family="Helvetica, Segoe UI Emoji" font-size="20px" fill="#1e1e1e" text-anchor="middle" style="white-space: pre;" direction="ltr" dominant-baseline="text-before-edge">server</text></g><g stroke-linecap="round"><g transform="translate(70 90) rotate(0 0 50)"><path d="M0 0 C0 20.24, 0 40.49, 0 80 M0 0 C0 30.19, 0 60.38, 0 80 M0 80 C0 86.31, 0 92.62, 0 100 M0 80 C0 85.26, 0 90.53, 0 100" stroke="#1e1e1e" stroke-width="1" fill="none"></path></g><g transform="translate(70 90) rotate(0 0 50)"><path d="M8 0 C8 0.46, 7.96 0.93, 7.88 1.39 C7.8 1.85, 7.68 2.3, 7.52 2.74 C7.36 3.17, 7.16 3.6, 6.93 4 C6.7 4.4, 6.43 4.79, 6.13 5.14 C5.83 5.5, 5.5 5.83, 5.14 6.13 C4.79 6.43, 4.4 6.7, 4 6.93 C3.6 7.16, 3.17 7.36, 2.74 7.52 C2.3 7.68, 1.85 7.8, 1.39 7.88 C0.93 7.96, 0.46 8, 0 8 C-0.46 8, -0.93 7.96, -1.39 7.88 C-1.85 7.8, -2.3 7.68, -2.74 7.52 C-3.17 7.36, -3.6 7.16, -4 6.93 C-4.4 6.7, -4.79 6.43, -5.14 6.13 C-5.5 5.83, -5.83 5.5, -6.13 5.14 C-6.43 4.79, -6.7 4.4, -6.93 4 C-7.16 3.6, -7.36 3.17, -7.52 2.74 C-7.68 2.3, -7.8 1.85, -7.88 1.39 C-7.96 0.93, -8 0.46, -8 0 C-8 -0.46, -7.96 -0.93, -7.88 -1.39 C-7.8 -1.85, -7.68 -2.3, -7.52 -2.74 C-7.36 -3.17, -7.16 -3.6, -6.93 -4 C-6.7 -4.4, -6.43 -4.79, -6.13 -5.14 C-5.83 -5.5, -5.5 -5.83, -5.14 -6.13 C-4.79 -6.43, -4.4 -6.7, -4 -6.93 C-3.6 -7.16, -3.17 -7.36, -2.74 -7.52 C-2.3 -7.68, -1.85 -7.8, -1.39 -7.88 C-0.93 -7.96, -0.46 -8, 0 -8 C0.46 -8, 0.93 -7.96, 1.39 -7.88 C1.85 -7.8, 2.3 -7.68, 2.74 -7.52 C3.17 -7.36, 3.6 -7.16, 4 -6.93 C4.4 -6.7, 4.79 -6.43, 5.14 -6.13 C5.5 -5.83, 5.83 -5.5, 6.13 -5.14 C6.43 -4.79, 6.7 -4.4, 6.93 -4 C7.16 -3.6, 7.36 -3.17, 7.52 -2.74 C7.68 -2.3, 7.8 -1.85, 7.88 -1.39 C7.96 -0.93, 7.98 -0.23, 8 0 C8.02 0.23, 8.02 -0.23, 8 0" stroke="none" stroke-width="0" fill="#1e1e1e"></path></g><g transform="translate(70 90) rotate(0 0 50)"><path d="M0 100 L-6.34 86.41 L6.34 86.41 L0 100" stroke="none" stroke-width="0" fill="#1e1e1e" fill-rule="evenodd"></path><path d="M0 100 C-1.6 96.56, -3.21 93.12, -6.34 86.41 M0 100 C-2.39 94.87, -4.78 89.74, -6.34 86.41 M-6.34 86.41 C-2.34 86.41, 1.66 86.41, 6.34 86.41 M-6.34 86.41 C-3 86.41, 0.34 86.41, 6.34 86.41 M6.34 86.41 C3.84 91.77, 1.33 97.14, 0 100 M6.34 86.41 C4.89 89.51, 3.45 92.61, 0 100 M0 100 C0 100, 0 100, 0 100 M0 100 C0 100, 0 100, 0 100" stroke="#1e1e1e" stroke-width="1" fill="none"></path></g></g><mask></mask><g stroke-linecap="round" transform="translate(310 210) rotate(0 60 50)"><path d="M0 0 L120 0 L120 100 L0 100" stroke="none" stroke-width="0" fill="#a5d8ff"></path><path d="M0 0 C33.5 0, 67 0, 120 0 M0 0 C46.05 0, 92.11 0, 120 0 M120 0 C120 22.71, 120 45.43, 120 100 M120 0 C120 33.12, 120 66.25, 120 100 M120 100 C72.27 100, 24.54 100, 0 100 M120 100 C82.19 100, 44.38 100, 0 100 M0 100 C0 79.23, 0 58.45, 0 0 M0 100 C0 77.07, 0 54.13, 0 0" stroke="#1e1e1e" stroke-width="1" fill="none"></path></g><g transform="translate(327.2119140625 248.5) rotate(0 42.7880859375 11.5)"><text x="42.7880859375" y="0" font-family="Helvetica, Segoe UI Emoji" font-size="20px" fill="#1e1e1e" text-anchor="middle" style="white-space: pre;" direction="ltr" dominant-baseline="text-before-edge">wireshark</text></g><g stroke-linecap="round" transform="translate(150 30) rotate(0 10 20)"><path d="M20 20 C20 21.16, 19.95 22.33, 19.85 23.47 C19.75 24.61, 19.59 25.75, 19.4 26.84 C19.2 27.93, 18.95 29, 18.66 30 C18.37 31, 18.03 31.97, 17.66 32.86 C17.29 33.74, 16.87 34.58, 16.43 35.32 C15.98 36.07, 15.5 36.74, 15 37.32 C14.5 37.9, 13.96 38.4, 13.42 38.79 C12.88 39.19, 12.31 39.5, 11.74 39.7 C11.17 39.9, 10.58 40, 10 40 C9.42 40, 8.83 39.9, 8.26 39.7 C7.69 39.5, 7.12 39.19, 6.58 38.79 C6.04 38.4, 5.5 37.9, 5 37.32 C4.5 36.74, 4.02 36.07, 3.57 35.32 C3.13 34.58, 2.71 33.74, 2.34 32.86 C1.97 31.97, 1.63 31, 1.34 30 C1.05 29, 0.8 27.93, 0.6 26.84 C0.41 25.75, 0.25 24.61, 0.15 23.47 C0.05 22.33, 0 21.16, 0 20 C0 18.84, 0.05 17.67, 0.15 16.53 C0.25 15.39, 0.41 14.25, 0.6 13.16 C0.8 12.07, 1.05 11, 1.34 10 C1.63 9, 1.97 8.03, 2.34 7.14 C2.71 6.26, 3.13 5.42, 3.57 4.68 C4.02 3.93, 4.5 3.26, 5 2.68 C5.5 2.1, 6.04 1.6, 6.58 1.21 C7.12 0.81, 7.69 0.5, 8.26 0.3 C8.83 0.1, 9.42 0, 10 0 C10.58 0, 11.17 0.1, 11.74 0.3 C12.31 0.5, 12.88 0.81, 13.42 1.21 C13.96 1.6, 14.5 2.1, 15 2.68 C15.5 3.26, 15.98 3.93, 16.43 4.68 C16.87 5.42, 17.29 6.26, 17.66 7.14 C18.03 8.03, 18.37 9, 18.66 10 C18.95 11, 19.2 12.07, 19.4 13.16 C19.59 14.25, 19.75 15.39, 19.85 16.53 C19.95 17.67, 19.97 19.42, 20 20 C20.03 20.58, 20.03 19.42, 20 20" stroke="#1e1e1e" stroke-width="1" fill="none"></path></g><g stroke-linecap="round"><g transform="translate(370 50) rotate(0 0 80)"><path d="M0 0 C0 58.05, 0 116.11, 0 160 M0 0 C0 45.82, 0 91.64, 0 160" stroke="#1e1e1e" stroke-width="1" fill="none"></path></g><g transform="translate(370 50) rotate(0 0 80)"><path d="M8 0 C8 0.46, 7.96 0.93, 7.88 1.39 C7.8 1.85, 7.68 2.3, 7.52 2.74 C7.36 3.17, 7.16 3.6, 6.93 4 C6.7 4.4, 6.43 4.79, 6.13 5.14 C5.83 5.5, 5.5 5.83, 5.14 6.13 C4.79 6.43, 4.4 6.7, 4 6.93 C3.6 7.16, 3.17 7.36, 2.74 7.52 C2.3 7.68, 1.85 7.8, 1.39 7.88 C0.93 7.96, 0.46 8, 0 8 C-0.46 8, -0.93 7.96, -1.39 7.88 C-1.85 7.8, -2.3 7.68, -2.74 7.52 C-3.17 7.36, -3.6 7.16, -4 6.93 C-4.4 6.7, -4.79 6.43, -5.14 6.13 C-5.5 5.83, -5.83 5.5, -6.13 5.14 C-6.43 4.79, -6.7 4.4, -6.93 4 C-7.16 3.6, -7.36 3.17, -7.52 2.74 C-7.68 2.3, -7.8 1.85, -7.88 1.39 C-7.96 0.93, -8 0.46, -8 0 C-8 -0.46, -7.96 -0.93, -7.88 -1.39 C-7.8 -1.85, -7.68 -2.3, -7.52 -2.74 C-7.36 -3.17, -7.16 -3.6, -6.93 -4 C-6.7 -4.4, -6.43 -4.79, -6.13 -5.14 C-5.83 -5.5, -5.5 -5.83, -5.14 -6.13 C-4.79 -6.43, -4.4 -6.7, -4 -6.93 C-3.6 -7.16, -3.17 -7.36, -2.74 -7.52 C-2.3 -7.68, -1.85 -7.8, -1.39 -7.88 C-0.93 -7.96, -0.46 -8, 0 -8 C0.46 -8, 0.93 -7.96, 1.39 -7.88 C1.85 -7.8, 2.3 -7.68, 2.74 -7.52 C3.17 -7.36, 3.6 -7.16, 4 -6.93 C4.4 -6.7, 4.79 -6.43, 5.14 -6.13 C5.5 -5.83, 5.83 -5.5, 6.13 -5.14 C6.43 -4.79, 6.7 -4.4, 6.93 -4 C7.16 -3.6, 7.36 -3.17, 7.52 -2.74 C7.68 -2.3, 7.8 -1.85, 7.88 -1.39 C7.96 -0.93, 7.98 -0.23, 8 0 C8.02 0.23, 8.02 -0.23, 8 0" stroke="none" stroke-width="0" fill="#1e1e1e"></path></g><g transform="translate(370 50) rotate(0 0 80)"><path d="M0 160 L-6.34 146.41 L6.34 146.41 L0 160" stroke="none" stroke-width="0" fill="#1e1e1e" fill-rule="evenodd"></path><path d="M0 160 C-2.3 155.07, -4.6 150.13, -6.34 146.41 M0 160 C-1.82 156.11, -3.63 152.21, -6.34 146.41 M-6.34 146.41 C-3.26 146.41, -0.18 146.41, 6.34 146.41 M-6.34 146.41 C-2.81 146.41, 0.72 146.41, 6.34 146.41 M6.34 146.41 C4.96 149.36, 3.59 152.31, 0 160 M6.34 146.41 C4.13 151.15, 1.92 155.89, 0 160 M0 160 C0 160, 0 160, 0 160 M0 160 C0 160, 0 160, 0 160" stroke="#1e1e1e" stroke-width="1" fill="none"></path></g></g><mask></mask><g stroke-linecap="round" transform="translate(630 190) rotate(0 60 20)"><path d="M0 0 L120 0 L120 40 L0 40" stroke="none" stroke-width="0" fill="#ffa94d"></path><path d="M0 0 C24.37 0, 48.73 0, 120 0 M0 0 C40.29 0, 80.58 0, 120 0 M120 0 C120 15.04, 120 30.08, 120 40 M120 0 C120 12.88, 120 25.77, 120 40 M120 40 C80.89 40, 41.77 40, 0 40 M120 40 C93.13 40, 66.26 40, 0 40 M0 40 C0 30.2, 0 20.39, 0 0 M0 40 C0 31.99, 0 23.98, 0 0" stroke="#1e1e1e" stroke-width="1" fill="none"></path></g><g transform="translate(641.6455078125 198.5) rotate(0 48.3544921875 11.5)"><text x="48.3544921875" y="0" font-family="Helvetica, Segoe UI Emoji" font-size="20px" fill="#1e1e1e" text-anchor="middle" style="white-space: pre;" direction="ltr" dominant-baseline="text-before-edge">private key</text></g><g stroke-linecap="round" transform="translate(630 330) rotate(0 60 20)"><path d="M0 0 L120 0 L120 40 L0 40" stroke="none" stroke-width="0" fill="#ffa94d"></path><path d="M0 0 C33.34 0, 66.67 0, 120 0 M0 0 C46 0, 92 0, 120 0 M120 0 C120 10.8, 120 21.59, 120 40 M120 0 C120 15.8, 120 31.6, 120 40 M120 40 C76.06 40, 32.12 40, 0 40 M120 40 C86.43 40, 52.85 40, 0 40 M0 40 C0 28.81, 0 17.62, 0 0 M0 40 C0 30.21, 0 20.42, 0 0" stroke="#1e1e1e" stroke-width="1" fill="none"></path></g><g transform="translate(645.5322265625 338.5) rotate(0 44.4677734375 11.5)"><text x="44.4677734375" y="0" font-family="Helvetica, Segoe UI Emoji" font-size="20px" fill="#1e1e1e" text-anchor="middle" style="white-space: pre;" direction="ltr" dominant-baseline="text-before-edge">public key</text></g><g stroke-linecap="round" transform="translate(630 290) rotate(0 60 20)"><path d="M0 0 L120 0 L120 40 L0 40" stroke="none" stroke-width="0" fill="#ffd43b"></path><path d="M0 0 C42.08 0, 84.16 0, 120 0 M0 0 C25.58 0, 51.16 0, 120 0 M120 0 C120 12.38, 120 24.75, 120 40 M120 0 C120 8.26, 120 16.52, 120 40 M120 40 C95.06 40, 70.12 40, 0 40 M120 40 C75.51 40, 31.02 40, 0 40 M0 40 C0 26.61, 0 13.23, 0 0 M0 40 C0 24.88, 0 9.76, 0 0" stroke="#1e1e1e" stroke-width="1" fill="none"></path></g><g transform="translate(682.216796875 298.5) rotate(0 7.783203125 11.5)"><text x="7.783203125" y="0" font-family="Helvetica, Segoe UI Emoji" font-size="20px" fill="#1e1e1e" text-anchor="middle" style="white-space: pre;" direction="ltr" dominant-baseline="text-before-edge">id</text></g><g stroke-linecap="round" transform="translate(630 370) rotate(0 60 20)"><path d="M0 0 L120 0 L120 40 L0 40" stroke="none" stroke-width="0" fill="#ffd43b"></path><path d="M0 0 C35.25 0, 70.51 0, 120 0 M0 0 C35.32 0, 70.64 0, 120 0 M120 0 C120 12.95, 120 25.91, 120 40 M120 0 C120 13.9, 120 27.8, 120 40 M120 40 C85.96 40, 51.93 40, 0 40 M120 40 C87.45 40, 54.91 40, 0 40 M0 40 C0 27.03, 0 14.06, 0 0 M0 40 C0 30.29, 0 20.58, 0 0" stroke="#1e1e1e" stroke-width="1" fill="none"></path></g><g transform="translate(648.8623046875 378.5) rotate(0 41.1376953125 11.5)"><text x="41.1376953125" y="0" font-family="Helvetica, Segoe UI Emoji" font-size="20px" fill="#1e1e1e" text-anchor="middle" style="white-space: pre;" direction="ltr" dominant-baseline="text-before-edge">signature</text></g><g stroke-linecap="round" transform="translate(10 190) rotate(0 90 80)"><path d="M32 0 C58.69 0, 85.37 0, 148 0 M148 0 C169.33 0, 180 10.67, 180 32 M180 32 C180 57.38, 180 82.75, 180 128 M180 128 C180 149.33, 169.33 160, 148 160 M148 160 C106.2 160, 64.4 160, 32 160 M32 160 C10.67 160, 0 149.33, 0 128 M0 128 C0 96.41, 0 64.81, 0 32 M0 32 C0 10.67, 10.67 0, 32 0" stroke="#1e1e1e" stroke-width="1.5" fill="none" stroke-dasharray="1.5 7"></path></g><g transform="translate(39.4140625 195) rotate(0 60.5859375 11.5)"><text x="60.5859375" y="0" font-family="Helvetica, Segoe UI Emoji" font-size="20px" fill="#1e1e1e" text-anchor="middle" style="white-space: pre;" direction="ltr" dominant-baseline="text-before-edge">test.keylogfile</text></g><g stroke-linecap="round" transform="translate(30 230) rotate(0 70 20)"><path d="M0 0 L140 0 L140 40 L0 40" stroke="none" stroke-width="0" fill="#ffd43b"></path><path d="M0 0 C37.84 0, 75.69 0, 140 0 M0 0 C31.29 0, 62.58 0, 140 0 M140 0 C140 13.23, 140 26.46, 140 40 M140 0 C140 12.66, 140 25.32, 140 40 M140 40 C103.08 40, 66.17 40, 0 40 M140 40 C92.46 40, 44.92 40, 0 40 M0 40 C0 24.87, 0 9.75, 0 0 M0 40 C0 24.51, 0 9.02, 0 0" stroke="#1e1e1e" stroke-width="1" fill="none"></path></g><g transform="translate(39.970703125 238.5) rotate(0 60.029296875 11.5)"><text x="60.029296875" y="0" font-family="Helvetica, Segoe UI Emoji" font-size="20px" fill="#1e1e1e" text-anchor="middle" style="white-space: pre;" direction="ltr" dominant-baseline="text-before-edge">client random</text></g><g stroke-linecap="round" transform="translate(30 290) rotate(0 70 20)"><path d="M0 0 L140 0 L140 40 L0 40" stroke="none" stroke-width="0" fill="#ffd43b"></path><path d="M0 0 C30.11 0, 60.22 0, 140 0 M0 0 C51.57 0, 103.14 0, 140 0 M140 0 C140 8.13, 140 16.25, 140 40 M140 0 C140 10.09, 140 20.17, 140 40 M140 40 C91.95 40, 43.89 40, 0 40 M140 40 C99.21 40, 58.42 40, 0 40 M0 40 C0 29.61, 0 19.21, 0 0 M0 40 C0 31.41, 0 22.82, 0 0" stroke="#1e1e1e" stroke-width="1" fill="none"></path></g><g transform="translate(51.0986328125 298.5) rotate(0 48.9013671875 11.5)"><text x="48.9013671875" y="0" font-family="Helvetica, Segoe UI Emoji" font-size="20px" fill="#1e1e1e" text-anchor="middle" style="white-space: pre;" direction="ltr" dominant-baseline="text-before-edge">master key</text></g><g stroke-linecap="round"><g transform="translate(190 250) rotate(0 59.5 0)"><path d="M0 0 C11.52 0, 23.05 0, 40 0 M0 0 C12.4 0, 24.8 0, 40 0 M40 0 C71.56 0, 103.12 0, 119 0 M40 0 C70.12 0, 100.23 0, 119 0" stroke="#1e1e1e" stroke-width="1" fill="none"></path></g><g transform="translate(190 250) rotate(0 59.5 0)"><path d="M119 0 L105.41 6.34 L105.41 -6.34 L119 0" stroke="none" stroke-width="0" fill="#1e1e1e" fill-rule="evenodd"></path><path d="M119 0 C115.08 1.83, 111.17 3.65, 105.41 6.34 M119 0 C114.79 1.97, 110.57 3.93, 105.41 6.34 M105.41 6.34 C105.41 1.27, 105.41 -3.79, 105.41 -6.34 M105.41 6.34 C105.41 1.51, 105.41 -3.33, 105.41 -6.34 M105.41 -6.34 C109.96 -4.22, 114.51 -2.1, 119 0 M105.41 -6.34 C110.74 -3.85, 116.07 -1.37, 119 0 M119 0 C119 0, 119 0, 119 0 M119 0 C119 0, 119 0, 119 0" stroke="#1e1e1e" stroke-width="1" fill="none"></path></g></g><mask></mask><g stroke-linecap="round" transform="translate(570 30) rotate(0 10 20)"><path d="M20 20 C20 21.16, 19.95 22.33, 19.85 23.47 C19.75 24.61, 19.59 25.75, 19.4 26.84 C19.2 27.93, 18.95 29, 18.66 30 C18.37 31, 18.03 31.97, 17.66 32.86 C17.29 33.74, 16.87 34.58, 16.43 35.32 C15.98 36.07, 15.5 36.74, 15 37.32 C14.5 37.9, 13.96 38.4, 13.42 38.79 C12.88 39.19, 12.31 39.5, 11.74 39.7 C11.17 39.9, 10.58 40, 10 40 C9.42 40, 8.83 39.9, 8.26 39.7 C7.69 39.5, 7.12 39.19, 6.58 38.79 C6.04 38.4, 5.5 37.9, 5 37.32 C4.5 36.74, 4.02 36.07, 3.57 35.32 C3.13 34.58, 2.71 33.74, 2.34 32.86 C1.97 31.97, 1.63 31, 1.34 30 C1.05 29, 0.8 27.93, 0.6 26.84 C0.41 25.75, 0.25 24.61, 0.15 23.47 C0.05 22.33, 0 21.16, 0 20 C0 18.84, 0.05 17.67, 0.15 16.53 C0.25 15.39, 0.41 14.25, 0.6 13.16 C0.8 12.07, 1.05 11, 1.34 10 C1.63 9, 1.97 8.03, 2.34 7.14 C2.71 6.26, 3.13 5.42, 3.57 4.68 C4.02 3.93, 4.5 3.26, 5 2.68 C5.5 2.1, 6.04 1.6, 6.58 1.21 C7.12 0.81, 7.69 0.5, 8.26 0.3 C8.83 0.1, 9.42 0, 10 0 C10.58 0, 11.17 0.1, 11.74 0.3 C12.31 0.5, 12.88 0.81, 13.42 1.21 C13.96 1.6, 14.5 2.1, 15 2.68 C15.5 3.26, 15.98 3.93, 16.43 4.68 C16.87 5.42, 17.29 6.26, 17.66 7.14 C18.03 8.03, 18.37 9, 18.66 10 C18.95 11, 19.2 12.07, 19.4 13.16 C19.59 14.25, 19.75 15.39, 19.85 16.53 C19.95 17.67, 19.97 19.42, 20 20 C20.03 20.58, 20.03 19.42, 20 20" stroke="#1e1e1e" stroke-width="1" fill="none"></path></g><g stroke-linecap="round"><g transform="translate(150 30) rotate(0 220 0)"><path d="M0 0 C73.33 0, 366.67 0, 440 0 M0 0 C73.33 0, 366.67 0, 440 0" stroke="#1e1e1e" stroke-width="1" fill="none"></path></g></g><mask></mask><g stroke-linecap="round"><g transform="translate(150 70) rotate(0 220 0)"><path d="M0 0 C73.33 0, 366.67 0, 440 0 M0 0 C73.33 0, 366.67 0, 440 0" stroke="#1e1e1e" stroke-width="1" fill="none"></path></g></g><mask></mask><g transform="translate(350 10) rotate(0 18.33984375 11.5)"><text x="0" y="0" font-family="Helvetica, Segoe UI Emoji" font-size="20px" fill="#1e1e1e" text-anchor="start" style="white-space: pre;" direction="ltr" dominant-baseline="text-before-edge">TLS</text></g></svg>