<?xml version="1.0" encoding="UTF-8" standalone="no"?>
<!DOCTYPE svg PUBLIC "-//W3C//DTD SVG 1.1//EN"
 "http://www.w3.org/Graphics/SVG/1.1/DTD/svg11.dtd">
<!-- Generated by graphviz version 5.0.0 (20220707.1540)
 -->
<!-- Title: G Pages: 1 -->
<svg width="452pt" height="392pt"
 viewBox="0.00 0.00 452.00 392.00" xmlns="http://www.w3.org/2000/svg" xmlns:xlink="http://www.w3.org/1999/xlink">
<g id="graph0" class="graph" transform="scale(1 1) rotate(0) translate(4 388)">
<title>G</title>
<polygon fill="white" stroke="transparent" points="-4,4 -4,-388 448,-388 448,4 -4,4"/>
<!-- 4444835456 -->
<g id="node1" class="node">
<title>4444835456</title>
<polygon fill="none" stroke="black" points="286,-384 227.35,-366 286,-348 344.65,-366 286,-384"/>
<text text-anchor="middle" x="286" y="-362.3" font-family="Times,serif" font-size="14.00">tear_rate</text>
</g>
<!-- 4447312704 -->
<g id="node2" class="node">
<title>4447312704</title>
<polygon fill="none" stroke="black" points="222,-297 154.8,-279 222,-261 289.2,-279 222,-297"/>
<text text-anchor="middle" x="222" y="-275.3" font-family="Times,serif" font-size="14.00">astigmatic</text>
</g>
<!-- 4444835456&#45;&gt;4447312704 -->
<g id="edge1" class="edge">
<title>4444835456&#45;&gt;4447312704</title>
<path fill="none" stroke="black" d="M275.43,-350.96C265.49,-337.76 250.43,-317.76 238.83,-302.35"/>
<polygon fill="black" stroke="black" points="241.61,-300.22 232.8,-294.34 236.02,-304.43 241.61,-300.22"/>
<text text-anchor="middle" x="278" y="-318.8" font-family="Times,serif" font-size="14.00">normal</text>
</g>
<!-- 4447312576 -->
<g id="node15" class="node">
<title>4447312576</title>
<ellipse fill="none" stroke="black" cx="351" cy="-279" rx="43.59" ry="18"/>
<text text-anchor="middle" x="351" y="-275.3" font-family="Times,serif" font-size="14.00">no lenses</text>
</g>
<!-- 4444835456&#45;&gt;4447312576 -->
<g id="edge14" class="edge">
<title>4444835456&#45;&gt;4447312576</title>
<path fill="none" stroke="black" d="M296.73,-350.96C306.32,-338.43 320.58,-319.78 332.08,-304.75"/>
<polygon fill="black" stroke="black" points="335.18,-306.46 338.47,-296.39 329.61,-302.2 335.18,-306.46"/>
<text text-anchor="middle" x="344.5" y="-318.8" font-family="Times,serif" font-size="14.00">reduced</text>
</g>
<!-- 4447364544 -->
<g id="node3" class="node">
<title>4447364544</title>
<polygon fill="none" stroke="black" points="175,-210 142.66,-192 175,-174 207.34,-192 175,-210"/>
<text text-anchor="middle" x="175" y="-188.3" font-family="Times,serif" font-size="14.00">age</text>
</g>
<!-- 4447312704&#45;&gt;4447364544 -->
<g id="edge2" class="edge">
<title>4447312704&#45;&gt;4447364544</title>
<path fill="none" stroke="black" d="M213.6,-262.8C206.28,-249.56 195.57,-230.19 187.28,-215.21"/>
<polygon fill="black" stroke="black" points="190.15,-213.17 182.25,-206.11 184.03,-216.56 190.15,-213.17"/>
<text text-anchor="middle" x="209" y="-231.8" font-family="Times,serif" font-size="14.00">no</text>
</g>
<!-- 4447363968 -->
<g id="node9" class="node">
<title>4447363968</title>
<polygon fill="none" stroke="black" points="307,-210 261.08,-192 307,-174 352.92,-192 307,-210"/>
<text text-anchor="middle" x="307" y="-188.3" font-family="Times,serif" font-size="14.00">prescr</text>
</g>
<!-- 4447312704&#45;&gt;4447363968 -->
<g id="edge8" class="edge">
<title>4447312704&#45;&gt;4447363968</title>
<path fill="none" stroke="black" d="M235.66,-264.34C249.69,-250.31 271.67,-228.33 287.53,-212.47"/>
<polygon fill="black" stroke="black" points="290.16,-214.79 294.76,-205.24 285.21,-209.84 290.16,-214.79"/>
<text text-anchor="middle" x="279.5" y="-231.8" font-family="Times,serif" font-size="14.00">yes</text>
</g>
<!-- 4447363136 -->
<g id="node4" class="node">
<title>4447363136</title>
<ellipse fill="none" stroke="black" cx="27" cy="-105" rx="27" ry="18"/>
<text text-anchor="middle" x="27" y="-101.3" font-family="Times,serif" font-size="14.00">soft</text>
</g>
<!-- 4447364544&#45;&gt;4447363136 -->
<g id="edge3" class="edge">
<title>4447364544&#45;&gt;4447363136</title>
<path fill="none" stroke="black" d="M157.05,-183.79C141.37,-177.24 118.17,-166.96 99,-156 82.96,-146.83 65.94,-135.11 52.48,-125.33"/>
<polygon fill="black" stroke="black" points="54.32,-122.33 44.19,-119.22 50.16,-127.97 54.32,-122.33"/>
<text text-anchor="middle" x="108" y="-144.8" font-family="Times,serif" font-size="14.00">pre</text>
</g>
<!-- 4447365056 -->
<g id="node5" class="node">
<title>4447365056</title>
<polygon fill="none" stroke="black" points="118,-123 72.08,-105 118,-87 163.92,-105 118,-123"/>
<text text-anchor="middle" x="118" y="-101.3" font-family="Times,serif" font-size="14.00">prescr</text>
</g>
<!-- 4447364544&#45;&gt;4447365056 -->
<g id="edge4" class="edge">
<title>4447364544&#45;&gt;4447365056</title>
<path fill="none" stroke="black" d="M157.73,-183.11C146.85,-177.21 133.49,-168.09 126,-156 121.75,-149.14 119.52,-140.77 118.41,-132.86"/>
<polygon fill="black" stroke="black" points="121.89,-132.53 117.51,-122.89 114.92,-133.16 121.89,-132.53"/>
<text text-anchor="middle" x="156" y="-144.8" font-family="Times,serif" font-size="14.00">presbyopic</text>
</g>
<!-- 4447364736 -->
<g id="node8" class="node">
<title>4447364736</title>
<ellipse fill="none" stroke="black" cx="209" cy="-105" rx="27" ry="18"/>
<text text-anchor="middle" x="209" y="-101.3" font-family="Times,serif" font-size="14.00">soft</text>
</g>
<!-- 4447364544&#45;&gt;4447364736 -->
<g id="edge7" class="edge">
<title>4447364544&#45;&gt;4447364736</title>
<path fill="none" stroke="black" d="M180.61,-176.96C185.46,-164.86 192.58,-147.05 198.48,-132.3"/>
<polygon fill="black" stroke="black" points="201.86,-133.27 202.33,-122.69 195.36,-130.67 201.86,-133.27"/>
<text text-anchor="middle" x="212" y="-144.8" font-family="Times,serif" font-size="14.00">young</text>
</g>
<!-- 4447364992 -->
<g id="node6" class="node">
<title>4447364992</title>
<ellipse fill="none" stroke="black" cx="29" cy="-18" rx="27" ry="18"/>
<text text-anchor="middle" x="29" y="-14.3" font-family="Times,serif" font-size="14.00">soft</text>
</g>
<!-- 4447365056&#45;&gt;4447364992 -->
<g id="edge5" class="edge">
<title>4447365056&#45;&gt;4447364992</title>
<path fill="none" stroke="black" d="M105.25,-91.82C91.16,-78.37 68.21,-56.45 51.17,-40.17"/>
<polygon fill="black" stroke="black" points="53.45,-37.51 43.8,-33.14 48.62,-42.58 53.45,-37.51"/>
<text text-anchor="middle" x="94.5" y="-57.8" font-family="Times,serif" font-size="14.00">hyper</text>
</g>
<!-- 4447365248 -->
<g id="node7" class="node">
<title>4447365248</title>
<ellipse fill="none" stroke="black" cx="118" cy="-18" rx="43.59" ry="18"/>
<text text-anchor="middle" x="118" y="-14.3" font-family="Times,serif" font-size="14.00">no lenses</text>
</g>
<!-- 4447365056&#45;&gt;4447365248 -->
<g id="edge6" class="edge">
<title>4447365056&#45;&gt;4447365248</title>
<path fill="none" stroke="black" d="M118,-86.8C118,-75.16 118,-59.55 118,-46.24"/>
<polygon fill="black" stroke="black" points="121.5,-46.18 118,-36.18 114.5,-46.18 121.5,-46.18"/>
<text text-anchor="middle" x="137" y="-57.8" font-family="Times,serif" font-size="14.00">myope</text>
</g>
<!-- 4447364096 -->
<g id="node10" class="node">
<title>4447364096</title>
<polygon fill="none" stroke="black" points="307,-123 274.66,-105 307,-87 339.34,-105 307,-123"/>
<text text-anchor="middle" x="307" y="-101.3" font-family="Times,serif" font-size="14.00">age</text>
</g>
<!-- 4447363968&#45;&gt;4447364096 -->
<g id="edge9" class="edge">
<title>4447363968&#45;&gt;4447364096</title>
<path fill="none" stroke="black" d="M307,-173.8C307,-162.16 307,-146.55 307,-133.24"/>
<polygon fill="black" stroke="black" points="310.5,-133.18 307,-123.18 303.5,-133.18 310.5,-133.18"/>
<text text-anchor="middle" x="322.5" y="-144.8" font-family="Times,serif" font-size="14.00">hyper</text>
</g>
<!-- 4447364032 -->
<g id="node14" class="node">
<title>4447364032</title>
<ellipse fill="none" stroke="black" cx="384" cy="-105" rx="27" ry="18"/>
<text text-anchor="middle" x="384" y="-101.3" font-family="Times,serif" font-size="14.00">hard</text>
</g>
<!-- 4447363968&#45;&gt;4447364032 -->
<g id="edge13" class="edge">
<title>4447363968&#45;&gt;4447364032</title>
<path fill="none" stroke="black" d="M319.91,-178.62C326.63,-172.04 334.92,-163.73 342,-156 349.9,-147.39 358.24,-137.61 365.39,-128.99"/>
<polygon fill="black" stroke="black" points="368.18,-131.11 371.83,-121.17 362.78,-126.67 368.18,-131.11"/>
<text text-anchor="middle" x="375" y="-144.8" font-family="Times,serif" font-size="14.00">myope</text>
</g>
<!-- 4447365440 -->
<g id="node11" class="node">
<title>4447365440</title>
<ellipse fill="none" stroke="black" cx="223" cy="-18" rx="43.59" ry="18"/>
<text text-anchor="middle" x="223" y="-14.3" font-family="Times,serif" font-size="14.00">no lenses</text>
</g>
<!-- 4447364096&#45;&gt;4447365440 -->
<g id="edge10" class="edge">
<title>4447364096&#45;&gt;4447365440</title>
<path fill="none" stroke="black" d="M296.02,-92.89C283.37,-80.09 262.24,-58.71 245.95,-42.23"/>
<polygon fill="black" stroke="black" points="248.38,-39.7 238.86,-35.05 243.4,-44.62 248.38,-39.7"/>
<text text-anchor="middle" x="280" y="-57.8" font-family="Times,serif" font-size="14.00">pre</text>
</g>
<!-- 4447365696 -->
<g id="node12" class="node">
<title>4447365696</title>
<ellipse fill="none" stroke="black" cx="328" cy="-18" rx="43.59" ry="18"/>
<text text-anchor="middle" x="328" y="-14.3" font-family="Times,serif" font-size="14.00">no lenses</text>
</g>
<!-- 4447364096&#45;&gt;4447365696 -->
<g id="edge11" class="edge">
<title>4447364096&#45;&gt;4447365696</title>
<path fill="none" stroke="black" d="M310.75,-88.8C313.7,-76.89 317.87,-60.02 321.37,-45.84"/>
<polygon fill="black" stroke="black" points="324.77,-46.66 323.77,-36.11 317.98,-44.98 324.77,-46.66"/>
<text text-anchor="middle" x="349" y="-57.8" font-family="Times,serif" font-size="14.00">presbyopic</text>
</g>
<!-- 4447365760 -->
<g id="node13" class="node">
<title>4447365760</title>
<ellipse fill="none" stroke="black" cx="417" cy="-18" rx="27" ry="18"/>
<text text-anchor="middle" x="417" y="-14.3" font-family="Times,serif" font-size="14.00">hard</text>
</g>
<!-- 4447364096&#45;&gt;4447365760 -->
<g id="edge12" class="edge">
<title>4447364096&#45;&gt;4447365760</title>
<path fill="none" stroke="black" d="M324.64,-96.47C345.56,-87.45 378.23,-73.04 383,-69 391.09,-62.15 398.08,-52.93 403.59,-44.27"/>
<polygon fill="black" stroke="black" points="406.66,-45.96 408.77,-35.58 400.65,-42.38 406.66,-45.96"/>
<text text-anchor="middle" x="414" y="-57.8" font-family="Times,serif" font-size="14.00">young</text>
</g>
</g>
</svg>
