<?xml version="1.0" encoding="UTF-8" standalone="no"?>
<!DOCTYPE svg PUBLIC "-//W3C//DTD SVG 1.1//EN"
 "http://www.w3.org/Graphics/SVG/1.1/DTD/svg11.dtd">
<!-- Generated by graphviz version 2.40.1 (20161225.0304)
 -->
<!-- Title: SemanticFlags Pages: 1 -->
<svg width="784pt" height="746pt"
 viewBox="0.00 0.00 784.41 746.00" xmlns="http://www.w3.org/2000/svg" xmlns:xlink="http://www.w3.org/1999/xlink">
<g id="graph0" class="graph" transform="scale(1 1) rotate(0) translate(4 742)">
<title>SemanticFlags</title>
<polygon fill="#ffffff" stroke="transparent" points="-4,4 -4,-742 780.4131,-742 780.4131,4 -4,4"/>
<!-- A -->
<g id="node1" class="node">
<title>A</title>
<polygon fill="none" stroke="#000000" points="344.499,-540.5 344.499,-584.5 575.9131,-584.5 575.9131,-540.5 344.499,-540.5"/>
<text text-anchor="middle" x="460.2061" y="-569.3" font-family="Times,serif" font-size="14.00" fill="#000000">GetSemanticClassForFlagWriteType()</text>
<polyline fill="none" stroke="#000000" points="344.499,-562.5 575.9131,-562.5 "/>
<text text-anchor="middle" x="460.2061" y="-547.3" font-family="Times,serif" font-size="14.00" fill="#000000">semantic_class_for_flag_write_type</text>
</g>
<!-- Class -->
<g id="node12" class="node">
<title>Class</title>
<ellipse fill="none" stroke="#000000" cx="680.2061" cy="-486" rx="29.0429" ry="18"/>
<text text-anchor="middle" x="680.2061" y="-481.8" font-family="Times,serif" font-size="14.00" fill="#000000">Class</text>
</g>
<!-- A&#45;&gt;Class -->
<g id="edge6" class="edge">
<title>A&#45;&gt;Class</title>
<path fill="none" stroke="#000000" d="M523.544,-540.4757C563.002,-526.7551 612.2929,-509.6152 644.9335,-498.2652"/>
<polygon fill="#000000" stroke="#000000" points="646.2037,-501.5292 654.4994,-494.9389 643.9046,-494.9175 646.2037,-501.5292"/>
</g>
<!-- B -->
<g id="node2" class="node">
<title>B</title>
<polygon fill="none" stroke="#000000" points="0,-306.5 0,-350.5 218.4121,-350.5 218.4121,-306.5 0,-306.5"/>
<text text-anchor="middle" x="109.2061" y="-335.3" font-family="Times,serif" font-size="14.00" fill="#000000">GetFlagsWrittenByFlagWriteType()</text>
<polyline fill="none" stroke="#000000" points="0,-328.5 218.4121,-328.5 "/>
<text text-anchor="middle" x="109.2061" y="-313.3" font-family="Times,serif" font-size="14.00" fill="#000000">flags_written_by_flag_write_type</text>
</g>
<!-- Flag -->
<g id="node14" class="node">
<title>Flag</title>
<ellipse fill="none" stroke="#000000" cx="466.2061" cy="-171" rx="27" ry="18"/>
<text text-anchor="middle" x="466.2061" y="-166.8" font-family="Times,serif" font-size="14.00" fill="#000000">Flag</text>
</g>
<!-- B&#45;&gt;Flag -->
<g id="edge8" class="edge">
<title>B&#45;&gt;Flag</title>
<path fill="none" stroke="#000000" d="M141.3554,-306.3705C175.7145,-283.5047 232.3957,-248.0013 285.2061,-225 333.847,-203.8147 393.3001,-187.839 430.4713,-178.9497"/>
<polygon fill="#000000" stroke="#000000" points="431.4026,-182.3263 440.3371,-176.632 429.8016,-175.5118 431.4026,-182.3263"/>
</g>
<!-- C -->
<g id="node3" class="node">
<title>C</title>
<polygon fill="none" stroke="#000000" points="110.5059,-387.5 110.5059,-431.5 369.9063,-431.5 369.9063,-387.5 110.5059,-387.5"/>
<text text-anchor="middle" x="240.2061" y="-416.3" font-family="Times,serif" font-size="14.00" fill="#000000">GetFlagsRequiredForSemanticFlagGroup()</text>
<polyline fill="none" stroke="#000000" points="110.5059,-409.5 369.9063,-409.5 "/>
<text text-anchor="middle" x="240.2061" y="-394.3" font-family="Times,serif" font-size="14.00" fill="#000000">flags_required_for_semantic_flag_group</text>
</g>
<!-- C&#45;&gt;Flag -->
<g id="edge10" class="edge">
<title>C&#45;&gt;Flag</title>
<path fill="none" stroke="#000000" d="M247.6314,-387.2146C261.3118,-349.2289 293.8798,-271.5446 345.2061,-225 369.5769,-202.8996 404.4814,-188.6391 430.5443,-180.3563"/>
<polygon fill="#000000" stroke="#000000" points="431.8537,-183.6168 440.4106,-177.3694 429.8254,-176.9171 431.8537,-183.6168"/>
</g>
<!-- D -->
<g id="node4" class="node">
<title>D</title>
<polygon fill="none" stroke="#000000" points="388.1611,-387.5 388.1611,-431.5 652.251,-431.5 652.251,-387.5 388.1611,-387.5"/>
<text text-anchor="middle" x="520.2061" y="-416.3" font-family="Times,serif" font-size="14.00" fill="#000000">GetFlagConditionsForSemanticFlagGroup()</text>
<polyline fill="none" stroke="#000000" points="388.1611,-409.5 652.251,-409.5 "/>
<text text-anchor="middle" x="520.2061" y="-394.3" font-family="Times,serif" font-size="14.00" fill="#000000">flag_conditions_for_semantic_flag_group</text>
</g>
<!-- Condition -->
<g id="node15" class="node">
<title>Condition</title>
<ellipse fill="none" stroke="#000000" cx="493.2061" cy="-328.5" rx="45.47" ry="18"/>
<text text-anchor="middle" x="493.2061" y="-324.3" font-family="Times,serif" font-size="14.00" fill="#000000">Condition</text>
</g>
<!-- D&#45;&gt;Condition -->
<g id="edge13" class="edge">
<title>D&#45;&gt;Condition</title>
<path fill="none" stroke="#000000" d="M512.8282,-387.3664C509.6196,-377.7406 505.8256,-366.3586 502.433,-356.1809"/>
<polygon fill="#000000" stroke="#000000" points="505.6935,-354.8943 499.2108,-346.5142 499.0528,-357.1079 505.6935,-354.8943"/>
</g>
<!-- E -->
<g id="node5" class="node">
<title>E</title>
<polygon fill="none" stroke="#000000" points="353.999,-225.5 353.999,-269.5 578.4131,-269.5 578.4131,-225.5 353.999,-225.5"/>
<text text-anchor="middle" x="466.2061" y="-254.3" font-family="Times,serif" font-size="14.00" fill="#000000">GetFlagsRequiredforFlagCondition()</text>
<polyline fill="none" stroke="#000000" points="353.999,-247.5 578.4131,-247.5 "/>
<text text-anchor="middle" x="466.2061" y="-232.3" font-family="Times,serif" font-size="14.00" fill="#000000">flags_required_for_flag_condition</text>
</g>
<!-- E&#45;&gt;Flag -->
<g id="edge16" class="edge">
<title>E&#45;&gt;Flag</title>
<path fill="none" stroke="#000000" d="M466.2061,-225.373C466.2061,-217.2163 466.2061,-207.8623 466.2061,-199.2386"/>
<polygon fill="#000000" stroke="#000000" points="469.7062,-199.2113 466.2061,-189.2113 462.7062,-199.2113 469.7062,-199.2113"/>
</g>
<!-- F -->
<g id="node6" class="node">
<title>F</title>
<polygon fill="none" stroke="#000000" points="543.7715,-72.5 543.7715,-116.5 640.6406,-116.5 640.6406,-72.5 543.7715,-72.5"/>
<text text-anchor="middle" x="592.2061" y="-101.3" font-family="Times,serif" font-size="14.00" fill="#000000">GetFlagRole()</text>
<polyline fill="none" stroke="#000000" points="543.7715,-94.5 640.6406,-94.5 "/>
<text text-anchor="middle" x="592.2061" y="-79.3" font-family="Times,serif" font-size="14.00" fill="#000000">flag_roles</text>
</g>
<!-- Role -->
<g id="node16" class="node">
<title>Role</title>
<ellipse fill="none" stroke="#000000" cx="592.2061" cy="-18" rx="27" ry="18"/>
<text text-anchor="middle" x="592.2061" y="-13.8" font-family="Times,serif" font-size="14.00" fill="#000000">Role</text>
</g>
<!-- F&#45;&gt;Role -->
<g id="edge19" class="edge">
<title>F&#45;&gt;Role</title>
<path fill="none" stroke="#000000" d="M592.2061,-72.373C592.2061,-64.2163 592.2061,-54.8623 592.2061,-46.2386"/>
<polygon fill="#000000" stroke="#000000" points="595.7062,-46.2113 592.2061,-36.2113 588.7062,-46.2113 595.7062,-46.2113"/>
</g>
<!-- G -->
<g id="node7" class="node">
<title>G</title>
<polygon fill="none" stroke="#000000" points="196.7715,-693.5 196.7715,-737.5 349.6406,-737.5 349.6406,-693.5 196.7715,-693.5"/>
<text text-anchor="middle" x="273.2061" y="-722.3" font-family="Times,serif" font-size="14.00" fill="#000000">GetAllFlagWriteTypes()</text>
<polyline fill="none" stroke="#000000" points="196.7715,-715.5 349.6406,-715.5 "/>
<text text-anchor="middle" x="273.2061" y="-700.3" font-family="Times,serif" font-size="14.00" fill="#000000">flag_write_types</text>
</g>
<!-- WriteType -->
<g id="node11" class="node">
<title>WriteType</title>
<ellipse fill="none" stroke="#000000" cx="273.2061" cy="-639" rx="47.3823" ry="18"/>
<text text-anchor="middle" x="273.2061" y="-634.8" font-family="Times,serif" font-size="14.00" fill="#000000">WriteType</text>
</g>
<!-- G&#45;&gt;WriteType -->
<g id="edge1" class="edge">
<title>G&#45;&gt;WriteType</title>
<path fill="none" stroke="#000000" d="M273.2061,-693.373C273.2061,-685.2163 273.2061,-675.8623 273.2061,-667.2386"/>
<polygon fill="#000000" stroke="#000000" points="276.7062,-667.2113 273.2061,-657.2113 269.7062,-667.2113 276.7062,-667.2113"/>
</g>
<!-- H -->
<g id="node8" class="node">
<title>H</title>
<polygon fill="none" stroke="#000000" points="596.3232,-225.5 596.3232,-269.5 690.0889,-269.5 690.0889,-225.5 596.3232,-225.5"/>
<text text-anchor="middle" x="643.2061" y="-254.3" font-family="Times,serif" font-size="14.00" fill="#000000">GetAllFlags()</text>
<polyline fill="none" stroke="#000000" points="596.3232,-247.5 690.0889,-247.5 "/>
<text text-anchor="middle" x="643.2061" y="-232.3" font-family="Times,serif" font-size="14.00" fill="#000000">flags</text>
</g>
<!-- H&#45;&gt;Flag -->
<g id="edge4" class="edge">
<title>H&#45;&gt;Flag</title>
<path fill="none" stroke="#000000" d="M596.238,-227.2002C565.4075,-213.8752 525.8803,-196.7914 498.5406,-184.9751"/>
<polygon fill="#000000" stroke="#000000" points="499.6261,-181.6314 489.0582,-180.8768 496.8489,-188.0569 499.6261,-181.6314"/>
</g>
<!-- I -->
<g id="node9" class="node">
<title>I</title>
<polygon fill="none" stroke="#000000" points="144.3887,-540.5 144.3887,-584.5 326.0234,-584.5 326.0234,-540.5 144.3887,-540.5"/>
<text text-anchor="middle" x="235.2061" y="-569.3" font-family="Times,serif" font-size="14.00" fill="#000000">GetAllSemanticFlagGroups()</text>
<polyline fill="none" stroke="#000000" points="144.3887,-562.5 326.0234,-562.5 "/>
<text text-anchor="middle" x="235.2061" y="-547.3" font-family="Times,serif" font-size="14.00" fill="#000000">semantic_flag_groups</text>
</g>
<!-- Group -->
<g id="node13" class="node">
<title>Group</title>
<ellipse fill="none" stroke="#000000" cx="240.2061" cy="-486" rx="32.9081" ry="18"/>
<text text-anchor="middle" x="240.2061" y="-481.8" font-family="Times,serif" font-size="14.00" fill="#000000">Group</text>
</g>
<!-- I&#45;&gt;Group -->
<g id="edge3" class="edge">
<title>I&#45;&gt;Group</title>
<path fill="none" stroke="#000000" d="M236.6523,-540.373C237.1854,-532.2163 237.7968,-522.8623 238.3604,-514.2386"/>
<polygon fill="#000000" stroke="#000000" points="241.856,-514.4183 239.0158,-504.2113 234.8709,-513.9617 241.856,-514.4183"/>
</g>
<!-- J -->
<g id="node10" class="node">
<title>J</title>
<polygon fill="none" stroke="#000000" points="593.999,-540.5 593.999,-584.5 776.4131,-584.5 776.4131,-540.5 593.999,-540.5"/>
<text text-anchor="middle" x="685.2061" y="-569.3" font-family="Times,serif" font-size="14.00" fill="#000000">GetAllSemanticFlagClasses()</text>
<polyline fill="none" stroke="#000000" points="593.999,-562.5 776.4131,-562.5 "/>
<text text-anchor="middle" x="685.2061" y="-547.3" font-family="Times,serif" font-size="14.00" fill="#000000">semantic_flag_classes</text>
</g>
<!-- J&#45;&gt;Class -->
<g id="edge2" class="edge">
<title>J&#45;&gt;Class</title>
<path fill="none" stroke="#000000" d="M683.7598,-540.373C683.2267,-532.2163 682.6154,-522.8623 682.0517,-514.2386"/>
<polygon fill="#000000" stroke="#000000" points="685.5412,-513.9617 681.3963,-504.2113 678.5561,-514.4183 685.5412,-513.9617"/>
</g>
<!-- WriteType&#45;&gt;A -->
<g id="edge5" class="edge">
<title>WriteType&#45;&gt;A</title>
<path fill="none" stroke="#000000" d="M305.779,-625.6747C330.9094,-615.3941 366.4407,-600.8586 397.0866,-588.3216"/>
<polygon fill="#000000" stroke="#000000" points="398.4934,-591.5277 406.4236,-584.5019 395.8429,-585.0489 398.4934,-591.5277"/>
</g>
<!-- WriteType&#45;&gt;B -->
<g id="edge7" class="edge">
<title>WriteType&#45;&gt;B</title>
<path fill="none" stroke="#000000" d="M228.6402,-632.7077C197.9905,-626.0382 158.7195,-612.4538 135.2061,-585 80.7502,-521.4184 91.9864,-413.8309 101.9932,-360.4756"/>
<polygon fill="#000000" stroke="#000000" points="105.4481,-361.0463 103.9583,-350.5567 98.5815,-359.6858 105.4481,-361.0463"/>
</g>
<!-- Class&#45;&gt;D -->
<g id="edge12" class="edge">
<title>Class&#45;&gt;D</title>
<path fill="none" stroke="#000000" d="M656.9407,-474.8762C635.6826,-464.7122 603.4128,-449.2832 575.5601,-435.9662"/>
<polygon fill="#000000" stroke="#000000" points="576.8377,-432.6975 566.3061,-431.5416 573.8181,-439.0128 576.8377,-432.6975"/>
</g>
<!-- Class&#45;&gt;E -->
<g id="edge15" class="edge">
<title>Class&#45;&gt;E</title>
<path fill="none" stroke="#000000" d="M680.6362,-467.7243C680.2919,-446.6569 677.0653,-411.758 661.2061,-387 628.4379,-335.8453 569.6545,-297.6778 525.1684,-274.3154"/>
<polygon fill="#000000" stroke="#000000" points="526.6843,-271.1594 516.1907,-269.6983 523.4828,-277.3844 526.6843,-271.1594"/>
</g>
<!-- Class&#45;&gt;F -->
<g id="edge18" class="edge">
<title>Class&#45;&gt;F</title>
<path fill="none" stroke="#000000" d="M687.3536,-468.3835C698.3612,-439.6161 718.2061,-380.5374 718.2061,-328.5 718.2061,-328.5 718.2061,-328.5 718.2061,-247.5 718.2061,-194.4588 672.525,-149.822 636.1738,-122.6988"/>
<polygon fill="#000000" stroke="#000000" points="637.7914,-119.5488 627.6394,-116.5178 633.6855,-125.2181 637.7914,-119.5488"/>
</g>
<!-- Group&#45;&gt;C -->
<g id="edge9" class="edge">
<title>Group&#45;&gt;C</title>
<path fill="none" stroke="#000000" d="M240.2061,-467.8706C240.2061,-460.0583 240.2061,-450.6807 240.2061,-441.7504"/>
<polygon fill="#000000" stroke="#000000" points="243.7062,-441.5932 240.2061,-431.5933 236.7062,-441.5933 243.7062,-441.5932"/>
</g>
<!-- Group&#45;&gt;D -->
<g id="edge11" class="edge">
<title>Group&#45;&gt;D</title>
<path fill="none" stroke="#000000" d="M269.6417,-477.9577C307.3253,-467.6621 374.3512,-449.3496 429.6029,-434.2541"/>
<polygon fill="#000000" stroke="#000000" points="430.6948,-437.5841 439.4188,-431.5722 428.8499,-430.8316 430.6948,-437.5841"/>
</g>
<!-- Flag&#45;&gt;F -->
<g id="edge17" class="edge">
<title>Flag&#45;&gt;F</title>
<path fill="none" stroke="#000000" d="M486.1711,-158.8783C502.5042,-148.9618 526.2295,-134.5572 547.0985,-121.8867"/>
<polygon fill="#000000" stroke="#000000" points="549.1061,-124.7624 555.8376,-116.5808 545.4733,-118.7789 549.1061,-124.7624"/>
</g>
<!-- Condition&#45;&gt;E -->
<g id="edge14" class="edge">
<title>Condition&#45;&gt;E</title>
<path fill="none" stroke="#000000" d="M487.2139,-310.5235C484.1764,-301.4109 480.3953,-290.0677 476.8815,-279.5263"/>
<polygon fill="#000000" stroke="#000000" points="480.1102,-278.1442 473.6275,-269.7642 473.4694,-280.3579 480.1102,-278.1442"/>
</g>
</g>
</svg>
