<?xml version="1.0" encoding="UTF-8" standalone="no"?>
<!DOCTYPE svg PUBLIC "-//W3C//DTD SVG 1.1//EN"
 "http://www.w3.org/Graphics/SVG/1.1/DTD/svg11.dtd">
<!-- Generated by graphviz version 2.49.3 (20211023.0002)
 -->
<!-- Title: asm_graph Pages: 1 -->
<svg width="2071pt" height="2774pt"
 viewBox="0.00 0.00 2071.00 2774.00" xmlns="http://www.w3.org/2000/svg" xmlns:xlink="http://www.w3.org/1999/xlink">
<g id="graph0" class="graph" transform="scale(1 1) rotate(0) translate(4 2770)">
<title>asm_graph</title>
<polygon fill="white" stroke="transparent" points="-4,4 -4,-2770 2067,-2770 2067,4 -4,4"/>
<!-- 20 -->
<g id="node1" class="node">
<title>20</title>
<path fill="none" stroke="black" d="M12,-2571.5C12,-2571.5 453,-2571.5 453,-2571.5 459,-2571.5 465,-2577.5 465,-2583.5 465,-2583.5 465,-2753.5 465,-2753.5 465,-2759.5 459,-2765.5 453,-2765.5 453,-2765.5 12,-2765.5 12,-2765.5 6,-2765.5 0,-2759.5 0,-2753.5 0,-2753.5 0,-2583.5 0,-2583.5 0,-2577.5 6,-2571.5 12,-2571.5"/>
<polygon fill="grey" stroke="transparent" points="10.5,-2738.5 10.5,-2759.5 455.5,-2759.5 455.5,-2738.5 10.5,-2738.5"/>
<text text-anchor="start" x="190.5" y="-2745.3" font-family="Courier New" font-size="14.00">some_loops</text>
<text text-anchor="start" x="13.5" y="-2722.3" font-family="Courier New" font-size="14.00">PUSH &#160;&#160;&#160;&#160;&#160;&#160;RBP</text>
<text text-anchor="start" x="13.5" y="-2699.3" font-family="Courier New" font-size="14.00">MOV &#160;&#160;&#160;&#160;&#160;&#160;&#160;RBP, RSP</text>
<text text-anchor="start" x="13.5" y="-2676.3" font-family="Courier New" font-size="14.00">SUB &#160;&#160;&#160;&#160;&#160;&#160;&#160;RSP, 0x10</text>
<text text-anchor="start" x="13.5" y="-2653.3" font-family="Courier New" font-size="14.00">MOV &#160;&#160;&#160;&#160;&#160;&#160;&#160;DWORD PTR [RBP + 0xFFFFFFFFFFFFFFF4], 0x0</text>
<text text-anchor="start" x="13.5" y="-2630.3" font-family="Courier New" font-size="14.00">MOV &#160;&#160;&#160;&#160;&#160;&#160;&#160;DWORD PTR [RBP + 0xFFFFFFFFFFFFFFF8], 0x0</text>
<text text-anchor="start" x="13.5" y="-2607.3" font-family="Courier New" font-size="14.00">MOV &#160;&#160;&#160;&#160;&#160;&#160;&#160;DWORD PTR [RBP + 0xFFFFFFFFFFFFFFFC], 0x0</text>
<text text-anchor="start" x="13.5" y="-2584.3" font-family="Courier New" font-size="14.00">JMP &#160;&#160;&#160;&#160;&#160;&#160;&#160;loc_82d</text>
</g>
<!-- 32 -->
<g id="node2" class="node">
<title>32</title>
<path fill="none" stroke="black" d="M12,-2455.5C12,-2455.5 453,-2455.5 453,-2455.5 459,-2455.5 465,-2461.5 465,-2467.5 465,-2467.5 465,-2522.5 465,-2522.5 465,-2528.5 459,-2534.5 453,-2534.5 453,-2534.5 12,-2534.5 12,-2534.5 6,-2534.5 0,-2528.5 0,-2522.5 0,-2522.5 0,-2467.5 0,-2467.5 0,-2461.5 6,-2455.5 12,-2455.5"/>
<polygon fill="grey" stroke="transparent" points="10.5,-2507 10.5,-2528 455.5,-2528 455.5,-2507 10.5,-2507"/>
<text text-anchor="start" x="203.5" y="-2513.8" font-family="Courier New" font-size="14.00">loc_82d</text>
<text text-anchor="start" x="13.5" y="-2490.8" font-family="Courier New" font-size="14.00">CMP &#160;&#160;&#160;&#160;&#160;&#160;&#160;DWORD PTR [RBP + 0xFFFFFFFFFFFFFFF4], 0x9</text>
<text text-anchor="start" x="13.5" y="-2467.8" font-family="Courier New" font-size="14.00">JLE &#160;&#160;&#160;&#160;&#160;&#160;&#160;loc_811</text>
</g>
<!-- 20&#45;&gt;32 -->
<g id="edge1" class="edge">
<title>20&#45;&gt;32</title>
<path fill="none" stroke="blue" d="M232.5,-2571.22C232.5,-2562.2 232.5,-2553.34 232.5,-2545.05"/>
<polygon fill="blue" stroke="blue" points="236,-2544.87 232.5,-2534.87 229,-2544.87 236,-2544.87"/>
</g>
<!-- 33 -->
<g id="node3" class="node">
<title>33</title>
<path fill="none" stroke="black" d="M12,-2224.5C12,-2224.5 453,-2224.5 453,-2224.5 459,-2224.5 465,-2230.5 465,-2236.5 465,-2236.5 465,-2406.5 465,-2406.5 465,-2412.5 459,-2418.5 453,-2418.5 453,-2418.5 12,-2418.5 12,-2418.5 6,-2418.5 0,-2412.5 0,-2406.5 0,-2406.5 0,-2236.5 0,-2236.5 0,-2230.5 6,-2224.5 12,-2224.5"/>
<polygon fill="grey" stroke="transparent" points="10.5,-2391.5 10.5,-2412.5 455.5,-2412.5 455.5,-2391.5 10.5,-2391.5"/>
<text text-anchor="start" x="203.5" y="-2398.3" font-family="Courier New" font-size="14.00">loc_811</text>
<text text-anchor="start" x="13.5" y="-2375.3" font-family="Courier New" font-size="14.00">MOV &#160;&#160;&#160;&#160;&#160;&#160;&#160;EAX, DWORD PTR [RBP + 0xFFFFFFFFFFFFFFF4]</text>
<text text-anchor="start" x="13.5" y="-2352.3" font-family="Courier New" font-size="14.00">LEA &#160;&#160;&#160;&#160;&#160;&#160;&#160;EDX, DWORD PTR [RAX + 0x1]</text>
<text text-anchor="start" x="13.5" y="-2329.3" font-family="Courier New" font-size="14.00">MOV &#160;&#160;&#160;&#160;&#160;&#160;&#160;DWORD PTR [RBP + 0xFFFFFFFFFFFFFFF4], EDX</text>
<text text-anchor="start" x="13.5" y="-2306.3" font-family="Courier New" font-size="14.00">MOV &#160;&#160;&#160;&#160;&#160;&#160;&#160;ESI, EAX</text>
<text text-anchor="start" x="13.5" y="-2283.3" font-family="Courier New" font-size="14.00">LEA &#160;&#160;&#160;&#160;&#160;&#160;&#160;RDI, QWORD PTR [RIP + 0x219]</text>
<text text-anchor="start" x="13.5" y="-2260.3" font-family="Courier New" font-size="14.00">MOV &#160;&#160;&#160;&#160;&#160;&#160;&#160;EAX, 0x0</text>
<text text-anchor="start" x="13.5" y="-2237.3" font-family="Courier New" font-size="14.00">CALL &#160;&#160;&#160;&#160;&#160;&#160;loc_560</text>
</g>
<!-- 32&#45;&gt;33 -->
<g id="edge2" class="edge">
<title>32&#45;&gt;33</title>
<path fill="none" stroke="limegreen" d="M226.74,-2455.08C226.36,-2446.96 226.08,-2438.02 225.92,-2428.74"/>
<polygon fill="limegreen" stroke="limegreen" points="229.42,-2428.51 225.79,-2418.56 222.42,-2428.6 229.42,-2428.51"/>
</g>
<!-- 34 -->
<g id="node4" class="node">
<title>34</title>
<path fill="none" stroke="black" d="M495.5,-2282C495.5,-2282 827.5,-2282 827.5,-2282 833.5,-2282 839.5,-2288 839.5,-2294 839.5,-2294 839.5,-2349 839.5,-2349 839.5,-2355 833.5,-2361 827.5,-2361 827.5,-2361 495.5,-2361 495.5,-2361 489.5,-2361 483.5,-2355 483.5,-2349 483.5,-2349 483.5,-2294 483.5,-2294 483.5,-2288 489.5,-2282 495.5,-2282"/>
<polygon fill="grey" stroke="transparent" points="493.5,-2333.5 493.5,-2354.5 829.5,-2354.5 829.5,-2333.5 493.5,-2333.5"/>
<text text-anchor="start" x="632" y="-2340.3" font-family="Courier New" font-size="14.00">loc_833</text>
<text text-anchor="start" x="496.5" y="-2317.3" font-family="Courier New" font-size="14.00">LEA &#160;&#160;&#160;&#160;&#160;&#160;&#160;RDI, QWORD PTR [RIP + 0x209]</text>
<text text-anchor="start" x="496.5" y="-2294.3" font-family="Courier New" font-size="14.00">CALL &#160;&#160;&#160;&#160;&#160;&#160;loc_550</text>
</g>
<!-- 32&#45;&gt;34 -->
<g id="edge4" class="edge">
<title>32&#45;&gt;34</title>
<path fill="none" stroke="red" d="M370.64,-2455.5C404.68,-2444.79 440.75,-2432.39 473.5,-2419 510.75,-2403.78 550.59,-2383.88 583.97,-2366.12"/>
<polygon fill="red" stroke="red" points="586.04,-2368.97 593.2,-2361.17 582.74,-2362.81 586.04,-2368.97"/>
</g>
<!-- 33&#45;&gt;32 -->
<g id="edge3" class="edge">
<title>33&#45;&gt;32</title>
<path fill="none" stroke="blue" d="M239.21,-2418.56C239.13,-2427.62 238.95,-2436.52 238.67,-2444.86"/>
<polygon fill="blue" stroke="blue" points="235.16,-2444.95 238.26,-2455.08 242.16,-2445.23 235.16,-2444.95"/>
</g>
<!-- 37 -->
<g id="node5" class="node">
<title>37</title>
<path fill="none" stroke="black" d="M441,-2108.5C441,-2108.5 882,-2108.5 882,-2108.5 888,-2108.5 894,-2114.5 894,-2120.5 894,-2120.5 894,-2175.5 894,-2175.5 894,-2181.5 888,-2187.5 882,-2187.5 882,-2187.5 441,-2187.5 441,-2187.5 435,-2187.5 429,-2181.5 429,-2175.5 429,-2175.5 429,-2120.5 429,-2120.5 429,-2114.5 435,-2108.5 441,-2108.5"/>
<polygon fill="grey" stroke="transparent" points="439.5,-2160 439.5,-2181 884.5,-2181 884.5,-2160 439.5,-2160"/>
<text text-anchor="start" x="632.5" y="-2166.8" font-family="Courier New" font-size="14.00">loc_83f</text>
<text text-anchor="start" x="442.5" y="-2143.8" font-family="Courier New" font-size="14.00">MOV &#160;&#160;&#160;&#160;&#160;&#160;&#160;DWORD PTR [RBP + 0xFFFFFFFFFFFFFFF4], 0x0</text>
<text text-anchor="start" x="442.5" y="-2120.8" font-family="Courier New" font-size="14.00">JMP &#160;&#160;&#160;&#160;&#160;&#160;&#160;loc_862</text>
</g>
<!-- 34&#45;&gt;37 -->
<g id="edge5" class="edge">
<title>34&#45;&gt;37</title>
<path fill="none" stroke="blue" d="M661.5,-2281.58C661.5,-2256.81 661.5,-2224.5 661.5,-2197.99"/>
<polygon fill="blue" stroke="blue" points="665,-2197.76 661.5,-2187.76 658,-2197.76 665,-2197.76"/>
</g>
<!-- 38 -->
<g id="node6" class="node">
<title>38</title>
<path fill="none" stroke="black" d="M441,-1992.5C441,-1992.5 882,-1992.5 882,-1992.5 888,-1992.5 894,-1998.5 894,-2004.5 894,-2004.5 894,-2059.5 894,-2059.5 894,-2065.5 888,-2071.5 882,-2071.5 882,-2071.5 441,-2071.5 441,-2071.5 435,-2071.5 429,-2065.5 429,-2059.5 429,-2059.5 429,-2004.5 429,-2004.5 429,-1998.5 435,-1992.5 441,-1992.5"/>
<polygon fill="grey" stroke="transparent" points="439.5,-2044 439.5,-2065 884.5,-2065 884.5,-2044 439.5,-2044"/>
<text text-anchor="start" x="632.5" y="-2050.8" font-family="Courier New" font-size="14.00">loc_862</text>
<text text-anchor="start" x="442.5" y="-2027.8" font-family="Courier New" font-size="14.00">CMP &#160;&#160;&#160;&#160;&#160;&#160;&#160;DWORD PTR [RBP + 0xFFFFFFFFFFFFFFF4], 0xF</text>
<text text-anchor="start" x="442.5" y="-2004.8" font-family="Courier New" font-size="14.00">JLE &#160;&#160;&#160;&#160;&#160;&#160;&#160;loc_848</text>
</g>
<!-- 37&#45;&gt;38 -->
<g id="edge6" class="edge">
<title>37&#45;&gt;38</title>
<path fill="none" stroke="blue" d="M661.5,-2108.4C661.5,-2099.86 661.5,-2090.7 661.5,-2081.81"/>
<polygon fill="blue" stroke="blue" points="665,-2081.56 661.5,-2071.56 658,-2081.56 665,-2081.56"/>
</g>
<!-- 39 -->
<g id="node7" class="node">
<title>39</title>
<path fill="none" stroke="black" d="M441,-1807.5C441,-1807.5 882,-1807.5 882,-1807.5 888,-1807.5 894,-1813.5 894,-1819.5 894,-1819.5 894,-1943.5 894,-1943.5 894,-1949.5 888,-1955.5 882,-1955.5 882,-1955.5 441,-1955.5 441,-1955.5 435,-1955.5 429,-1949.5 429,-1943.5 429,-1943.5 429,-1819.5 429,-1819.5 429,-1813.5 435,-1807.5 441,-1807.5"/>
<polygon fill="grey" stroke="transparent" points="439.5,-1928.5 439.5,-1949.5 884.5,-1949.5 884.5,-1928.5 439.5,-1928.5"/>
<text text-anchor="start" x="632.5" y="-1935.3" font-family="Courier New" font-size="14.00">loc_848</text>
<text text-anchor="start" x="442.5" y="-1912.3" font-family="Courier New" font-size="14.00">MOV &#160;&#160;&#160;&#160;&#160;&#160;&#160;EAX, DWORD PTR [RBP + 0xFFFFFFFFFFFFFFF4]</text>
<text text-anchor="start" x="442.5" y="-1889.3" font-family="Courier New" font-size="14.00">MOV &#160;&#160;&#160;&#160;&#160;&#160;&#160;ESI, EAX</text>
<text text-anchor="start" x="442.5" y="-1866.3" font-family="Courier New" font-size="14.00">LEA &#160;&#160;&#160;&#160;&#160;&#160;&#160;RDI, QWORD PTR [RIP + 0x1FD]</text>
<text text-anchor="start" x="442.5" y="-1843.3" font-family="Courier New" font-size="14.00">MOV &#160;&#160;&#160;&#160;&#160;&#160;&#160;EAX, 0x0</text>
<text text-anchor="start" x="442.5" y="-1820.3" font-family="Courier New" font-size="14.00">CALL &#160;&#160;&#160;&#160;&#160;&#160;loc_560</text>
</g>
<!-- 38&#45;&gt;39 -->
<g id="edge7" class="edge">
<title>38&#45;&gt;39</title>
<path fill="none" stroke="limegreen" d="M661.5,-1992.37C661.5,-1984.1 661.5,-1975.06 661.5,-1965.83"/>
<polygon fill="limegreen" stroke="limegreen" points="665,-1965.77 661.5,-1955.77 658,-1965.77 665,-1965.77"/>
</g>
<!-- 40 -->
<g id="node8" class="node">
<title>40</title>
<path fill="none" stroke="black" d="M924,-1807.5C924,-1807.5 1365,-1807.5 1365,-1807.5 1371,-1807.5 1377,-1813.5 1377,-1819.5 1377,-1819.5 1377,-1943.5 1377,-1943.5 1377,-1949.5 1371,-1955.5 1365,-1955.5 1365,-1955.5 924,-1955.5 924,-1955.5 918,-1955.5 912,-1949.5 912,-1943.5 912,-1943.5 912,-1819.5 912,-1819.5 912,-1813.5 918,-1807.5 924,-1807.5"/>
<polygon fill="grey" stroke="transparent" points="922.5,-1928.5 922.5,-1949.5 1367.5,-1949.5 1367.5,-1928.5 922.5,-1928.5"/>
<text text-anchor="start" x="1115.5" y="-1935.3" font-family="Courier New" font-size="14.00">loc_868</text>
<text text-anchor="start" x="925.5" y="-1912.3" font-family="Courier New" font-size="14.00">MOV &#160;&#160;&#160;&#160;&#160;&#160;&#160;EAX, DWORD PTR [RBP + 0xFFFFFFFFFFFFFFF4]</text>
<text text-anchor="start" x="925.5" y="-1889.3" font-family="Courier New" font-size="14.00">MOV &#160;&#160;&#160;&#160;&#160;&#160;&#160;ESI, EAX</text>
<text text-anchor="start" x="925.5" y="-1866.3" font-family="Courier New" font-size="14.00">LEA &#160;&#160;&#160;&#160;&#160;&#160;&#160;RDI, QWORD PTR [RIP + 0x1E1]</text>
<text text-anchor="start" x="925.5" y="-1843.3" font-family="Courier New" font-size="14.00">MOV &#160;&#160;&#160;&#160;&#160;&#160;&#160;EAX, 0x0</text>
<text text-anchor="start" x="925.5" y="-1820.3" font-family="Courier New" font-size="14.00">CALL &#160;&#160;&#160;&#160;&#160;&#160;loc_560</text>
</g>
<!-- 38&#45;&gt;40 -->
<g id="edge8" class="edge">
<title>38&#45;&gt;40</title>
<path fill="none" stroke="red" d="M786.83,-1992.47C822.28,-1981.57 862.11,-1969.32 901.99,-1957.06"/>
<polygon fill="red" stroke="red" points="903.05,-1960.4 911.57,-1954.11 900.99,-1953.71 903.05,-1960.4"/>
</g>
<!-- 41 -->
<g id="node9" class="node">
<title>41</title>
<path fill="none" stroke="black" d="M311,-1703C311,-1703 752,-1703 752,-1703 758,-1703 764,-1709 764,-1715 764,-1715 764,-1747 764,-1747 764,-1753 758,-1759 752,-1759 752,-1759 311,-1759 311,-1759 305,-1759 299,-1753 299,-1747 299,-1747 299,-1715 299,-1715 299,-1709 305,-1703 311,-1703"/>
<polygon fill="grey" stroke="transparent" points="309.5,-1732 309.5,-1753 754.5,-1753 754.5,-1732 309.5,-1732"/>
<text text-anchor="start" x="502.5" y="-1738.8" font-family="Courier New" font-size="14.00">loc_85e</text>
<text text-anchor="start" x="312.5" y="-1715.8" font-family="Courier New" font-size="14.00">ADD &#160;&#160;&#160;&#160;&#160;&#160;&#160;DWORD PTR [RBP + 0xFFFFFFFFFFFFFFF4], 0x2</text>
</g>
<!-- 39&#45;&gt;41 -->
<g id="edge9" class="edge">
<title>39&#45;&gt;41</title>
<path fill="none" stroke="blue" d="M597.26,-1807.12C584.98,-1793.09 572.67,-1779.03 562.07,-1766.92"/>
<polygon fill="blue" stroke="blue" points="564.59,-1764.49 555.37,-1759.27 559.32,-1769.1 564.59,-1764.49"/>
</g>
<!-- 42 -->
<g id="node10" class="node">
<title>42</title>
<path fill="none" stroke="black" d="M978.5,-1691.5C978.5,-1691.5 1310.5,-1691.5 1310.5,-1691.5 1316.5,-1691.5 1322.5,-1697.5 1322.5,-1703.5 1322.5,-1703.5 1322.5,-1758.5 1322.5,-1758.5 1322.5,-1764.5 1316.5,-1770.5 1310.5,-1770.5 1310.5,-1770.5 978.5,-1770.5 978.5,-1770.5 972.5,-1770.5 966.5,-1764.5 966.5,-1758.5 966.5,-1758.5 966.5,-1703.5 966.5,-1703.5 966.5,-1697.5 972.5,-1691.5 978.5,-1691.5"/>
<polygon fill="grey" stroke="transparent" points="976.5,-1743 976.5,-1764 1312.5,-1764 1312.5,-1743 976.5,-1743"/>
<text text-anchor="start" x="1115" y="-1749.8" font-family="Courier New" font-size="14.00">loc_87e</text>
<text text-anchor="start" x="979.5" y="-1726.8" font-family="Courier New" font-size="14.00">LEA &#160;&#160;&#160;&#160;&#160;&#160;&#160;RDI, QWORD PTR [RIP + 0x1E1]</text>
<text text-anchor="start" x="979.5" y="-1703.8" font-family="Courier New" font-size="14.00">CALL &#160;&#160;&#160;&#160;&#160;&#160;loc_550</text>
</g>
<!-- 40&#45;&gt;42 -->
<g id="edge11" class="edge">
<title>40&#45;&gt;42</title>
<path fill="none" stroke="blue" d="M1144.5,-1807.12C1144.5,-1798.18 1144.5,-1789.23 1144.5,-1780.78"/>
<polygon fill="blue" stroke="blue" points="1148,-1780.76 1144.5,-1770.76 1141,-1780.76 1148,-1780.76"/>
</g>
<!-- 41&#45;&gt;38 -->
<g id="edge10" class="edge">
<title>41&#45;&gt;38</title>
<path fill="none" stroke="blue" d="M468.81,-1759.14C449.44,-1770.88 430.36,-1786.67 419.5,-1807 388.31,-1865.42 380.21,-1902.69 419.5,-1956 428.55,-1968.27 450.44,-1979.4 477.56,-1989.1"/>
<polygon fill="blue" stroke="blue" points="476.76,-1992.53 487.36,-1992.47 479.04,-1985.91 476.76,-1992.53"/>
</g>
<!-- 43 -->
<g id="node11" class="node">
<title>43</title>
<path fill="none" stroke="black" d="M924,-1575.5C924,-1575.5 1365,-1575.5 1365,-1575.5 1371,-1575.5 1377,-1581.5 1377,-1587.5 1377,-1587.5 1377,-1642.5 1377,-1642.5 1377,-1648.5 1371,-1654.5 1365,-1654.5 1365,-1654.5 924,-1654.5 924,-1654.5 918,-1654.5 912,-1648.5 912,-1642.5 912,-1642.5 912,-1587.5 912,-1587.5 912,-1581.5 918,-1575.5 924,-1575.5"/>
<polygon fill="grey" stroke="transparent" points="922.5,-1627 922.5,-1648 1367.5,-1648 1367.5,-1627 922.5,-1627"/>
<text text-anchor="start" x="1115.5" y="-1633.8" font-family="Courier New" font-size="14.00">loc_88a</text>
<text text-anchor="start" x="925.5" y="-1610.8" font-family="Courier New" font-size="14.00">MOV &#160;&#160;&#160;&#160;&#160;&#160;&#160;DWORD PTR [RBP + 0xFFFFFFFFFFFFFFF4], 0x0</text>
<text text-anchor="start" x="925.5" y="-1587.8" font-family="Courier New" font-size="14.00">JMP &#160;&#160;&#160;&#160;&#160;&#160;&#160;loc_8b7</text>
</g>
<!-- 42&#45;&gt;43 -->
<g id="edge12" class="edge">
<title>42&#45;&gt;43</title>
<path fill="none" stroke="blue" d="M1144.5,-1691.4C1144.5,-1682.86 1144.5,-1673.7 1144.5,-1664.81"/>
<polygon fill="blue" stroke="blue" points="1148,-1664.56 1144.5,-1654.56 1141,-1664.56 1148,-1664.56"/>
</g>
<!-- 44 -->
<g id="node12" class="node">
<title>44</title>
<path fill="none" stroke="black" d="M924,-1459.5C924,-1459.5 1365,-1459.5 1365,-1459.5 1371,-1459.5 1377,-1465.5 1377,-1471.5 1377,-1471.5 1377,-1526.5 1377,-1526.5 1377,-1532.5 1371,-1538.5 1365,-1538.5 1365,-1538.5 924,-1538.5 924,-1538.5 918,-1538.5 912,-1532.5 912,-1526.5 912,-1526.5 912,-1471.5 912,-1471.5 912,-1465.5 918,-1459.5 924,-1459.5"/>
<polygon fill="grey" stroke="transparent" points="922.5,-1511 922.5,-1532 1367.5,-1532 1367.5,-1511 922.5,-1511"/>
<text text-anchor="start" x="1115.5" y="-1517.8" font-family="Courier New" font-size="14.00">loc_8b7</text>
<text text-anchor="start" x="925.5" y="-1494.8" font-family="Courier New" font-size="14.00">CMP &#160;&#160;&#160;&#160;&#160;&#160;&#160;DWORD PTR [RBP + 0xFFFFFFFFFFFFFFF4], 0xF</text>
<text text-anchor="start" x="925.5" y="-1471.8" font-family="Courier New" font-size="14.00">JLE &#160;&#160;&#160;&#160;&#160;&#160;&#160;loc_893</text>
</g>
<!-- 43&#45;&gt;44 -->
<g id="edge13" class="edge">
<title>43&#45;&gt;44</title>
<path fill="none" stroke="blue" d="M1144.5,-1575.4C1144.5,-1566.86 1144.5,-1557.7 1144.5,-1548.81"/>
<polygon fill="blue" stroke="blue" points="1148,-1548.56 1144.5,-1538.56 1141,-1548.56 1148,-1548.56"/>
</g>
<!-- 45 -->
<g id="node13" class="node">
<title>45</title>
<path fill="none" stroke="black" d="M663,-1286C663,-1286 1104,-1286 1104,-1286 1110,-1286 1116,-1292 1116,-1298 1116,-1298 1116,-1399 1116,-1399 1116,-1405 1110,-1411 1104,-1411 1104,-1411 663,-1411 663,-1411 657,-1411 651,-1405 651,-1399 651,-1399 651,-1298 651,-1298 651,-1292 657,-1286 663,-1286"/>
<polygon fill="grey" stroke="transparent" points="661.5,-1383.5 661.5,-1404.5 1106.5,-1404.5 1106.5,-1383.5 661.5,-1383.5"/>
<text text-anchor="start" x="854.5" y="-1390.3" font-family="Courier New" font-size="14.00">loc_893</text>
<text text-anchor="start" x="664.5" y="-1367.3" font-family="Courier New" font-size="14.00">MOV &#160;&#160;&#160;&#160;&#160;&#160;&#160;EAX, DWORD PTR [RBP + 0xFFFFFFFFFFFFFFF4]</text>
<text text-anchor="start" x="664.5" y="-1344.3" font-family="Courier New" font-size="14.00">AND &#160;&#160;&#160;&#160;&#160;&#160;&#160;EAX, 0x2</text>
<text text-anchor="start" x="664.5" y="-1321.3" font-family="Courier New" font-size="14.00">TEST &#160;&#160;&#160;&#160;&#160;&#160;EAX, EAX</text>
<text text-anchor="start" x="664.5" y="-1298.3" font-family="Courier New" font-size="14.00">JZ &#160;&#160;&#160;&#160;&#160;&#160;&#160;&#160;loc_8b3</text>
</g>
<!-- 44&#45;&gt;45 -->
<g id="edge14" class="edge">
<title>44&#45;&gt;45</title>
<path fill="none" stroke="limegreen" d="M1076.61,-1459.37C1053.33,-1446.13 1026.58,-1430.91 1000.55,-1416.1"/>
<polygon fill="limegreen" stroke="limegreen" points="1002.18,-1413 991.75,-1411.09 998.71,-1419.08 1002.18,-1413"/>
</g>
<!-- 46 -->
<g id="node14" class="node">
<title>46</title>
<path fill="none" stroke="black" d="M1277,-1274.5C1277,-1274.5 1718,-1274.5 1718,-1274.5 1724,-1274.5 1730,-1280.5 1730,-1286.5 1730,-1286.5 1730,-1410.5 1730,-1410.5 1730,-1416.5 1724,-1422.5 1718,-1422.5 1718,-1422.5 1277,-1422.5 1277,-1422.5 1271,-1422.5 1265,-1416.5 1265,-1410.5 1265,-1410.5 1265,-1286.5 1265,-1286.5 1265,-1280.5 1271,-1274.5 1277,-1274.5"/>
<polygon fill="grey" stroke="transparent" points="1275.5,-1395.5 1275.5,-1416.5 1720.5,-1416.5 1720.5,-1395.5 1275.5,-1395.5"/>
<text text-anchor="start" x="1468.5" y="-1402.3" font-family="Courier New" font-size="14.00">loc_8bd</text>
<text text-anchor="start" x="1278.5" y="-1379.3" font-family="Courier New" font-size="14.00">MOV &#160;&#160;&#160;&#160;&#160;&#160;&#160;EAX, DWORD PTR [RBP + 0xFFFFFFFFFFFFFFF4]</text>
<text text-anchor="start" x="1278.5" y="-1356.3" font-family="Courier New" font-size="14.00">MOV &#160;&#160;&#160;&#160;&#160;&#160;&#160;ESI, EAX</text>
<text text-anchor="start" x="1278.5" y="-1333.3" font-family="Courier New" font-size="14.00">LEA &#160;&#160;&#160;&#160;&#160;&#160;&#160;RDI, QWORD PTR [RIP + 0x18C]</text>
<text text-anchor="start" x="1278.5" y="-1310.3" font-family="Courier New" font-size="14.00">MOV &#160;&#160;&#160;&#160;&#160;&#160;&#160;EAX, 0x0</text>
<text text-anchor="start" x="1278.5" y="-1287.3" font-family="Courier New" font-size="14.00">CALL &#160;&#160;&#160;&#160;&#160;&#160;loc_560</text>
</g>
<!-- 44&#45;&gt;46 -->
<g id="edge15" class="edge">
<title>44&#45;&gt;46</title>
<path fill="none" stroke="red" d="M1236.33,-1459.37C1260.35,-1449.26 1287.13,-1438 1314.12,-1426.65"/>
<polygon fill="red" stroke="red" points="1315.81,-1429.73 1323.67,-1422.63 1313.09,-1423.28 1315.81,-1429.73"/>
</g>
<!-- 47 -->
<g id="node15" class="node">
<title>47</title>
<path fill="none" stroke="black" d="M828,-985C828,-985 1269,-985 1269,-985 1275,-985 1281,-991 1281,-997 1281,-997 1281,-1029 1281,-1029 1281,-1035 1275,-1041 1269,-1041 1269,-1041 828,-1041 828,-1041 822,-1041 816,-1035 816,-1029 816,-1029 816,-997 816,-997 816,-991 822,-985 828,-985"/>
<polygon fill="grey" stroke="transparent" points="826.5,-1014 826.5,-1035 1271.5,-1035 1271.5,-1014 826.5,-1014"/>
<text text-anchor="start" x="1019.5" y="-1020.8" font-family="Courier New" font-size="14.00">loc_8b3</text>
<text text-anchor="start" x="829.5" y="-997.8" font-family="Courier New" font-size="14.00">ADD &#160;&#160;&#160;&#160;&#160;&#160;&#160;DWORD PTR [RBP + 0xFFFFFFFFFFFFFFF4], 0x1</text>
</g>
<!-- 45&#45;&gt;47 -->
<g id="edge16" class="edge">
<title>45&#45;&gt;47</title>
<path fill="none" stroke="limegreen" d="M999.58,-1285.98C1015.89,-1272.35 1030.49,-1256.39 1040.5,-1238 1072.6,-1179.07 1065.08,-1097.88 1056.76,-1051.17"/>
<polygon fill="limegreen" stroke="limegreen" points="1060.17,-1050.36 1054.87,-1041.18 1053.29,-1051.66 1060.17,-1050.36"/>
</g>
<!-- 48 -->
<g id="node16" class="node">
<title>48</title>
<path fill="none" stroke="black" d="M579,-1089.5C579,-1089.5 1020,-1089.5 1020,-1089.5 1026,-1089.5 1032,-1095.5 1032,-1101.5 1032,-1101.5 1032,-1225.5 1032,-1225.5 1032,-1231.5 1026,-1237.5 1020,-1237.5 1020,-1237.5 579,-1237.5 579,-1237.5 573,-1237.5 567,-1231.5 567,-1225.5 567,-1225.5 567,-1101.5 567,-1101.5 567,-1095.5 573,-1089.5 579,-1089.5"/>
<polygon fill="grey" stroke="transparent" points="577.5,-1210.5 577.5,-1231.5 1022.5,-1231.5 1022.5,-1210.5 577.5,-1210.5"/>
<text text-anchor="start" x="770.5" y="-1217.3" font-family="Courier New" font-size="14.00">loc_89d</text>
<text text-anchor="start" x="580.5" y="-1194.3" font-family="Courier New" font-size="14.00">MOV &#160;&#160;&#160;&#160;&#160;&#160;&#160;EAX, DWORD PTR [RBP + 0xFFFFFFFFFFFFFFF4]</text>
<text text-anchor="start" x="580.5" y="-1171.3" font-family="Courier New" font-size="14.00">MOV &#160;&#160;&#160;&#160;&#160;&#160;&#160;ESI, EAX</text>
<text text-anchor="start" x="580.5" y="-1148.3" font-family="Courier New" font-size="14.00">LEA &#160;&#160;&#160;&#160;&#160;&#160;&#160;RDI, QWORD PTR [RIP + 0x1A8]</text>
<text text-anchor="start" x="580.5" y="-1125.3" font-family="Courier New" font-size="14.00">MOV &#160;&#160;&#160;&#160;&#160;&#160;&#160;EAX, 0x0</text>
<text text-anchor="start" x="580.5" y="-1102.3" font-family="Courier New" font-size="14.00">CALL &#160;&#160;&#160;&#160;&#160;&#160;loc_560</text>
</g>
<!-- 45&#45;&gt;48 -->
<g id="edge18" class="edge">
<title>45&#45;&gt;48</title>
<path fill="none" stroke="red" d="M855.18,-1285.8C849.47,-1273.36 843.38,-1260.09 837.4,-1247.07"/>
<polygon fill="red" stroke="red" points="840.43,-1245.27 833.08,-1237.65 834.07,-1248.19 840.43,-1245.27"/>
</g>
<!-- 49 -->
<g id="node17" class="node">
<title>49</title>
<path fill="none" stroke="black" d="M1342.5,-1124C1342.5,-1124 1674.5,-1124 1674.5,-1124 1680.5,-1124 1686.5,-1130 1686.5,-1136 1686.5,-1136 1686.5,-1191 1686.5,-1191 1686.5,-1197 1680.5,-1203 1674.5,-1203 1674.5,-1203 1342.5,-1203 1342.5,-1203 1336.5,-1203 1330.5,-1197 1330.5,-1191 1330.5,-1191 1330.5,-1136 1330.5,-1136 1330.5,-1130 1336.5,-1124 1342.5,-1124"/>
<polygon fill="grey" stroke="transparent" points="1340.5,-1175.5 1340.5,-1196.5 1676.5,-1196.5 1676.5,-1175.5 1340.5,-1175.5"/>
<text text-anchor="start" x="1479" y="-1182.3" font-family="Courier New" font-size="14.00">loc_8d3</text>
<text text-anchor="start" x="1343.5" y="-1159.3" font-family="Courier New" font-size="14.00">LEA &#160;&#160;&#160;&#160;&#160;&#160;&#160;RDI, QWORD PTR [RIP + 0x1A2]</text>
<text text-anchor="start" x="1343.5" y="-1136.3" font-family="Courier New" font-size="14.00">CALL &#160;&#160;&#160;&#160;&#160;&#160;loc_550</text>
</g>
<!-- 46&#45;&gt;49 -->
<g id="edge20" class="edge">
<title>46&#45;&gt;49</title>
<path fill="none" stroke="blue" d="M1501.89,-1274.38C1503.13,-1253.8 1504.45,-1231.93 1505.57,-1213.16"/>
<polygon fill="blue" stroke="blue" points="1509.07,-1213.27 1506.18,-1203.08 1502.09,-1212.85 1509.07,-1213.27"/>
</g>
<!-- 47&#45;&gt;44 -->
<g id="edge17" class="edge">
<title>47&#45;&gt;44</title>
<path fill="none" stroke="blue" d="M1058.4,-1041.27C1074.97,-1088.16 1108.13,-1187.36 1124.5,-1274 1135.76,-1333.62 1140.72,-1403.39 1142.88,-1449.03"/>
<polygon fill="blue" stroke="blue" points="1139.39,-1449.4 1143.33,-1459.24 1146.39,-1449.09 1139.39,-1449.4"/>
</g>
<!-- 48&#45;&gt;47 -->
<g id="edge19" class="edge">
<title>48&#45;&gt;47</title>
<path fill="none" stroke="blue" d="M922.18,-1089.34C947.64,-1074.15 973.2,-1058.91 994.61,-1046.14"/>
<polygon fill="blue" stroke="blue" points="996.41,-1049.14 1003.21,-1041.01 992.83,-1043.13 996.41,-1049.14"/>
</g>
<!-- 50 -->
<g id="node18" class="node">
<title>50</title>
<path fill="none" stroke="black" d="M1311,-973.5C1311,-973.5 1752,-973.5 1752,-973.5 1758,-973.5 1764,-979.5 1764,-985.5 1764,-985.5 1764,-1040.5 1764,-1040.5 1764,-1046.5 1758,-1052.5 1752,-1052.5 1752,-1052.5 1311,-1052.5 1311,-1052.5 1305,-1052.5 1299,-1046.5 1299,-1040.5 1299,-1040.5 1299,-985.5 1299,-985.5 1299,-979.5 1305,-973.5 1311,-973.5"/>
<polygon fill="grey" stroke="transparent" points="1309.5,-1025 1309.5,-1046 1754.5,-1046 1754.5,-1025 1309.5,-1025"/>
<text text-anchor="start" x="1502.5" y="-1031.8" font-family="Courier New" font-size="14.00">loc_8df</text>
<text text-anchor="start" x="1312.5" y="-1008.8" font-family="Courier New" font-size="14.00">MOV &#160;&#160;&#160;&#160;&#160;&#160;&#160;DWORD PTR [RBP + 0xFFFFFFFFFFFFFFF4], 0x0</text>
<text text-anchor="start" x="1312.5" y="-985.8" font-family="Courier New" font-size="14.00">JMP &#160;&#160;&#160;&#160;&#160;&#160;&#160;loc_92e</text>
</g>
<!-- 49&#45;&gt;50 -->
<g id="edge21" class="edge">
<title>49&#45;&gt;50</title>
<path fill="none" stroke="blue" d="M1514.48,-1123.87C1517.37,-1105.21 1520.87,-1082.61 1523.95,-1062.78"/>
<polygon fill="blue" stroke="blue" points="1527.44,-1063.11 1525.51,-1052.69 1520.52,-1062.04 1527.44,-1063.11"/>
</g>
<!-- 51 -->
<g id="node19" class="node">
<title>51</title>
<path fill="none" stroke="black" d="M1311,-857.5C1311,-857.5 1752,-857.5 1752,-857.5 1758,-857.5 1764,-863.5 1764,-869.5 1764,-869.5 1764,-924.5 1764,-924.5 1764,-930.5 1758,-936.5 1752,-936.5 1752,-936.5 1311,-936.5 1311,-936.5 1305,-936.5 1299,-930.5 1299,-924.5 1299,-924.5 1299,-869.5 1299,-869.5 1299,-863.5 1305,-857.5 1311,-857.5"/>
<polygon fill="grey" stroke="transparent" points="1309.5,-909 1309.5,-930 1754.5,-930 1754.5,-909 1309.5,-909"/>
<text text-anchor="start" x="1502.5" y="-915.8" font-family="Courier New" font-size="14.00">loc_92e</text>
<text text-anchor="start" x="1312.5" y="-892.8" font-family="Courier New" font-size="14.00">CMP &#160;&#160;&#160;&#160;&#160;&#160;&#160;DWORD PTR [RBP + 0xFFFFFFFFFFFFFFF4], 0xF</text>
<text text-anchor="start" x="1312.5" y="-869.8" font-family="Courier New" font-size="14.00">JLE &#160;&#160;&#160;&#160;&#160;&#160;&#160;loc_8e8</text>
</g>
<!-- 50&#45;&gt;51 -->
<g id="edge22" class="edge">
<title>50&#45;&gt;51</title>
<path fill="none" stroke="blue" d="M1531.5,-973.4C1531.5,-964.86 1531.5,-955.7 1531.5,-946.81"/>
<polygon fill="blue" stroke="blue" points="1535,-946.56 1531.5,-936.56 1528,-946.56 1535,-946.56"/>
</g>
<!-- 52 -->
<g id="node20" class="node">
<title>52</title>
<path fill="none" stroke="black" d="M1048,-707C1048,-707 1489,-707 1489,-707 1495,-707 1501,-713 1501,-719 1501,-719 1501,-774 1501,-774 1501,-780 1495,-786 1489,-786 1489,-786 1048,-786 1048,-786 1042,-786 1036,-780 1036,-774 1036,-774 1036,-719 1036,-719 1036,-713 1042,-707 1048,-707"/>
<polygon fill="grey" stroke="transparent" points="1046.5,-758.5 1046.5,-779.5 1491.5,-779.5 1491.5,-758.5 1046.5,-758.5"/>
<text text-anchor="start" x="1239.5" y="-765.3" font-family="Courier New" font-size="14.00">loc_8e8</text>
<text text-anchor="start" x="1049.5" y="-742.3" font-family="Courier New" font-size="14.00">MOV &#160;&#160;&#160;&#160;&#160;&#160;&#160;DWORD PTR [RBP + 0xFFFFFFFFFFFFFFF8], 0x0</text>
<text text-anchor="start" x="1049.5" y="-719.3" font-family="Courier New" font-size="14.00">JMP &#160;&#160;&#160;&#160;&#160;&#160;&#160;loc_924</text>
</g>
<!-- 51&#45;&gt;52 -->
<g id="edge23" class="edge">
<title>51&#45;&gt;52</title>
<path fill="none" stroke="limegreen" d="M1463.09,-857.37C1427.16,-837.08 1382.99,-812.15 1345.82,-791.16"/>
<polygon fill="limegreen" stroke="limegreen" points="1347.46,-788.06 1337.03,-786.19 1344.01,-794.16 1347.46,-788.06"/>
</g>
<!-- 53 -->
<g id="node21" class="node">
<title>53</title>
<path fill="none" stroke="black" d="M1610,-672.5C1610,-672.5 2051,-672.5 2051,-672.5 2057,-672.5 2063,-678.5 2063,-684.5 2063,-684.5 2063,-808.5 2063,-808.5 2063,-814.5 2057,-820.5 2051,-820.5 2051,-820.5 1610,-820.5 1610,-820.5 1604,-820.5 1598,-814.5 1598,-808.5 1598,-808.5 1598,-684.5 1598,-684.5 1598,-678.5 1604,-672.5 1610,-672.5"/>
<polygon fill="grey" stroke="transparent" points="1608.5,-793.5 1608.5,-814.5 2053.5,-814.5 2053.5,-793.5 1608.5,-793.5"/>
<text text-anchor="start" x="1801.5" y="-800.3" font-family="Courier New" font-size="14.00">loc_934</text>
<text text-anchor="start" x="1611.5" y="-777.3" font-family="Courier New" font-size="14.00">MOV &#160;&#160;&#160;&#160;&#160;&#160;&#160;EAX, DWORD PTR [RBP + 0xFFFFFFFFFFFFFFF4]</text>
<text text-anchor="start" x="1611.5" y="-754.3" font-family="Courier New" font-size="14.00">MOV &#160;&#160;&#160;&#160;&#160;&#160;&#160;ESI, EAX</text>
<text text-anchor="start" x="1611.5" y="-731.3" font-family="Courier New" font-size="14.00">LEA &#160;&#160;&#160;&#160;&#160;&#160;&#160;RDI, QWORD PTR [RIP + 0x115]</text>
<text text-anchor="start" x="1611.5" y="-708.3" font-family="Courier New" font-size="14.00">MOV &#160;&#160;&#160;&#160;&#160;&#160;&#160;EAX, 0x0</text>
<text text-anchor="start" x="1611.5" y="-685.3" font-family="Courier New" font-size="14.00">CALL &#160;&#160;&#160;&#160;&#160;&#160;loc_560</text>
</g>
<!-- 51&#45;&gt;53 -->
<g id="edge24" class="edge">
<title>51&#45;&gt;53</title>
<path fill="none" stroke="red" d="M1609.28,-857.37C1629.37,-847.39 1651.72,-836.29 1674.27,-825.09"/>
<polygon fill="red" stroke="red" points="1675.86,-828.21 1683.26,-820.63 1672.75,-821.94 1675.86,-828.21"/>
</g>
<!-- 54 -->
<g id="node22" class="node">
<title>54</title>
<path fill="none" stroke="black" d="M1041.5,-556.5C1041.5,-556.5 1491.5,-556.5 1491.5,-556.5 1497.5,-556.5 1503.5,-562.5 1503.5,-568.5 1503.5,-568.5 1503.5,-623.5 1503.5,-623.5 1503.5,-629.5 1497.5,-635.5 1491.5,-635.5 1491.5,-635.5 1041.5,-635.5 1041.5,-635.5 1035.5,-635.5 1029.5,-629.5 1029.5,-623.5 1029.5,-623.5 1029.5,-568.5 1029.5,-568.5 1029.5,-562.5 1035.5,-556.5 1041.5,-556.5"/>
<polygon fill="grey" stroke="transparent" points="1039.5,-608 1039.5,-629 1493.5,-629 1493.5,-608 1039.5,-608"/>
<text text-anchor="start" x="1237" y="-614.8" font-family="Courier New" font-size="14.00">loc_924</text>
<text text-anchor="start" x="1042.5" y="-591.8" font-family="Courier New" font-size="14.00">CMP &#160;&#160;&#160;&#160;&#160;&#160;&#160;DWORD PTR [RBP + 0xFFFFFFFFFFFFFFF8], 0x10</text>
<text text-anchor="start" x="1042.5" y="-568.8" font-family="Courier New" font-size="14.00">JLE &#160;&#160;&#160;&#160;&#160;&#160;&#160;loc_8f1</text>
</g>
<!-- 52&#45;&gt;54 -->
<g id="edge25" class="edge">
<title>52&#45;&gt;54</title>
<path fill="none" stroke="blue" d="M1267.98,-706.87C1267.73,-688.21 1267.42,-665.61 1267.16,-645.78"/>
<polygon fill="blue" stroke="blue" points="1270.66,-645.65 1267.02,-635.69 1263.66,-645.74 1270.66,-645.65"/>
</g>
<!-- 55 -->
<g id="node23" class="node">
<title>55</title>
<path fill="none" stroke="black" d="M1702.5,-556.5C1702.5,-556.5 2034.5,-556.5 2034.5,-556.5 2040.5,-556.5 2046.5,-562.5 2046.5,-568.5 2046.5,-568.5 2046.5,-623.5 2046.5,-623.5 2046.5,-629.5 2040.5,-635.5 2034.5,-635.5 2034.5,-635.5 1702.5,-635.5 1702.5,-635.5 1696.5,-635.5 1690.5,-629.5 1690.5,-623.5 1690.5,-623.5 1690.5,-568.5 1690.5,-568.5 1690.5,-562.5 1696.5,-556.5 1702.5,-556.5"/>
<polygon fill="grey" stroke="transparent" points="1700.5,-608 1700.5,-629 2036.5,-629 2036.5,-608 1700.5,-608"/>
<text text-anchor="start" x="1839" y="-614.8" font-family="Courier New" font-size="14.00">loc_94a</text>
<text text-anchor="start" x="1703.5" y="-591.8" font-family="Courier New" font-size="14.00">LEA &#160;&#160;&#160;&#160;&#160;&#160;&#160;RDI, QWORD PTR [RIP + 0x144]</text>
<text text-anchor="start" x="1703.5" y="-568.8" font-family="Courier New" font-size="14.00">CALL &#160;&#160;&#160;&#160;&#160;&#160;loc_550</text>
</g>
<!-- 53&#45;&gt;55 -->
<g id="edge26" class="edge">
<title>53&#45;&gt;55</title>
<path fill="none" stroke="blue" d="M1849.28,-672.12C1851.59,-663.09 1853.9,-654.04 1856.09,-645.5"/>
<polygon fill="blue" stroke="blue" points="1859.49,-646.31 1858.58,-635.76 1852.71,-644.58 1859.49,-646.31"/>
</g>
<!-- 56 -->
<g id="node24" class="node">
<title>56</title>
<path fill="none" stroke="black" d="M783,-440.5C783,-440.5 1224,-440.5 1224,-440.5 1230,-440.5 1236,-446.5 1236,-452.5 1236,-452.5 1236,-507.5 1236,-507.5 1236,-513.5 1230,-519.5 1224,-519.5 1224,-519.5 783,-519.5 783,-519.5 777,-519.5 771,-513.5 771,-507.5 771,-507.5 771,-452.5 771,-452.5 771,-446.5 777,-440.5 783,-440.5"/>
<polygon fill="grey" stroke="transparent" points="781.5,-492 781.5,-513 1226.5,-513 1226.5,-492 781.5,-492"/>
<text text-anchor="start" x="974.5" y="-498.8" font-family="Courier New" font-size="14.00">loc_8f1</text>
<text text-anchor="start" x="784.5" y="-475.8" font-family="Courier New" font-size="14.00">MOV &#160;&#160;&#160;&#160;&#160;&#160;&#160;DWORD PTR [RBP + 0xFFFFFFFFFFFFFFFC], 0x0</text>
<text text-anchor="start" x="784.5" y="-452.8" font-family="Courier New" font-size="14.00">JMP &#160;&#160;&#160;&#160;&#160;&#160;&#160;loc_91a</text>
</g>
<!-- 54&#45;&gt;56 -->
<g id="edge27" class="edge">
<title>54&#45;&gt;56</title>
<path fill="none" stroke="limegreen" d="M1177.46,-556.4C1153.15,-545.87 1126.66,-534.39 1101.86,-523.64"/>
<polygon fill="limegreen" stroke="limegreen" points="1103.02,-520.32 1092.45,-519.56 1100.23,-526.74 1103.02,-520.32"/>
</g>
<!-- 57 -->
<g id="node25" class="node">
<title>57</title>
<path fill="none" stroke="black" d="M1307,-452C1307,-452 1748,-452 1748,-452 1754,-452 1760,-458 1760,-464 1760,-464 1760,-496 1760,-496 1760,-502 1754,-508 1748,-508 1748,-508 1307,-508 1307,-508 1301,-508 1295,-502 1295,-496 1295,-496 1295,-464 1295,-464 1295,-458 1301,-452 1307,-452"/>
<polygon fill="grey" stroke="transparent" points="1305.5,-481 1305.5,-502 1750.5,-502 1750.5,-481 1305.5,-481"/>
<text text-anchor="start" x="1498.5" y="-487.8" font-family="Courier New" font-size="14.00">loc_92a</text>
<text text-anchor="start" x="1308.5" y="-464.8" font-family="Courier New" font-size="14.00">ADD &#160;&#160;&#160;&#160;&#160;&#160;&#160;DWORD PTR [RBP + 0xFFFFFFFFFFFFFFF4], 0x1</text>
</g>
<!-- 54&#45;&gt;57 -->
<g id="edge28" class="edge">
<title>54&#45;&gt;57</title>
<path fill="none" stroke="red" d="M1354.86,-556.4C1387.83,-542 1424.82,-525.85 1456.08,-512.2"/>
<polygon fill="red" stroke="red" points="1457.82,-515.25 1465.58,-508.04 1455.02,-508.84 1457.82,-515.25"/>
</g>
<!-- 58 -->
<g id="node26" class="node">
<title>58</title>
<path fill="none" stroke="black" d="M1790.5,-452C1790.5,-452 1946.5,-452 1946.5,-452 1952.5,-452 1958.5,-458 1958.5,-464 1958.5,-464 1958.5,-496 1958.5,-496 1958.5,-502 1952.5,-508 1946.5,-508 1946.5,-508 1790.5,-508 1790.5,-508 1784.5,-508 1778.5,-502 1778.5,-496 1778.5,-496 1778.5,-464 1778.5,-464 1778.5,-458 1784.5,-452 1790.5,-452"/>
<polygon fill="grey" stroke="transparent" points="1788.5,-481 1788.5,-502 1948.5,-502 1948.5,-481 1788.5,-481"/>
<text text-anchor="start" x="1839" y="-487.8" font-family="Courier New" font-size="14.00">loc_956</text>
<text text-anchor="start" x="1791.5" y="-464.8" font-family="Courier New" font-size="14.00">JMP &#160;&#160;&#160;&#160;&#160;&#160;&#160;loc_94a</text>
</g>
<!-- 55&#45;&gt;58 -->
<g id="edge30" class="edge">
<title>55&#45;&gt;58</title>
<path fill="none" stroke="blue" d="M1862.07,-556.4C1861.63,-544.11 1861.64,-530.55 1862.12,-518.35"/>
<polygon fill="blue" stroke="blue" points="1865.63,-518.21 1862.66,-508.04 1858.64,-517.85 1865.63,-518.21"/>
</g>
<!-- 59 -->
<g id="node27" class="node">
<title>59</title>
<path fill="none" stroke="black" d="M776.5,-324.5C776.5,-324.5 1226.5,-324.5 1226.5,-324.5 1232.5,-324.5 1238.5,-330.5 1238.5,-336.5 1238.5,-336.5 1238.5,-391.5 1238.5,-391.5 1238.5,-397.5 1232.5,-403.5 1226.5,-403.5 1226.5,-403.5 776.5,-403.5 776.5,-403.5 770.5,-403.5 764.5,-397.5 764.5,-391.5 764.5,-391.5 764.5,-336.5 764.5,-336.5 764.5,-330.5 770.5,-324.5 776.5,-324.5"/>
<polygon fill="grey" stroke="transparent" points="774.5,-376 774.5,-397 1228.5,-397 1228.5,-376 774.5,-376"/>
<text text-anchor="start" x="972" y="-382.8" font-family="Courier New" font-size="14.00">loc_91a</text>
<text text-anchor="start" x="777.5" y="-359.8" font-family="Courier New" font-size="14.00">CMP &#160;&#160;&#160;&#160;&#160;&#160;&#160;DWORD PTR [RBP + 0xFFFFFFFFFFFFFFFC], 0x11</text>
<text text-anchor="start" x="777.5" y="-336.8" font-family="Courier New" font-size="14.00">JLE &#160;&#160;&#160;&#160;&#160;&#160;&#160;loc_8fa</text>
</g>
<!-- 56&#45;&gt;59 -->
<g id="edge32" class="edge">
<title>56&#45;&gt;59</title>
<path fill="none" stroke="blue" d="M1002.82,-440.4C1002.67,-431.86 1002.51,-422.7 1002.36,-413.81"/>
<polygon fill="blue" stroke="blue" points="1005.85,-413.49 1002.18,-403.56 998.85,-413.62 1005.85,-413.49"/>
</g>
<!-- 57&#45;&gt;51 -->
<g id="edge29" class="edge">
<title>57&#45;&gt;51</title>
<path fill="none" stroke="blue" d="M1527.76,-508.19C1528.43,-577.06 1530.18,-759.14 1531.03,-847.09"/>
<polygon fill="blue" stroke="blue" points="1527.53,-847.36 1531.13,-857.33 1534.53,-847.3 1527.53,-847.36"/>
</g>
<!-- 58&#45;&gt;55 -->
<g id="edge31" class="edge">
<title>58&#45;&gt;55</title>
<path fill="none" stroke="blue" d="M1874.34,-508.04C1875.1,-519.44 1875.39,-533.07 1875.19,-546.12"/>
<polygon fill="blue" stroke="blue" points="1871.68,-546.32 1874.93,-556.4 1878.68,-546.5 1871.68,-546.32"/>
</g>
<!-- 60 -->
<g id="node28" class="node">
<title>60</title>
<path fill="none" stroke="black" d="M521,-93.5C521,-93.5 962,-93.5 962,-93.5 968,-93.5 974,-99.5 974,-105.5 974,-105.5 974,-275.5 974,-275.5 974,-281.5 968,-287.5 962,-287.5 962,-287.5 521,-287.5 521,-287.5 515,-287.5 509,-281.5 509,-275.5 509,-275.5 509,-105.5 509,-105.5 509,-99.5 515,-93.5 521,-93.5"/>
<polygon fill="grey" stroke="transparent" points="519.5,-260.5 519.5,-281.5 964.5,-281.5 964.5,-260.5 519.5,-260.5"/>
<text text-anchor="start" x="712.5" y="-267.3" font-family="Courier New" font-size="14.00">loc_8fa</text>
<text text-anchor="start" x="522.5" y="-244.3" font-family="Courier New" font-size="14.00">MOV &#160;&#160;&#160;&#160;&#160;&#160;&#160;ECX, DWORD PTR [RBP + 0xFFFFFFFFFFFFFFFC]</text>
<text text-anchor="start" x="522.5" y="-221.3" font-family="Courier New" font-size="14.00">MOV &#160;&#160;&#160;&#160;&#160;&#160;&#160;EDX, DWORD PTR [RBP + 0xFFFFFFFFFFFFFFF8]</text>
<text text-anchor="start" x="522.5" y="-198.3" font-family="Courier New" font-size="14.00">MOV &#160;&#160;&#160;&#160;&#160;&#160;&#160;EAX, DWORD PTR [RBP + 0xFFFFFFFFFFFFFFF4]</text>
<text text-anchor="start" x="522.5" y="-175.3" font-family="Courier New" font-size="14.00">MOV &#160;&#160;&#160;&#160;&#160;&#160;&#160;ESI, EAX</text>
<text text-anchor="start" x="522.5" y="-152.3" font-family="Courier New" font-size="14.00">LEA &#160;&#160;&#160;&#160;&#160;&#160;&#160;RDI, QWORD PTR [RIP + 0x17F]</text>
<text text-anchor="start" x="522.5" y="-129.3" font-family="Courier New" font-size="14.00">MOV &#160;&#160;&#160;&#160;&#160;&#160;&#160;EAX, 0x0</text>
<text text-anchor="start" x="522.5" y="-106.3" font-family="Courier New" font-size="14.00">CALL &#160;&#160;&#160;&#160;&#160;&#160;loc_560</text>
</g>
<!-- 59&#45;&gt;60 -->
<g id="edge35" class="edge">
<title>59&#45;&gt;60</title>
<path fill="none" stroke="limegreen" d="M942.83,-324.3C928.48,-314.83 912.45,-304.26 895.87,-293.33"/>
<polygon fill="limegreen" stroke="limegreen" points="897.44,-290.17 887.16,-287.58 893.58,-296.01 897.44,-290.17"/>
</g>
<!-- 61 -->
<g id="node29" class="node">
<title>61</title>
<path fill="none" stroke="black" d="M1045,-162.5C1045,-162.5 1486,-162.5 1486,-162.5 1492,-162.5 1498,-168.5 1498,-174.5 1498,-174.5 1498,-206.5 1498,-206.5 1498,-212.5 1492,-218.5 1486,-218.5 1486,-218.5 1045,-218.5 1045,-218.5 1039,-218.5 1033,-212.5 1033,-206.5 1033,-206.5 1033,-174.5 1033,-174.5 1033,-168.5 1039,-162.5 1045,-162.5"/>
<polygon fill="grey" stroke="transparent" points="1043.5,-191.5 1043.5,-212.5 1488.5,-212.5 1488.5,-191.5 1043.5,-191.5"/>
<text text-anchor="start" x="1236.5" y="-198.3" font-family="Courier New" font-size="14.00">loc_920</text>
<text text-anchor="start" x="1046.5" y="-175.3" font-family="Courier New" font-size="14.00">ADD &#160;&#160;&#160;&#160;&#160;&#160;&#160;DWORD PTR [RBP + 0xFFFFFFFFFFFFFFF8], 0x1</text>
</g>
<!-- 59&#45;&gt;61 -->
<g id="edge33" class="edge">
<title>59&#45;&gt;61</title>
<path fill="none" stroke="red" d="M1061.08,-324.3C1107.55,-294.1 1171.39,-252.64 1215.29,-224.12"/>
<polygon fill="red" stroke="red" points="1217.32,-226.98 1223.79,-218.59 1213.5,-221.11 1217.32,-226.98"/>
</g>
<!-- 62 -->
<g id="node30" class="node">
<title>62</title>
<path fill="none" stroke="black" d="M651,-0.5C651,-0.5 1092,-0.5 1092,-0.5 1098,-0.5 1104,-6.5 1104,-12.5 1104,-12.5 1104,-44.5 1104,-44.5 1104,-50.5 1098,-56.5 1092,-56.5 1092,-56.5 651,-56.5 651,-56.5 645,-56.5 639,-50.5 639,-44.5 639,-44.5 639,-12.5 639,-12.5 639,-6.5 645,-0.5 651,-0.5"/>
<polygon fill="grey" stroke="transparent" points="649.5,-29.5 649.5,-50.5 1094.5,-50.5 1094.5,-29.5 649.5,-29.5"/>
<text text-anchor="start" x="842.5" y="-36.3" font-family="Courier New" font-size="14.00">loc_916</text>
<text text-anchor="start" x="652.5" y="-13.3" font-family="Courier New" font-size="14.00">ADD &#160;&#160;&#160;&#160;&#160;&#160;&#160;DWORD PTR [RBP + 0xFFFFFFFFFFFFFFFC], 0x1</text>
</g>
<!-- 60&#45;&gt;62 -->
<g id="edge36" class="edge">
<title>60&#45;&gt;62</title>
<path fill="none" stroke="blue" d="M819.75,-93.2C827.98,-83.06 835.91,-73.3 842.99,-64.58"/>
<polygon fill="blue" stroke="blue" points="845.91,-66.54 849.5,-56.57 840.48,-62.13 845.91,-66.54"/>
</g>
<!-- 61&#45;&gt;54 -->
<g id="edge34" class="edge">
<title>61&#45;&gt;54</title>
<path fill="none" stroke="blue" d="M1265.57,-218.51C1265.73,-285.55 1266.17,-460.28 1266.38,-546.06"/>
<polygon fill="blue" stroke="blue" points="1262.88,-546.32 1266.4,-556.31 1269.88,-546.3 1262.88,-546.32"/>
</g>
<!-- 62&#45;&gt;59 -->
<g id="edge37" class="edge">
<title>62&#45;&gt;59</title>
<path fill="none" stroke="blue" d="M942.79,-56.6C958.31,-65.82 972.94,-77.77 982.5,-93 1024.81,-160.39 1019.46,-256.76 1010.99,-314.29"/>
<polygon fill="blue" stroke="blue" points="1007.53,-313.79 1009.44,-324.21 1014.44,-314.87 1007.53,-313.79"/>
</g>
</g>
</svg>
