<svg version="1.1" xmlns="http://www.w3.org/2000/svg" viewBox="0 0 820 180" width="820" height="180">
  <!-- svg-source:excalidraw -->
  
  <defs>
    <style class="style-fonts">
      @font-face {
        font-family: "Virgil";
        src: url("https://file%2B.vscode-resource.vscode-cdn.net/Users/andrewl/.vscode/extensions/pomdtr.excalidraw-editor-3.7.3/public//dist/excalidraw-assets/Virgil.woff2");
      }
      @font-face {
        font-family: "Cascadia";
        src: url("https://file%2B.vscode-resource.vscode-cdn.net/Users/andrewl/.vscode/extensions/pomdtr.excalidraw-editor-3.7.3/public//dist/excalidraw-assets/Cascadia.woff2");
      }
      @font-face {
        font-family: "Assistant";
        src: url("https://file%2B.vscode-resource.vscode-cdn.net/Users/andrewl/.vscode/extensions/pomdtr.excalidraw-editor-3.7.3/public//dist/excalidraw-assets/Assistant-Regular.woff2");
      }
    </style>
    
  </defs>
  <g stroke-linecap="round" transform="translate(10 70) rotate(0 50 20)"><path d="M0 0 L100 0 L100 40 L0 40" stroke="none" stroke-width="0" fill="#e9ecef"></path><path d="M0 0 C25.05 0, 50.1 0, 100 0 M0 0 C25.84 0, 51.68 0, 100 0 M100 0 C100 10.53, 100 21.06, 100 40 M100 0 C100 13.98, 100 27.97, 100 40 M100 40 C65.2 40, 30.41 40, 0 40 M100 40 C65.12 40, 30.24 40, 0 40 M0 40 C0 30.56, 0 21.11, 0 0 M0 40 C0 25.23, 0 10.46, 0 0" stroke="#1e1e1e" stroke-width="1" fill="none"></path></g><g transform="translate(18.8623046875 78.5) rotate(0 41.1376953125 11.5)"><text x="41.1376953125" y="0" font-family="Helvetica, Segoe UI Emoji" font-size="20px" fill="#1e1e1e" text-anchor="middle" style="white-space: pre;" direction="ltr" dominant-baseline="text-before-edge">md5_x64</text></g><g stroke-linecap="round"><g transform="translate(110 90) rotate(0 30 10)"><path d="M0 0 C20.46 6.82, 40.93 13.64, 60 20 M0 0 C21.84 7.28, 43.68 14.56, 60 20" stroke="#1e1e1e" stroke-width="1" fill="none"></path></g><g transform="translate(110 90) rotate(0 30 10)"><path d="M60 20 L45.1 21.71 L49.11 9.69 L60 20" stroke="none" stroke-width="0" fill="#1e1e1e" fill-rule="evenodd"></path><path d="M60 20 C54.92 20.58, 49.83 21.17, 45.1 21.71 M60 20 C54.58 20.62, 49.15 21.25, 45.1 21.71 M45.1 21.71 C46.07 18.79, 47.05 15.86, 49.11 9.69 M45.1 21.71 C46.5 17.52, 47.9 13.32, 49.11 9.69 M49.11 9.69 C52.74 13.13, 56.38 16.57, 60 20 M49.11 9.69 C53.26 13.62, 57.42 17.56, 60 20 M60 20 C60 20, 60 20, 60 20 M60 20 C60 20, 60 20, 60 20" stroke="#1e1e1e" stroke-width="1" fill="none"></path></g></g><mask></mask><g stroke-linecap="round" transform="translate(170 90) rotate(0 60 30)"><path d="M0 0 L120 0 L120 60 L0 60" stroke="none" stroke-width="0" fill="#ffc9c9"></path><path d="M0 0 C33.46 0, 66.91 0, 120 0 M0 0 C35.31 0, 70.61 0, 120 0 M120 0 C120 14.64, 120 29.28, 120 60 M120 0 C120 16.07, 120 32.14, 120 60 M120 60 C83.46 60, 46.92 60, 0 60 M120 60 C82.97 60, 45.94 60, 0 60 M0 60 C0 43.24, 0 26.48, 0 0 M0 60 C0 40.81, 0 21.62, 0 0" stroke="#1e1e1e" stroke-width="1" fill="none"></path></g><g transform="translate(191.6455078125 108.5) rotate(0 38.3544921875 11.5)"><text x="38.3544921875" y="0" font-family="Helvetica, Segoe UI Emoji" font-size="20px" fill="#1e1e1e" text-anchor="middle" style="white-space: pre;" direction="ltr" dominant-baseline="text-before-edge">dump.py</text></g><g stroke-linecap="round"><g transform="translate(290 110) rotate(0 30 -10)"><path d="M0 0 C17.59 -5.86, 35.19 -11.73, 60 -20 M0 0 C12.33 -4.11, 24.65 -8.22, 60 -20" stroke="#1e1e1e" stroke-width="1" fill="none"></path></g><g transform="translate(290 110) rotate(0 30 -10)"><path d="M60 -20 L49.11 -9.69 L45.1 -21.71 L60 -20" stroke="none" stroke-width="0" fill="#1e1e1e" fill-rule="evenodd"></path><path d="M60 -20 C56.81 -16.98, 53.61 -13.95, 49.11 -9.69 M60 -20 C57.76 -17.88, 55.52 -15.76, 49.11 -9.69 M49.11 -9.69 C47.84 -13.49, 46.57 -17.3, 45.1 -21.71 M49.11 -9.69 C47.88 -13.37, 46.65 -17.05, 45.1 -21.71 M45.1 -21.71 C48.92 -21.27, 52.75 -20.83, 60 -20 M45.1 -21.71 C50.91 -21.05, 56.71 -20.38, 60 -20 M60 -20 C60 -20, 60 -20, 60 -20 M60 -20 C60 -20, 60 -20, 60 -20" stroke="#1e1e1e" stroke-width="1" fill="none"></path></g></g><mask></mask><g stroke-linecap="round" transform="translate(350 70) rotate(0 100 20)"><path d="M0 0 L200 0 L200 40 L0 40" stroke="none" stroke-width="0" fill="#e7f5ff"></path><path d="M0 0 C43.11 0, 86.23 0, 200 0 M0 0 C62.74 0, 125.48 0, 200 0 M200 0 C200 11.51, 200 23.01, 200 40 M200 0 C200 9.7, 200 19.4, 200 40 M200 40 C133.83 40, 67.66 40, 0 40 M200 40 C153.35 40, 106.69 40, 0 40 M0 40 C0 29.32, 0 18.65, 0 0 M0 40 C0 29.38, 0 18.76, 0 0" stroke="#1e1e1e" stroke-width="1" fill="none"></path></g><g transform="translate(364.9462890625 78.5) rotate(0 85.0537109375 11.5)"><text x="85.0537109375" y="0" font-family="Helvetica, Segoe UI Emoji" font-size="20px" fill="#1e1e1e" text-anchor="middle" style="white-space: pre;" direction="ltr" dominant-baseline="text-before-edge">md5_x64_dump.py</text></g><g stroke-linecap="round" transform="translate(10 130) rotate(0 50 20)"><path d="M0 0 L100 0 L100 40 L0 40" stroke="none" stroke-width="0" fill="#e9ecef"></path><path d="M0 0 C36.51 0, 73.03 0, 100 0 M0 0 C20.83 0, 41.66 0, 100 0 M100 0 C100 9.82, 100 19.64, 100 40 M100 0 C100 14.88, 100 29.76, 100 40 M100 40 C63.9 40, 27.8 40, 0 40 M100 40 C78.07 40, 56.15 40, 0 40 M0 40 C0 24.34, 0 8.67, 0 0 M0 40 C0 29.17, 0 18.33, 0 0" stroke="#1e1e1e" stroke-width="1" fill="none"></path></g><g transform="translate(17.763671875 138.5) rotate(0 42.236328125 11.5)"><text x="42.236328125" y="0" font-family="Helvetica, Segoe UI Emoji" font-size="20px" fill="#1e1e1e" text-anchor="middle" style="white-space: pre;" direction="ltr" dominant-baseline="text-before-edge">md5_arm</text></g><g stroke-linecap="round"><g transform="translate(111 146.05038759689927) rotate(0 29.5 -8.025193798449635)"><path d="M0 0 C19.98 -5.44, 39.97 -10.87, 59 -16.05 M0 0 C16.25 -4.42, 32.51 -8.84, 59 -16.05" stroke="#1e1e1e" stroke-width="1" fill="none"></path></g><g transform="translate(111 146.05038759689927) rotate(0 29.5 -8.025193798449635)"><path d="M59 -16.05 L47.55 -6.36 L44.22 -18.6 L59 -16.05" stroke="none" stroke-width="0" fill="#1e1e1e" fill-rule="evenodd"></path><path d="M59 -16.05 C55.12 -12.77, 51.24 -9.49, 47.55 -6.36 M59 -16.05 C55.84 -13.38, 52.69 -10.71, 47.55 -6.36 M47.55 -6.36 C46.63 -9.73, 45.71 -13.1, 44.22 -18.6 M47.55 -6.36 C46.83 -9, 46.11 -11.64, 44.22 -18.6 M44.22 -18.6 C48.45 -17.87, 52.67 -17.14, 59 -16.05 M44.22 -18.6 C47.23 -18.08, 50.24 -17.56, 59 -16.05 M59 -16.05 C59 -16.05, 59 -16.05, 59 -16.05 M59 -16.05 C59 -16.05, 59 -16.05, 59 -16.05" stroke="#1e1e1e" stroke-width="1" fill="none"></path></g></g><mask></mask><g stroke-linecap="round" transform="translate(350 130) rotate(0 100 20)"><path d="M0 0 L200 0 L200 40 L0 40" stroke="none" stroke-width="0" fill="#e7f5ff"></path><path d="M0 0 C73.62 0, 147.25 0, 200 0 M0 0 C58.03 0, 116.07 0, 200 0 M200 0 C200 15.92, 200 31.84, 200 40 M200 0 C200 13.02, 200 26.04, 200 40 M200 40 C123.97 40, 47.93 40, 0 40 M200 40 C140.98 40, 81.96 40, 0 40 M0 40 C0 28.09, 0 16.17, 0 0 M0 40 C0 27.47, 0 14.94, 0 0" stroke="#1e1e1e" stroke-width="1" fill="none"></path></g><g transform="translate(363.84765625 138.5) rotate(0 86.15234375 11.5)"><text x="86.15234375" y="0" font-family="Helvetica, Segoe UI Emoji" font-size="20px" fill="#1e1e1e" text-anchor="middle" style="white-space: pre;" direction="ltr" dominant-baseline="text-before-edge">md5_arm_dump.py</text></g><g stroke-linecap="round"><g transform="translate(290 130) rotate(0 30 10)"><path d="M0 0 C16.48 5.49, 32.95 10.98, 60 20 M0 0 C23.69 7.9, 47.37 15.79, 60 20" stroke="#1e1e1e" stroke-width="1" fill="none"></path></g><g transform="translate(290 130) rotate(0 30 10)"><path d="M60 20 L45.1 21.71 L49.11 9.69 L60 20" stroke="none" stroke-width="0" fill="#1e1e1e" fill-rule="evenodd"></path><path d="M60 20 C55.91 20.47, 51.82 20.94, 45.1 21.71 M60 20 C54.12 20.68, 48.23 21.35, 45.1 21.71 M45.1 21.71 C46.14 18.58, 47.19 15.44, 49.11 9.69 M45.1 21.71 C45.94 19.18, 46.79 16.64, 49.11 9.69 M49.11 9.69 C52.89 13.27, 56.67 16.85, 60 20 M49.11 9.69 C51.91 12.34, 54.7 14.99, 60 20 M60 20 C60 20, 60 20, 60 20 M60 20 C60 20, 60 20, 60 20" stroke="#1e1e1e" stroke-width="1" fill="none"></path></g></g><mask></mask><g stroke-linecap="round" transform="translate(590 70) rotate(0 110 20)"><path d="M0 0 L220 0 L220 40 L0 40" stroke="none" stroke-width="0" fill="#a5d8ff"></path><path d="M0 0 C69.56 0, 139.12 0, 220 0 M0 0 C55.63 0, 111.26 0, 220 0 M220 0 C220 8.68, 220 17.36, 220 40 M220 0 C220 10.32, 220 20.65, 220 40 M220 40 C173.45 40, 126.9 40, 0 40 M220 40 C141.12 40, 62.25 40, 0 40 M0 40 C0 27.35, 0 14.7, 0 0 M0 40 C0 26.94, 0 13.88, 0 0" stroke="#1e1e1e" stroke-width="1" fill="none"></path></g><g transform="translate(604.384765625 78.5) rotate(0 95.615234375 11.5)"><text x="95.615234375" y="0" font-family="Helvetica, Segoe UI Emoji" font-size="20px" fill="#1e1e1e" text-anchor="middle" style="white-space: pre;" direction="ltr" dominant-baseline="text-before-edge">emulate_md5_x64.py</text></g><g stroke-linecap="round"><g transform="translate(550 90) rotate(0 20 0)"><path d="M0 0 C9.02 0, 18.03 0, 40 0 M0 0 C10.66 0, 21.32 0, 40 0" stroke="#1e1e1e" stroke-width="1" fill="none"></path></g><g transform="translate(550 90) rotate(0 20 0)"><path d="M40 0 L26.41 6.34 L26.41 -6.34 L40 0" stroke="none" stroke-width="0" fill="#1e1e1e" fill-rule="evenodd"></path><path d="M40 0 C36.94 1.43, 33.87 2.86, 26.41 6.34 M40 0 C36.38 1.69, 32.76 3.38, 26.41 6.34 M26.41 6.34 C26.41 3.57, 26.41 0.8, 26.41 -6.34 M26.41 6.34 C26.41 3.34, 26.41 0.35, 26.41 -6.34 M26.41 -6.34 C29.83 -4.74, 33.25 -3.15, 40 0 M26.41 -6.34 C31.37 -4.03, 36.33 -1.71, 40 0 M40 0 C40 0, 40 0, 40 0 M40 0 C40 0, 40 0, 40 0" stroke="#1e1e1e" stroke-width="1" fill="none"></path></g></g><mask></mask><g stroke-linecap="round" transform="translate(590 130) rotate(0 110 20)"><path d="M0 0 L220 0 L220 40 L0 40" stroke="none" stroke-width="0" fill="#a5d8ff"></path><path d="M0 0 C85.05 0, 170.09 0, 220 0 M0 0 C77.84 0, 155.67 0, 220 0 M220 0 C220 13.07, 220 26.14, 220 40 M220 0 C220 12.82, 220 25.64, 220 40 M220 40 C145.57 40, 71.15 40, 0 40 M220 40 C158.93 40, 97.86 40, 0 40 M0 40 C0 26.82, 0 13.64, 0 0 M0 40 C0 30.79, 0 21.58, 0 0" stroke="#1e1e1e" stroke-width="1" fill="none"></path></g><g transform="translate(603.2861328125 138.5) rotate(0 96.7138671875 11.5)"><text x="96.7138671875" y="0" font-family="Helvetica, Segoe UI Emoji" font-size="20px" fill="#1e1e1e" text-anchor="middle" style="white-space: pre;" direction="ltr" dominant-baseline="text-before-edge">emulate_md5_arm.py</text></g><g stroke-linecap="round"><g transform="translate(550 150) rotate(0 20 0)"><path d="M0 0 C9.16 0, 18.32 0, 40 0 M0 0 C15.29 0, 30.57 0, 40 0" stroke="#1e1e1e" stroke-width="1" fill="none"></path></g><g transform="translate(550 150) rotate(0 20 0)"><path d="M40 0 L26.41 6.34 L26.41 -6.34 L40 0" stroke="none" stroke-width="0" fill="#1e1e1e" fill-rule="evenodd"></path><path d="M40 0 C36.89 1.45, 33.77 2.9, 26.41 6.34 M40 0 C34.8 2.42, 29.61 4.85, 26.41 6.34 M26.41 6.34 C26.41 1.39, 26.41 -3.55, 26.41 -6.34 M26.41 6.34 C26.41 3.22, 26.41 0.1, 26.41 -6.34 M26.41 -6.34 C31.02 -4.19, 35.64 -2.03, 40 0 M26.41 -6.34 C31.48 -3.97, 36.55 -1.61, 40 0 M40 0 C40 0, 40 0, 40 0 M40 0 C40 0, 40 0, 40 0" stroke="#1e1e1e" stroke-width="1" fill="none"></path></g></g><mask></mask><g transform="translate(170 10) rotate(0 40.90625 18.400000000000006)"><text x="0" y="0" font-family="Helvetica, Segoe UI Emoji" font-size="16px" fill="#1e1e1e" text-anchor="start" style="white-space: pre;" direction="ltr" dominant-baseline="text-before-edge">using</text><text x="0" y="18.4" font-family="Helvetica, Segoe UI Emoji" font-size="16px" fill="#1e1e1e" text-anchor="start" style="white-space: pre;" direction="ltr" dominant-baseline="text-before-edge">BinaryNinja</text></g><g transform="translate(10 10) rotate(0 42.6953125 18.400000000000006)"><text x="0" y="0" font-family="Helvetica, Segoe UI Emoji" font-size="16px" fill="#1e1e1e" text-anchor="start" style="white-space: pre;" direction="ltr" dominant-baseline="text-before-edge">native</text><text x="0" y="18.4" font-family="Helvetica, Segoe UI Emoji" font-size="16px" fill="#1e1e1e" text-anchor="start" style="white-space: pre;" direction="ltr" dominant-baseline="text-before-edge">executables</text></g><g transform="translate(350 10) rotate(0 94.28515625 18.400000000000006)"><text x="0" y="0" font-family="Helvetica, Segoe UI Emoji" font-size="16px" fill="#1e1e1e" text-anchor="start" style="white-space: pre;" direction="ltr" dominant-baseline="text-before-edge">functions and bytecode</text><text x="0" y="18.4" font-family="Helvetica, Segoe UI Emoji" font-size="16px" fill="#1e1e1e" text-anchor="start" style="white-space: pre;" direction="ltr" dominant-baseline="text-before-edge">exported in python module</text></g><g transform="translate(590 10) rotate(0 96.06640625 18.400000000000006)"><text x="0" y="0" font-family="Helvetica, Segoe UI Emoji" font-size="16px" fill="#1e1e1e" text-anchor="start" style="white-space: pre;" direction="ltr" dominant-baseline="text-before-edge">run functions and bytecode</text><text x="0" y="18.4" font-family="Helvetica, Segoe UI Emoji" font-size="16px" fill="#1e1e1e" text-anchor="start" style="white-space: pre;" direction="ltr" dominant-baseline="text-before-edge">with unicorn emulator</text></g></svg>