<?xml version="1.0" encoding="UTF-8" standalone="no"?>
<!DOCTYPE svg PUBLIC "-//W3C//DTD SVG 1.1//EN"
 "http://www.w3.org/Graphics/SVG/1.1/DTD/svg11.dtd">
<!-- Generated by graphviz version 2.49.3 (20211023.0002)
 -->
<!-- Pages: 1 -->
<svg width="962pt" height="980pt"
 viewBox="0.00 0.00 962.14 980.00" xmlns="http://www.w3.org/2000/svg" xmlns:xlink="http://www.w3.org/1999/xlink">
<g id="graph0" class="graph" transform="scale(1 1) rotate(0) translate(4 976)">
<polygon fill="white" stroke="transparent" points="-4,4 -4,-976 958.14,-976 958.14,4 -4,4"/>
<!-- block@100002EF0 -->
<g id="node1" class="node">
<title>block@100002EF0</title>
<ellipse fill="none" stroke="black" cx="871.59" cy="-954" rx="81.79" ry="18"/>
<text text-anchor="middle" x="871.59" y="-950.3" font-family="Times,serif" font-size="14.00">block@100002EF0</text>
</g>
<!-- block@100002F0D -->
<g id="node2" class="node">
<title>block@100002F0D</title>
<ellipse fill="none" stroke="black" cx="871.59" cy="-882" rx="82.59" ry="18"/>
<text text-anchor="middle" x="871.59" y="-878.3" font-family="Times,serif" font-size="14.00">block@100002F0D</text>
</g>
<!-- block@100002EF0&#45;&gt;block@100002F0D -->
<g id="edge1" class="edge">
<title>block@100002EF0&#45;&gt;block@100002F0D</title>
<path fill="none" stroke="black" d="M871.59,-935.7C871.59,-927.98 871.59,-918.71 871.59,-910.11"/>
<polygon fill="black" stroke="black" points="875.09,-910.1 871.59,-900.1 868.09,-910.1 875.09,-910.1"/>
</g>
<!-- block@100002F35 -->
<g id="node3" class="node">
<title>block@100002F35</title>
<ellipse fill="none" stroke="black" cx="692.59" cy="-810" rx="80.69" ry="18"/>
<text text-anchor="middle" x="692.59" y="-806.3" font-family="Times,serif" font-size="14.00">block@100002F35</text>
</g>
<!-- block@100002F0D&#45;&gt;block@100002F35 -->
<g id="edge2" class="edge">
<title>block@100002F0D&#45;&gt;block@100002F35</title>
<path fill="none" stroke="black" d="M833.19,-865.98C805.97,-855.34 769.25,-840.98 740.17,-829.6"/>
<polygon fill="black" stroke="black" points="741.21,-826.25 730.62,-825.87 738.66,-832.77 741.21,-826.25"/>
</g>
<!-- block@100002F17 -->
<g id="node5" class="node">
<title>block@100002F17</title>
<ellipse fill="none" stroke="black" cx="871.59" cy="-810" rx="80.69" ry="18"/>
<text text-anchor="middle" x="871.59" y="-806.3" font-family="Times,serif" font-size="14.00">block@100002F17</text>
</g>
<!-- block@100002F0D&#45;&gt;block@100002F17 -->
<g id="edge3" class="edge">
<title>block@100002F0D&#45;&gt;block@100002F17</title>
<path fill="none" stroke="black" d="M865.68,-863.7C864.88,-855.98 864.65,-846.71 865,-838.11"/>
<polygon fill="black" stroke="black" points="868.49,-838.32 865.7,-828.1 861.51,-837.84 868.49,-838.32"/>
</g>
<!-- block@100002F4A -->
<g id="node4" class="node">
<title>block@100002F4A</title>
<ellipse fill="none" stroke="black" cx="692.59" cy="-738" rx="82.59" ry="18"/>
<text text-anchor="middle" x="692.59" y="-734.3" font-family="Times,serif" font-size="14.00">block@100002F4A</text>
</g>
<!-- block@100002F35&#45;&gt;block@100002F4A -->
<g id="edge4" class="edge">
<title>block@100002F35&#45;&gt;block@100002F4A</title>
<path fill="none" stroke="black" d="M692.59,-791.7C692.59,-783.98 692.59,-774.71 692.59,-766.11"/>
<polygon fill="black" stroke="black" points="696.09,-766.1 692.59,-756.1 689.09,-766.1 696.09,-766.1"/>
</g>
<!-- block@100002F73 -->
<g id="node6" class="node">
<title>block@100002F73</title>
<ellipse fill="none" stroke="black" cx="513.59" cy="-666" rx="80.69" ry="18"/>
<text text-anchor="middle" x="513.59" y="-662.3" font-family="Times,serif" font-size="14.00">block@100002F73</text>
</g>
<!-- block@100002F4A&#45;&gt;block@100002F73 -->
<g id="edge5" class="edge">
<title>block@100002F4A&#45;&gt;block@100002F73</title>
<path fill="none" stroke="black" d="M654.19,-721.98C626.97,-711.34 590.25,-696.98 561.17,-685.6"/>
<polygon fill="black" stroke="black" points="562.21,-682.25 551.62,-681.87 559.66,-688.77 562.21,-682.25"/>
</g>
<!-- block@100002F54 -->
<g id="node8" class="node">
<title>block@100002F54</title>
<ellipse fill="none" stroke="black" cx="692.59" cy="-666" rx="80.69" ry="18"/>
<text text-anchor="middle" x="692.59" y="-662.3" font-family="Times,serif" font-size="14.00">block@100002F54</text>
</g>
<!-- block@100002F4A&#45;&gt;block@100002F54 -->
<g id="edge6" class="edge">
<title>block@100002F4A&#45;&gt;block@100002F54</title>
<path fill="none" stroke="black" d="M686.68,-719.7C685.88,-711.98 685.65,-702.71 686,-694.11"/>
<polygon fill="black" stroke="black" points="689.49,-694.32 686.7,-684.1 682.51,-693.84 689.49,-694.32"/>
</g>
<!-- block@100002F17&#45;&gt;block@100002F0D -->
<g id="edge7" class="edge">
<title>block@100002F17&#45;&gt;block@100002F0D</title>
<path fill="none" stroke="black" d="M877.49,-828.1C878.29,-835.79 878.53,-845.05 878.2,-853.67"/>
<polygon fill="black" stroke="black" points="874.7,-853.48 877.51,-863.7 881.68,-853.96 874.7,-853.48"/>
</g>
<!-- block@100002F99 -->
<g id="node7" class="node">
<title>block@100002F99</title>
<ellipse fill="none" stroke="black" cx="513.59" cy="-594" rx="80.69" ry="18"/>
<text text-anchor="middle" x="513.59" y="-590.3" font-family="Times,serif" font-size="14.00">block@100002F99</text>
</g>
<!-- block@100002F73&#45;&gt;block@100002F99 -->
<g id="edge8" class="edge">
<title>block@100002F73&#45;&gt;block@100002F99</title>
<path fill="none" stroke="black" d="M513.59,-647.7C513.59,-639.98 513.59,-630.71 513.59,-622.11"/>
<polygon fill="black" stroke="black" points="517.09,-622.1 513.59,-612.1 510.09,-622.1 517.09,-622.1"/>
</g>
<!-- block@100002FD6 -->
<g id="node9" class="node">
<title>block@100002FD6</title>
<ellipse fill="none" stroke="black" cx="402.59" cy="-522" rx="82.59" ry="18"/>
<text text-anchor="middle" x="402.59" y="-518.3" font-family="Times,serif" font-size="14.00">block@100002FD6</text>
</g>
<!-- block@100002F99&#45;&gt;block@100002FD6 -->
<g id="edge9" class="edge">
<title>block@100002F99&#45;&gt;block@100002FD6</title>
<path fill="none" stroke="black" d="M487.85,-576.76C472.72,-567.22 453.4,-555.04 436.98,-544.68"/>
<polygon fill="black" stroke="black" points="438.52,-541.52 428.2,-539.15 434.79,-547.44 438.52,-541.52"/>
</g>
<!-- block@100002FA3 -->
<g id="node11" class="node">
<title>block@100002FA3</title>
<ellipse fill="none" stroke="black" cx="623.59" cy="-522" rx="81.79" ry="18"/>
<text text-anchor="middle" x="623.59" y="-518.3" font-family="Times,serif" font-size="14.00">block@100002FA3</text>
</g>
<!-- block@100002F99&#45;&gt;block@100002FA3 -->
<g id="edge10" class="edge">
<title>block@100002F99&#45;&gt;block@100002FA3</title>
<path fill="none" stroke="black" d="M539.11,-576.76C554.1,-567.22 573.24,-555.04 589.52,-544.68"/>
<polygon fill="black" stroke="black" points="591.66,-547.47 598.22,-539.15 587.9,-541.56 591.66,-547.47"/>
</g>
<!-- block@100002F54&#45;&gt;block@100002F4A -->
<g id="edge11" class="edge">
<title>block@100002F54&#45;&gt;block@100002F4A</title>
<path fill="none" stroke="black" d="M698.49,-684.1C699.29,-691.79 699.53,-701.05 699.2,-709.67"/>
<polygon fill="black" stroke="black" points="695.7,-709.48 698.51,-719.7 702.68,-709.96 695.7,-709.48"/>
</g>
<!-- block@100002FFC -->
<g id="node10" class="node">
<title>block@100002FFC</title>
<ellipse fill="none" stroke="black" cx="314.59" cy="-450" rx="82.59" ry="18"/>
<text text-anchor="middle" x="314.59" y="-446.3" font-family="Times,serif" font-size="14.00">block@100002FFC</text>
</g>
<!-- block@100002FD6&#45;&gt;block@100002FFC -->
<g id="edge12" class="edge">
<title>block@100002FD6&#45;&gt;block@100002FFC</title>
<path fill="none" stroke="black" d="M381.74,-504.41C370.23,-495.26 355.77,-483.76 343.22,-473.77"/>
<polygon fill="black" stroke="black" points="345.3,-470.96 335.3,-467.47 340.95,-476.43 345.3,-470.96"/>
</g>
<!-- block@100003073 -->
<g id="node14" class="node">
<title>block@100003073</title>
<ellipse fill="none" stroke="black" cx="404.59" cy="-378" rx="80.69" ry="18"/>
<text text-anchor="middle" x="404.59" y="-374.3" font-family="Times,serif" font-size="14.00">block@100003073</text>
</g>
<!-- block@100002FFC&#45;&gt;block@100003073 -->
<g id="edge13" class="edge">
<title>block@100002FFC&#45;&gt;block@100003073</title>
<path fill="none" stroke="black" d="M335.92,-432.41C347.69,-423.26 362.48,-411.76 375.32,-401.77"/>
<polygon fill="black" stroke="black" points="377.67,-404.37 383.42,-395.47 373.37,-398.85 377.67,-404.37"/>
</g>
<!-- block@100003006 -->
<g id="node16" class="node">
<title>block@100003006</title>
<ellipse fill="none" stroke="black" cx="225.59" cy="-378" rx="80.69" ry="18"/>
<text text-anchor="middle" x="225.59" y="-374.3" font-family="Times,serif" font-size="14.00">block@100003006</text>
</g>
<!-- block@100002FFC&#45;&gt;block@100003006 -->
<g id="edge14" class="edge">
<title>block@100002FFC&#45;&gt;block@100003006</title>
<path fill="none" stroke="black" d="M293.5,-432.41C281.86,-423.26 267.24,-411.76 254.55,-401.77"/>
<polygon fill="black" stroke="black" points="256.56,-398.9 246.53,-395.47 252.23,-404.4 256.56,-398.9"/>
</g>
<!-- block@100002FC3 -->
<g id="node12" class="node">
<title>block@100002FC3</title>
<ellipse fill="none" stroke="black" cx="624.59" cy="-378" rx="82.59" ry="18"/>
<text text-anchor="middle" x="624.59" y="-374.3" font-family="Times,serif" font-size="14.00">block@100002FC3</text>
</g>
<!-- block@100002FA3&#45;&gt;block@100002FC3 -->
<g id="edge15" class="edge">
<title>block@100002FA3&#45;&gt;block@100002FC3</title>
<path fill="none" stroke="black" d="M616.53,-503.67C612.75,-493.47 608.5,-480.22 606.59,-468 604.12,-452.19 603.99,-447.79 606.59,-432 608.03,-423.28 610.73,-414.06 613.6,-405.8"/>
<polygon fill="black" stroke="black" points="616.92,-406.89 617.11,-396.3 610.36,-404.46 616.92,-406.89"/>
</g>
<!-- block@100002FB2 -->
<g id="node13" class="node">
<title>block@100002FB2</title>
<ellipse fill="none" stroke="black" cx="698.59" cy="-450" rx="82.59" ry="18"/>
<text text-anchor="middle" x="698.59" y="-446.3" font-family="Times,serif" font-size="14.00">block@100002FB2</text>
</g>
<!-- block@100002FA3&#45;&gt;block@100002FB2 -->
<g id="edge16" class="edge">
<title>block@100002FA3&#45;&gt;block@100002FB2</title>
<path fill="none" stroke="black" d="M641.37,-504.41C650.92,-495.5 662.85,-484.36 673.35,-474.56"/>
<polygon fill="black" stroke="black" points="675.76,-477.09 680.69,-467.71 670.99,-471.98 675.76,-477.09"/>
</g>
<!-- block@100002FC8 -->
<g id="node18" class="node">
<title>block@100002FC8</title>
<ellipse fill="none" stroke="black" cx="614.59" cy="-306" rx="82.59" ry="18"/>
<text text-anchor="middle" x="614.59" y="-302.3" font-family="Times,serif" font-size="14.00">block@100002FC8</text>
</g>
<!-- block@100002FC3&#45;&gt;block@100002FC8 -->
<g id="edge17" class="edge">
<title>block@100002FC3&#45;&gt;block@100002FC8</title>
<path fill="none" stroke="black" d="M622.12,-359.7C621.02,-351.98 619.69,-342.71 618.47,-334.11"/>
<polygon fill="black" stroke="black" points="621.92,-333.51 617.04,-324.1 614.99,-334.5 621.92,-333.51"/>
</g>
<!-- block@100002FB2&#45;&gt;block@100002FC3 -->
<g id="edge18" class="edge">
<title>block@100002FB2&#45;&gt;block@100002FC3</title>
<path fill="none" stroke="black" d="M680.68,-432.05C671.41,-423.28 659.94,-412.43 649.79,-402.83"/>
<polygon fill="black" stroke="black" points="652.01,-400.12 642.34,-395.79 647.2,-405.2 652.01,-400.12"/>
</g>
<!-- block@100003084 -->
<g id="node15" class="node">
<title>block@100003084</title>
<ellipse fill="none" stroke="black" cx="406.59" cy="-306" rx="80.69" ry="18"/>
<text text-anchor="middle" x="406.59" y="-302.3" font-family="Times,serif" font-size="14.00">block@100003084</text>
</g>
<!-- block@100003073&#45;&gt;block@100003084 -->
<g id="edge19" class="edge">
<title>block@100003073&#45;&gt;block@100003084</title>
<path fill="none" stroke="black" d="M405.09,-359.7C405.31,-351.98 405.57,-342.71 405.82,-334.11"/>
<polygon fill="black" stroke="black" points="409.32,-334.2 406.1,-324.1 402.32,-334 409.32,-334.2"/>
</g>
<!-- block@100003084&#45;&gt;block@100003084 -->
<g id="edge20" class="edge">
<title>block@100003084&#45;&gt;block@100003084</title>
<path fill="none" stroke="black" d="M460.84,-319.31C484.68,-320.49 505.19,-316.05 505.19,-306 505.19,-297.4 490.18,-292.91 470.92,-292.53"/>
<polygon fill="black" stroke="black" points="470.79,-289.03 460.84,-292.69 470.9,-296.03 470.79,-289.03"/>
</g>
<!-- block@10000300D -->
<g id="node17" class="node">
<title>block@10000300D</title>
<ellipse fill="none" stroke="black" cx="225.59" cy="-306" rx="82.59" ry="18"/>
<text text-anchor="middle" x="225.59" y="-302.3" font-family="Times,serif" font-size="14.00">block@10000300D</text>
</g>
<!-- block@100003006&#45;&gt;block@10000300D -->
<g id="edge21" class="edge">
<title>block@100003006&#45;&gt;block@10000300D</title>
<path fill="none" stroke="black" d="M225.59,-359.7C225.59,-351.98 225.59,-342.71 225.59,-334.11"/>
<polygon fill="black" stroke="black" points="229.09,-334.1 225.59,-324.1 222.09,-334.1 229.09,-334.1"/>
</g>
<!-- block@100003060 -->
<g id="node19" class="node">
<title>block@100003060</title>
<ellipse fill="none" stroke="black" cx="135.59" cy="-234" rx="80.69" ry="18"/>
<text text-anchor="middle" x="135.59" y="-230.3" font-family="Times,serif" font-size="14.00">block@100003060</text>
</g>
<!-- block@10000300D&#45;&gt;block@100003060 -->
<g id="edge22" class="edge">
<title>block@10000300D&#45;&gt;block@100003060</title>
<path fill="none" stroke="black" d="M204.26,-288.41C192.5,-279.26 177.71,-267.76 164.87,-257.77"/>
<polygon fill="black" stroke="black" points="166.81,-254.85 156.77,-251.47 162.51,-260.37 166.81,-254.85"/>
</g>
<!-- block@100003017 -->
<g id="node21" class="node">
<title>block@100003017</title>
<ellipse fill="none" stroke="black" cx="314.59" cy="-234" rx="80.69" ry="18"/>
<text text-anchor="middle" x="314.59" y="-230.3" font-family="Times,serif" font-size="14.00">block@100003017</text>
</g>
<!-- block@10000300D&#45;&gt;block@100003017 -->
<g id="edge23" class="edge">
<title>block@10000300D&#45;&gt;block@100003017</title>
<path fill="none" stroke="black" d="M246.68,-288.41C258.32,-279.26 272.95,-267.76 285.64,-257.77"/>
<polygon fill="black" stroke="black" points="287.96,-260.4 293.65,-251.47 283.63,-254.9 287.96,-260.4"/>
</g>
<!-- block@100002FC8&#45;&gt;block@100002F99 -->
<g id="edge24" class="edge">
<title>block@100002FC8&#45;&gt;block@100002F99</title>
<path fill="none" stroke="black" d="M576.9,-322.08C560.47,-330.66 542.69,-343.13 532.59,-360 493.53,-425.29 501.49,-519.91 508.55,-565.89"/>
<polygon fill="black" stroke="black" points="505.13,-566.67 510.21,-575.97 512.04,-565.53 505.13,-566.67"/>
</g>
<!-- block@100003065 -->
<g id="node20" class="node">
<title>block@100003065</title>
<ellipse fill="none" stroke="black" cx="80.59" cy="-162" rx="80.69" ry="18"/>
<text text-anchor="middle" x="80.59" y="-158.3" font-family="Times,serif" font-size="14.00">block@100003065</text>
</g>
<!-- block@100003060&#45;&gt;block@100003065 -->
<g id="edge25" class="edge">
<title>block@100003060&#45;&gt;block@100003065</title>
<path fill="none" stroke="black" d="M122.28,-216.05C115.59,-207.54 107.36,-197.07 99.99,-187.68"/>
<polygon fill="black" stroke="black" points="102.71,-185.49 93.78,-179.79 97.21,-189.81 102.71,-185.49"/>
</g>
<!-- block@100003065&#45;&gt;block@100002FFC -->
<g id="edge26" class="edge">
<title>block@100003065&#45;&gt;block@100002FFC</title>
<path fill="none" stroke="black" d="M65.77,-179.83C58.13,-189.65 49.59,-202.69 45.59,-216 40.99,-231.32 41.18,-236.62 45.59,-252 66.4,-324.55 75.51,-350.32 135.59,-396 164.12,-417.69 201.39,-430.53 234.54,-438.12"/>
<polygon fill="black" stroke="black" points="234.16,-441.62 244.68,-440.31 235.64,-434.77 234.16,-441.62"/>
</g>
<!-- block@10000301E -->
<g id="node22" class="node">
<title>block@10000301E</title>
<ellipse fill="none" stroke="black" cx="287.59" cy="-162" rx="81.49" ry="18"/>
<text text-anchor="middle" x="287.59" y="-158.3" font-family="Times,serif" font-size="14.00">block@10000301E</text>
</g>
<!-- block@100003017&#45;&gt;block@10000301E -->
<g id="edge27" class="edge">
<title>block@100003017&#45;&gt;block@10000301E</title>
<path fill="none" stroke="black" d="M308.06,-216.05C305.02,-208.18 301.33,-198.62 297.93,-189.79"/>
<polygon fill="black" stroke="black" points="301.12,-188.35 294.26,-180.28 294.59,-190.86 301.12,-188.35"/>
</g>
<!-- block@10000304D -->
<g id="node23" class="node">
<title>block@10000304D</title>
<ellipse fill="none" stroke="black" cx="390.59" cy="-90" rx="82.59" ry="18"/>
<text text-anchor="middle" x="390.59" y="-86.3" font-family="Times,serif" font-size="14.00">block@10000304D</text>
</g>
<!-- block@10000301E&#45;&gt;block@10000304D -->
<g id="edge28" class="edge">
<title>block@10000301E&#45;&gt;block@10000304D</title>
<path fill="none" stroke="black" d="M311.48,-144.76C325.29,-135.38 342.86,-123.44 357.94,-113.19"/>
<polygon fill="black" stroke="black" points="360.17,-115.91 366.48,-107.39 356.24,-110.12 360.17,-115.91"/>
</g>
<!-- block@100003028 -->
<g id="node25" class="node">
<title>block@100003028</title>
<ellipse fill="none" stroke="black" cx="209.59" cy="-90" rx="80.69" ry="18"/>
<text text-anchor="middle" x="209.59" y="-86.3" font-family="Times,serif" font-size="14.00">block@100003028</text>
</g>
<!-- block@10000301E&#45;&gt;block@100003028 -->
<g id="edge29" class="edge">
<title>block@10000301E&#45;&gt;block@100003028</title>
<path fill="none" stroke="black" d="M263.7,-144.76C252.96,-136.01 240.51,-125.03 230.19,-115.28"/>
<polygon fill="black" stroke="black" points="232.4,-112.55 222.78,-108.12 227.54,-117.59 232.4,-112.55"/>
</g>
<!-- block@100003052 -->
<g id="node24" class="node">
<title>block@100003052</title>
<ellipse fill="none" stroke="black" cx="445.59" cy="-18" rx="80.69" ry="18"/>
<text text-anchor="middle" x="445.59" y="-14.3" font-family="Times,serif" font-size="14.00">block@100003052</text>
</g>
<!-- block@10000304D&#45;&gt;block@100003052 -->
<g id="edge30" class="edge">
<title>block@10000304D&#45;&gt;block@100003052</title>
<path fill="none" stroke="black" d="M403.91,-72.05C410.6,-63.54 418.82,-53.07 426.2,-43.68"/>
<polygon fill="black" stroke="black" points="428.98,-45.81 432.4,-35.79 423.47,-41.49 428.98,-45.81"/>
</g>
<!-- block@100003052&#45;&gt;block@10000300D -->
<g id="edge31" class="edge">
<title>block@100003052&#45;&gt;block@10000300D</title>
<path fill="none" stroke="black" d="M461.24,-35.69C469.32,-45.46 478.35,-58.51 482.59,-72 487.39,-87.26 486.52,-92.49 482.59,-108 464.71,-178.56 461.14,-206.17 404.59,-252 387.13,-266.15 336.05,-280.53 292.9,-290.73"/>
<polygon fill="black" stroke="black" points="291.93,-287.36 282.98,-293.03 293.52,-294.18 291.93,-287.36"/>
</g>
<!-- block@100003028&#45;&gt;block@10000301E -->
<g id="edge32" class="edge">
<title>block@100003028&#45;&gt;block@10000301E</title>
<path fill="none" stroke="black" d="M233.57,-107.31C244.35,-116.1 256.85,-127.12 267.18,-136.89"/>
<polygon fill="black" stroke="black" points="264.97,-139.62 274.59,-144.05 269.83,-134.59 264.97,-139.62"/>
</g>
</g>
</svg>
