<?xml version="1.0" encoding="UTF-8" standalone="no"?>
<!DOCTYPE svg PUBLIC "-//W3C//DTD SVG 1.1//EN"
 "http://www.w3.org/Graphics/SVG/1.1/DTD/svg11.dtd">
<!-- Generated by graphviz version 2.49.3 (20211023.0002)
 -->
<!-- Pages: 1 -->
<svg width="173pt" height="692pt"
 viewBox="0.00 0.00 173.09 692.00" xmlns="http://www.w3.org/2000/svg" xmlns:xlink="http://www.w3.org/1999/xlink">
<g id="graph0" class="graph" transform="scale(1 1) rotate(0) translate(4 688)">
<polygon fill="white" stroke="transparent" points="-4,4 -4,-688 169.09,-688 169.09,4 -4,4"/>
<!-- block@100002EF0 -->
<g id="node1" class="node">
<title>block@100002EF0</title>
<ellipse fill="none" stroke="black" cx="82.54" cy="-666" rx="81.79" ry="18"/>
<text text-anchor="middle" x="82.54" y="-662.3" font-family="Times,serif" font-size="14.00">block@100002EF0</text>
</g>
<!-- loop@100002F0D -->
<g id="node2" class="node">
<title>loop@100002F0D</title>
<ellipse fill="none" stroke="black" cx="82.54" cy="-594" rx="78.79" ry="18"/>
<text text-anchor="middle" x="82.54" y="-590.3" font-family="Times,serif" font-size="14.00">loop@100002F0D</text>
</g>
<!-- block@100002EF0&#45;&gt;loop@100002F0D -->
<g id="edge1" class="edge">
<title>block@100002EF0&#45;&gt;loop@100002F0D</title>
<path fill="none" stroke="black" d="M82.54,-647.7C82.54,-639.98 82.54,-630.71 82.54,-622.11"/>
<polygon fill="black" stroke="black" points="86.04,-622.1 82.54,-612.1 79.04,-622.1 86.04,-622.1"/>
</g>
<!-- block@100002F35 -->
<g id="node3" class="node">
<title>block@100002F35</title>
<ellipse fill="none" stroke="black" cx="82.54" cy="-522" rx="80.69" ry="18"/>
<text text-anchor="middle" x="82.54" y="-518.3" font-family="Times,serif" font-size="14.00">block@100002F35</text>
</g>
<!-- loop@100002F0D&#45;&gt;block@100002F35 -->
<g id="edge2" class="edge">
<title>loop@100002F0D&#45;&gt;block@100002F35</title>
<path fill="none" stroke="black" d="M82.54,-575.7C82.54,-567.98 82.54,-558.71 82.54,-550.11"/>
<polygon fill="black" stroke="black" points="86.04,-550.1 82.54,-540.1 79.04,-550.1 86.04,-550.1"/>
</g>
<!-- loop@100002F4A -->
<g id="node4" class="node">
<title>loop@100002F4A</title>
<ellipse fill="none" stroke="black" cx="82.54" cy="-450" rx="78.79" ry="18"/>
<text text-anchor="middle" x="82.54" y="-446.3" font-family="Times,serif" font-size="14.00">loop@100002F4A</text>
</g>
<!-- block@100002F35&#45;&gt;loop@100002F4A -->
<g id="edge3" class="edge">
<title>block@100002F35&#45;&gt;loop@100002F4A</title>
<path fill="none" stroke="black" d="M82.54,-503.7C82.54,-495.98 82.54,-486.71 82.54,-478.11"/>
<polygon fill="black" stroke="black" points="86.04,-478.1 82.54,-468.1 79.04,-478.1 86.04,-478.1"/>
</g>
<!-- block@100002F73 -->
<g id="node5" class="node">
<title>block@100002F73</title>
<ellipse fill="none" stroke="black" cx="82.54" cy="-378" rx="80.69" ry="18"/>
<text text-anchor="middle" x="82.54" y="-374.3" font-family="Times,serif" font-size="14.00">block@100002F73</text>
</g>
<!-- loop@100002F4A&#45;&gt;block@100002F73 -->
<g id="edge4" class="edge">
<title>loop@100002F4A&#45;&gt;block@100002F73</title>
<path fill="none" stroke="black" d="M82.54,-431.7C82.54,-423.98 82.54,-414.71 82.54,-406.11"/>
<polygon fill="black" stroke="black" points="86.04,-406.1 82.54,-396.1 79.04,-406.1 86.04,-406.1"/>
</g>
<!-- loop@100002F99 -->
<g id="node6" class="node">
<title>loop@100002F99</title>
<ellipse fill="none" stroke="black" cx="82.54" cy="-306" rx="76.89" ry="18"/>
<text text-anchor="middle" x="82.54" y="-302.3" font-family="Times,serif" font-size="14.00">loop@100002F99</text>
</g>
<!-- block@100002F73&#45;&gt;loop@100002F99 -->
<g id="edge5" class="edge">
<title>block@100002F73&#45;&gt;loop@100002F99</title>
<path fill="none" stroke="black" d="M82.54,-359.7C82.54,-351.98 82.54,-342.71 82.54,-334.11"/>
<polygon fill="black" stroke="black" points="86.04,-334.1 82.54,-324.1 79.04,-334.1 86.04,-334.1"/>
</g>
<!-- block@100002FD6 -->
<g id="node7" class="node">
<title>block@100002FD6</title>
<ellipse fill="none" stroke="black" cx="82.54" cy="-234" rx="82.59" ry="18"/>
<text text-anchor="middle" x="82.54" y="-230.3" font-family="Times,serif" font-size="14.00">block@100002FD6</text>
</g>
<!-- loop@100002F99&#45;&gt;block@100002FD6 -->
<g id="edge6" class="edge">
<title>loop@100002F99&#45;&gt;block@100002FD6</title>
<path fill="none" stroke="black" d="M82.54,-287.7C82.54,-279.98 82.54,-270.71 82.54,-262.11"/>
<polygon fill="black" stroke="black" points="86.04,-262.1 82.54,-252.1 79.04,-262.1 86.04,-262.1"/>
</g>
<!-- loop@100002FFC -->
<g id="node8" class="node">
<title>loop@100002FFC</title>
<ellipse fill="none" stroke="black" cx="82.54" cy="-162" rx="78.79" ry="18"/>
<text text-anchor="middle" x="82.54" y="-158.3" font-family="Times,serif" font-size="14.00">loop@100002FFC</text>
</g>
<!-- block@100002FD6&#45;&gt;loop@100002FFC -->
<g id="edge7" class="edge">
<title>block@100002FD6&#45;&gt;loop@100002FFC</title>
<path fill="none" stroke="black" d="M82.54,-215.7C82.54,-207.98 82.54,-198.71 82.54,-190.11"/>
<polygon fill="black" stroke="black" points="86.04,-190.1 82.54,-180.1 79.04,-190.1 86.04,-190.1"/>
</g>
<!-- block@100003073 -->
<g id="node9" class="node">
<title>block@100003073</title>
<ellipse fill="none" stroke="black" cx="82.54" cy="-90" rx="80.69" ry="18"/>
<text text-anchor="middle" x="82.54" y="-86.3" font-family="Times,serif" font-size="14.00">block@100003073</text>
</g>
<!-- loop@100002FFC&#45;&gt;block@100003073 -->
<g id="edge8" class="edge">
<title>loop@100002FFC&#45;&gt;block@100003073</title>
<path fill="none" stroke="black" d="M82.54,-143.7C82.54,-135.98 82.54,-126.71 82.54,-118.11"/>
<polygon fill="black" stroke="black" points="86.04,-118.1 82.54,-108.1 79.04,-118.1 86.04,-118.1"/>
</g>
<!-- loop@100003084 -->
<g id="node10" class="node">
<title>loop@100003084</title>
<ellipse fill="none" stroke="black" cx="82.54" cy="-18" rx="76.09" ry="18"/>
<text text-anchor="middle" x="82.54" y="-14.3" font-family="Times,serif" font-size="14.00">loop@100003084</text>
</g>
<!-- block@100003073&#45;&gt;loop@100003084 -->
<g id="edge9" class="edge">
<title>block@100003073&#45;&gt;loop@100003084</title>
<path fill="none" stroke="black" d="M82.54,-71.7C82.54,-63.98 82.54,-54.71 82.54,-46.11"/>
<polygon fill="black" stroke="black" points="86.04,-46.1 82.54,-36.1 79.04,-46.1 86.04,-46.1"/>
</g>
</g>
</svg>
