<?xml version="1.0" encoding="UTF-8" standalone="no"?>
<!DOCTYPE svg PUBLIC "-//W3C//DTD SVG 1.1//EN"
 "http://www.w3.org/Graphics/SVG/1.1/DTD/svg11.dtd">
<!-- Generated by graphviz version 2.40.1 (20161225.0304)
 -->
<!-- Title: G Pages: 1 -->
<svg width="264pt" height="303pt"
 viewBox="0.00 0.00 264.31 302.68" xmlns="http://www.w3.org/2000/svg" xmlns:xlink="http://www.w3.org/1999/xlink">
<g id="graph0" class="graph" transform="scale(1 1) rotate(0) translate(4 298.6836)">
<title>G</title>
<polygon fill="#ffffff" stroke="transparent" points="-4,4 -4,-298.6836 260.3108,-298.6836 260.3108,4 -4,4"/>
<!-- p0 -->
<g id="node1" class="node">
<title>p0</title>
<ellipse fill="none" stroke="#000000" cx="49.1554" cy="-276.6836" rx="49.3113" ry="18"/>
<text text-anchor="middle" x="49.1554" y="-272.4836" font-family="Times,serif" font-size="14.00" fill="#000000">premise #0</text>
</g>
<!-- ai0 -->
<g id="node4" class="node">
<title>ai0</title>
<polygon fill="none" stroke="#000000" points="140.3108,-208.6836 73.9999,-208.6836 73.9999,-172.6836 140.3108,-172.6836 140.3108,-208.6836"/>
<text text-anchor="middle" x="107.1554" y="-186.4836" font-family="Times,serif" font-size="14.00" fill="#000000">and intro</text>
</g>
<!-- p0&#45;&gt;ai0 -->
<g id="edge1" class="edge">
<title>p0&#45;&gt;ai0</title>
<path fill="none" stroke="#000000" d="M61.173,-258.8643C69.2842,-246.8375 80.132,-230.7528 89.2542,-217.2267"/>
<polygon fill="#000000" stroke="#000000" points="92.2639,-219.0237 94.9536,-208.7759 86.4604,-215.1096 92.2639,-219.0237"/>
<text text-anchor="middle" x="85.6554" y="-229.4836" font-family="Times,serif" font-size="14.00" fill="#000000">p</text>
</g>
<!-- p1 -->
<g id="node2" class="node">
<title>p1</title>
<ellipse fill="none" stroke="#000000" cx="165.1554" cy="-276.6836" rx="49.3113" ry="18"/>
<text text-anchor="middle" x="165.1554" y="-272.4836" font-family="Times,serif" font-size="14.00" fill="#000000">premise #1</text>
</g>
<!-- p1&#45;&gt;ai0 -->
<g id="edge2" class="edge">
<title>p1&#45;&gt;ai0</title>
<path fill="none" stroke="#000000" d="M153.1377,-258.8643C145.0266,-246.8375 134.1788,-230.7528 125.0565,-217.2267"/>
<polygon fill="#000000" stroke="#000000" points="127.8504,-215.1096 119.3572,-208.7759 122.0469,-219.0237 127.8504,-215.1096"/>
<text text-anchor="middle" x="142.6554" y="-229.4836" font-family="Times,serif" font-size="14.00" fill="#000000">q</text>
</g>
<!-- p2 -->
<g id="node3" class="node">
<title>p2</title>
<ellipse fill="none" stroke="#000000" cx="207.1554" cy="-190.6836" rx="49.3113" ry="18"/>
<text text-anchor="middle" x="207.1554" y="-186.4836" font-family="Times,serif" font-size="14.00" fill="#000000">premise #2</text>
</g>
<!-- ie0 -->
<g id="node5" class="node">
<title>ie0</title>
<polygon fill="none" stroke="#000000" points="192.2072,-122 122.1036,-122 122.1036,-86 192.2072,-86 192.2072,-122"/>
<text text-anchor="middle" x="157.1554" y="-99.8" font-family="Times,serif" font-size="14.00" fill="#000000">impl elim</text>
</g>
<!-- p2&#45;&gt;ie0 -->
<g id="edge4" class="edge">
<title>p2&#45;&gt;ie0</title>
<path fill="none" stroke="#000000" d="M196.7954,-172.7227C189.8696,-160.7157 180.6293,-144.6961 172.8125,-131.1443"/>
<polygon fill="#000000" stroke="#000000" points="175.7025,-129.1496 167.6742,-122.2361 169.6389,-132.6472 175.7025,-129.1496"/>
<text text-anchor="middle" x="208.1153" y="-143.4836" font-family="Times,serif" font-size="14.00" fill="#000000">p∧q ⇒ r</text>
</g>
<!-- ai0&#45;&gt;ie0 -->
<g id="edge3" class="edge">
<title>ai0&#45;&gt;ie0</title>
<path fill="none" stroke="#000000" d="M117.7591,-172.3002C124.6999,-160.2672 133.8864,-144.3407 141.6425,-130.8942"/>
<polygon fill="#000000" stroke="#000000" points="144.7737,-132.4707 146.7384,-122.0596 138.7101,-128.9731 144.7737,-132.4707"/>
<text text-anchor="middle" x="146.3766" y="-143.4836" font-family="Times,serif" font-size="14.00" fill="#000000">p∧q</text>
</g>
<!-- result -->
<g id="node6" class="node">
<title>result</title>
<ellipse fill="none" stroke="#000000" cx="157.1554" cy="-18" rx="29.5104" ry="18"/>
<text text-anchor="middle" x="157.1554" y="-13.8" font-family="Times,serif" font-size="14.00" fill="#000000">result</text>
</g>
<!-- ie0&#45;&gt;result -->
<g id="edge5" class="edge">
<title>ie0&#45;&gt;result</title>
<path fill="none" stroke="#000000" d="M157.1554,-85.7616C157.1554,-74.3597 157.1554,-59.4342 157.1554,-46.494"/>
<polygon fill="#000000" stroke="#000000" points="160.6555,-46.2121 157.1554,-36.2121 153.6555,-46.2121 160.6555,-46.2121"/>
<text text-anchor="middle" x="159.4864" y="-56.8" font-family="Times,serif" font-size="14.00" fill="#000000">r</text>
</g>
</g>
</svg>
