<?xml version="1.0" encoding="UTF-8" standalone="no"?>
<!DOCTYPE svg PUBLIC "-//W3C//DTD SVG 1.1//EN"
 "http://www.w3.org/Graphics/SVG/1.1/DTD/svg11.dtd">
<!-- Generated by graphviz version 2.40.1 (20161225.0304)
 -->
<!-- Title: G Pages: 1 -->
<svg width="293pt" height="389pt"
 viewBox="0.00 0.00 292.76 389.37" xmlns="http://www.w3.org/2000/svg" xmlns:xlink="http://www.w3.org/1999/xlink">
<g id="graph0" class="graph" transform="scale(1 1) rotate(0) translate(4 385.3672)">
<title>G</title>
<polygon fill="#ffffff" stroke="transparent" points="-4,4 -4,-385.3672 288.7618,-385.3672 288.7618,4 -4,4"/>
<!-- p0 -->
<g id="node1" class="node">
<title>p0</title>
<ellipse fill="none" stroke="#000000" cx="49.1554" cy="-363.3672" rx="49.3113" ry="18"/>
<text text-anchor="middle" x="49.1554" y="-359.1672" font-family="Times,serif" font-size="14.00" fill="#000000">premise #0</text>
</g>
<!-- ai0 -->
<g id="node4" class="node">
<title>ai0</title>
<polygon fill="none" stroke="#000000" points="126.3108,-295.3672 59.9999,-295.3672 59.9999,-259.3672 126.3108,-259.3672 126.3108,-295.3672"/>
<text text-anchor="middle" x="93.1554" y="-273.1672" font-family="Times,serif" font-size="14.00" fill="#000000">and intro</text>
</g>
<!-- p0&#45;&gt;ai0 -->
<g id="edge1" class="edge">
<title>p0&#45;&gt;ai0</title>
<path fill="none" stroke="#000000" d="M58.2722,-345.5479C64.3083,-333.7501 72.3421,-318.0477 79.1784,-304.6859"/>
<polygon fill="#000000" stroke="#000000" points="82.4599,-305.9562 83.8989,-295.4595 76.2282,-302.7678 82.4599,-305.9562"/>
<text text-anchor="middle" x="77.6554" y="-316.1672" font-family="Times,serif" font-size="14.00" fill="#000000">p</text>
</g>
<!-- ii0 -->
<g id="node6" class="node">
<title>ii0</title>
<polygon fill="none" stroke="#ff0000" points="220.7668,-122.6836 149.544,-122.6836 149.544,-86.6836 220.7668,-86.6836 220.7668,-122.6836"/>
<text text-anchor="middle" x="185.1554" y="-100.4836" font-family="Times,serif" font-size="14.00" fill="#ff0000">impl intro</text>
</g>
<!-- p0&#45;&gt;ii0 -->
<g id="edge5" class="edge">
<title>p0&#45;&gt;ii0</title>
<path fill="none" stroke="#ff0000" d="M46.3734,-334.7774C45.1145,-313.6377 45.0543,-284.3137 51.1554,-259.3672 61.372,-217.5927 66.6227,-205.7206 94.1554,-172.6836 108.4558,-155.5243 127.9142,-140.2384 145.1676,-128.5269"/>
<polygon fill="#ff0000" stroke="#ff0000" points="42.9018,-335.2984 47.1147,-345.0196 49.8836,-334.793 42.9018,-335.2984"/>
<polygon fill="#ff0000" stroke="#ff0000" points="147.5274,-131.1634 153.9501,-122.7373 143.6746,-125.319 147.5274,-131.1634"/>
</g>
<!-- p1 -->
<g id="node2" class="node">
<title>p1</title>
<ellipse fill="none" stroke="#000000" cx="225.1554" cy="-363.3672" rx="49.3113" ry="18"/>
<text text-anchor="middle" x="225.1554" y="-359.1672" font-family="Times,serif" font-size="14.00" fill="#000000">premise #1</text>
</g>
<!-- p1&#45;&gt;ai0 -->
<g id="edge2" class="edge">
<title>p1&#45;&gt;ai0</title>
<path fill="none" stroke="#000000" d="M200.9446,-347.5935C180.8815,-334.5221 152.0662,-315.7485 129.2759,-300.9003"/>
<polygon fill="#000000" stroke="#000000" points="131.1564,-297.9481 120.8671,-295.4218 127.3352,-303.8132 131.1564,-297.9481"/>
<text text-anchor="middle" x="170.6554" y="-316.1672" font-family="Times,serif" font-size="14.00" fill="#000000">q</text>
</g>
<!-- p1&#45;&gt;ii0 -->
<g id="edge6" class="edge">
<title>p1&#45;&gt;ii0</title>
<path fill="none" stroke="#ff0000" d="M238.1337,-336.2542C243.2826,-324.0556 248.5838,-309.2934 251.1554,-295.3672 254.0608,-279.6332 254.2678,-275.0616 251.1554,-259.3672 241.828,-212.3337 217.3066,-161.9874 200.9238,-131.9346"/>
<polygon fill="#ff0000" stroke="#ff0000" points="234.9232,-334.8605 234.0922,-345.4227 241.3285,-337.684 234.9232,-334.8605"/>
<polygon fill="#ff0000" stroke="#ff0000" points="203.8337,-129.965 195.9203,-122.9202 197.7133,-133.3622 203.8337,-129.965"/>
</g>
<!-- p2 -->
<g id="node3" class="node">
<title>p2</title>
<ellipse fill="none" stroke="#000000" cx="193.1554" cy="-277.3672" rx="49.3113" ry="18"/>
<text text-anchor="middle" x="193.1554" y="-273.1672" font-family="Times,serif" font-size="14.00" fill="#000000">premise #2</text>
</g>
<!-- ie0 -->
<g id="node5" class="node">
<title>ie0</title>
<polygon fill="none" stroke="#000000" points="173.2072,-208.6836 103.1036,-208.6836 103.1036,-172.6836 173.2072,-172.6836 173.2072,-208.6836"/>
<text text-anchor="middle" x="138.1554" y="-186.4836" font-family="Times,serif" font-size="14.00" fill="#000000">impl elim</text>
</g>
<!-- p2&#45;&gt;ie0 -->
<g id="edge4" class="edge">
<title>p2&#45;&gt;ie0</title>
<path fill="none" stroke="#000000" d="M161.536,-263.3308C152.7623,-257.8056 144.2697,-250.545 139.2355,-241.3672 135.5689,-234.6827 134.26,-226.7187 134.1331,-219.1065"/>
<polygon fill="#000000" stroke="#000000" points="137.6303,-219.2443 134.5822,-209.0975 130.6374,-218.9305 137.6303,-219.2443"/>
<text text-anchor="middle" x="164.1153" y="-230.1672" font-family="Times,serif" font-size="14.00" fill="#000000">p∧q ⇒ r</text>
</g>
<!-- p2&#45;&gt;ii0 -->
<g id="edge7" class="edge">
<title>p2&#45;&gt;ii0</title>
<path fill="none" stroke="#ff0000" d="M191.84,-248.9747C190.3528,-216.8725 187.946,-164.9195 186.4623,-132.893"/>
<polygon fill="#ff0000" stroke="#ff0000" points="188.3552,-249.3861 192.3144,-259.2134 195.3477,-249.0621 188.3552,-249.3861"/>
<polygon fill="#ff0000" stroke="#ff0000" points="189.9563,-132.6805 185.9971,-122.8533 182.9638,-133.0046 189.9563,-132.6805"/>
</g>
<!-- ai0&#45;&gt;ie0 -->
<g id="edge3" class="edge">
<title>ai0&#45;&gt;ie0</title>
<path fill="none" stroke="#000000" d="M89.706,-259.1534C88.6749,-249.0991 88.8854,-236.6652 93.713,-226.6836 95.5612,-222.8622 98.0315,-219.3132 100.8645,-216.0522"/>
<polygon fill="#000000" stroke="#000000" points="103.3698,-218.4971 108.0113,-208.973 98.4436,-213.5238 103.3698,-218.4971"/>
<text text-anchor="middle" x="105.3766" y="-230.1672" font-family="Times,serif" font-size="14.00" fill="#000000">p∧q</text>
</g>
<!-- ie0&#45;&gt;ii0 -->
<g id="edge8" class="edge">
<title>ie0&#45;&gt;ii0</title>
<path fill="none" stroke="#000000" d="M148.1229,-172.4452C154.5411,-160.7012 163.0023,-145.2191 170.2166,-132.0185"/>
<polygon fill="#000000" stroke="#000000" points="173.4778,-133.3493 175.2023,-122.8957 167.3353,-129.9923 173.4778,-133.3493"/>
<text text-anchor="middle" x="167.4864" y="-143.4836" font-family="Times,serif" font-size="14.00" fill="#000000">r</text>
</g>
<!-- result -->
<g id="node7" class="node">
<title>result</title>
<ellipse fill="none" stroke="#000000" cx="185.1554" cy="-18" rx="29.5104" ry="18"/>
<text text-anchor="middle" x="185.1554" y="-13.8" font-family="Times,serif" font-size="14.00" fill="#000000">result</text>
</g>
<!-- ii0&#45;&gt;result -->
<g id="edge9" class="edge">
<title>ii0&#45;&gt;result</title>
<path fill="none" stroke="#000000" d="M185.1554,-86.3002C185.1554,-74.6143 185.1554,-59.2563 185.1554,-46.0639"/>
<polygon fill="#000000" stroke="#000000" points="188.6555,-46.0596 185.1554,-36.0596 181.6555,-46.0597 188.6555,-46.0596"/>
<text text-anchor="middle" x="234.9586" y="-57.4836" font-family="Times,serif" font-size="14.00" fill="#000000">p∧q∧(p∧q⇒r)⇒r</text>
</g>
</g>
</svg>
