<?xml version="1.0" encoding="utf-8" standalone="no"?>
<!DOCTYPE svg PUBLIC "-//W3C//DTD SVG 1.1//EN"
  "http://www.w3.org/Graphics/SVG/1.1/DTD/svg11.dtd">
<svg xmlns:xlink="http://www.w3.org/1999/xlink" width="857.582812pt" height="347.34025pt" viewBox="0 0 857.582812 347.34025" xmlns="http://www.w3.org/2000/svg" version="1.1">
 <metadata>
  <rdf:RDF xmlns:dc="http://purl.org/dc/elements/1.1/" xmlns:cc="http://creativecommons.org/ns#" xmlns:rdf="http://www.w3.org/1999/02/22-rdf-syntax-ns#">
   <cc:Work>
    <dc:type rdf:resource="http://purl.org/dc/dcmitype/StillImage"/>
    <dc:date>2023-03-21T16:36:09.479954</dc:date>
    <dc:format>image/svg+xml</dc:format>
    <dc:creator>
     <cc:Agent>
      <dc:title>Matplotlib v3.5.1, https://matplotlib.org/</dc:title>
     </cc:Agent>
    </dc:creator>
   </cc:Work>
  </rdf:RDF>
 </metadata>
 <defs>
  <style type="text/css">*{stroke-linejoin: round; stroke-linecap: butt}</style>
 </defs>
 <g id="figure_1">
  <g id="patch_1">
   <path d="M 0 347.34025 
L 857.582812 347.34025 
L 857.582812 0 
L 0 0 
z
" style="fill: #ffffff"/>
  </g>
  <g id="axes_1">
   <g id="patch_2">
    <path d="M 48.982812 309.784 
L 763.222813 309.784 
L 763.222813 43.672 
L 48.982812 43.672 
z
" style="fill: #ffffff"/>
   </g>
   <g id="matplotlib.axis_1">
    <g id="xtick_1">
     <g id="line2d_1">
      <path d="M 81.448267 309.784 
L 81.448267 43.672 
" clip-path="url(#p07e474aa9a)" style="fill: none; stroke: #b0b0b0; stroke-width: 0.8; stroke-linecap: square"/>
     </g>
     <g id="line2d_2">
      <defs>
       <path id="m18c538f76e" d="M 0 0 
L 0 3.5 
" style="stroke: #000000; stroke-width: 0.8"/>
      </defs>
      <g>
       <use xlink:href="#m18c538f76e" x="81.448267" y="309.784" style="stroke: #000000; stroke-width: 0.8"/>
      </g>
     </g>
     <g id="text_1">
      <!-- 0 -->
      <g transform="translate(78.267017 324.382437)scale(0.1 -0.1)">
       <defs>
        <path id="DejaVuSans-30" d="M 2034 4250 
Q 1547 4250 1301 3770 
Q 1056 3291 1056 2328 
Q 1056 1369 1301 889 
Q 1547 409 2034 409 
Q 2525 409 2770 889 
Q 3016 1369 3016 2328 
Q 3016 3291 2770 3770 
Q 2525 4250 2034 4250 
z
M 2034 4750 
Q 2819 4750 3233 4129 
Q 3647 3509 3647 2328 
Q 3647 1150 3233 529 
Q 2819 -91 2034 -91 
Q 1250 -91 836 529 
Q 422 1150 422 2328 
Q 422 3509 836 4129 
Q 1250 4750 2034 4750 
z
" transform="scale(0.015625)"/>
       </defs>
       <use xlink:href="#DejaVuSans-30"/>
      </g>
     </g>
    </g>
    <g id="xtick_2">
     <g id="line2d_3">
      <path d="M 179.059375 309.784 
L 179.059375 43.672 
" clip-path="url(#p07e474aa9a)" style="fill: none; stroke: #b0b0b0; stroke-width: 0.8; stroke-linecap: square"/>
     </g>
     <g id="line2d_4">
      <g>
       <use xlink:href="#m18c538f76e" x="179.059375" y="309.784" style="stroke: #000000; stroke-width: 0.8"/>
      </g>
     </g>
     <g id="text_2">
      <!-- 500 -->
      <g transform="translate(169.515625 324.382437)scale(0.1 -0.1)">
       <defs>
        <path id="DejaVuSans-35" d="M 691 4666 
L 3169 4666 
L 3169 4134 
L 1269 4134 
L 1269 2991 
Q 1406 3038 1543 3061 
Q 1681 3084 1819 3084 
Q 2600 3084 3056 2656 
Q 3513 2228 3513 1497 
Q 3513 744 3044 326 
Q 2575 -91 1722 -91 
Q 1428 -91 1123 -41 
Q 819 9 494 109 
L 494 744 
Q 775 591 1075 516 
Q 1375 441 1709 441 
Q 2250 441 2565 725 
Q 2881 1009 2881 1497 
Q 2881 1984 2565 2268 
Q 2250 2553 1709 2553 
Q 1456 2553 1204 2497 
Q 953 2441 691 2322 
L 691 4666 
z
" transform="scale(0.015625)"/>
       </defs>
       <use xlink:href="#DejaVuSans-35"/>
       <use xlink:href="#DejaVuSans-30" x="63.623047"/>
       <use xlink:href="#DejaVuSans-30" x="127.246094"/>
      </g>
     </g>
    </g>
    <g id="xtick_3">
     <g id="line2d_5">
      <path d="M 276.670483 309.784 
L 276.670483 43.672 
" clip-path="url(#p07e474aa9a)" style="fill: none; stroke: #b0b0b0; stroke-width: 0.8; stroke-linecap: square"/>
     </g>
     <g id="line2d_6">
      <g>
       <use xlink:href="#m18c538f76e" x="276.670483" y="309.784" style="stroke: #000000; stroke-width: 0.8"/>
      </g>
     </g>
     <g id="text_3">
      <!-- 1000 -->
      <g transform="translate(263.945483 324.382437)scale(0.1 -0.1)">
       <defs>
        <path id="DejaVuSans-31" d="M 794 531 
L 1825 531 
L 1825 4091 
L 703 3866 
L 703 4441 
L 1819 4666 
L 2450 4666 
L 2450 531 
L 3481 531 
L 3481 0 
L 794 0 
L 794 531 
z
" transform="scale(0.015625)"/>
       </defs>
       <use xlink:href="#DejaVuSans-31"/>
       <use xlink:href="#DejaVuSans-30" x="63.623047"/>
       <use xlink:href="#DejaVuSans-30" x="127.246094"/>
       <use xlink:href="#DejaVuSans-30" x="190.869141"/>
      </g>
     </g>
    </g>
    <g id="xtick_4">
     <g id="line2d_7">
      <path d="M 374.281591 309.784 
L 374.281591 43.672 
" clip-path="url(#p07e474aa9a)" style="fill: none; stroke: #b0b0b0; stroke-width: 0.8; stroke-linecap: square"/>
     </g>
     <g id="line2d_8">
      <g>
       <use xlink:href="#m18c538f76e" x="374.281591" y="309.784" style="stroke: #000000; stroke-width: 0.8"/>
      </g>
     </g>
     <g id="text_4">
      <!-- 1500 -->
      <g transform="translate(361.556591 324.382437)scale(0.1 -0.1)">
       <use xlink:href="#DejaVuSans-31"/>
       <use xlink:href="#DejaVuSans-35" x="63.623047"/>
       <use xlink:href="#DejaVuSans-30" x="127.246094"/>
       <use xlink:href="#DejaVuSans-30" x="190.869141"/>
      </g>
     </g>
    </g>
    <g id="xtick_5">
     <g id="line2d_9">
      <path d="M 471.892699 309.784 
L 471.892699 43.672 
" clip-path="url(#p07e474aa9a)" style="fill: none; stroke: #b0b0b0; stroke-width: 0.8; stroke-linecap: square"/>
     </g>
     <g id="line2d_10">
      <g>
       <use xlink:href="#m18c538f76e" x="471.892699" y="309.784" style="stroke: #000000; stroke-width: 0.8"/>
      </g>
     </g>
     <g id="text_5">
      <!-- 2000 -->
      <g transform="translate(459.167699 324.382437)scale(0.1 -0.1)">
       <defs>
        <path id="DejaVuSans-32" d="M 1228 531 
L 3431 531 
L 3431 0 
L 469 0 
L 469 531 
Q 828 903 1448 1529 
Q 2069 2156 2228 2338 
Q 2531 2678 2651 2914 
Q 2772 3150 2772 3378 
Q 2772 3750 2511 3984 
Q 2250 4219 1831 4219 
Q 1534 4219 1204 4116 
Q 875 4013 500 3803 
L 500 4441 
Q 881 4594 1212 4672 
Q 1544 4750 1819 4750 
Q 2544 4750 2975 4387 
Q 3406 4025 3406 3419 
Q 3406 3131 3298 2873 
Q 3191 2616 2906 2266 
Q 2828 2175 2409 1742 
Q 1991 1309 1228 531 
z
" transform="scale(0.015625)"/>
       </defs>
       <use xlink:href="#DejaVuSans-32"/>
       <use xlink:href="#DejaVuSans-30" x="63.623047"/>
       <use xlink:href="#DejaVuSans-30" x="127.246094"/>
       <use xlink:href="#DejaVuSans-30" x="190.869141"/>
      </g>
     </g>
    </g>
    <g id="xtick_6">
     <g id="line2d_11">
      <path d="M 569.503807 309.784 
L 569.503807 43.672 
" clip-path="url(#p07e474aa9a)" style="fill: none; stroke: #b0b0b0; stroke-width: 0.8; stroke-linecap: square"/>
     </g>
     <g id="line2d_12">
      <g>
       <use xlink:href="#m18c538f76e" x="569.503807" y="309.784" style="stroke: #000000; stroke-width: 0.8"/>
      </g>
     </g>
     <g id="text_6">
      <!-- 2500 -->
      <g transform="translate(556.778807 324.382437)scale(0.1 -0.1)">
       <use xlink:href="#DejaVuSans-32"/>
       <use xlink:href="#DejaVuSans-35" x="63.623047"/>
       <use xlink:href="#DejaVuSans-30" x="127.246094"/>
       <use xlink:href="#DejaVuSans-30" x="190.869141"/>
      </g>
     </g>
    </g>
    <g id="xtick_7">
     <g id="line2d_13">
      <path d="M 667.114915 309.784 
L 667.114915 43.672 
" clip-path="url(#p07e474aa9a)" style="fill: none; stroke: #b0b0b0; stroke-width: 0.8; stroke-linecap: square"/>
     </g>
     <g id="line2d_14">
      <g>
       <use xlink:href="#m18c538f76e" x="667.114915" y="309.784" style="stroke: #000000; stroke-width: 0.8"/>
      </g>
     </g>
     <g id="text_7">
      <!-- 3000 -->
      <g transform="translate(654.389915 324.382437)scale(0.1 -0.1)">
       <defs>
        <path id="DejaVuSans-33" d="M 2597 2516 
Q 3050 2419 3304 2112 
Q 3559 1806 3559 1356 
Q 3559 666 3084 287 
Q 2609 -91 1734 -91 
Q 1441 -91 1130 -33 
Q 819 25 488 141 
L 488 750 
Q 750 597 1062 519 
Q 1375 441 1716 441 
Q 2309 441 2620 675 
Q 2931 909 2931 1356 
Q 2931 1769 2642 2001 
Q 2353 2234 1838 2234 
L 1294 2234 
L 1294 2753 
L 1863 2753 
Q 2328 2753 2575 2939 
Q 2822 3125 2822 3475 
Q 2822 3834 2567 4026 
Q 2313 4219 1838 4219 
Q 1578 4219 1281 4162 
Q 984 4106 628 3988 
L 628 4550 
Q 988 4650 1302 4700 
Q 1616 4750 1894 4750 
Q 2613 4750 3031 4423 
Q 3450 4097 3450 3541 
Q 3450 3153 3228 2886 
Q 3006 2619 2597 2516 
z
" transform="scale(0.015625)"/>
       </defs>
       <use xlink:href="#DejaVuSans-33"/>
       <use xlink:href="#DejaVuSans-30" x="63.623047"/>
       <use xlink:href="#DejaVuSans-30" x="127.246094"/>
       <use xlink:href="#DejaVuSans-30" x="190.869141"/>
      </g>
     </g>
    </g>
    <g id="text_8">
     <!-- step  -->
     <g transform="translate(393.698125 338.060562)scale(0.1 -0.1)">
      <defs>
       <path id="DejaVuSans-73" d="M 2834 3397 
L 2834 2853 
Q 2591 2978 2328 3040 
Q 2066 3103 1784 3103 
Q 1356 3103 1142 2972 
Q 928 2841 928 2578 
Q 928 2378 1081 2264 
Q 1234 2150 1697 2047 
L 1894 2003 
Q 2506 1872 2764 1633 
Q 3022 1394 3022 966 
Q 3022 478 2636 193 
Q 2250 -91 1575 -91 
Q 1294 -91 989 -36 
Q 684 19 347 128 
L 347 722 
Q 666 556 975 473 
Q 1284 391 1588 391 
Q 1994 391 2212 530 
Q 2431 669 2431 922 
Q 2431 1156 2273 1281 
Q 2116 1406 1581 1522 
L 1381 1569 
Q 847 1681 609 1914 
Q 372 2147 372 2553 
Q 372 3047 722 3315 
Q 1072 3584 1716 3584 
Q 2034 3584 2315 3537 
Q 2597 3491 2834 3397 
z
" transform="scale(0.015625)"/>
       <path id="DejaVuSans-74" d="M 1172 4494 
L 1172 3500 
L 2356 3500 
L 2356 3053 
L 1172 3053 
L 1172 1153 
Q 1172 725 1289 603 
Q 1406 481 1766 481 
L 2356 481 
L 2356 0 
L 1766 0 
Q 1100 0 847 248 
Q 594 497 594 1153 
L 594 3053 
L 172 3053 
L 172 3500 
L 594 3500 
L 594 4494 
L 1172 4494 
z
" transform="scale(0.015625)"/>
       <path id="DejaVuSans-65" d="M 3597 1894 
L 3597 1613 
L 953 1613 
Q 991 1019 1311 708 
Q 1631 397 2203 397 
Q 2534 397 2845 478 
Q 3156 559 3463 722 
L 3463 178 
Q 3153 47 2828 -22 
Q 2503 -91 2169 -91 
Q 1331 -91 842 396 
Q 353 884 353 1716 
Q 353 2575 817 3079 
Q 1281 3584 2069 3584 
Q 2775 3584 3186 3129 
Q 3597 2675 3597 1894 
z
M 3022 2063 
Q 3016 2534 2758 2815 
Q 2500 3097 2075 3097 
Q 1594 3097 1305 2825 
Q 1016 2553 972 2059 
L 3022 2063 
z
" transform="scale(0.015625)"/>
       <path id="DejaVuSans-70" d="M 1159 525 
L 1159 -1331 
L 581 -1331 
L 581 3500 
L 1159 3500 
L 1159 2969 
Q 1341 3281 1617 3432 
Q 1894 3584 2278 3584 
Q 2916 3584 3314 3078 
Q 3713 2572 3713 1747 
Q 3713 922 3314 415 
Q 2916 -91 2278 -91 
Q 1894 -91 1617 61 
Q 1341 213 1159 525 
z
M 3116 1747 
Q 3116 2381 2855 2742 
Q 2594 3103 2138 3103 
Q 1681 3103 1420 2742 
Q 1159 2381 1159 1747 
Q 1159 1113 1420 752 
Q 1681 391 2138 391 
Q 2594 391 2855 752 
Q 3116 1113 3116 1747 
z
" transform="scale(0.015625)"/>
       <path id="DejaVuSans-20" transform="scale(0.015625)"/>
      </defs>
      <use xlink:href="#DejaVuSans-73"/>
      <use xlink:href="#DejaVuSans-74" x="52.099609"/>
      <use xlink:href="#DejaVuSans-65" x="91.308594"/>
      <use xlink:href="#DejaVuSans-70" x="152.832031"/>
      <use xlink:href="#DejaVuSans-20" x="216.308594"/>
     </g>
    </g>
   </g>
   <g id="matplotlib.axis_2">
    <g id="ytick_1">
     <g id="line2d_15">
      <path d="M 48.982812 297.688 
L 763.222813 297.688 
" clip-path="url(#p07e474aa9a)" style="fill: none; stroke: #b0b0b0; stroke-width: 0.8; stroke-linecap: square"/>
     </g>
     <g id="line2d_16">
      <defs>
       <path id="m3ddfe339ff" d="M 0 0 
L -3.5 0 
" style="stroke: #000000; stroke-width: 0.8"/>
      </defs>
      <g>
       <use xlink:href="#m3ddfe339ff" x="48.982812" y="297.688" style="stroke: #000000; stroke-width: 0.8"/>
      </g>
     </g>
     <g id="text_9">
      <!-- −10 -->
      <g transform="translate(20.878125 301.487219)scale(0.1 -0.1)">
       <defs>
        <path id="DejaVuSans-2212" d="M 678 2272 
L 4684 2272 
L 4684 1741 
L 678 1741 
L 678 2272 
z
" transform="scale(0.015625)"/>
       </defs>
       <use xlink:href="#DejaVuSans-2212"/>
       <use xlink:href="#DejaVuSans-31" x="83.789062"/>
       <use xlink:href="#DejaVuSans-30" x="147.412109"/>
      </g>
     </g>
    </g>
    <g id="ytick_2">
     <g id="line2d_17">
      <path d="M 48.982812 244.54213 
L 763.222813 244.54213 
" clip-path="url(#p07e474aa9a)" style="fill: none; stroke: #b0b0b0; stroke-width: 0.8; stroke-linecap: square"/>
     </g>
     <g id="line2d_18">
      <g>
       <use xlink:href="#m3ddfe339ff" x="48.982812" y="244.54213" style="stroke: #000000; stroke-width: 0.8"/>
      </g>
     </g>
     <g id="text_10">
      <!-- −5 -->
      <g transform="translate(27.240625 248.341349)scale(0.1 -0.1)">
       <use xlink:href="#DejaVuSans-2212"/>
       <use xlink:href="#DejaVuSans-35" x="83.789062"/>
      </g>
     </g>
    </g>
    <g id="ytick_3">
     <g id="line2d_19">
      <path d="M 48.982812 191.39626 
L 763.222813 191.39626 
" clip-path="url(#p07e474aa9a)" style="fill: none; stroke: #b0b0b0; stroke-width: 0.8; stroke-linecap: square"/>
     </g>
     <g id="line2d_20">
      <g>
       <use xlink:href="#m3ddfe339ff" x="48.982812" y="191.39626" style="stroke: #000000; stroke-width: 0.8"/>
      </g>
     </g>
     <g id="text_11">
      <!-- 0 -->
      <g transform="translate(35.620312 195.195479)scale(0.1 -0.1)">
       <use xlink:href="#DejaVuSans-30"/>
      </g>
     </g>
    </g>
    <g id="ytick_4">
     <g id="line2d_21">
      <path d="M 48.982812 138.25039 
L 763.222813 138.25039 
" clip-path="url(#p07e474aa9a)" style="fill: none; stroke: #b0b0b0; stroke-width: 0.8; stroke-linecap: square"/>
     </g>
     <g id="line2d_22">
      <g>
       <use xlink:href="#m3ddfe339ff" x="48.982812" y="138.25039" style="stroke: #000000; stroke-width: 0.8"/>
      </g>
     </g>
     <g id="text_12">
      <!-- 5 -->
      <g transform="translate(35.620312 142.049609)scale(0.1 -0.1)">
       <use xlink:href="#DejaVuSans-35"/>
      </g>
     </g>
    </g>
    <g id="ytick_5">
     <g id="line2d_23">
      <path d="M 48.982812 85.10452 
L 763.222813 85.10452 
" clip-path="url(#p07e474aa9a)" style="fill: none; stroke: #b0b0b0; stroke-width: 0.8; stroke-linecap: square"/>
     </g>
     <g id="line2d_24">
      <g>
       <use xlink:href="#m3ddfe339ff" x="48.982812" y="85.10452" style="stroke: #000000; stroke-width: 0.8"/>
      </g>
     </g>
     <g id="text_13">
      <!-- 10 -->
      <g transform="translate(29.257812 88.903739)scale(0.1 -0.1)">
       <use xlink:href="#DejaVuSans-31"/>
       <use xlink:href="#DejaVuSans-30" x="63.623047"/>
      </g>
     </g>
    </g>
    <g id="text_14">
     <!-- Q-value  -->
     <g transform="translate(14.798437 197.720969)rotate(-90)scale(0.1 -0.1)">
      <defs>
       <path id="DejaVuSans-51" d="M 2522 4238 
Q 1834 4238 1429 3725 
Q 1025 3213 1025 2328 
Q 1025 1447 1429 934 
Q 1834 422 2522 422 
Q 3209 422 3611 934 
Q 4013 1447 4013 2328 
Q 4013 3213 3611 3725 
Q 3209 4238 2522 4238 
z
M 3406 84 
L 4238 -825 
L 3475 -825 
L 2784 -78 
Q 2681 -84 2626 -87 
Q 2572 -91 2522 -91 
Q 1538 -91 948 567 
Q 359 1225 359 2328 
Q 359 3434 948 4092 
Q 1538 4750 2522 4750 
Q 3503 4750 4090 4092 
Q 4678 3434 4678 2328 
Q 4678 1516 4351 937 
Q 4025 359 3406 84 
z
" transform="scale(0.015625)"/>
       <path id="DejaVuSans-2d" d="M 313 2009 
L 1997 2009 
L 1997 1497 
L 313 1497 
L 313 2009 
z
" transform="scale(0.015625)"/>
       <path id="DejaVuSans-76" d="M 191 3500 
L 800 3500 
L 1894 563 
L 2988 3500 
L 3597 3500 
L 2284 0 
L 1503 0 
L 191 3500 
z
" transform="scale(0.015625)"/>
       <path id="DejaVuSans-61" d="M 2194 1759 
Q 1497 1759 1228 1600 
Q 959 1441 959 1056 
Q 959 750 1161 570 
Q 1363 391 1709 391 
Q 2188 391 2477 730 
Q 2766 1069 2766 1631 
L 2766 1759 
L 2194 1759 
z
M 3341 1997 
L 3341 0 
L 2766 0 
L 2766 531 
Q 2569 213 2275 61 
Q 1981 -91 1556 -91 
Q 1019 -91 701 211 
Q 384 513 384 1019 
Q 384 1609 779 1909 
Q 1175 2209 1959 2209 
L 2766 2209 
L 2766 2266 
Q 2766 2663 2505 2880 
Q 2244 3097 1772 3097 
Q 1472 3097 1187 3025 
Q 903 2953 641 2809 
L 641 3341 
Q 956 3463 1253 3523 
Q 1550 3584 1831 3584 
Q 2591 3584 2966 3190 
Q 3341 2797 3341 1997 
z
" transform="scale(0.015625)"/>
       <path id="DejaVuSans-6c" d="M 603 4863 
L 1178 4863 
L 1178 0 
L 603 0 
L 603 4863 
z
" transform="scale(0.015625)"/>
       <path id="DejaVuSans-75" d="M 544 1381 
L 544 3500 
L 1119 3500 
L 1119 1403 
Q 1119 906 1312 657 
Q 1506 409 1894 409 
Q 2359 409 2629 706 
Q 2900 1003 2900 1516 
L 2900 3500 
L 3475 3500 
L 3475 0 
L 2900 0 
L 2900 538 
Q 2691 219 2414 64 
Q 2138 -91 1772 -91 
Q 1169 -91 856 284 
Q 544 659 544 1381 
z
M 1991 3584 
L 1991 3584 
z
" transform="scale(0.015625)"/>
      </defs>
      <use xlink:href="#DejaVuSans-51"/>
      <use xlink:href="#DejaVuSans-2d" x="81.460938"/>
      <use xlink:href="#DejaVuSans-76" x="114.919922"/>
      <use xlink:href="#DejaVuSans-61" x="174.099609"/>
      <use xlink:href="#DejaVuSans-6c" x="235.378906"/>
      <use xlink:href="#DejaVuSans-75" x="263.162109"/>
      <use xlink:href="#DejaVuSans-65" x="326.541016"/>
      <use xlink:href="#DejaVuSans-20" x="388.064453"/>
     </g>
    </g>
   </g>
   <g id="line2d_25">
    <path d="M 81.448267 191.39626 
L 81.643489 198.836682 
L 81.838711 198.836682 
L 82.033934 149.517315 
L 82.229156 149.517315 
L 82.424378 134.742763 
L 82.6196 134.742763 
L 82.814823 130.27851 
L 84.571823 130.27851 
L 84.767045 128.896717 
L 84.962267 128.896717 
L 85.157489 128.577842 
L 85.352711 128.577842 
L 85.547934 128.365258 
L 95.113822 128.365258 
L 95.309044 112.846664 
L 96.285155 112.846664 
L 96.480378 103.599283 
L 96.6756 103.599283 
L 96.870822 100.835698 
L 97.066044 100.835698 
L 97.261267 98.603571 
L 98.237378 98.603571 
L 98.4326 97.965821 
L 98.627822 97.965821 
L 98.823044 97.753237 
L 106.827155 97.646946 
L 107.022377 97.221779 
L 110.731599 97.115487 
L 110.926822 96.902903 
L 730.757358 96.796612 
L 730.757358 96.796612 
" clip-path="url(#p07e474aa9a)" style="fill: none; stroke: #1f77b4; stroke-width: 1.5; stroke-linecap: square"/>
   </g>
   <g id="line2d_26">
    <path d="M 81.448267 191.39626 
L 83.010045 191.39626 
L 83.205267 198.836682 
L 84.181378 198.836682 
L 84.3766 176.834292 
L 85.743156 176.834292 
L 85.938378 163.016366 
L 89.257156 163.016366 
L 89.452378 158.870988 
L 89.6476 158.870988 
L 89.842822 157.595487 
L 90.038045 157.595487 
L 90.233267 157.276612 
L 91.599822 157.17032 
L 91.795045 153.981568 
L 93.1616 153.981568 
L 93.356822 153.131234 
L 94.723378 153.131234 
L 94.9186 152.812359 
L 95.894711 152.706067 
L 96.089933 144.309019 
L 97.456489 144.309019 
L 97.651711 139.313308 
L 99.799155 139.313308 
L 99.994378 137.825223 
L 100.1896 137.825223 
L 100.384822 137.293764 
L 101.751378 137.187473 
L 101.9466 129.109301 
L 102.141822 129.109301 
L 102.337044 126.664591 
L 102.532266 126.664591 
L 102.727489 123.475838 
L 105.655822 123.475838 
L 105.851044 122.519213 
L 107.2176 122.519213 
L 107.412822 122.306629 
L 107.608044 122.306629 
L 107.803266 121.243712 
L 111.902933 121.243712 
L 112.098155 120.924837 
L 114.245599 120.818545 
L 114.440822 120.393378 
L 115.026488 120.393378 
L 115.22171 120.180794 
L 116.197822 120.074503 
L 116.588266 119.968211 
L 125.958932 119.861919 
L 126.154155 117.842376 
L 127.130266 117.842376 
L 127.325488 117.204626 
L 129.082488 117.098334 
L 129.27771 113.696998 
L 130.644266 113.696998 
L 130.839488 112.634081 
L 131.03471 112.634081 
L 131.229932 112.315206 
L 133.767821 112.315206 
L 133.963043 117.523501 
L 134.158265 117.523501 
L 134.353488 119.117877 
L 135.329599 119.117877 
L 135.524821 119.649336 
L 136.500932 119.755627 
L 136.891376 119.861919 
L 143.528932 119.861919 
L 143.724154 114.122165 
L 144.700265 114.122165 
L 144.895487 112.421497 
L 145.871598 112.421497 
L 146.066821 111.890039 
L 146.262043 111.890039 
L 146.457265 111.677455 
L 148.214265 111.677455 
L 148.409487 107.532077 
L 148.995154 107.532077 
L 149.190376 106.362868 
L 149.385598 106.362868 
L 149.58082 105.937701 
L 151.33782 105.937701 
L 151.533043 104.6622 
L 153.290043 104.6622 
L 153.485265 115.291374 
L 156.023154 115.291374 
L 156.218376 118.480127 
L 156.413598 118.480127 
L 156.60882 119.436752 
L 156.804042 119.436752 
L 156.999265 119.755627 
L 166.565153 119.861919 
L 166.760376 119.117877 
L 168.126931 119.117877 
L 168.322153 119.649336 
L 169.688709 119.755627 
L 170.079153 119.861919 
L 171.250486 119.861919 
L 171.445709 116.779459 
L 173.202709 116.779459 
L 173.397931 111.890039 
L 173.593153 111.890039 
L 173.788375 110.508246 
L 174.374042 110.508246 
L 174.569264 108.807578 
L 174.764486 108.807578 
L 174.959709 108.382411 
L 181.011597 108.382411 
L 181.206819 116.354292 
L 181.402042 116.354292 
L 181.597264 118.799002 
L 182.573375 118.799002 
L 182.768597 119.543044 
L 182.963819 119.543044 
L 183.159042 119.755627 
L 184.135153 119.755627 
L 184.330375 116.141708 
L 184.525597 116.141708 
L 184.720819 115.078791 
L 186.477819 115.078791 
L 186.673042 110.933413 
L 187.649153 110.933413 
L 187.844375 117.098334 
L 188.039597 117.098334 
L 188.234819 119.011585 
L 189.601375 119.011585 
L 189.796597 119.543044 
L 191.944041 119.543044 
L 192.139264 119.755627 
L 192.72493 119.755627 
L 192.920152 117.523501 
L 193.896264 117.523501 
L 194.091486 116.88575 
L 195.067597 116.88575 
L 195.262819 116.673167 
L 196.23893 116.673167 
L 196.434152 112.952956 
L 197.800708 112.952956 
L 197.99593 117.736084 
L 198.972041 117.736084 
L 199.167263 119.224169 
L 199.362486 119.224169 
L 199.557708 119.649336 
L 200.924263 119.755627 
L 201.314708 119.861919 
L 204.438263 119.861919 
L 204.633485 119.33046 
L 207.171374 119.33046 
L 207.366596 114.972499 
L 209.904485 114.972499 
L 210.099707 110.295663 
L 210.29493 110.295663 
L 210.490152 108.807578 
L 212.247152 108.807578 
L 212.442374 107.425786 
L 213.418485 107.425786 
L 213.613707 116.141708 
L 214.589818 116.141708 
L 214.785041 118.69271 
L 217.322929 118.69271 
L 217.518152 119.543044 
L 218.494263 119.543044 
L 218.689485 114.44104 
L 222.008263 114.44104 
L 222.203485 118.161251 
L 222.398707 118.161251 
L 222.593929 119.33046 
L 222.789152 119.33046 
L 222.984374 119.649336 
L 227.474485 119.755627 
L 227.669707 116.992042 
L 230.59804 116.992042 
L 230.793262 112.208914 
L 232.550262 112.208914 
L 232.745485 107.319494 
L 233.331151 107.319494 
L 233.526373 104.874784 
L 235.283373 104.874784 
L 235.478596 115.397666 
L 235.673818 115.397666 
L 235.86904 118.480127 
L 236.454707 118.480127 
L 236.649929 108.91387 
L 236.845151 108.91387 
L 237.040373 106.043993 
L 237.235596 106.043993 
L 237.430818 105.193659 
L 239.187818 105.193659 
L 239.38304 104.874784 
L 240.749595 104.874784 
L 240.944818 100.835698 
L 241.530484 100.835698 
L 241.725707 99.560197 
L 242.311373 99.560197 
L 242.506595 99.13503 
L 249.729817 99.028738 
L 249.92504 95.733694 
L 250.120262 95.733694 
L 250.315484 94.777069 
L 250.901151 94.777069 
L 251.096373 91.269441 
L 251.68204 91.269441 
L 251.877262 89.249898 
L 252.072484 89.249898 
L 252.267706 88.612148 
L 253.634262 88.612148 
L 253.829484 85.423395 
L 254.805595 85.423395 
L 255.000817 83.616436 
L 255.586484 83.616436 
L 255.781706 83.084977 
L 256.367373 83.084977 
L 256.562595 82.872394 
L 259.490928 82.872394 
L 259.68615 79.896225 
L 260.271817 79.896225 
L 260.467039 75.963431 
L 261.44315 75.963431 
L 261.638373 73.943888 
L 261.833595 73.943888 
L 262.028817 73.306137 
L 262.224039 73.306137 
L 262.419261 73.093554 
L 264.176261 73.093554 
L 264.371484 70.223677 
L 266.518928 70.223677 
L 266.71415 81.065434 
L 267.299817 81.065434 
L 267.495039 84.360478 
L 267.690261 84.360478 
L 267.885483 85.423395 
L 268.080706 85.423395 
L 268.275928 85.635979 
L 270.423372 85.742271 
L 270.618594 79.471058 
L 271.204261 79.471058 
L 271.399483 74.156471 
L 271.98515 74.156471 
L 272.180372 84.998228 
L 273.937372 84.998228 
L 274.132594 88.293272 
L 274.327817 88.293272 
L 274.523039 89.249898 
L 274.718261 89.249898 
L 274.913483 89.568773 
L 275.889594 89.568773 
L 276.084817 83.191269 
L 279.01315 83.191269 
L 279.208372 79.364766 
L 280.184483 79.364766 
L 280.379705 77.664098 
L 280.574928 77.664098 
L 280.77015 77.13264 
L 282.136705 77.026348 
L 282.52715 76.920056 
L 285.260261 76.920056 
L 285.455483 86.592605 
L 286.822038 86.592605 
L 287.017261 82.978685 
L 288.383816 82.978685 
L 288.579038 92.544942 
L 289.945594 92.544942 
L 290.140816 100.941989 
L 290.726483 100.941989 
L 290.921705 103.492991 
L 291.897816 103.492991 
L 292.093038 92.43865 
L 293.459594 92.43865 
L 293.654816 106.362868 
L 295.411816 106.362868 
L 295.607038 110.614538 
L 296.192705 110.614538 
L 296.387927 111.890039 
L 298.144927 111.890039 
L 298.340149 105.406243 
L 298.925816 105.406243 
L 299.121038 101.367156 
L 300.097149 101.367156 
L 300.292371 113.590707 
L 303.611149 113.590707 
L 303.806371 117.204626 
L 304.392038 117.204626 
L 304.58726 118.799002 
L 304.782482 118.799002 
L 304.977705 119.436752 
L 307.125149 119.436752 
L 307.320371 113.16554 
L 308.686927 113.16554 
L 308.882149 117.736084 
L 311.029593 117.736084 
L 311.224815 119.224169 
L 312.981815 119.224169 
L 313.177038 113.696998 
L 315.714926 113.696998 
L 315.910149 108.382411 
L 316.105371 108.382411 
L 316.300593 106.788035 
L 316.495815 106.788035 
L 316.691038 106.362868 
L 317.276704 106.362868 
L 317.471926 105.087367 
L 317.667149 105.087367 
L 317.862371 104.6622 
L 318.448037 104.6622 
L 318.64326 104.237033 
L 320.009815 104.237033 
L 320.205037 115.185083 
L 320.40026 115.185083 
L 320.595482 118.480127 
L 320.790704 118.480127 
L 320.985926 119.436752 
L 321.181148 119.436752 
L 321.376371 119.755627 
L 323.91426 119.861919 
L 324.109482 113.909582 
L 326.256926 113.909582 
L 326.452148 112.102622 
L 326.647371 112.102622 
L 326.842593 111.571163 
L 330.16137 111.571163 
L 330.356593 107.744661 
L 332.113593 107.744661 
L 332.308815 116.248 
L 332.894481 116.248 
L 333.089704 118.69271 
L 334.065815 118.69271 
L 334.261037 119.543044 
L 334.846704 119.543044 
L 335.041926 114.015873 
L 336.408481 114.015873 
L 336.603704 118.05496 
L 336.798926 118.05496 
L 336.994148 119.33046 
L 337.579815 119.33046 
L 337.775037 119.649336 
L 339.141592 119.649336 
L 339.336815 113.909582 
L 341.093815 113.909582 
L 341.289037 118.05496 
L 342.265148 118.05496 
L 342.46037 119.33046 
L 344.21737 119.33046 
L 344.412592 119.649336 
L 345.388703 119.755627 
L 345.779148 119.861919 
L 349.293148 119.861919 
L 349.48837 114.228457 
L 351.635814 114.228457 
L 351.831036 118.161251 
L 353.978481 118.161251 
L 354.173703 119.33046 
L 355.149814 119.33046 
L 355.345036 119.649336 
L 355.930703 119.649336 
L 356.125925 116.779459 
L 360.616036 116.779459 
L 360.811258 112.846664 
L 361.006481 112.846664 
L 361.201703 111.677455 
L 362.958703 111.677455 
L 363.153925 117.417209 
L 364.130036 117.417209 
L 364.325258 119.117877 
L 365.691814 119.117877 
L 365.887036 119.649336 
L 367.644036 119.755627 
L 368.03448 119.861919 
L 369.596258 119.861919 
L 369.79148 114.334749 
L 374.281591 114.334749 
L 374.476813 118.161251 
L 374.672036 118.161251 
L 374.867258 119.33046 
L 376.233813 119.33046 
L 376.429036 115.291374 
L 378.966924 115.291374 
L 379.162147 111.464872 
L 380.919147 111.464872 
L 381.114369 109.55162 
L 381.700035 109.55162 
L 381.895258 116.779459 
L 382.871369 116.779459 
L 383.066591 118.905293 
L 384.433147 118.905293 
L 384.628369 119.543044 
L 385.214035 119.543044 
L 385.409258 119.755627 
L 423.47759 119.861919 
L 423.672812 118.480127 
L 424.648923 118.480127 
L 424.844145 119.436752 
L 429.334256 119.436752 
L 429.529478 119.755627 
L 467.597811 119.861919 
L 467.793033 118.161251 
L 468.378699 118.161251 
L 468.573922 117.629793 
L 470.721366 117.629793 
L 470.916588 114.015873 
L 471.502255 114.015873 
L 471.697477 109.657912 
L 472.673588 109.657912 
L 472.86881 108.27612 
L 474.235366 108.27612 
L 474.430588 107.850953 
L 476.187588 107.850953 
L 476.38281 104.449617 
L 478.13981 104.449617 
L 478.335032 114.866207 
L 481.263366 114.866207 
L 481.458588 117.629793 
L 482.825143 117.629793 
L 483.020366 119.224169 
L 486.729588 119.224169 
L 486.92481 119.649336 
L 491.805365 119.755627 
L 492.19581 119.861919 
L 523.821809 119.861919 
L 524.017031 116.88575 
L 525.383587 116.88575 
L 525.578809 115.929125 
L 526.55492 115.929125 
L 526.750142 115.716541 
L 532.411586 115.716541 
L 532.606809 112.527789 
L 535.925586 112.527789 
L 536.120808 117.629793 
L 538.268253 117.629793 
L 538.463475 119.224169 
L 539.830031 119.224169 
L 540.025253 119.649336 
L 540.610919 119.755627 
L 541.001364 119.861919 
L 730.757358 119.861919 
L 730.757358 119.861919 
" clip-path="url(#p07e474aa9a)" style="fill: none; stroke: #ff7f0e; stroke-width: 1.5; stroke-linecap: square"/>
   </g>
   <g id="line2d_27">
    <path d="M 81.448267 191.39626 
L 83.986156 191.39626 
L 84.181378 156.426278 
L 84.3766 156.426278 
L 84.571823 146.009687 
L 90.623711 146.009687 
L 90.818933 141.545434 
L 95.699489 141.545434 
L 95.894711 129.534467 
L 96.089933 129.534467 
L 96.285155 125.814257 
L 101.556155 125.814257 
L 101.751378 114.228457 
L 102.337044 114.228457 
L 102.532266 110.72083 
L 107.412822 110.72083 
L 107.608044 109.339037 
L 113.659933 109.339037 
L 113.855155 108.701286 
L 115.22171 108.701286 
L 115.416933 108.488703 
L 249.92504 108.382411 
L 250.120262 107.638369 
L 255.781706 107.638369 
L 255.976928 98.603571 
L 256.562595 98.603571 
L 256.757817 95.839986 
L 258.124373 95.839986 
L 258.319595 94.989652 
L 258.905262 94.989652 
L 259.100484 94.670777 
L 260.857484 94.670777 
L 261.052706 89.887649 
L 261.638373 89.887649 
L 261.833595 86.91148 
L 266.71415 86.91148 
L 266.909372 91.056858 
L 267.885483 91.056858 
L 268.080706 95.308527 
L 271.009039 95.308527 
L 271.204261 92.43865 
L 271.789928 92.43865 
L 271.98515 87.868105 
L 272.180372 87.868105 
L 272.375594 94.033026 
L 274.132594 94.033026 
L 274.327817 98.178404 
L 279.598816 98.178404 
L 279.794039 93.288984 
L 280.379705 93.288984 
L 280.574928 90.631691 
L 280.77015 90.631691 
L 280.965372 89.462482 
L 283.112816 89.462482 
L 283.308039 88.931023 
L 287.79815 88.824731 
L 287.993372 92.970109 
L 290.140816 92.970109 
L 290.336038 103.705575 
L 291.312149 103.705575 
L 291.507372 107.000619 
L 293.264372 107.000619 
L 293.459594 104.874784 
L 298.730594 104.874784 
L 298.925816 107.319494 
L 303.806371 107.319494 
L 304.001593 108.063536 
L 304.58726 108.063536 
L 304.782482 108.27612 
L 730.757358 108.382411 
L 730.757358 108.382411 
" clip-path="url(#p07e474aa9a)" style="fill: none; stroke: #2ca02c; stroke-width: 1.5; stroke-linecap: square"/>
   </g>
   <g id="line2d_28">
    <path d="M 81.448267 191.39626 
L 89.061933 191.39626 
L 89.257156 265.800478 
L 89.452378 265.800478 
L 89.6476 288.121743 
L 89.842822 288.121743 
L 90.038045 294.818123 
L 90.233267 294.818123 
L 90.428489 296.837666 
L 93.356822 296.837666 
L 93.552044 297.475417 
L 98.042155 297.581708 
L 98.4326 297.688 
L 730.757358 297.688 
L 730.757358 297.688 
" clip-path="url(#p07e474aa9a)" style="fill: none; stroke: #d62728; stroke-width: 1.5; stroke-linecap: square"/>
   </g>
   <g id="line2d_29">
    <path d="M 81.448267 191.39626 
L 83.205267 191.39626 
L 83.400489 176.515417 
L 85.938378 176.515417 
L 86.1336 170.03162 
L 87.109711 170.03162 
L 87.304934 175.239916 
L 87.8906 175.239916 
L 88.085822 172.157455 
L 91.795045 172.157455 
L 91.990267 147.604063 
L 92.185489 147.604063 
L 92.380711 159.933905 
L 97.651711 159.933905 
L 97.846933 141.332851 
L 102.727489 141.332851 
L 102.922711 127.514924 
L 107.803266 127.514924 
L 107.998488 123.263255 
L 114.440822 123.263255 
L 114.636044 122.094046 
L 119.126155 122.094046 
L 119.321377 110.933413 
L 123.811488 110.933413 
L 124.00671 104.237033 
L 124.201932 104.237033 
L 124.397155 121.562587 
L 124.982821 121.562587 
L 125.178043 105.512534 
L 127.715932 105.512534 
L 127.911154 100.729406 
L 131.620377 100.729406 
L 131.815599 99.241322 
L 132.010821 99.241322 
L 132.206043 117.098334 
L 140.600599 117.098334 
L 140.795821 100.091656 
L 147.238154 100.091656 
L 147.433376 94.24561 
L 149.58082 94.24561 
L 149.776043 92.43865 
L 151.533043 92.43865 
L 151.728265 87.974397 
L 151.923487 87.974397 
L 152.118709 105.618826 
L 152.313932 105.618826 
L 152.509154 118.480127 
L 152.704376 118.480127 
L 152.899598 125.814257 
L 160.12282 125.814257 
L 160.318042 106.788035 
L 160.513265 106.788035 
L 160.708487 122.94438 
L 161.294153 122.94438 
L 161.489376 105.512534 
L 162.075042 105.512534 
L 162.270265 121.77517 
L 162.465487 121.77517 
L 162.660709 127.8338 
L 165.979487 127.8338 
L 166.174709 107.319494 
L 166.760376 107.319494 
L 166.955598 101.260865 
L 167.541264 101.260865 
L 167.736487 118.586418 
L 170.66482 118.586418 
L 170.860042 104.02445 
L 171.445709 104.02445 
L 171.640931 98.284696 
L 173.788375 98.284696 
L 173.983597 96.584028 
L 174.959709 96.584028 
L 175.154931 92.119775 
L 175.350153 92.119775 
L 175.545375 109.657912 
L 175.740597 109.657912 
L 175.93582 121.77517 
L 183.549486 121.77517 
L 183.744708 103.174116 
L 184.720819 103.174116 
L 184.916042 97.540654 
L 186.673042 97.540654 
L 186.868264 114.972499 
L 187.063486 114.972499 
L 187.258708 124.538756 
L 189.796597 124.538756 
L 189.991819 106.256576 
L 190.187041 106.256576 
L 190.382264 122.519213 
L 192.139264 122.519213 
L 192.334486 105.087367 
L 195.262819 105.087367 
L 195.458041 99.879072 
L 196.434152 99.879072 
L 196.629375 94.989652 
L 196.824597 94.989652 
L 197.019819 112.634081 
L 197.215041 112.634081 
L 197.410263 123.263255 
L 197.99593 123.263255 
L 198.191152 128.152675 
L 201.50993 128.152675 
L 201.705152 107.744661 
L 204.633485 107.744661 
L 204.828708 101.57974 
L 207.366596 101.57974 
L 207.561819 96.69032 
L 210.490152 96.69032 
L 210.685374 95.202236 
L 212.442374 95.202236 
L 212.637596 94.777069 
L 212.832819 94.777069 
L 213.028041 112.740373 
L 214.785041 112.740373 
L 214.980263 101.048281 
L 215.175485 101.048281 
L 215.370707 117.948668 
L 217.518152 117.948668 
L 217.713374 100.729406 
L 218.689485 100.729406 
L 218.884707 95.521111 
L 219.079929 95.521111 
L 219.275152 113.059248 
L 219.470374 113.059248 
L 219.665596 123.475838 
L 226.498374 123.475838 
L 226.693596 104.343325 
L 227.669707 104.343325 
L 227.864929 98.603571 
L 230.793262 98.603571 
L 230.988485 93.714151 
L 232.745485 93.714151 
L 232.940707 92.226067 
L 233.526373 92.226067 
L 233.721596 110.083079 
L 235.86904 110.083079 
L 236.064262 93.182692 
L 239.38304 93.182692 
L 239.578262 87.336647 
L 244.068373 87.336647 
L 244.263595 82.553518 
L 250.315484 82.553518 
L 250.510706 77.982974 
L 251.096373 77.982974 
L 251.291595 76.601181 
L 252.267706 76.601181 
L 252.462928 72.349511 
L 253.829484 72.349511 
L 254.024706 70.967719 
L 258.514817 70.967719 
L 258.710039 66.822341 
L 259.68615 66.822341 
L 259.881373 62.358088 
L 260.467039 62.358088 
L 260.662261 61.082587 
L 262.419261 61.082587 
L 262.614484 56.937209 
L 264.371484 56.937209 
L 264.566706 55.768 
L 264.761928 55.768 
L 264.95715 73.943888 
L 268.666372 73.943888 
L 268.861595 64.802798 
L 270.618594 64.802798 
L 270.813817 60.01967 
L 271.399483 60.01967 
L 271.594706 77.876682 
L 274.913483 77.876682 
L 275.108705 68.629301 
L 276.084817 68.629301 
L 276.280039 65.865715 
L 279.208372 65.865715 
L 279.403594 65.015381 
L 283.893705 65.015381 
L 284.088927 60.976295 
L 284.674594 60.976295 
L 284.869816 78.939599 
L 285.455483 78.939599 
L 285.650705 69.692218 
L 287.017261 69.692218 
L 287.212483 66.928633 
L 287.407705 66.928633 
L 287.602927 84.891937 
L 288.579038 84.891937 
L 288.774261 75.644555 
L 288.969483 75.644555 
L 289.164705 92.970109 
L 290.921705 92.970109 
L 291.116927 75.857139 
L 292.093038 75.857139 
L 292.28826 70.223677 
L 292.483483 70.223677 
L 292.678705 87.868105 
L 292.873927 87.868105 
L 293.069149 100.835698 
L 296.387927 100.835698 
L 296.583149 90.950566 
L 298.340149 90.950566 
L 298.535371 87.974397 
L 299.121038 87.974397 
L 299.31626 105.831409 
L 299.511482 105.831409 
L 299.706705 118.586418 
L 300.292371 118.586418 
L 300.487594 100.091656 
L 301.07326 100.091656 
L 301.268482 116.460583 
L 304.977705 116.460583 
L 305.172927 99.028738 
L 307.320371 99.028738 
L 307.515593 93.076401 
L 307.710816 93.076401 
L 307.906038 110.508246 
L 311.224815 110.508246 
L 311.420038 99.879072 
L 313.177038 99.879072 
L 313.37226 94.564485 
L 316.691038 94.564485 
L 316.88626 92.970109 
L 317.862371 92.970109 
L 318.057593 92.43865 
L 319.033704 92.332359 
L 319.228926 110.295663 
L 323.328593 110.295663 
L 323.523815 99.879072 
L 326.842593 99.879072 
L 327.037815 94.564485 
L 330.356593 94.564485 
L 330.551815 92.970109 
L 330.747037 92.970109 
L 330.942259 110.827121 
L 334.261037 110.827121 
L 334.456259 100.091656 
L 335.041926 100.091656 
L 335.237148 117.098334 
L 337.775037 117.098334 
L 337.970259 99.879072 
L 339.336815 99.879072 
L 339.532037 94.670777 
L 339.727259 94.670777 
L 339.922481 112.208914 
L 342.46037 112.208914 
L 342.655592 95.202236 
L 342.850814 95.202236 
L 343.046037 111.571163 
L 347.536148 111.571163 
L 347.73137 100.410531 
L 349.48837 100.410531 
L 349.683592 97.009195 
L 349.878814 97.009195 
L 350.074036 114.653624 
L 351.831036 114.653624 
L 352.026259 102.004907 
L 352.221481 102.004907 
L 352.416703 118.799002 
L 355.345036 118.799002 
L 355.540259 104.02445 
L 356.125925 104.02445 
L 356.321147 99.666489 
L 361.201703 99.666489 
L 361.396925 94.88336 
L 361.592147 94.88336 
L 361.787369 112.421497 
L 365.887036 112.421497 
L 366.082258 95.414819 
L 366.27748 95.414819 
L 366.472703 111.890039 
L 367.839258 111.890039 
L 368.03448 100.516822 
L 369.79148 100.516822 
L 369.986703 97.115487 
L 370.181925 97.115487 
L 370.377147 114.759916 
L 374.867258 114.759916 
L 375.06248 102.111199 
L 376.429036 102.111199 
L 376.624258 98.284696 
L 379.162147 98.284696 
L 379.357369 97.115487 
L 381.114369 97.115487 
L 381.309591 114.972499 
L 396.732146 114.972499 
L 396.927368 102.21749 
L 397.122591 102.21749 
L 397.317813 119.011585 
L 413.911701 119.011585 
L 414.106923 101.686032 
L 414.302146 101.686032 
L 414.497368 118.05496 
L 415.083034 118.05496 
L 415.278257 103.705575 
L 415.473479 103.705575 
L 415.668701 120.287086 
L 416.254368 120.287086 
L 416.44959 127.089757 
L 418.987479 127.089757 
L 419.182701 107.425786 
L 419.377923 107.425786 
L 419.573145 123.475838 
L 422.111034 123.475838 
L 422.306256 106.362868 
L 423.672812 106.362868 
L 423.868034 100.410531 
L 424.063256 100.410531 
L 424.258479 117.842376 
L 424.844145 117.842376 
L 425.039367 125.920548 
L 431.091256 125.920548 
L 431.286478 106.043993 
L 431.481701 106.043993 
L 431.676923 122.200337 
L 445.147256 122.200337 
L 445.342478 105.725118 
L 445.5377 105.725118 
L 445.732922 122.094046 
L 445.928145 122.094046 
L 446.123367 128.046383 
L 446.318589 128.046383 
L 446.513811 130.065926 
L 449.0517 130.065926 
L 449.246922 108.488703 
L 449.442144 108.488703 
L 449.637367 124.326172 
L 453.346589 124.326172 
L 453.541811 106.788035 
L 453.737033 106.788035 
L 453.932255 123.156963 
L 462.326811 123.156963 
L 462.522033 106.256576 
L 462.717255 106.256576 
L 462.912477 122.625504 
L 465.059922 122.625504 
L 465.255144 105.937701 
L 468.573922 105.937701 
L 468.769144 100.941989 
L 470.916588 100.941989 
L 471.11181 96.158861 
L 474.430588 96.158861 
L 474.62581 91.375733 
L 476.38281 91.375733 
L 476.578033 89.887649 
L 476.773255 89.887649 
L 476.968477 107.850953 
L 478.335032 107.850953 
L 478.530255 90.950566 
L 478.725477 90.950566 
L 478.920699 107.425786 
L 481.458588 107.425786 
L 481.65381 97.753237 
L 481.849032 97.753237 
L 482.044255 114.866207 
L 506.837476 114.866207 
L 507.032698 102.111199 
L 507.22792 102.111199 
L 507.423143 118.905293 
L 522.845698 118.905293 
L 523.04092 104.130742 
L 526.750142 104.130742 
L 526.945364 99.666489 
L 532.606809 99.666489 
L 532.802031 98.284696 
L 532.997253 98.284696 
L 533.192475 116.141708 
L 536.120808 116.141708 
L 536.316031 102.855241 
L 536.511253 102.855241 
L 536.706475 119.543044 
L 536.901697 119.543044 
L 537.09692 126.770882 
L 538.463475 126.770882 
L 538.658697 107.213202 
L 538.853919 107.213202 
L 539.049142 123.369547 
L 551.738586 123.369547 
L 551.933808 106.362868 
L 552.12903 106.362868 
L 552.324252 122.731796 
L 730.757358 122.731796 
L 730.757358 122.731796 
" clip-path="url(#p07e474aa9a)" style="fill: none; stroke: #9467bd; stroke-width: 1.5; stroke-linecap: square"/>
   </g>
   <g id="line2d_30">
    <path d="M 81.448267 191.39626 
L 83.790934 191.39626 
L 83.986156 188.526383 
L 86.914489 188.526383 
L 87.109711 166.523993 
L 87.695378 166.523993 
L 87.8906 159.933905 
L 88.866711 159.933905 
L 89.061933 157.914362 
L 91.990267 157.914362 
L 92.185489 154.300443 
L 97.846933 154.300443 
L 98.042155 142.289476 
L 114.636044 142.289476 
L 114.831266 126.770882 
L 119.711821 126.770882 
L 119.907044 121.881462 
L 124.00671 121.881462 
L 124.201932 117.629793 
L 124.397155 117.629793 
L 124.592377 119.117877 
L 131.815599 119.117877 
L 132.010821 113.271831 
L 141.967154 113.271831 
L 142.162376 112.102622 
L 149.776043 112.102622 
L 149.971265 106.46916 
L 151.728265 106.46916 
L 151.923487 101.686032 
L 152.118709 101.686032 
L 152.313932 112.527789 
L 152.509154 112.527789 
L 152.704376 117.629793 
L 152.899598 117.629793 
L 153.09482 119.224169 
L 160.318042 119.224169 
L 160.513265 118.586418 
L 161.87982 118.586418 
L 162.075042 117.417209 
L 162.270265 117.417209 
L 162.465487 119.117877 
L 167.346042 119.117877 
L 167.541264 114.653624 
L 167.736487 114.653624 
L 167.931709 118.267543 
L 170.860042 118.267543 
L 171.055264 116.354292 
L 173.983597 116.354292 
L 174.17882 110.614538 
L 175.154931 110.614538 
L 175.350153 105.725118 
L 175.545375 105.725118 
L 175.740597 115.61025 
L 185.69693 115.61025 
L 185.892153 111.039705 
L 186.868264 111.039705 
L 187.063486 117.204626 
L 187.258708 117.204626 
L 187.45393 119.011585 
L 189.991819 119.011585 
L 190.187041 118.161251 
L 195.458041 118.161251 
L 195.653263 113.484415 
L 196.629375 113.484415 
L 196.824597 108.701286 
L 197.019819 108.701286 
L 197.215041 116.460583 
L 197.410263 116.460583 
L 197.605486 118.799002 
L 198.191152 118.799002 
L 198.386375 119.543044 
L 204.828708 119.543044 
L 205.02393 115.078791 
L 212.637596 115.078791 
L 212.832819 108.91387 
L 213.028041 108.91387 
L 213.223263 116.566875 
L 214.980263 116.566875 
L 215.175485 113.80329 
L 218.884707 113.80329 
L 219.079929 109.126453 
L 219.275152 109.126453 
L 219.470374 116.566875 
L 227.864929 116.566875 
L 228.060151 112.102622 
L 232.940707 112.102622 
L 233.135929 106.362868 
L 236.064262 106.362868 
L 236.259484 105.299951 
L 239.578262 105.299951 
L 239.773484 100.941989 
L 244.263595 100.941989 
L 244.458818 96.265153 
L 251.291595 96.265153 
L 251.486817 90.737982 
L 254.024706 90.737982 
L 254.219928 85.210812 
L 258.710039 85.210812 
L 258.905262 80.640267 
L 260.662261 80.640267 
L 260.857484 75.32568 
L 264.566706 75.32568 
L 264.761928 70.011093 
L 266.128484 70.011093 
L 266.323706 81.065434 
L 268.861595 81.065434 
L 269.056817 77.982974 
L 270.813817 77.982974 
L 271.009039 73.731304 
L 271.594706 73.731304 
L 271.789928 84.891937 
L 279.403594 84.891937 
L 279.598816 79.364766 
L 284.479372 79.364766 
L 284.674594 74.794221 
L 284.869816 74.794221 
L 285.065038 85.954854 
L 287.212483 85.954854 
L 287.407705 80.852851 
L 287.602927 80.852851 
L 287.79815 91.907192 
L 288.774261 91.907192 
L 288.969483 88.718439 
L 291.116927 88.718439 
L 291.312149 87.974397 
L 292.28826 87.974397 
L 292.483483 83.829019 
L 292.678705 83.829019 
L 292.873927 94.88336 
L 293.069149 94.88336 
L 293.264372 107.10691 
L 298.535371 107.10691 
L 298.730594 101.898615 
L 299.31626 101.898615 
L 299.511482 112.634081 
L 300.878038 112.634081 
L 301.07326 111.99633 
L 305.172927 111.99633 
L 305.368149 110.933413 
L 307.515593 110.933413 
L 307.710816 106.575452 
L 307.906038 106.575452 
L 308.10126 115.822833 
L 311.420038 115.822833 
L 311.61526 112.740373 
L 318.838482 112.740373 
L 319.033704 106.575452 
L 319.228926 106.575452 
L 319.424149 115.822833 
L 323.523815 115.822833 
L 323.719037 112.740373 
L 330.551815 112.740373 
L 330.747037 107.000619 
L 331.723148 107.000619 
L 331.91837 115.929125 
L 334.456259 115.929125 
L 334.651481 112.952956 
L 339.532037 112.952956 
L 339.727259 108.27612 
L 342.655592 108.27612 
L 342.850814 107.213202 
L 343.046037 107.213202 
L 343.241259 116.035417 
L 349.683592 116.035417 
L 349.878814 110.827121 
L 350.074036 110.827121 
L 350.269259 117.098334 
L 352.026259 117.098334 
L 352.221481 114.653624 
L 352.416703 114.653624 
L 352.611925 118.267543 
L 356.321147 118.267543 
L 356.51637 113.271831 
L 361.396925 113.271831 
L 361.592147 108.488703 
L 366.082258 108.488703 
L 366.27748 107.425786 
L 366.863147 107.425786 
L 367.058369 116.141708 
L 369.986703 116.141708 
L 370.181925 110.933413 
L 370.377147 110.933413 
L 370.572369 117.098334 
L 380.528702 117.098334 
L 380.723924 111.252288 
L 381.309591 111.252288 
L 381.504813 117.204626 
L 396.927368 117.204626 
L 397.122591 114.759916 
L 414.106923 114.759916 
L 414.302146 113.696998 
L 414.497368 113.696998 
L 414.69259 117.948668 
L 415.278257 117.948668 
L 415.473479 116.035417 
L 416.059146 116.035417 
L 416.254368 118.69271 
L 416.44959 118.69271 
L 416.644812 119.436752 
L 419.182701 119.436752 
L 419.377923 119.011585 
L 419.573145 119.011585 
L 419.768368 119.649336 
L 422.306256 119.649336 
L 422.501479 118.373835 
L 423.868034 118.373835 
L 424.063256 113.909582 
L 424.258479 113.909582 
L 424.453701 118.05496 
L 431.286478 118.05496 
L 431.481701 117.736084 
L 431.676923 117.736084 
L 431.872145 119.224169 
L 445.342478 119.224169 
L 445.5377 117.736084 
L 445.732922 117.736084 
L 445.928145 119.224169 
L 446.123367 119.224169 
L 446.318589 119.649336 
L 449.246922 119.755627 
L 449.637367 119.861919 
L 453.541811 119.861919 
L 453.737033 118.69271 
L 453.932255 118.69271 
L 454.127478 119.543044 
L 462.522033 119.543044 
L 462.717255 118.267543 
L 462.912477 118.267543 
L 463.1077 119.33046 
L 468.769144 119.33046 
L 468.964366 114.547332 
L 471.11181 114.547332 
L 471.307033 109.764204 
L 476.578033 109.764204 
L 476.773255 104.02445 
L 478.530255 104.02445 
L 478.725477 102.961533 
L 478.920699 102.961533 
L 479.115921 114.122165 
L 481.65381 114.122165 
L 481.849032 110.72083 
L 482.044255 110.72083 
L 482.239477 117.098334 
L 507.032698 117.098334 
L 507.22792 114.653624 
L 507.423143 114.653624 
L 507.618365 118.267543 
L 532.802031 118.267543 
L 532.997253 112.421497 
L 533.192475 112.421497 
L 533.387697 117.629793 
L 536.316031 117.629793 
L 536.511253 115.291374 
L 536.706475 115.291374 
L 536.901697 118.480127 
L 537.09692 118.480127 
L 537.292142 119.436752 
L 538.658697 119.436752 
L 538.853919 118.905293 
L 539.049142 118.905293 
L 539.244364 119.543044 
L 551.933808 119.543044 
L 552.12903 118.373835 
L 552.324252 118.373835 
L 552.519475 119.33046 
L 730.757358 119.33046 
L 730.757358 119.33046 
" clip-path="url(#p07e474aa9a)" style="fill: none; stroke: #8c564b; stroke-width: 1.5; stroke-linecap: square"/>
   </g>
   <g id="line2d_31">
    <path d="M 81.448267 191.39626 
L 83.400489 191.39626 
L 83.595711 198.836682 
L 86.1336 198.836682 
L 86.328822 201.068808 
L 86.524045 201.068808 
L 86.719267 201.706559 
L 87.304934 201.706559 
L 87.500156 201.919142 
L 88.085822 201.919142 
L 88.281045 196.817139 
L 92.380711 196.817139 
L 92.575933 188.95155 
L 102.922711 188.95155 
L 103.117933 186.613132 
L 103.7036 186.613132 
L 103.898822 175.558791 
L 107.998488 175.558791 
L 108.193711 172.157455 
L 109.169822 172.157455 
L 109.365044 165.354784 
L 109.560266 165.354784 
L 109.755488 163.228949 
L 119.321377 163.228949 
L 119.516599 162.69749 
L 125.178043 162.69749 
L 125.373266 156.532569 
L 127.911154 156.532569 
L 128.106377 154.72561 
L 128.301599 154.72561 
L 128.496821 148.241814 
L 132.206043 148.241814 
L 132.401265 145.903395 
L 140.795821 145.903395 
L 140.991043 145.265645 
L 141.186265 145.265645 
L 141.381487 140.801392 
L 147.433376 140.801392 
L 147.628598 137.187473 
L 160.708487 137.187473 
L 160.903709 136.124555 
L 161.489376 136.124555 
L 161.684598 135.80568 
L 166.174709 135.699388 
L 166.369931 132.935803 
L 166.955598 132.935803 
L 167.15082 132.085469 
L 171.640931 132.085469 
L 171.836153 131.872886 
L 175.93582 131.872886 
L 176.131042 131.660302 
L 183.744708 131.660302 
L 183.939931 128.577842 
L 184.916042 128.577842 
L 185.111264 127.621216 
L 185.306486 127.621216 
L 185.501708 127.302341 
L 192.334486 127.302341 
L 192.529708 123.901005 
L 201.705152 123.901005 
L 201.900374 122.838088 
L 202.095597 122.838088 
L 202.290819 122.519213 
L 210.685374 122.412921 
L 210.880596 121.668879 
L 215.370707 121.668879 
L 215.56593 120.712253 
L 217.713374 120.712253 
L 217.908596 120.287086 
L 219.665596 120.180794 
L 220.056041 120.074503 
L 263.004928 119.968211 
L 263.20015 113.484415 
L 263.395372 113.484415 
L 263.590595 105.725118 
L 264.95715 105.725118 
L 265.152372 103.386699 
L 265.347595 103.386699 
L 265.542817 98.284696 
L 275.108705 98.284696 
L 275.303928 95.521111 
L 276.280039 95.521111 
L 276.475261 94.670777 
L 276.670483 94.670777 
L 276.865705 101.260865 
L 277.451372 101.260865 
L 277.646594 105.193659 
L 277.841816 105.193659 
L 278.037039 107.000619 
L 278.232261 107.000619 
L 278.427483 107.744661 
L 284.088927 107.744661 
L 284.28415 107.957244 
L 285.650705 107.957244 
L 285.845927 105.406243 
L 286.04115 105.406243 
L 286.236372 107.000619 
L 286.431594 107.000619 
L 286.626816 108.169828 
L 289.164705 108.169828 
L 289.359927 108.594995 
L 296.973594 108.701286 
L 297.168816 116.460583 
L 299.706705 116.460583 
L 299.901927 118.799002 
L 300.487594 118.799002 
L 300.682816 119.543044 
L 301.268482 119.543044 
L 301.463705 119.755627 
L 730.757358 119.861919 
L 730.757358 119.861919 
" clip-path="url(#p07e474aa9a)" style="fill: none; stroke: #e377c2; stroke-width: 1.5; stroke-linecap: square"/>
   </g>
   <g id="line2d_32">
    <path d="M 81.448267 191.39626 
L 82.424378 191.39626 
L 82.6196 159.508738 
L 85.157489 159.508738 
L 85.352711 145.690812 
L 91.014156 145.690812 
L 91.209378 141.439142 
L 91.4046 141.439142 
L 91.599822 140.163641 
L 93.747267 140.163641 
L 93.942489 139.844766 
L 94.137711 139.844766 
L 94.332933 139.632183 
L 97.261267 139.632183 
L 97.456489 119.011585 
L 98.4326 119.011585 
L 98.627822 112.315206 
L 98.823044 112.315206 
L 99.018266 110.189371 
L 99.213489 110.189371 
L 99.408711 109.55162 
L 99.603933 109.55162 
L 99.799155 109.339037 
L 110.145933 109.339037 
L 110.341155 108.91387 
L 112.488599 108.91387 
L 112.683822 108.488703 
L 254.610373 108.382411 
L 254.805595 100.516822 
L 256.17215 100.516822 
L 256.367373 96.477736 
L 257.733928 96.477736 
L 257.92915 95.202236 
L 269.837706 95.202236 
L 270.032928 96.796612 
L 275.694372 96.69032 
L 275.889594 99.879072 
L 282.722372 99.879072 
L 282.917594 92.013483 
L 295.997483 92.013483 
L 296.192705 103.492991 
L 303.025482 103.492991 
L 303.220705 106.894327 
L 306.149038 106.894327 
L 306.34426 107.957244 
L 306.929927 107.957244 
L 307.125149 108.27612 
L 730.757358 108.382411 
L 730.757358 108.382411 
" clip-path="url(#p07e474aa9a)" style="fill: none; stroke: #7f7f7f; stroke-width: 1.5; stroke-linecap: square"/>
   </g>
   <g id="line2d_33">
    <path d="M 81.448267 191.39626 
L 81.643489 191.39626 
L 81.838711 116.992042 
L 94.528156 116.992042 
L 94.723378 94.670777 
L 95.309044 94.670777 
L 95.504267 87.974397 
L 96.870822 87.974397 
L 97.066044 85.954854 
L 106.631933 85.954854 
L 106.827155 85.317104 
L 111.317266 85.210812 
L 111.707711 85.10452 
L 730.757358 85.10452 
L 730.757358 85.10452 
" clip-path="url(#p07e474aa9a)" style="fill: none; stroke: #bcbd22; stroke-width: 1.5; stroke-linecap: square"/>
   </g>
   <g id="line2d_34">
    <path d="M 81.448267 191.39626 
L 82.033934 191.39626 
L 82.229156 265.800478 
L 82.814823 265.800478 
L 83.010045 288.121743 
L 84.767045 288.121743 
L 84.962267 294.818123 
L 85.547934 294.818123 
L 85.743156 296.837666 
L 96.480378 296.837666 
L 96.6756 297.475417 
L 106.241488 297.581708 
L 106.631933 297.688 
L 730.757358 297.688 
L 730.757358 297.688 
" clip-path="url(#p07e474aa9a)" style="fill: none; stroke: #17becf; stroke-width: 1.5; stroke-linecap: square"/>
   </g>
   <g id="line2d_35">
    <path d="M 81.448267 191.39626 
L 109.755488 191.39626 
L 109.950711 265.800478 
L 125.373266 265.800478 
L 125.568488 288.121743 
L 132.401265 288.121743 
L 132.596488 294.818123 
L 147.628598 294.818123 
L 147.823821 296.837666 
L 160.903709 296.837666 
L 161.098931 297.475417 
L 166.369931 297.581708 
L 166.760376 297.688 
L 730.757358 297.688 
L 730.757358 297.688 
" clip-path="url(#p07e474aa9a)" style="fill: none; stroke: #1f77b4; stroke-width: 1.5; stroke-linecap: square"/>
   </g>
   <g id="line2d_36">
    <path d="M 81.448267 191.39626 
L 83.595711 191.39626 
L 83.790934 198.836682 
L 86.328822 198.836682 
L 86.524045 199.049265 
L 87.500156 199.155557 
L 87.695378 183.955838 
L 88.671489 183.955838 
L 88.866711 174.814749 
L 103.508377 174.814749 
L 103.7036 159.827613 
L 108.9746 159.827613 
L 109.169822 155.36336 
L 109.365044 155.36336 
L 109.560266 153.981568 
L 119.516599 153.981568 
L 119.711821 142.820935 
L 128.106377 142.820935 
L 128.301599 134.211304 
L 140.991043 134.211304 
L 141.186265 127.514924 
L 141.771932 127.514924 
L 141.967154 125.601673 
L 161.684598 125.601673 
L 161.87982 128.577842 
L 167.15082 128.577842 
L 167.346042 129.959634 
L 185.111264 129.959634 
L 185.306486 127.8338 
L 185.501708 127.8338 
L 185.69693 127.302341 
L 201.900374 127.302341 
L 202.095597 129.747051 
L 202.290819 129.747051 
L 202.486041 130.597385 
L 202.681263 130.597385 
L 202.876485 130.809968 
L 207.757041 130.809968 
L 207.952263 127.727508 
L 208.147485 127.727508 
L 208.342708 126.877174 
L 217.908596 126.877174 
L 218.103818 125.707965 
L 220.251263 125.707965 
L 220.446485 127.302341 
L 262.809706 127.302341 
L 263.004928 99.13503 
L 263.20015 99.13503 
L 263.395372 90.737982 
L 265.152372 90.737982 
L 265.347595 84.46677 
L 265.933261 84.46677 
L 266.128484 82.65981 
L 276.475261 82.65981 
L 276.670483 92.43865 
L 277.25615 92.43865 
L 277.451372 95.308527 
L 277.646594 95.308527 
L 277.841816 96.158861 
L 278.037039 96.158861 
L 278.232261 96.477736 
L 284.28415 96.477736 
L 284.479372 92.651234 
L 285.845927 92.651234 
L 286.04115 96.158861 
L 286.236372 96.158861 
L 286.431594 97.115487 
L 296.778371 97.115487 
L 296.973594 112.208914 
L 300.682816 112.208914 
L 300.878038 120.49967 
L 313.567482 120.49967 
L 313.762704 123.050671 
L 314.348371 123.050671 
L 314.543593 123.794714 
L 331.137481 123.794714 
L 331.332704 120.074503 
L 331.527926 120.074503 
L 331.723148 118.905293 
L 379.552591 118.905293 
L 379.747813 125.601673 
L 379.943036 125.601673 
L 380.138258 127.621216 
L 380.33348 127.621216 
L 380.528702 128.258967 
L 415.863923 128.258967 
L 416.059146 127.621216 
L 449.832589 127.621216 
L 450.027811 130.065926 
L 730.757358 130.065926 
L 730.757358 130.065926 
" clip-path="url(#p07e474aa9a)" style="fill: none; stroke: #ff7f0e; stroke-width: 1.5; stroke-linecap: square"/>
   </g>
   <g id="line2d_37">
    <path d="M 81.448267 191.39626 
L 88.281045 191.39626 
L 88.476267 198.836682 
L 92.575933 198.836682 
L 92.771156 201.068808 
L 103.117933 201.068808 
L 103.313155 203.300935 
L 103.898822 203.300935 
L 104.094044 200.005891 
L 104.679711 200.005891 
L 104.874933 172.370039 
L 105.070155 172.370039 
L 105.265377 164.079283 
L 108.193711 164.079283 
L 108.388933 151.324274 
L 128.496821 151.324274 
L 128.692043 133.786137 
L 141.381487 133.786137 
L 141.57671 124.326172 
L 162.855931 124.326172 
L 163.051153 121.456295 
L 163.246376 121.456295 
L 163.441598 120.605961 
L 163.63682 120.605961 
L 163.832042 120.393378 
L 176.131042 120.287086 
L 176.326264 115.822833 
L 190.577486 115.822833 
L 190.772708 113.16554 
L 191.358375 113.16554 
L 191.553597 110.933413 
L 208.53793 110.933413 
L 208.733152 109.870496 
L 210.880596 109.870496 
L 211.075819 109.020162 
L 211.661485 109.020162 
L 211.856707 108.807578 
L 215.956374 108.701286 
L 216.346818 108.594995 
L 265.542817 108.488703 
L 265.933261 108.382411 
L 730.757358 108.382411 
L 730.757358 108.382411 
" clip-path="url(#p07e474aa9a)" style="fill: none; stroke: #2ca02c; stroke-width: 1.5; stroke-linecap: square"/>
   </g>
   <g id="line2d_38">
    <path d="M 81.448267 191.39626 
L 92.966378 191.39626 
L 93.1616 116.992042 
L 105.4606 116.992042 
L 105.655822 94.670777 
L 128.887266 94.670777 
L 129.082488 87.974397 
L 176.521486 87.974397 
L 176.716709 85.954854 
L 191.748819 85.954854 
L 191.944041 85.317104 
L 234.307262 85.210812 
L 234.697707 85.10452 
L 730.757358 85.10452 
L 730.757358 85.10452 
" clip-path="url(#p07e474aa9a)" style="fill: none; stroke: #d62728; stroke-width: 1.5; stroke-linecap: square"/>
   </g>
   <g id="line2d_39">
    <path d="M 81.448267 191.39626 
L 216.346818 191.39626 
L 216.542041 265.800478 
L 231.574151 265.800478 
L 231.769373 288.121743 
L 278.817928 288.121743 
L 279.01315 294.818123 
L 297.55926 294.818123 
L 297.754483 296.837666 
L 302.635038 296.837666 
L 302.83026 297.475417 
L 730.757358 297.475417 
L 730.757358 297.475417 
" clip-path="url(#p07e474aa9a)" style="fill: none; stroke: #9467bd; stroke-width: 1.5; stroke-linecap: square"/>
   </g>
   <g id="line2d_40">
    <path d="M 81.448267 191.39626 
L 104.289266 191.39626 
L 104.484489 169.819037 
L 108.584155 169.819037 
L 108.779377 139.313308 
L 172.226598 139.313308 
L 172.42182 121.562587 
L 190.96793 121.562587 
L 191.163153 113.484415 
L 208.928374 113.484415 
L 209.123596 110.295663 
L 209.318819 110.295663 
L 209.514041 109.126453 
L 211.271041 109.126453 
L 211.466263 108.807578 
L 327.623482 108.807578 
L 327.818704 108.488703 
L 730.757358 108.382411 
L 730.757358 108.382411 
" clip-path="url(#p07e474aa9a)" style="fill: none; stroke: #8c564b; stroke-width: 1.5; stroke-linecap: square"/>
   </g>
   <g id="line2d_41">
    <path d="M 81.448267 191.39626 
L 92.771156 191.39626 
L 92.966378 198.836682 
L 104.094044 198.836682 
L 104.289266 149.517315 
L 105.265377 149.517315 
L 105.4606 134.742763 
L 108.388933 134.742763 
L 108.584155 114.759916 
L 128.692043 114.759916 
L 128.887266 108.807578 
L 172.031375 108.807578 
L 172.226598 102.430074 
L 176.326264 102.430074 
L 176.521486 100.516822 
L 190.772708 100.516822 
L 190.96793 98.497279 
L 191.553597 98.497279 
L 191.748819 97.859529 
L 208.733152 97.859529 
L 208.928374 97.32807 
L 209.123596 97.32807 
L 209.318819 97.115487 
L 216.151596 97.009195 
L 216.542041 96.902903 
L 730.757358 96.796612 
L 730.757358 96.796612 
" clip-path="url(#p07e474aa9a)" style="fill: none; stroke: #e377c2; stroke-width: 1.5; stroke-linecap: square"/>
   </g>
   <g id="line2d_42">
    <path d="M 81.448267 191.39626 
L 88.476267 191.39626 
L 88.671489 193.628387 
L 103.313155 193.628387 
L 103.508377 187.994924 
L 104.484489 187.994924 
L 104.679711 175.983958 
L 104.874933 175.983958 
L 105.070155 172.263747 
L 108.779377 172.263747 
L 108.9746 165.354784 
L 141.57671 165.354784 
L 141.771932 144.521603 
L 163.051153 144.521603 
L 163.246376 136.337139 
L 163.441598 136.337139 
L 163.63682 133.254678 
L 163.832042 133.254678 
L 164.027264 132.191761 
L 172.42182 132.191761 
L 172.617042 131.766594 
L 191.163153 131.766594 
L 191.358375 126.770882 
L 209.514041 126.770882 
L 209.709263 122.94438 
L 211.466263 122.94438 
L 211.661485 121.243712 
L 215.761152 121.243712 
L 215.956374 120.49967 
L 220.056041 120.49967 
L 220.251263 120.180794 
L 265.738039 120.180794 
L 265.933261 103.386699 
L 277.060928 103.386699 
L 277.25615 103.811866 
L 301.658927 103.811866 
L 301.854149 115.078791 
L 302.049371 115.078791 
L 302.244594 118.373835 
L 314.153149 118.373835 
L 314.348371 119.436752 
L 327.818704 119.436752 
L 328.013926 119.755627 
L 730.757358 119.861919 
L 730.757358 119.861919 
" clip-path="url(#p07e474aa9a)" style="fill: none; stroke: #7f7f7f; stroke-width: 1.5; stroke-linecap: square"/>
   </g>
   <g id="patch_3">
    <path d="M 48.982812 309.784 
L 48.982812 43.672 
" style="fill: none; stroke: #000000; stroke-width: 0.8; stroke-linejoin: miter; stroke-linecap: square"/>
   </g>
   <g id="patch_4">
    <path d="M 763.222813 309.784 
L 763.222813 43.672 
" style="fill: none; stroke: #000000; stroke-width: 0.8; stroke-linejoin: miter; stroke-linecap: square"/>
   </g>
   <g id="patch_5">
    <path d="M 48.982812 309.784 
L 763.222813 309.784 
" style="fill: none; stroke: #000000; stroke-width: 0.8; stroke-linejoin: miter; stroke-linecap: square"/>
   </g>
   <g id="patch_6">
    <path d="M 48.982812 43.672 
L 763.222813 43.672 
" style="fill: none; stroke: #000000; stroke-width: 0.8; stroke-linejoin: miter; stroke-linecap: square"/>
   </g>
   <g id="text_15">
    <!-- Q-value vs step -->
    <g transform="translate(359.34875 37.672)scale(0.12 -0.12)">
     <use xlink:href="#DejaVuSans-51"/>
     <use xlink:href="#DejaVuSans-2d" x="81.460938"/>
     <use xlink:href="#DejaVuSans-76" x="114.919922"/>
     <use xlink:href="#DejaVuSans-61" x="174.099609"/>
     <use xlink:href="#DejaVuSans-6c" x="235.378906"/>
     <use xlink:href="#DejaVuSans-75" x="263.162109"/>
     <use xlink:href="#DejaVuSans-65" x="326.541016"/>
     <use xlink:href="#DejaVuSans-20" x="388.064453"/>
     <use xlink:href="#DejaVuSans-76" x="419.851562"/>
     <use xlink:href="#DejaVuSans-73" x="479.03125"/>
     <use xlink:href="#DejaVuSans-20" x="531.130859"/>
     <use xlink:href="#DejaVuSans-73" x="562.917969"/>
     <use xlink:href="#DejaVuSans-74" x="615.017578"/>
     <use xlink:href="#DejaVuSans-65" x="654.226562"/>
     <use xlink:href="#DejaVuSans-70" x="715.75"/>
    </g>
   </g>
  </g>
  <g id="legend_1">
   <g id="patch_7">
    <path d="M 771.659375 272.20625 
L 850.582812 272.20625 
Q 852.582812 272.20625 852.582812 270.20625 
L 852.582812 7 
Q 852.582812 5 850.582812 5 
L 771.659375 5 
Q 769.659375 5 769.659375 7 
L 769.659375 270.20625 
Q 769.659375 272.20625 771.659375 272.20625 
z
" style="fill: #ffffff; opacity: 0.8; stroke: #cccccc; stroke-linejoin: miter"/>
   </g>
   <g id="line2d_43">
    <path d="M 773.659375 13.098437 
L 783.659375 13.098437 
L 793.659375 13.098437 
" style="fill: none; stroke: #1f77b4; stroke-width: 1.5; stroke-linecap: square"/>
   </g>
   <g id="text_16">
    <!-- 0-0-right -->
    <g transform="translate(801.659375 16.598437)scale(0.1 -0.1)">
     <defs>
      <path id="DejaVuSans-72" d="M 2631 2963 
Q 2534 3019 2420 3045 
Q 2306 3072 2169 3072 
Q 1681 3072 1420 2755 
Q 1159 2438 1159 1844 
L 1159 0 
L 581 0 
L 581 3500 
L 1159 3500 
L 1159 2956 
Q 1341 3275 1631 3429 
Q 1922 3584 2338 3584 
Q 2397 3584 2469 3576 
Q 2541 3569 2628 3553 
L 2631 2963 
z
" transform="scale(0.015625)"/>
      <path id="DejaVuSans-69" d="M 603 3500 
L 1178 3500 
L 1178 0 
L 603 0 
L 603 3500 
z
M 603 4863 
L 1178 4863 
L 1178 4134 
L 603 4134 
L 603 4863 
z
" transform="scale(0.015625)"/>
      <path id="DejaVuSans-67" d="M 2906 1791 
Q 2906 2416 2648 2759 
Q 2391 3103 1925 3103 
Q 1463 3103 1205 2759 
Q 947 2416 947 1791 
Q 947 1169 1205 825 
Q 1463 481 1925 481 
Q 2391 481 2648 825 
Q 2906 1169 2906 1791 
z
M 3481 434 
Q 3481 -459 3084 -895 
Q 2688 -1331 1869 -1331 
Q 1566 -1331 1297 -1286 
Q 1028 -1241 775 -1147 
L 775 -588 
Q 1028 -725 1275 -790 
Q 1522 -856 1778 -856 
Q 2344 -856 2625 -561 
Q 2906 -266 2906 331 
L 2906 616 
Q 2728 306 2450 153 
Q 2172 0 1784 0 
Q 1141 0 747 490 
Q 353 981 353 1791 
Q 353 2603 747 3093 
Q 1141 3584 1784 3584 
Q 2172 3584 2450 3431 
Q 2728 3278 2906 2969 
L 2906 3500 
L 3481 3500 
L 3481 434 
z
" transform="scale(0.015625)"/>
      <path id="DejaVuSans-68" d="M 3513 2113 
L 3513 0 
L 2938 0 
L 2938 2094 
Q 2938 2591 2744 2837 
Q 2550 3084 2163 3084 
Q 1697 3084 1428 2787 
Q 1159 2491 1159 1978 
L 1159 0 
L 581 0 
L 581 4863 
L 1159 4863 
L 1159 2956 
Q 1366 3272 1645 3428 
Q 1925 3584 2291 3584 
Q 2894 3584 3203 3211 
Q 3513 2838 3513 2113 
z
" transform="scale(0.015625)"/>
     </defs>
     <use xlink:href="#DejaVuSans-30"/>
     <use xlink:href="#DejaVuSans-2d" x="63.623047"/>
     <use xlink:href="#DejaVuSans-30" x="99.707031"/>
     <use xlink:href="#DejaVuSans-2d" x="163.330078"/>
     <use xlink:href="#DejaVuSans-72" x="199.414062"/>
     <use xlink:href="#DejaVuSans-69" x="240.527344"/>
     <use xlink:href="#DejaVuSans-67" x="268.310547"/>
     <use xlink:href="#DejaVuSans-68" x="331.787109"/>
     <use xlink:href="#DejaVuSans-74" x="395.166016"/>
    </g>
   </g>
   <g id="line2d_44">
    <path d="M 773.659375 27.776563 
L 783.659375 27.776563 
L 793.659375 27.776563 
" style="fill: none; stroke: #ff7f0e; stroke-width: 1.5; stroke-linecap: square"/>
   </g>
   <g id="text_17">
    <!-- 0-0-up -->
    <g transform="translate(801.659375 31.276563)scale(0.1 -0.1)">
     <use xlink:href="#DejaVuSans-30"/>
     <use xlink:href="#DejaVuSans-2d" x="63.623047"/>
     <use xlink:href="#DejaVuSans-30" x="99.707031"/>
     <use xlink:href="#DejaVuSans-2d" x="163.330078"/>
     <use xlink:href="#DejaVuSans-75" x="199.414062"/>
     <use xlink:href="#DejaVuSans-70" x="262.792969"/>
    </g>
   </g>
   <g id="line2d_45">
    <path d="M 773.659375 42.454687 
L 783.659375 42.454687 
L 793.659375 42.454687 
" style="fill: none; stroke: #2ca02c; stroke-width: 1.5; stroke-linecap: square"/>
   </g>
   <g id="text_18">
    <!-- 0-1-down -->
    <g transform="translate(801.659375 45.954687)scale(0.1 -0.1)">
     <defs>
      <path id="DejaVuSans-64" d="M 2906 2969 
L 2906 4863 
L 3481 4863 
L 3481 0 
L 2906 0 
L 2906 525 
Q 2725 213 2448 61 
Q 2172 -91 1784 -91 
Q 1150 -91 751 415 
Q 353 922 353 1747 
Q 353 2572 751 3078 
Q 1150 3584 1784 3584 
Q 2172 3584 2448 3432 
Q 2725 3281 2906 2969 
z
M 947 1747 
Q 947 1113 1208 752 
Q 1469 391 1925 391 
Q 2381 391 2643 752 
Q 2906 1113 2906 1747 
Q 2906 2381 2643 2742 
Q 2381 3103 1925 3103 
Q 1469 3103 1208 2742 
Q 947 2381 947 1747 
z
" transform="scale(0.015625)"/>
      <path id="DejaVuSans-6f" d="M 1959 3097 
Q 1497 3097 1228 2736 
Q 959 2375 959 1747 
Q 959 1119 1226 758 
Q 1494 397 1959 397 
Q 2419 397 2687 759 
Q 2956 1122 2956 1747 
Q 2956 2369 2687 2733 
Q 2419 3097 1959 3097 
z
M 1959 3584 
Q 2709 3584 3137 3096 
Q 3566 2609 3566 1747 
Q 3566 888 3137 398 
Q 2709 -91 1959 -91 
Q 1206 -91 779 398 
Q 353 888 353 1747 
Q 353 2609 779 3096 
Q 1206 3584 1959 3584 
z
" transform="scale(0.015625)"/>
      <path id="DejaVuSans-77" d="M 269 3500 
L 844 3500 
L 1563 769 
L 2278 3500 
L 2956 3500 
L 3675 769 
L 4391 3500 
L 4966 3500 
L 4050 0 
L 3372 0 
L 2619 2869 
L 1863 0 
L 1184 0 
L 269 3500 
z
" transform="scale(0.015625)"/>
      <path id="DejaVuSans-6e" d="M 3513 2113 
L 3513 0 
L 2938 0 
L 2938 2094 
Q 2938 2591 2744 2837 
Q 2550 3084 2163 3084 
Q 1697 3084 1428 2787 
Q 1159 2491 1159 1978 
L 1159 0 
L 581 0 
L 581 3500 
L 1159 3500 
L 1159 2956 
Q 1366 3272 1645 3428 
Q 1925 3584 2291 3584 
Q 2894 3584 3203 3211 
Q 3513 2838 3513 2113 
z
" transform="scale(0.015625)"/>
     </defs>
     <use xlink:href="#DejaVuSans-30"/>
     <use xlink:href="#DejaVuSans-2d" x="63.623047"/>
     <use xlink:href="#DejaVuSans-31" x="99.707031"/>
     <use xlink:href="#DejaVuSans-2d" x="163.330078"/>
     <use xlink:href="#DejaVuSans-64" x="199.414062"/>
     <use xlink:href="#DejaVuSans-6f" x="262.890625"/>
     <use xlink:href="#DejaVuSans-77" x="324.072266"/>
     <use xlink:href="#DejaVuSans-6e" x="405.859375"/>
    </g>
   </g>
   <g id="line2d_46">
    <path d="M 773.659375 57.132812 
L 783.659375 57.132812 
L 793.659375 57.132812 
" style="fill: none; stroke: #d62728; stroke-width: 1.5; stroke-linecap: square"/>
   </g>
   <g id="text_19">
    <!-- 0-1-right -->
    <g transform="translate(801.659375 60.632812)scale(0.1 -0.1)">
     <use xlink:href="#DejaVuSans-30"/>
     <use xlink:href="#DejaVuSans-2d" x="63.623047"/>
     <use xlink:href="#DejaVuSans-31" x="99.707031"/>
     <use xlink:href="#DejaVuSans-2d" x="163.330078"/>
     <use xlink:href="#DejaVuSans-72" x="199.414062"/>
     <use xlink:href="#DejaVuSans-69" x="240.527344"/>
     <use xlink:href="#DejaVuSans-67" x="268.310547"/>
     <use xlink:href="#DejaVuSans-68" x="331.787109"/>
     <use xlink:href="#DejaVuSans-74" x="395.166016"/>
    </g>
   </g>
   <g id="line2d_47">
    <path d="M 773.659375 71.810938 
L 783.659375 71.810938 
L 793.659375 71.810938 
" style="fill: none; stroke: #9467bd; stroke-width: 1.5; stroke-linecap: square"/>
   </g>
   <g id="text_20">
    <!-- 0-1-up -->
    <g transform="translate(801.659375 75.310938)scale(0.1 -0.1)">
     <use xlink:href="#DejaVuSans-30"/>
     <use xlink:href="#DejaVuSans-2d" x="63.623047"/>
     <use xlink:href="#DejaVuSans-31" x="99.707031"/>
     <use xlink:href="#DejaVuSans-2d" x="163.330078"/>
     <use xlink:href="#DejaVuSans-75" x="199.414062"/>
     <use xlink:href="#DejaVuSans-70" x="262.792969"/>
    </g>
   </g>
   <g id="line2d_48">
    <path d="M 773.659375 86.489062 
L 783.659375 86.489062 
L 793.659375 86.489062 
" style="fill: none; stroke: #8c564b; stroke-width: 1.5; stroke-linecap: square"/>
   </g>
   <g id="text_21">
    <!-- 0-2-down -->
    <g transform="translate(801.659375 89.989062)scale(0.1 -0.1)">
     <use xlink:href="#DejaVuSans-30"/>
     <use xlink:href="#DejaVuSans-2d" x="63.623047"/>
     <use xlink:href="#DejaVuSans-32" x="99.707031"/>
     <use xlink:href="#DejaVuSans-2d" x="163.330078"/>
     <use xlink:href="#DejaVuSans-64" x="199.414062"/>
     <use xlink:href="#DejaVuSans-6f" x="262.890625"/>
     <use xlink:href="#DejaVuSans-77" x="324.072266"/>
     <use xlink:href="#DejaVuSans-6e" x="405.859375"/>
    </g>
   </g>
   <g id="line2d_49">
    <path d="M 773.659375 101.167188 
L 783.659375 101.167188 
L 793.659375 101.167188 
" style="fill: none; stroke: #e377c2; stroke-width: 1.5; stroke-linecap: square"/>
   </g>
   <g id="text_22">
    <!-- 0-2-right -->
    <g transform="translate(801.659375 104.667188)scale(0.1 -0.1)">
     <use xlink:href="#DejaVuSans-30"/>
     <use xlink:href="#DejaVuSans-2d" x="63.623047"/>
     <use xlink:href="#DejaVuSans-32" x="99.707031"/>
     <use xlink:href="#DejaVuSans-2d" x="163.330078"/>
     <use xlink:href="#DejaVuSans-72" x="199.414062"/>
     <use xlink:href="#DejaVuSans-69" x="240.527344"/>
     <use xlink:href="#DejaVuSans-67" x="268.310547"/>
     <use xlink:href="#DejaVuSans-68" x="331.787109"/>
     <use xlink:href="#DejaVuSans-74" x="395.166016"/>
    </g>
   </g>
   <g id="line2d_50">
    <path d="M 773.659375 115.845312 
L 783.659375 115.845312 
L 793.659375 115.845312 
" style="fill: none; stroke: #7f7f7f; stroke-width: 1.5; stroke-linecap: square"/>
   </g>
   <g id="text_23">
    <!-- 1-0-left -->
    <g transform="translate(801.659375 119.345312)scale(0.1 -0.1)">
     <defs>
      <path id="DejaVuSans-66" d="M 2375 4863 
L 2375 4384 
L 1825 4384 
Q 1516 4384 1395 4259 
Q 1275 4134 1275 3809 
L 1275 3500 
L 2222 3500 
L 2222 3053 
L 1275 3053 
L 1275 0 
L 697 0 
L 697 3053 
L 147 3053 
L 147 3500 
L 697 3500 
L 697 3744 
Q 697 4328 969 4595 
Q 1241 4863 1831 4863 
L 2375 4863 
z
" transform="scale(0.015625)"/>
     </defs>
     <use xlink:href="#DejaVuSans-31"/>
     <use xlink:href="#DejaVuSans-2d" x="63.623047"/>
     <use xlink:href="#DejaVuSans-30" x="99.707031"/>
     <use xlink:href="#DejaVuSans-2d" x="163.330078"/>
     <use xlink:href="#DejaVuSans-6c" x="199.414062"/>
     <use xlink:href="#DejaVuSans-65" x="227.197266"/>
     <use xlink:href="#DejaVuSans-66" x="288.720703"/>
     <use xlink:href="#DejaVuSans-74" x="322.175781"/>
    </g>
   </g>
   <g id="line2d_51">
    <path d="M 773.659375 130.523438 
L 783.659375 130.523438 
L 793.659375 130.523438 
" style="fill: none; stroke: #bcbd22; stroke-width: 1.5; stroke-linecap: square"/>
   </g>
   <g id="text_24">
    <!-- 1-0-right -->
    <g transform="translate(801.659375 134.023438)scale(0.1 -0.1)">
     <use xlink:href="#DejaVuSans-31"/>
     <use xlink:href="#DejaVuSans-2d" x="63.623047"/>
     <use xlink:href="#DejaVuSans-30" x="99.707031"/>
     <use xlink:href="#DejaVuSans-2d" x="163.330078"/>
     <use xlink:href="#DejaVuSans-72" x="199.414062"/>
     <use xlink:href="#DejaVuSans-69" x="240.527344"/>
     <use xlink:href="#DejaVuSans-67" x="268.310547"/>
     <use xlink:href="#DejaVuSans-68" x="331.787109"/>
     <use xlink:href="#DejaVuSans-74" x="395.166016"/>
    </g>
   </g>
   <g id="line2d_52">
    <path d="M 773.659375 145.201562 
L 783.659375 145.201562 
L 793.659375 145.201562 
" style="fill: none; stroke: #17becf; stroke-width: 1.5; stroke-linecap: square"/>
   </g>
   <g id="text_25">
    <!-- 1-0-up -->
    <g transform="translate(801.659375 148.701562)scale(0.1 -0.1)">
     <use xlink:href="#DejaVuSans-31"/>
     <use xlink:href="#DejaVuSans-2d" x="63.623047"/>
     <use xlink:href="#DejaVuSans-30" x="99.707031"/>
     <use xlink:href="#DejaVuSans-2d" x="163.330078"/>
     <use xlink:href="#DejaVuSans-75" x="199.414062"/>
     <use xlink:href="#DejaVuSans-70" x="262.792969"/>
    </g>
   </g>
   <g id="line2d_53">
    <path d="M 773.659375 159.879687 
L 783.659375 159.879687 
L 793.659375 159.879687 
" style="fill: none; stroke: #1f77b4; stroke-width: 1.5; stroke-linecap: square"/>
   </g>
   <g id="text_26">
    <!-- 1-2-down -->
    <g transform="translate(801.659375 163.379687)scale(0.1 -0.1)">
     <use xlink:href="#DejaVuSans-31"/>
     <use xlink:href="#DejaVuSans-2d" x="63.623047"/>
     <use xlink:href="#DejaVuSans-32" x="99.707031"/>
     <use xlink:href="#DejaVuSans-2d" x="163.330078"/>
     <use xlink:href="#DejaVuSans-64" x="199.414062"/>
     <use xlink:href="#DejaVuSans-6f" x="262.890625"/>
     <use xlink:href="#DejaVuSans-77" x="324.072266"/>
     <use xlink:href="#DejaVuSans-6e" x="405.859375"/>
    </g>
   </g>
   <g id="line2d_54">
    <path d="M 773.659375 174.557812 
L 783.659375 174.557812 
L 793.659375 174.557812 
" style="fill: none; stroke: #ff7f0e; stroke-width: 1.5; stroke-linecap: square"/>
   </g>
   <g id="text_27">
    <!-- 1-2-left -->
    <g transform="translate(801.659375 178.057812)scale(0.1 -0.1)">
     <use xlink:href="#DejaVuSans-31"/>
     <use xlink:href="#DejaVuSans-2d" x="63.623047"/>
     <use xlink:href="#DejaVuSans-32" x="99.707031"/>
     <use xlink:href="#DejaVuSans-2d" x="163.330078"/>
     <use xlink:href="#DejaVuSans-6c" x="199.414062"/>
     <use xlink:href="#DejaVuSans-65" x="227.197266"/>
     <use xlink:href="#DejaVuSans-66" x="288.720703"/>
     <use xlink:href="#DejaVuSans-74" x="322.175781"/>
    </g>
   </g>
   <g id="line2d_55">
    <path d="M 773.659375 189.235937 
L 783.659375 189.235937 
L 793.659375 189.235937 
" style="fill: none; stroke: #2ca02c; stroke-width: 1.5; stroke-linecap: square"/>
   </g>
   <g id="text_28">
    <!-- 1-2-right -->
    <g transform="translate(801.659375 192.735937)scale(0.1 -0.1)">
     <use xlink:href="#DejaVuSans-31"/>
     <use xlink:href="#DejaVuSans-2d" x="63.623047"/>
     <use xlink:href="#DejaVuSans-32" x="99.707031"/>
     <use xlink:href="#DejaVuSans-2d" x="163.330078"/>
     <use xlink:href="#DejaVuSans-72" x="199.414062"/>
     <use xlink:href="#DejaVuSans-69" x="240.527344"/>
     <use xlink:href="#DejaVuSans-67" x="268.310547"/>
     <use xlink:href="#DejaVuSans-68" x="331.787109"/>
     <use xlink:href="#DejaVuSans-74" x="395.166016"/>
    </g>
   </g>
   <g id="line2d_56">
    <path d="M 773.659375 203.914062 
L 783.659375 203.914062 
L 793.659375 203.914062 
" style="fill: none; stroke: #d62728; stroke-width: 1.5; stroke-linecap: square"/>
   </g>
   <g id="text_29">
    <!-- 2-1-down -->
    <g transform="translate(801.659375 207.414062)scale(0.1 -0.1)">
     <use xlink:href="#DejaVuSans-32"/>
     <use xlink:href="#DejaVuSans-2d" x="63.623047"/>
     <use xlink:href="#DejaVuSans-31" x="99.707031"/>
     <use xlink:href="#DejaVuSans-2d" x="163.330078"/>
     <use xlink:href="#DejaVuSans-64" x="199.414062"/>
     <use xlink:href="#DejaVuSans-6f" x="262.890625"/>
     <use xlink:href="#DejaVuSans-77" x="324.072266"/>
     <use xlink:href="#DejaVuSans-6e" x="405.859375"/>
    </g>
   </g>
   <g id="line2d_57">
    <path d="M 773.659375 218.592187 
L 783.659375 218.592187 
L 793.659375 218.592187 
" style="fill: none; stroke: #9467bd; stroke-width: 1.5; stroke-linecap: square"/>
   </g>
   <g id="text_30">
    <!-- 2-1-left -->
    <g transform="translate(801.659375 222.092187)scale(0.1 -0.1)">
     <use xlink:href="#DejaVuSans-32"/>
     <use xlink:href="#DejaVuSans-2d" x="63.623047"/>
     <use xlink:href="#DejaVuSans-31" x="99.707031"/>
     <use xlink:href="#DejaVuSans-2d" x="163.330078"/>
     <use xlink:href="#DejaVuSans-6c" x="199.414062"/>
     <use xlink:href="#DejaVuSans-65" x="227.197266"/>
     <use xlink:href="#DejaVuSans-66" x="288.720703"/>
     <use xlink:href="#DejaVuSans-74" x="322.175781"/>
    </g>
   </g>
   <g id="line2d_58">
    <path d="M 773.659375 233.270312 
L 783.659375 233.270312 
L 793.659375 233.270312 
" style="fill: none; stroke: #8c564b; stroke-width: 1.5; stroke-linecap: square"/>
   </g>
   <g id="text_31">
    <!-- 2-1-up -->
    <g transform="translate(801.659375 236.770312)scale(0.1 -0.1)">
     <use xlink:href="#DejaVuSans-32"/>
     <use xlink:href="#DejaVuSans-2d" x="63.623047"/>
     <use xlink:href="#DejaVuSans-31" x="99.707031"/>
     <use xlink:href="#DejaVuSans-2d" x="163.330078"/>
     <use xlink:href="#DejaVuSans-75" x="199.414062"/>
     <use xlink:href="#DejaVuSans-70" x="262.792969"/>
    </g>
   </g>
   <g id="line2d_59">
    <path d="M 773.659375 247.948437 
L 783.659375 247.948437 
L 793.659375 247.948437 
" style="fill: none; stroke: #e377c2; stroke-width: 1.5; stroke-linecap: square"/>
   </g>
   <g id="text_32">
    <!-- 2-2-down -->
    <g transform="translate(801.659375 251.448437)scale(0.1 -0.1)">
     <use xlink:href="#DejaVuSans-32"/>
     <use xlink:href="#DejaVuSans-2d" x="63.623047"/>
     <use xlink:href="#DejaVuSans-32" x="99.707031"/>
     <use xlink:href="#DejaVuSans-2d" x="163.330078"/>
     <use xlink:href="#DejaVuSans-64" x="199.414062"/>
     <use xlink:href="#DejaVuSans-6f" x="262.890625"/>
     <use xlink:href="#DejaVuSans-77" x="324.072266"/>
     <use xlink:href="#DejaVuSans-6e" x="405.859375"/>
    </g>
   </g>
   <g id="line2d_60">
    <path d="M 773.659375 262.626562 
L 783.659375 262.626562 
L 793.659375 262.626562 
" style="fill: none; stroke: #7f7f7f; stroke-width: 1.5; stroke-linecap: square"/>
   </g>
   <g id="text_33">
    <!-- 2-2-left -->
    <g transform="translate(801.659375 266.126562)scale(0.1 -0.1)">
     <use xlink:href="#DejaVuSans-32"/>
     <use xlink:href="#DejaVuSans-2d" x="63.623047"/>
     <use xlink:href="#DejaVuSans-32" x="99.707031"/>
     <use xlink:href="#DejaVuSans-2d" x="163.330078"/>
     <use xlink:href="#DejaVuSans-6c" x="199.414062"/>
     <use xlink:href="#DejaVuSans-65" x="227.197266"/>
     <use xlink:href="#DejaVuSans-66" x="288.720703"/>
     <use xlink:href="#DejaVuSans-74" x="322.175781"/>
    </g>
   </g>
  </g>
 </g>
 <defs>
  <clipPath id="p07e474aa9a">
   <rect x="48.982812" y="43.672" width="714.24" height="266.112"/>
  </clipPath>
 </defs>
</svg>
