<?xml version="1.0" encoding="UTF-8" standalone="no"?>
<!DOCTYPE svg PUBLIC "-//W3C//DTD SVG 1.1//EN"
 "http://www.w3.org/Graphics/SVG/1.1/DTD/svg11.dtd">
<!-- Generated by graphviz version 2.49.3 (20211023.0002)
 -->
<!-- Title: g Pages: 1 -->
<svg width="1127pt" height="1457pt"
 viewBox="0.00 0.00 1126.50 1457.00" xmlns="http://www.w3.org/2000/svg" xmlns:xlink="http://www.w3.org/1999/xlink">
<g id="graph0" class="graph" transform="scale(1 1) rotate(0) translate(4 1453)">
<title>g</title>
<polygon fill="white" stroke="transparent" points="-4,4 -4,-1453 1122.5,-1453 1122.5,4 -4,4"/>
<!-- 4505418048 -->
<g id="node1" class="node">
<title>4505418048</title>
<path fill="none" stroke="black" d="M166.5,-1305.5C166.5,-1305.5 335.5,-1305.5 335.5,-1305.5 341.5,-1305.5 347.5,-1311.5 347.5,-1317.5 347.5,-1317.5 347.5,-1436.5 347.5,-1436.5 347.5,-1442.5 341.5,-1448.5 335.5,-1448.5 335.5,-1448.5 166.5,-1448.5 166.5,-1448.5 160.5,-1448.5 154.5,-1442.5 154.5,-1436.5 154.5,-1436.5 154.5,-1317.5 154.5,-1317.5 154.5,-1311.5 160.5,-1305.5 166.5,-1305.5"/>
<text text-anchor="start" x="162.5" y="-1433.3" font-family="Courier New" font-size="14.00">ip = 18</text>
<text text-anchor="start" x="162.5" y="-1418.3" font-family="Courier New" font-size="14.00">cell00 = 254 + input0</text>
<text text-anchor="start" x="162.5" y="-1403.3" font-family="Courier New" font-size="14.00">cell01 = input1</text>
<text text-anchor="start" x="162.5" y="-1388.3" font-family="Courier New" font-size="14.00">cell02 = input2</text>
<text text-anchor="start" x="162.5" y="-1373.3" font-family="Courier New" font-size="14.00">cell03 = 1</text>
<text text-anchor="start" x="162.5" y="-1358.3" font-family="Courier New" font-size="14.00">cell04 = 1</text>
<text text-anchor="start" x="162.5" y="-1343.3" font-family="Courier New" font-size="14.00">cell05 = 1</text>
<text text-anchor="start" x="162.5" y="-1328.3" font-family="Courier New" font-size="14.00">dp = 0</text>
<text text-anchor="middle" x="251" y="-1313.3" font-family="Courier New" font-size="14.00">True</text>
</g>
<!-- 4538820608 -->
<g id="node2" class="node">
<title>4538820608</title>
<path fill="none" stroke="black" d="M61.5,-990.5C61.5,-990.5 230.5,-990.5 230.5,-990.5 236.5,-990.5 242.5,-996.5 242.5,-1002.5 242.5,-1002.5 242.5,-1256.5 242.5,-1256.5 242.5,-1262.5 236.5,-1268.5 230.5,-1268.5 230.5,-1268.5 61.5,-1268.5 61.5,-1268.5 55.5,-1268.5 49.5,-1262.5 49.5,-1256.5 49.5,-1256.5 49.5,-1002.5 49.5,-1002.5 49.5,-996.5 55.5,-990.5 61.5,-990.5"/>
<text text-anchor="start" x="57.5" y="-1253.3" font-family="Courier New" font-size="14.00">ip = 306</text>
<text text-anchor="start" x="57.5" y="-1238.3" font-family="Courier New" font-size="14.00">cell00 = 254 + input0</text>
<text text-anchor="start" x="57.5" y="-1223.3" font-family="Courier New" font-size="14.00">cell01 = input1</text>
<text text-anchor="start" x="57.5" y="-1208.3" font-family="Courier New" font-size="14.00">cell02 = input2</text>
<text text-anchor="start" x="57.5" y="-1193.3" font-family="Courier New" font-size="14.00">cell03 = 0</text>
<text text-anchor="start" x="57.5" y="-1178.3" font-family="Courier New" font-size="14.00">cell04 = 1</text>
<text text-anchor="start" x="57.5" y="-1163.3" font-family="Courier New" font-size="14.00">cell05 = 1</text>
<text text-anchor="start" x="57.5" y="-1148.3" font-family="Courier New" font-size="14.00">cell06 = 0</text>
<text text-anchor="start" x="57.5" y="-1133.3" font-family="Courier New" font-size="14.00">cell07 = 76</text>
<text text-anchor="start" x="57.5" y="-1118.3" font-family="Courier New" font-size="14.00">cell08 = 10</text>
<text text-anchor="start" x="57.5" y="-1103.3" font-family="Courier New" font-size="14.00">dp = 6</text>
<text text-anchor="start" x="57.5" y="-1088.3" font-family="Courier New" font-size="14.00">output0 = 70 &#39;F&#39;</text>
<text text-anchor="start" x="57.5" y="-1073.3" font-family="Courier New" font-size="14.00">output1 = 65 &#39;A&#39;</text>
<text text-anchor="start" x="57.5" y="-1058.3" font-family="Courier New" font-size="14.00">output2 = 73 &#39;I&#39;</text>
<text text-anchor="start" x="57.5" y="-1043.3" font-family="Courier New" font-size="14.00">output3 = 76 &#39;L&#39;</text>
<text text-anchor="start" x="57.5" y="-1028.3" font-family="Courier New" font-size="14.00">output4 = 10 &#39;</text>
<text text-anchor="start" x="57.5" y="-1013.3" font-family="Courier New" font-size="14.00">&#39;</text>
<text text-anchor="middle" x="146" y="-998.3" font-family="Courier New" font-size="14.00">Not(input0 == 2)</text>
</g>
<!-- 4505418048&#45;&gt;4538820608 -->
<g id="edge1" class="edge">
<title>4505418048&#45;&gt;4538820608</title>
<path fill="none" stroke="black" d="M220.77,-1305.32C217.04,-1296.61 213.13,-1287.47 209.14,-1278.13"/>
<polygon fill="black" stroke="black" points="212.27,-1276.54 205.12,-1268.73 205.83,-1279.3 212.27,-1276.54"/>
</g>
<!-- 4538822048 -->
<g id="node3" class="node">
<title>4538822048</title>
<path fill="none" stroke="black" d="M272.5,-1058C272.5,-1058 441.5,-1058 441.5,-1058 447.5,-1058 453.5,-1064 453.5,-1070 453.5,-1070 453.5,-1189 453.5,-1189 453.5,-1195 447.5,-1201 441.5,-1201 441.5,-1201 272.5,-1201 272.5,-1201 266.5,-1201 260.5,-1195 260.5,-1189 260.5,-1189 260.5,-1070 260.5,-1070 260.5,-1064 266.5,-1058 272.5,-1058"/>
<text text-anchor="start" x="268.5" y="-1185.8" font-family="Courier New" font-size="14.00">ip = 92</text>
<text text-anchor="start" x="268.5" y="-1170.8" font-family="Courier New" font-size="14.00">cell00 = 254 + input0</text>
<text text-anchor="start" x="268.5" y="-1155.8" font-family="Courier New" font-size="14.00">cell01 = 252 + input1</text>
<text text-anchor="start" x="268.5" y="-1140.8" font-family="Courier New" font-size="14.00">cell02 = input2</text>
<text text-anchor="start" x="268.5" y="-1125.8" font-family="Courier New" font-size="14.00">cell03 = 0</text>
<text text-anchor="start" x="268.5" y="-1110.8" font-family="Courier New" font-size="14.00">cell04 = 1</text>
<text text-anchor="start" x="268.5" y="-1095.8" font-family="Courier New" font-size="14.00">cell05 = 1</text>
<text text-anchor="start" x="268.5" y="-1080.8" font-family="Courier New" font-size="14.00">dp = 1</text>
<text text-anchor="middle" x="357" y="-1065.8" font-family="Courier New" font-size="14.00">input0 == 2</text>
</g>
<!-- 4505418048&#45;&gt;4538822048 -->
<g id="edge2" class="edge">
<title>4505418048&#45;&gt;4538822048</title>
<path fill="none" stroke="black" d="M281.52,-1305.32C294.32,-1275.67 309.27,-1241.04 322.48,-1210.46"/>
<polygon fill="black" stroke="black" points="325.76,-1211.67 326.51,-1201.11 319.34,-1208.9 325.76,-1211.67"/>
</g>
<!-- 4538820992 -->
<g id="node4" class="node">
<title>4538820992</title>
<path fill="none" stroke="black" d="M50,-675.5C50,-675.5 328,-675.5 328,-675.5 334,-675.5 340,-681.5 340,-687.5 340,-687.5 340,-941.5 340,-941.5 340,-947.5 334,-953.5 328,-953.5 328,-953.5 50,-953.5 50,-953.5 44,-953.5 38,-947.5 38,-941.5 38,-941.5 38,-687.5 38,-687.5 38,-681.5 44,-675.5 50,-675.5"/>
<text text-anchor="start" x="46" y="-938.3" font-family="Courier New" font-size="14.00">ip = 92</text>
<text text-anchor="start" x="46" y="-923.3" font-family="Courier New" font-size="14.00">cell00 = 254 + input0</text>
<text text-anchor="start" x="46" y="-908.3" font-family="Courier New" font-size="14.00">cell01 = 252 + input1</text>
<text text-anchor="start" x="46" y="-893.3" font-family="Courier New" font-size="14.00">cell02 = input2</text>
<text text-anchor="start" x="46" y="-878.3" font-family="Courier New" font-size="14.00">cell03 = 0</text>
<text text-anchor="start" x="46" y="-863.3" font-family="Courier New" font-size="14.00">cell04 = 0</text>
<text text-anchor="start" x="46" y="-848.3" font-family="Courier New" font-size="14.00">cell05 = 1</text>
<text text-anchor="start" x="46" y="-833.3" font-family="Courier New" font-size="14.00">cell06 = 0</text>
<text text-anchor="start" x="46" y="-818.3" font-family="Courier New" font-size="14.00">cell07 = 76</text>
<text text-anchor="start" x="46" y="-803.3" font-family="Courier New" font-size="14.00">cell08 = 10</text>
<text text-anchor="start" x="46" y="-788.3" font-family="Courier New" font-size="14.00">dp = 0</text>
<text text-anchor="start" x="46" y="-773.3" font-family="Courier New" font-size="14.00">output0 = 70 &#39;F&#39;</text>
<text text-anchor="start" x="46" y="-758.3" font-family="Courier New" font-size="14.00">output1 = 65 &#39;A&#39;</text>
<text text-anchor="start" x="46" y="-743.3" font-family="Courier New" font-size="14.00">output2 = 73 &#39;I&#39;</text>
<text text-anchor="start" x="46" y="-728.3" font-family="Courier New" font-size="14.00">output3 = 76 &#39;L&#39;</text>
<text text-anchor="start" x="46" y="-713.3" font-family="Courier New" font-size="14.00">output4 = 10 &#39;</text>
<text text-anchor="start" x="46" y="-698.3" font-family="Courier New" font-size="14.00">&#39;</text>
<text text-anchor="middle" x="189" y="-683.3" font-family="Courier New" font-size="14.00">And(input0 == 2, Not(input1 == 4))</text>
</g>
<!-- 4538822048&#45;&gt;4538820992 -->
<g id="edge3" class="edge">
<title>4538822048&#45;&gt;4538820992</title>
<path fill="none" stroke="black" d="M319.09,-1057.87C303.9,-1029.56 285.79,-995.83 267.99,-962.67"/>
<polygon fill="black" stroke="black" points="271.04,-960.95 263.23,-953.79 264.87,-964.26 271.04,-960.95"/>
</g>
<!-- 4538824640 -->
<g id="node6" class="node">
<title>4538824640</title>
<path fill="none" stroke="black" d="M408,-743C408,-743 644,-743 644,-743 650,-743 656,-749 656,-755 656,-755 656,-874 656,-874 656,-880 650,-886 644,-886 644,-886 408,-886 408,-886 402,-886 396,-880 396,-874 396,-874 396,-755 396,-755 396,-749 402,-743 408,-743"/>
<text text-anchor="start" x="404" y="-870.8" font-family="Courier New" font-size="14.00">ip = 170</text>
<text text-anchor="start" x="404" y="-855.8" font-family="Courier New" font-size="14.00">cell00 = 254 + input0</text>
<text text-anchor="start" x="404" y="-840.8" font-family="Courier New" font-size="14.00">cell01 = 252 + input1</text>
<text text-anchor="start" x="404" y="-825.8" font-family="Courier New" font-size="14.00">cell02 = 250 + input2</text>
<text text-anchor="start" x="404" y="-810.8" font-family="Courier New" font-size="14.00">cell03 = 0</text>
<text text-anchor="start" x="404" y="-795.8" font-family="Courier New" font-size="14.00">cell04 = 0</text>
<text text-anchor="start" x="404" y="-780.8" font-family="Courier New" font-size="14.00">cell05 = 1</text>
<text text-anchor="start" x="404" y="-765.8" font-family="Courier New" font-size="14.00">dp = 2</text>
<text text-anchor="middle" x="526" y="-750.8" font-family="Courier New" font-size="14.00">And(input0 == 2, input1 == 4)</text>
</g>
<!-- 4538822048&#45;&gt;4538824640 -->
<g id="edge4" class="edge">
<title>4538822048&#45;&gt;4538824640</title>
<path fill="none" stroke="black" d="M395.14,-1057.87C421.27,-1009.48 455.96,-945.22 483.06,-895.03"/>
<polygon fill="black" stroke="black" points="486.18,-896.61 487.86,-886.15 480.02,-893.28 486.18,-896.61"/>
</g>
<!-- 4539172128 -->
<g id="node5" class="node">
<title>4539172128</title>
<path fill="none" stroke="black" d="M12,-338C12,-338 290,-338 290,-338 296,-338 302,-344 302,-350 302,-350 302,-604 302,-604 302,-610 296,-616 290,-616 290,-616 12,-616 12,-616 6,-616 0,-610 0,-604 0,-604 0,-350 0,-350 0,-344 6,-338 12,-338"/>
<text text-anchor="start" x="8" y="-600.8" font-family="Courier New" font-size="14.00">ip = 306</text>
<text text-anchor="start" x="8" y="-585.8" font-family="Courier New" font-size="14.00">cell00 = 254 + input0</text>
<text text-anchor="start" x="8" y="-570.8" font-family="Courier New" font-size="14.00">cell01 = 252 + input1</text>
<text text-anchor="start" x="8" y="-555.8" font-family="Courier New" font-size="14.00">cell02 = input2</text>
<text text-anchor="start" x="8" y="-540.8" font-family="Courier New" font-size="14.00">cell03 = 0</text>
<text text-anchor="start" x="8" y="-525.8" font-family="Courier New" font-size="14.00">cell04 = 0</text>
<text text-anchor="start" x="8" y="-510.8" font-family="Courier New" font-size="14.00">cell05 = 1</text>
<text text-anchor="start" x="8" y="-495.8" font-family="Courier New" font-size="14.00">cell06 = 0</text>
<text text-anchor="start" x="8" y="-480.8" font-family="Courier New" font-size="14.00">cell07 = 76</text>
<text text-anchor="start" x="8" y="-465.8" font-family="Courier New" font-size="14.00">cell08 = 10</text>
<text text-anchor="start" x="8" y="-450.8" font-family="Courier New" font-size="14.00">dp = 3</text>
<text text-anchor="start" x="8" y="-435.8" font-family="Courier New" font-size="14.00">output0 = 70 &#39;F&#39;</text>
<text text-anchor="start" x="8" y="-420.8" font-family="Courier New" font-size="14.00">output1 = 65 &#39;A&#39;</text>
<text text-anchor="start" x="8" y="-405.8" font-family="Courier New" font-size="14.00">output2 = 73 &#39;I&#39;</text>
<text text-anchor="start" x="8" y="-390.8" font-family="Courier New" font-size="14.00">output3 = 76 &#39;L&#39;</text>
<text text-anchor="start" x="8" y="-375.8" font-family="Courier New" font-size="14.00">output4 = 10 &#39;</text>
<text text-anchor="start" x="8" y="-360.8" font-family="Courier New" font-size="14.00">&#39;</text>
<text text-anchor="middle" x="151" y="-345.8" font-family="Courier New" font-size="14.00">And(input0 == 2, Not(input1 == 4))</text>
</g>
<!-- 4538820992&#45;&gt;4539172128 -->
<g id="edge5" class="edge">
<title>4538820992&#45;&gt;4539172128</title>
<path fill="none" stroke="black" d="M173.32,-675.1C171.5,-658.96 169.63,-642.44 167.78,-626.17"/>
<polygon fill="black" stroke="black" points="171.24,-625.62 166.64,-616.08 164.29,-626.41 171.24,-625.62"/>
</g>
<!-- 4538826704 -->
<g id="node7" class="node">
<title>4538826704</title>
<path fill="none" stroke="black" d="M332.5,-338C332.5,-338 719.5,-338 719.5,-338 725.5,-338 731.5,-344 731.5,-350 731.5,-350 731.5,-604 731.5,-604 731.5,-610 725.5,-616 719.5,-616 719.5,-616 332.5,-616 332.5,-616 326.5,-616 320.5,-610 320.5,-604 320.5,-604 320.5,-350 320.5,-350 320.5,-344 326.5,-338 332.5,-338"/>
<text text-anchor="start" x="328.5" y="-600.8" font-family="Courier New" font-size="14.00">ip = 170</text>
<text text-anchor="start" x="328.5" y="-585.8" font-family="Courier New" font-size="14.00">cell00 = 254 + input0</text>
<text text-anchor="start" x="328.5" y="-570.8" font-family="Courier New" font-size="14.00">cell01 = 252 + input1</text>
<text text-anchor="start" x="328.5" y="-555.8" font-family="Courier New" font-size="14.00">cell02 = 250 + input2</text>
<text text-anchor="start" x="328.5" y="-540.8" font-family="Courier New" font-size="14.00">cell03 = 0</text>
<text text-anchor="start" x="328.5" y="-525.8" font-family="Courier New" font-size="14.00">cell04 = 0</text>
<text text-anchor="start" x="328.5" y="-510.8" font-family="Courier New" font-size="14.00">cell05 = 0</text>
<text text-anchor="start" x="328.5" y="-495.8" font-family="Courier New" font-size="14.00">cell07 = 0</text>
<text text-anchor="start" x="328.5" y="-480.8" font-family="Courier New" font-size="14.00">cell08 = 76</text>
<text text-anchor="start" x="328.5" y="-465.8" font-family="Courier New" font-size="14.00">cell09 = 10</text>
<text text-anchor="start" x="328.5" y="-450.8" font-family="Courier New" font-size="14.00">dp = 1</text>
<text text-anchor="start" x="328.5" y="-435.8" font-family="Courier New" font-size="14.00">output0 = 70 &#39;F&#39;</text>
<text text-anchor="start" x="328.5" y="-420.8" font-family="Courier New" font-size="14.00">output1 = 65 &#39;A&#39;</text>
<text text-anchor="start" x="328.5" y="-405.8" font-family="Courier New" font-size="14.00">output2 = 73 &#39;I&#39;</text>
<text text-anchor="start" x="328.5" y="-390.8" font-family="Courier New" font-size="14.00">output3 = 76 &#39;L&#39;</text>
<text text-anchor="start" x="328.5" y="-375.8" font-family="Courier New" font-size="14.00">output4 = 10 &#39;</text>
<text text-anchor="start" x="328.5" y="-360.8" font-family="Courier New" font-size="14.00">&#39;</text>
<text text-anchor="middle" x="526" y="-345.8" font-family="Courier New" font-size="14.00">And(input0 == 2, input1 == 4, Not(input2 == 6))</text>
</g>
<!-- 4538824640&#45;&gt;4538826704 -->
<g id="edge6" class="edge">
<title>4538824640&#45;&gt;4538826704</title>
<path fill="none" stroke="black" d="M526,-742.76C526,-708.82 526,-666.81 526,-626.33"/>
<polygon fill="black" stroke="black" points="529.5,-626.07 526,-616.07 522.5,-626.07 529.5,-626.07"/>
</g>
<!-- 4539171456 -->
<g id="node9" class="node">
<title>4539171456</title>
<path fill="none" stroke="black" d="M761.5,-315.5C761.5,-315.5 1106.5,-315.5 1106.5,-315.5 1112.5,-315.5 1118.5,-321.5 1118.5,-327.5 1118.5,-327.5 1118.5,-626.5 1118.5,-626.5 1118.5,-632.5 1112.5,-638.5 1106.5,-638.5 1106.5,-638.5 761.5,-638.5 761.5,-638.5 755.5,-638.5 749.5,-632.5 749.5,-626.5 749.5,-626.5 749.5,-327.5 749.5,-327.5 749.5,-321.5 755.5,-315.5 761.5,-315.5"/>
<text text-anchor="start" x="757.5" y="-623.3" font-family="Courier New" font-size="14.00">ip = 306</text>
<text text-anchor="start" x="757.5" y="-608.3" font-family="Courier New" font-size="14.00">cell00 = 254 + input0</text>
<text text-anchor="start" x="757.5" y="-593.3" font-family="Courier New" font-size="14.00">cell01 = 252 + input1</text>
<text text-anchor="start" x="757.5" y="-578.3" font-family="Courier New" font-size="14.00">cell02 = 250 + input2</text>
<text text-anchor="start" x="757.5" y="-563.3" font-family="Courier New" font-size="14.00">cell03 = 0</text>
<text text-anchor="start" x="757.5" y="-548.3" font-family="Courier New" font-size="14.00">cell04 = 0</text>
<text text-anchor="start" x="757.5" y="-533.3" font-family="Courier New" font-size="14.00">cell05 = 0</text>
<text text-anchor="start" x="757.5" y="-518.3" font-family="Courier New" font-size="14.00">cell06 = 0</text>
<text text-anchor="start" x="757.5" y="-503.3" font-family="Courier New" font-size="14.00">cell07 = 0</text>
<text text-anchor="start" x="757.5" y="-488.3" font-family="Courier New" font-size="14.00">cell08 = 65</text>
<text text-anchor="start" x="757.5" y="-473.3" font-family="Courier New" font-size="14.00">cell09 = 0</text>
<text text-anchor="start" x="757.5" y="-458.3" font-family="Courier New" font-size="14.00">cell10 = 83</text>
<text text-anchor="start" x="757.5" y="-443.3" font-family="Courier New" font-size="14.00">cell11 = 10</text>
<text text-anchor="start" x="757.5" y="-428.3" font-family="Courier New" font-size="14.00">dp = 4</text>
<text text-anchor="start" x="757.5" y="-413.3" font-family="Courier New" font-size="14.00">output0 = 80 &#39;P&#39;</text>
<text text-anchor="start" x="757.5" y="-398.3" font-family="Courier New" font-size="14.00">output1 = 65 &#39;A&#39;</text>
<text text-anchor="start" x="757.5" y="-383.3" font-family="Courier New" font-size="14.00">output2 = 83 &#39;S&#39;</text>
<text text-anchor="start" x="757.5" y="-368.3" font-family="Courier New" font-size="14.00">output3 = 83 &#39;S&#39;</text>
<text text-anchor="start" x="757.5" y="-353.3" font-family="Courier New" font-size="14.00">output4 = 10 &#39;</text>
<text text-anchor="start" x="757.5" y="-338.3" font-family="Courier New" font-size="14.00">&#39;</text>
<text text-anchor="middle" x="934" y="-323.3" font-family="Courier New" font-size="14.00">And(input0 == 2, input1 == 4, input2 == 6)</text>
</g>
<!-- 4538824640&#45;&gt;4539171456 -->
<g id="edge7" class="edge">
<title>4538824640&#45;&gt;4539171456</title>
<path fill="none" stroke="black" d="M613.56,-742.87C652.66,-711.22 699.24,-673.36 741,-639 741.17,-638.86 741.35,-638.71 741.52,-638.57"/>
<polygon fill="black" stroke="black" points="743.91,-641.14 749.4,-632.08 739.45,-635.74 743.91,-641.14"/>
</g>
<!-- 4539176400 -->
<g id="node8" class="node">
<title>4539176400</title>
<path fill="none" stroke="black" d="M332.5,-0.5C332.5,-0.5 719.5,-0.5 719.5,-0.5 725.5,-0.5 731.5,-6.5 731.5,-12.5 731.5,-12.5 731.5,-266.5 731.5,-266.5 731.5,-272.5 725.5,-278.5 719.5,-278.5 719.5,-278.5 332.5,-278.5 332.5,-278.5 326.5,-278.5 320.5,-272.5 320.5,-266.5 320.5,-266.5 320.5,-12.5 320.5,-12.5 320.5,-6.5 326.5,-0.5 332.5,-0.5"/>
<text text-anchor="start" x="328.5" y="-263.3" font-family="Courier New" font-size="14.00">ip = 306</text>
<text text-anchor="start" x="328.5" y="-248.3" font-family="Courier New" font-size="14.00">cell00 = 254 + input0</text>
<text text-anchor="start" x="328.5" y="-233.3" font-family="Courier New" font-size="14.00">cell01 = 252 + input1</text>
<text text-anchor="start" x="328.5" y="-218.3" font-family="Courier New" font-size="14.00">cell02 = 250 + input2</text>
<text text-anchor="start" x="328.5" y="-203.3" font-family="Courier New" font-size="14.00">cell03 = 0</text>
<text text-anchor="start" x="328.5" y="-188.3" font-family="Courier New" font-size="14.00">cell04 = 0</text>
<text text-anchor="start" x="328.5" y="-173.3" font-family="Courier New" font-size="14.00">cell05 = 0</text>
<text text-anchor="start" x="328.5" y="-158.3" font-family="Courier New" font-size="14.00">cell07 = 0</text>
<text text-anchor="start" x="328.5" y="-143.3" font-family="Courier New" font-size="14.00">cell08 = 76</text>
<text text-anchor="start" x="328.5" y="-128.3" font-family="Courier New" font-size="14.00">cell09 = 10</text>
<text text-anchor="start" x="328.5" y="-113.3" font-family="Courier New" font-size="14.00">dp = 3</text>
<text text-anchor="start" x="328.5" y="-98.3" font-family="Courier New" font-size="14.00">output0 = 70 &#39;F&#39;</text>
<text text-anchor="start" x="328.5" y="-83.3" font-family="Courier New" font-size="14.00">output1 = 65 &#39;A&#39;</text>
<text text-anchor="start" x="328.5" y="-68.3" font-family="Courier New" font-size="14.00">output2 = 73 &#39;I&#39;</text>
<text text-anchor="start" x="328.5" y="-53.3" font-family="Courier New" font-size="14.00">output3 = 76 &#39;L&#39;</text>
<text text-anchor="start" x="328.5" y="-38.3" font-family="Courier New" font-size="14.00">output4 = 10 &#39;</text>
<text text-anchor="start" x="328.5" y="-23.3" font-family="Courier New" font-size="14.00">&#39;</text>
<text text-anchor="middle" x="526" y="-8.3" font-family="Courier New" font-size="14.00">And(input0 == 2, input1 == 4, Not(input2 == 6))</text>
</g>
<!-- 4538826704&#45;&gt;4539176400 -->
<g id="edge8" class="edge">
<title>4538826704&#45;&gt;4539176400</title>
<path fill="none" stroke="black" d="M526,-337.6C526,-321.46 526,-304.94 526,-288.67"/>
<polygon fill="black" stroke="black" points="529.5,-288.58 526,-278.58 522.5,-288.58 529.5,-288.58"/>
</g>
</g>
</svg>
