<?xml version="1.0" encoding="UTF-8" standalone="no"?>
<!DOCTYPE svg PUBLIC "-//W3C//DTD SVG 1.1//EN"
 "http://www.w3.org/Graphics/SVG/1.1/DTD/svg11.dtd">
<!-- Generated by graphviz version 2.49.3 (20211023.0002)
 -->
<!-- Title: g Pages: 1 -->
<svg width="824pt" height="1112pt"
 viewBox="0.00 0.00 824.00 1112.00" xmlns="http://www.w3.org/2000/svg" xmlns:xlink="http://www.w3.org/1999/xlink">
<g id="graph0" class="graph" transform="scale(1 1) rotate(0) translate(4 1108)">
<title>g</title>
<polygon fill="white" stroke="transparent" points="-4,4 -4,-1108 820,-1108 820,4 -4,4"/>
<!-- 4502793536 -->
<g id="node1" class="node">
<title>4502793536</title>
<path fill="none" stroke="black" d="M163.5,-990.5C163.5,-990.5 374.5,-990.5 374.5,-990.5 380.5,-990.5 386.5,-996.5 386.5,-1002.5 386.5,-1002.5 386.5,-1091.5 386.5,-1091.5 386.5,-1097.5 380.5,-1103.5 374.5,-1103.5 374.5,-1103.5 163.5,-1103.5 163.5,-1103.5 157.5,-1103.5 151.5,-1097.5 151.5,-1091.5 151.5,-1091.5 151.5,-1002.5 151.5,-1002.5 151.5,-996.5 157.5,-990.5 163.5,-990.5"/>
<text text-anchor="start" x="159.5" y="-1088.3" font-family="Courier New" font-size="14.00">dp: 0</text>
<text text-anchor="start" x="159.5" y="-1073.3" font-family="Courier New" font-size="14.00">d0: Mod(input0 + 254, 256)</text>
<text text-anchor="start" x="159.5" y="-1058.3" font-family="Courier New" font-size="14.00">d1: input1</text>
<text text-anchor="start" x="159.5" y="-1043.3" font-family="Courier New" font-size="14.00">d2: input2</text>
<text text-anchor="start" x="159.5" y="-1028.3" font-family="Courier New" font-size="14.00">d3: 1</text>
<text text-anchor="start" x="159.5" y="-1013.3" font-family="Courier New" font-size="14.00">d4: 1</text>
<text text-anchor="middle" x="269" y="-998.3" font-family="Courier New" font-size="14.00">d5: 1</text>
</g>
<!-- 4506903136 -->
<g id="node2" class="node">
<title>4506903136</title>
<path fill="none" stroke="black" d="M12,-690.5C12,-690.5 248,-690.5 248,-690.5 254,-690.5 260,-696.5 260,-702.5 260,-702.5 260,-941.5 260,-941.5 260,-947.5 254,-953.5 248,-953.5 248,-953.5 12,-953.5 12,-953.5 6,-953.5 0,-947.5 0,-941.5 0,-941.5 0,-702.5 0,-702.5 0,-696.5 6,-690.5 12,-690.5"/>
<text text-anchor="start" x="8" y="-938.3" font-family="Courier New" font-size="14.00">dp: 6</text>
<text text-anchor="start" x="8" y="-923.3" font-family="Courier New" font-size="14.00">d0: Mod(input0 + 254, 256)</text>
<text text-anchor="start" x="8" y="-908.3" font-family="Courier New" font-size="14.00">d1: input1</text>
<text text-anchor="start" x="8" y="-893.3" font-family="Courier New" font-size="14.00">d2: input2</text>
<text text-anchor="start" x="8" y="-878.3" font-family="Courier New" font-size="14.00">d3: 0</text>
<text text-anchor="start" x="8" y="-863.3" font-family="Courier New" font-size="14.00">d4: 1</text>
<text text-anchor="start" x="8" y="-848.3" font-family="Courier New" font-size="14.00">d5: 1</text>
<text text-anchor="start" x="8" y="-833.3" font-family="Courier New" font-size="14.00">d6: 0</text>
<text text-anchor="start" x="8" y="-818.3" font-family="Courier New" font-size="14.00">d7: 76</text>
<text text-anchor="start" x="8" y="-803.3" font-family="Courier New" font-size="14.00">output0: 70 &#39;F&#39;</text>
<text text-anchor="start" x="8" y="-788.3" font-family="Courier New" font-size="14.00">output1: 65 &#39;A&#39;</text>
<text text-anchor="start" x="8" y="-773.3" font-family="Courier New" font-size="14.00">output2: 73 &#39;I&#39;</text>
<text text-anchor="start" x="8" y="-758.3" font-family="Courier New" font-size="14.00">output3: 76 &#39;L&#39;</text>
<text text-anchor="start" x="8" y="-743.3" font-family="Courier New" font-size="14.00">d8: 10</text>
<text text-anchor="start" x="8" y="-728.3" font-family="Courier New" font-size="14.00">output4: 10 &#39;</text>
<text text-anchor="start" x="8" y="-713.3" font-family="Courier New" font-size="14.00">&#39;</text>
<text text-anchor="middle" x="130" y="-698.3" font-family="Courier New" font-size="14.00">Ne(Mod(input0 + 254, 256), 0)</text>
</g>
<!-- 4502793536&#45;&gt;4506903136 -->
<g id="edge1" class="edge">
<title>4502793536&#45;&gt;4506903136</title>
<path fill="none" stroke="black" d="M234.28,-990.3C228.81,-981.52 222.95,-972.12 216.9,-962.42"/>
<polygon fill="black" stroke="black" points="219.8,-960.45 211.54,-953.82 213.86,-964.16 219.8,-960.45"/>
</g>
<!-- 4506901168 -->
<g id="node3" class="node">
<title>4506901168</title>
<path fill="none" stroke="black" d="M290,-758C290,-758 526,-758 526,-758 532,-758 538,-764 538,-770 538,-770 538,-874 538,-874 538,-880 532,-886 526,-886 526,-886 290,-886 290,-886 284,-886 278,-880 278,-874 278,-874 278,-770 278,-770 278,-764 284,-758 290,-758"/>
<text text-anchor="start" x="286" y="-870.8" font-family="Courier New" font-size="14.00">dp: 1</text>
<text text-anchor="start" x="286" y="-855.8" font-family="Courier New" font-size="14.00">d0: Mod(input0 + 254, 256)</text>
<text text-anchor="start" x="286" y="-840.8" font-family="Courier New" font-size="14.00">d1: Mod(input1 + 252, 256)</text>
<text text-anchor="start" x="286" y="-825.8" font-family="Courier New" font-size="14.00">d2: input2</text>
<text text-anchor="start" x="286" y="-810.8" font-family="Courier New" font-size="14.00">d3: 0</text>
<text text-anchor="start" x="286" y="-795.8" font-family="Courier New" font-size="14.00">d4: 1</text>
<text text-anchor="start" x="286" y="-780.8" font-family="Courier New" font-size="14.00">d5: 1</text>
<text text-anchor="middle" x="408" y="-765.8" font-family="Courier New" font-size="14.00">Eq(Mod(input0 + 254, 256), 0)</text>
</g>
<!-- 4502793536&#45;&gt;4506901168 -->
<g id="edge2" class="edge">
<title>4502793536&#45;&gt;4506901168</title>
<path fill="none" stroke="black" d="M303.72,-990.3C321.72,-961.41 343.93,-925.79 363.22,-894.85"/>
<polygon fill="black" stroke="black" points="366.25,-896.59 368.57,-886.25 360.31,-892.89 366.25,-896.59"/>
</g>
<!-- 4507310960 -->
<g id="node4" class="node">
<title>4507310960</title>
<path fill="none" stroke="black" d="M151,-375.5C151,-375.5 387,-375.5 387,-375.5 393,-375.5 399,-381.5 399,-387.5 399,-387.5 399,-641.5 399,-641.5 399,-647.5 393,-653.5 387,-653.5 387,-653.5 151,-653.5 151,-653.5 145,-653.5 139,-647.5 139,-641.5 139,-641.5 139,-387.5 139,-387.5 139,-381.5 145,-375.5 151,-375.5"/>
<text text-anchor="start" x="147" y="-638.3" font-family="Courier New" font-size="14.00">dp: 0</text>
<text text-anchor="start" x="147" y="-623.3" font-family="Courier New" font-size="14.00">d0: Mod(input0 + 254, 256)</text>
<text text-anchor="start" x="147" y="-608.3" font-family="Courier New" font-size="14.00">d1: Mod(input1 + 252, 256)</text>
<text text-anchor="start" x="147" y="-593.3" font-family="Courier New" font-size="14.00">d2: input2</text>
<text text-anchor="start" x="147" y="-578.3" font-family="Courier New" font-size="14.00">d3: 0</text>
<text text-anchor="start" x="147" y="-563.3" font-family="Courier New" font-size="14.00">d4: 0</text>
<text text-anchor="start" x="147" y="-548.3" font-family="Courier New" font-size="14.00">d5: 1</text>
<text text-anchor="start" x="147" y="-533.3" font-family="Courier New" font-size="14.00">d6: 0</text>
<text text-anchor="start" x="147" y="-518.3" font-family="Courier New" font-size="14.00">d7: 76</text>
<text text-anchor="start" x="147" y="-503.3" font-family="Courier New" font-size="14.00">output0: 70 &#39;F&#39;</text>
<text text-anchor="start" x="147" y="-488.3" font-family="Courier New" font-size="14.00">output1: 65 &#39;A&#39;</text>
<text text-anchor="start" x="147" y="-473.3" font-family="Courier New" font-size="14.00">output2: 73 &#39;I&#39;</text>
<text text-anchor="start" x="147" y="-458.3" font-family="Courier New" font-size="14.00">output3: 76 &#39;L&#39;</text>
<text text-anchor="start" x="147" y="-443.3" font-family="Courier New" font-size="14.00">d8: 10</text>
<text text-anchor="start" x="147" y="-428.3" font-family="Courier New" font-size="14.00">output4: 10 &#39;</text>
<text text-anchor="start" x="147" y="-413.3" font-family="Courier New" font-size="14.00">&#39;</text>
<text text-anchor="start" x="147" y="-398.3" font-family="Courier New" font-size="14.00">Eq(Mod(input0 + 254, 256), 0)</text>
<text text-anchor="middle" x="269" y="-383.3" font-family="Courier New" font-size="14.00">Ne(Mod(input1 + 252, 256), 0)</text>
</g>
<!-- 4506901168&#45;&gt;4507310960 -->
<g id="edge3" class="edge">
<title>4506901168&#45;&gt;4507310960</title>
<path fill="none" stroke="black" d="M379.2,-757.7C366.62,-730.06 351.31,-696.39 336.14,-663.06"/>
<polygon fill="black" stroke="black" points="339.19,-661.32 331.86,-653.67 332.82,-664.22 339.19,-661.32"/>
</g>
<!-- 4507311008 -->
<g id="node5" class="node">
<title>4507311008</title>
<path fill="none" stroke="black" d="M429,-443C429,-443 665,-443 665,-443 671,-443 677,-449 677,-455 677,-455 677,-574 677,-574 677,-580 671,-586 665,-586 665,-586 429,-586 429,-586 423,-586 417,-580 417,-574 417,-574 417,-455 417,-455 417,-449 423,-443 429,-443"/>
<text text-anchor="start" x="425" y="-570.8" font-family="Courier New" font-size="14.00">dp: 2</text>
<text text-anchor="start" x="425" y="-555.8" font-family="Courier New" font-size="14.00">d0: Mod(input0 + 254, 256)</text>
<text text-anchor="start" x="425" y="-540.8" font-family="Courier New" font-size="14.00">d1: Mod(input1 + 252, 256)</text>
<text text-anchor="start" x="425" y="-525.8" font-family="Courier New" font-size="14.00">d2: Mod(input2 + 250, 256)</text>
<text text-anchor="start" x="425" y="-510.8" font-family="Courier New" font-size="14.00">d3: 0</text>
<text text-anchor="start" x="425" y="-495.8" font-family="Courier New" font-size="14.00">d4: 0</text>
<text text-anchor="start" x="425" y="-480.8" font-family="Courier New" font-size="14.00">d5: 1</text>
<text text-anchor="start" x="425" y="-465.8" font-family="Courier New" font-size="14.00">Eq(Mod(input0 + 254, 256), 0)</text>
<text text-anchor="middle" x="547" y="-450.8" font-family="Courier New" font-size="14.00">Eq(Mod(input1 + 252, 256), 0)</text>
</g>
<!-- 4506901168&#45;&gt;4507311008 -->
<g id="edge4" class="edge">
<title>4506901168&#45;&gt;4507311008</title>
<path fill="none" stroke="black" d="M436.8,-757.7C458.21,-710.64 487.58,-646.1 510.61,-595.48"/>
<polygon fill="black" stroke="black" points="513.88,-596.75 514.84,-586.19 507.51,-593.85 513.88,-596.75"/>
</g>
<!-- 4507506032 -->
<g id="node6" class="node">
<title>4507506032</title>
<path fill="none" stroke="black" d="M290,-23C290,-23 526,-23 526,-23 532,-23 538,-29 538,-35 538,-35 538,-304 538,-304 538,-310 532,-316 526,-316 526,-316 290,-316 290,-316 284,-316 278,-310 278,-304 278,-304 278,-35 278,-35 278,-29 284,-23 290,-23"/>
<text text-anchor="start" x="286" y="-300.8" font-family="Courier New" font-size="14.00">dp: 1</text>
<text text-anchor="start" x="286" y="-285.8" font-family="Courier New" font-size="14.00">d0: Mod(input0 + 254, 256)</text>
<text text-anchor="start" x="286" y="-270.8" font-family="Courier New" font-size="14.00">d1: Mod(input1 + 252, 256)</text>
<text text-anchor="start" x="286" y="-255.8" font-family="Courier New" font-size="14.00">d2: Mod(input2 + 250, 256)</text>
<text text-anchor="start" x="286" y="-240.8" font-family="Courier New" font-size="14.00">d3: 0</text>
<text text-anchor="start" x="286" y="-225.8" font-family="Courier New" font-size="14.00">d4: 0</text>
<text text-anchor="start" x="286" y="-210.8" font-family="Courier New" font-size="14.00">d5: 0</text>
<text text-anchor="start" x="286" y="-195.8" font-family="Courier New" font-size="14.00">d7: 0</text>
<text text-anchor="start" x="286" y="-180.8" font-family="Courier New" font-size="14.00">d8: 76</text>
<text text-anchor="start" x="286" y="-165.8" font-family="Courier New" font-size="14.00">output0: 70 &#39;F&#39;</text>
<text text-anchor="start" x="286" y="-150.8" font-family="Courier New" font-size="14.00">output1: 65 &#39;A&#39;</text>
<text text-anchor="start" x="286" y="-135.8" font-family="Courier New" font-size="14.00">output2: 73 &#39;I&#39;</text>
<text text-anchor="start" x="286" y="-120.8" font-family="Courier New" font-size="14.00">output3: 76 &#39;L&#39;</text>
<text text-anchor="start" x="286" y="-105.8" font-family="Courier New" font-size="14.00">d9: 10</text>
<text text-anchor="start" x="286" y="-90.8" font-family="Courier New" font-size="14.00">output4: 10 &#39;</text>
<text text-anchor="start" x="286" y="-75.8" font-family="Courier New" font-size="14.00">&#39;</text>
<text text-anchor="start" x="286" y="-60.8" font-family="Courier New" font-size="14.00">Eq(Mod(input0 + 254, 256), 0)</text>
<text text-anchor="start" x="286" y="-45.8" font-family="Courier New" font-size="14.00">Eq(Mod(input1 + 252, 256), 0)</text>
<text text-anchor="middle" x="408" y="-30.8" font-family="Courier New" font-size="14.00">Ne(Mod(input2 + 250, 256), 0)</text>
</g>
<!-- 4507311008&#45;&gt;4507506032 -->
<g id="edge5" class="edge">
<title>4507311008&#45;&gt;4507506032</title>
<path fill="none" stroke="black" d="M518.37,-442.85C504.55,-408.75 487.39,-366.41 470.75,-325.35"/>
<polygon fill="black" stroke="black" points="473.99,-324.02 466.99,-316.06 467.5,-326.65 473.99,-324.02"/>
</g>
<!-- 4507505600 -->
<g id="node7" class="node">
<title>4507505600</title>
<path fill="none" stroke="black" d="M568,-0.5C568,-0.5 804,-0.5 804,-0.5 810,-0.5 816,-6.5 816,-12.5 816,-12.5 816,-326.5 816,-326.5 816,-332.5 810,-338.5 804,-338.5 804,-338.5 568,-338.5 568,-338.5 562,-338.5 556,-332.5 556,-326.5 556,-326.5 556,-12.5 556,-12.5 556,-6.5 562,-0.5 568,-0.5"/>
<text text-anchor="start" x="564" y="-323.3" font-family="Courier New" font-size="14.00">dp: 4</text>
<text text-anchor="start" x="564" y="-308.3" font-family="Courier New" font-size="14.00">d0: Mod(input0 + 254, 256)</text>
<text text-anchor="start" x="564" y="-293.3" font-family="Courier New" font-size="14.00">d1: Mod(input1 + 252, 256)</text>
<text text-anchor="start" x="564" y="-278.3" font-family="Courier New" font-size="14.00">d2: Mod(input2 + 250, 256)</text>
<text text-anchor="start" x="564" y="-263.3" font-family="Courier New" font-size="14.00">d3: 0</text>
<text text-anchor="start" x="564" y="-248.3" font-family="Courier New" font-size="14.00">d4: 0</text>
<text text-anchor="start" x="564" y="-233.3" font-family="Courier New" font-size="14.00">d5: 0</text>
<text text-anchor="start" x="564" y="-218.3" font-family="Courier New" font-size="14.00">d6: 0</text>
<text text-anchor="start" x="564" y="-203.3" font-family="Courier New" font-size="14.00">d7: 0</text>
<text text-anchor="start" x="564" y="-188.3" font-family="Courier New" font-size="14.00">output0: 80 &#39;P&#39;</text>
<text text-anchor="start" x="564" y="-173.3" font-family="Courier New" font-size="14.00">d8: 65</text>
<text text-anchor="start" x="564" y="-158.3" font-family="Courier New" font-size="14.00">output1: 65 &#39;A&#39;</text>
<text text-anchor="start" x="564" y="-143.3" font-family="Courier New" font-size="14.00">d9: 0</text>
<text text-anchor="start" x="564" y="-128.3" font-family="Courier New" font-size="14.00">d10: 83</text>
<text text-anchor="start" x="564" y="-113.3" font-family="Courier New" font-size="14.00">output2: 83 &#39;S&#39;</text>
<text text-anchor="start" x="564" y="-98.3" font-family="Courier New" font-size="14.00">output3: 83 &#39;S&#39;</text>
<text text-anchor="start" x="564" y="-83.3" font-family="Courier New" font-size="14.00">d11: 10</text>
<text text-anchor="start" x="564" y="-68.3" font-family="Courier New" font-size="14.00">output4: 10 &#39;</text>
<text text-anchor="start" x="564" y="-53.3" font-family="Courier New" font-size="14.00">&#39;</text>
<text text-anchor="start" x="564" y="-38.3" font-family="Courier New" font-size="14.00">Eq(Mod(input0 + 254, 256), 0)</text>
<text text-anchor="start" x="564" y="-23.3" font-family="Courier New" font-size="14.00">Eq(Mod(input1 + 252, 256), 0)</text>
<text text-anchor="middle" x="686" y="-8.3" font-family="Courier New" font-size="14.00">Eq(Mod(input2 + 250, 256), 0)</text>
</g>
<!-- 4507311008&#45;&gt;4507505600 -->
<g id="edge6" class="edge">
<title>4507311008&#45;&gt;4507505600</title>
<path fill="none" stroke="black" d="M575.63,-442.85C586.89,-415.06 600.37,-381.8 613.98,-348.22"/>
<polygon fill="black" stroke="black" points="617.31,-349.33 617.82,-338.74 610.82,-346.7 617.31,-349.33"/>
</g>
</g>
</svg>
