
<svg xmlns="http://www.w3.org/2000/svg" xmlns:xlink="http://www.w3.org/1999/xlink" width="276.000000" height="409.000000">
  <defs>
    <marker id="arrow-TrueBranch" class="arrow TrueBranch" viewBox="0 0 10 10" refX="10" refY="5" markerUnits="strokeWidth" markerWidth="8" markerHeight="6" orient="auto">
      <path d="M 0 0 L 10 5 L 0 10 z" />
    </marker>
    <marker id="arrow-FalseBranch" class="arrow FalseBranch" viewBox="0 0 10 10" refX="10" refY="5" markerUnits="strokeWidth" markerWidth="8" markerHeight="6" orient="auto">
      <path d="M 0 0 L 10 5 L 0 10 z" />
    </marker>
    <marker id="arrow-UnconditionalBranch" class="arrow UnconditionalBranch" viewBox="0 0 10 10" refX="10" refY="5" markerUnits="strokeWidth" markerWidth="8" markerHeight="6" orient="auto">
      <path d="M 0 0 L 10 5 L 0 10 z" />
    </marker>
    <marker id="arrow-IndirectBranch" class="arrow IndirectBranch" viewBox="0 0 10 10" refX="10" refY="5" markerUnits="strokeWidth" markerWidth="8" markerHeight="6" orient="auto">
      <path d="M 0 0 L 10 5 L 0 10 z" />
    </marker>
  </defs>

    <rect x="26.6669" y="0.0" width="72.0" height="48.0" stroke="black" stroke-width="1" fill="none" />
    <rect x="0.0" y="178.6656" width="72.0" height="48.0" stroke="black" stroke-width="1" fill="none" />
    <rect x="126.6624" y="89.3376" width="72.0" height="48.0" stroke="black" stroke-width="1" fill="none" />
    <rect x="0.0" y="357.3312" width="72.0" height="48.0" stroke="black" stroke-width="1" fill="none" />
    <rect x="126.6624" y="268.0032" width="72.0" height="48.0" stroke="black" stroke-width="1" fill="none" />
    <!-- generated from: edge bb0 bb1 7 0.48437 0.50495 0.40953 0.62659 0.32982 0.77999 0.29167 0.93056 0.21185 1.2455 0.26436 1.6225 0.31496 1.8609 TrueBranch 0.75694 1.1806 solid black -->
    <circle cx="46.4995" cy="48.4752" r="2" stroke="red" stroke-width="1" fill="green" />
    <circle cx="39.3149" cy="60.1526" r="2" stroke="red" stroke-width="1" fill="green" />
    <circle cx="31.6627" cy="74.879" r="2" stroke="red" stroke-width="1" fill="green" />
    <circle cx="28.0003" cy="89.3338" r="2" stroke="red" stroke-width="1" fill="green" />
    <circle cx="20.3376" cy="119.568" r="2" stroke="red" stroke-width="1" fill="green" />
    <circle cx="25.3786" cy="155.76" r="2" stroke="red" stroke-width="1" fill="green" />
    <circle cx="30.2362" cy="178.6464" r="2" stroke="red" stroke-width="1" fill="green" />
    <path class="edge TrueBranch" d="M46.4995,48.4752 C39.3149,60.1526 31.6627,74.879 28.0003,89.3338 20.3376,119.568 25.3786,155.76 30.2362,178.6464" stroke="red" stroke-width="1" fill="none" marker-end="url(#arrow-TrueBranch)" />
    <!-- generated from: edge bb0 bb2 4 0.92646 0.50108 1.0784 0.63273 1.2668 0.79603 1.419 0.92792 FalseBranch 1.75 0.71528 solid black -->
    <circle cx="88.9402" cy="48.1037" r="2" stroke="red" stroke-width="1" fill="green" />
    <circle cx="103.5264" cy="60.7421" r="2" stroke="red" stroke-width="1" fill="green" />
    <circle cx="121.6128" cy="76.4189" r="2" stroke="red" stroke-width="1" fill="green" />
    <circle cx="136.224" cy="89.0803" r="2" stroke="red" stroke-width="1" fill="green" />
    <path class="edge FalseBranch" d="M88.9402,48.1037 C103.5264,60.7421 121.6128,76.4189 136.224,89.0803" stroke="red" stroke-width="1" fill="none" marker-end="url(#arrow-FalseBranch)" />
    <!-- generated from: edge bb1 bb3 10 0.33767 2.365 0.31985 2.4916 0.30051 2.6496 0.29167 2.7917 0.27786 3.0135 0.27786 3.0699 0.29167 3.2917 0.30051 3.4337 0.31985 3.5918 0.33767 3.7183 TrueBranch 0.75694 3.0417 solid black -->
    <circle cx="32.4163" cy="227.04" r="2" stroke="red" stroke-width="1" fill="green" />
    <circle cx="30.7056" cy="239.1936" r="2" stroke="red" stroke-width="1" fill="green" />
    <circle cx="28.849" cy="254.3616" r="2" stroke="red" stroke-width="1" fill="green" />
    <circle cx="28.0003" cy="268.0032" r="2" stroke="red" stroke-width="1" fill="green" />
    <circle cx="26.6746" cy="289.296" r="2" stroke="red" stroke-width="1" fill="green" />
    <circle cx="26.6746" cy="294.7104" r="2" stroke="red" stroke-width="1" fill="green" />
    <circle cx="28.0003" cy="316.0032" r="2" stroke="red" stroke-width="1" fill="green" />
    <circle cx="28.849" cy="329.6352" r="2" stroke="red" stroke-width="1" fill="green" />
    <circle cx="30.7056" cy="344.8128" r="2" stroke="red" stroke-width="1" fill="green" />
    <circle cx="32.4163" cy="356.9568" r="2" stroke="red" stroke-width="1" fill="green" />
    <path class="edge TrueBranch" d="M32.4163,227.04 C30.7056,239.1936 28.849,254.3616 28.0003,268.0032 26.6746,289.296 26.6746,294.7104 28.0003,316.0032 28.849,329.6352 30.7056,344.8128 32.4163,356.9568" stroke="red" stroke-width="1" fill="none" marker-end="url(#arrow-TrueBranch)" />
    <!-- generated from: edge bb1 bb4 4 0.72167 2.3622 0.91408 2.4938 1.1527 2.6571 1.3455 2.789 FalseBranch 1.6389 2.5764 solid black -->
    <circle cx="69.2803" cy="226.7712" r="2" stroke="red" stroke-width="1" fill="green" />
    <circle cx="87.7517" cy="239.4048" r="2" stroke="red" stroke-width="1" fill="green" />
    <circle cx="110.6592" cy="255.0816" r="2" stroke="red" stroke-width="1" fill="green" />
    <circle cx="129.168" cy="267.744" r="2" stroke="red" stroke-width="1" fill="green" />
    <path class="edge FalseBranch" d="M69.2803,226.7712 C87.7517,239.4048 110.6592,255.0816 129.168,267.744" stroke="red" stroke-width="1" fill="none" marker-end="url(#arrow-FalseBranch)" />
    <!-- generated from: edge bb2 bb1 4 1.3478 1.4316 1.1554 1.5633 0.91671 1.7266 0.72393 1.8585 UnconditionalBranch 1.9931 1.6458 solid black -->
    <circle cx="129.3888" cy="137.4336" r="2" stroke="red" stroke-width="1" fill="green" />
    <circle cx="110.9184" cy="150.0768" r="2" stroke="red" stroke-width="1" fill="green" />
    <circle cx="88.0042" cy="165.7536" r="2" stroke="red" stroke-width="1" fill="green" />
    <circle cx="69.4973" cy="178.416" r="2" stroke="red" stroke-width="1" fill="green" />
    <path class="edge UnconditionalBranch" d="M129.3888,137.4336 C110.9184,150.0768 88.0042,165.7536 69.4973,178.416" stroke="red" stroke-width="1" fill="none" marker-end="url(#arrow-UnconditionalBranch)" />
    <!-- generated from: edge bb4 bb3 4 1.3478 3.2927 1.1554 3.4244 0.91671 3.5877 0.72393 3.7196 UnconditionalBranch 1.9931 3.5069 solid black -->
    <circle cx="129.3888" cy="316.0992" r="2" stroke="red" stroke-width="1" fill="green" />
    <circle cx="110.9184" cy="328.7424" r="2" stroke="red" stroke-width="1" fill="green" />
    <circle cx="88.0042" cy="344.4192" r="2" stroke="red" stroke-width="1" fill="green" />
    <circle cx="69.4973" cy="357.0816" r="2" stroke="red" stroke-width="1" fill="green" />
    <path class="edge UnconditionalBranch" d="M129.3888,316.0992 C110.9184,328.7424 88.0042,344.4192 69.4973,357.0816" stroke="red" stroke-width="1" fill="none" marker-end="url(#arrow-UnconditionalBranch)" />

</svg>

