<svg version="1.1" xmlns="http://www.w3.org/2000/svg" viewBox="0 0 3860 660" width="3860" height="660">
  <!-- svg-source:excalidraw -->
  
  <defs>
    <style class="style-fonts">
      @font-face {
        font-family: "Virgil";
        src: url("https://file%2B.vscode-resource.vscode-cdn.net/Users/andrewl/.vscode/extensions/pomdtr.excalidraw-editor-3.6.1/public//dist/excalidraw-assets/Virgil.woff2");
      }
      @font-face {
        font-family: "Cascadia";
        src: url("https://file%2B.vscode-resource.vscode-cdn.net/Users/andrewl/.vscode/extensions/pomdtr.excalidraw-editor-3.6.1/public//dist/excalidraw-assets/Cascadia.woff2");
      }
    </style>
    
  </defs>
  <rect x="0" y="0" width="3860" height="660" fill="#ffffff"></rect><g stroke-linecap="round" transform="translate(370 510) rotate(0 60 30)"><path d="M0 0 L120 0 L120 60 L0 60" stroke="none" stroke-width="0" fill="#15aabf40"></path><path d="M0 0 C43.76 0, 87.51 0, 120 0 M0 0 C42.6 0, 85.21 0, 120 0 M120 0 C120 12.5, 120 25, 120 60 M120 0 C120 19.86, 120 39.72, 120 60 M120 60 C75.34 60, 30.69 60, 0 60 M120 60 C81.69 60, 43.39 60, 0 60 M0 60 C0 41.72, 0 23.44, 0 0 M0 60 C0 43.14, 0 26.29, 0 0" stroke="#000000" stroke-width="1" fill="none"></path></g><g transform="translate(397.98046875 530.8) rotate(0 32.01953125 9.199999999999989)"><text x="32.01953125" y="0" font-family="Helvetica, Segoe UI Emoji" font-size="16px" fill="#000000" text-anchor="middle" style="white-space: pre;" direction="ltr" dominant-baseline="text-before-edge">32-bit S0</text></g><g stroke-linecap="round" transform="translate(250 450) rotate(0 120 30)"><path d="M0 0 L240 0 L240 60 L0 60" stroke="none" stroke-width="0" fill="#4c6ef540"></path><path d="M0 0 C87.51 0, 175.02 0, 240 0 M0 0 C85.21 0, 170.41 0, 240 0 M240 0 C240 12.5, 240 25, 240 60 M240 0 C240 19.86, 240 39.72, 240 60 M240 60 C150.69 60, 61.38 60, 0 60 M240 60 C163.39 60, 86.77 60, 0 60 M0 60 C0 41.72, 0 23.44, 0 0 M0 60 C0 43.14, 0 26.29, 0 0" stroke="#000000" stroke-width="1" fill="none"></path></g><g transform="translate(337.5390625 470.8) rotate(0 32.4609375 9.199999999999989)"><text x="32.4609375" y="0" font-family="Helvetica, Segoe UI Emoji" font-size="16px" fill="#000000" text-anchor="middle" style="white-space: pre;" direction="ltr" dominant-baseline="text-before-edge">64-bit D0</text></g><g stroke-linecap="round" transform="translate(10 390) rotate(0 240 30)"><path d="M0 0 L480 0 L480 60 L0 60" stroke="none" stroke-width="0" fill="#fd7e1440"></path><path d="M0 0 C175.02 0, 350.05 0, 480 0 M0 0 C170.41 0, 340.83 0, 480 0 M480 0 C480 12.5, 480 25, 480 60 M480 0 C480 19.86, 480 39.72, 480 60 M480 60 C301.38 60, 122.75 60, 0 60 M480 60 C326.77 60, 173.54 60, 0 60 M0 60 C0 41.72, 0 23.44, 0 0 M0 60 C0 43.14, 0 26.29, 0 0" stroke="#000000" stroke-width="1" fill="none"></path></g><g transform="translate(213.53125 410.8) rotate(0 36.46875 9.200000000000003)"><text x="36.46875" y="0" font-family="Helvetica, Segoe UI Emoji" font-size="16px" fill="#000000" text-anchor="middle" style="white-space: pre;" direction="ltr" dominant-baseline="text-before-edge">128-bit V0</text></g><g stroke-linecap="round" transform="translate(1690 510) rotate(0 120 30)"><path d="M0 0 L240 0 L240 60 L0 60" stroke="none" stroke-width="0" fill="#15aabf40"></path><path d="M0 0 C87.51 0, 175.02 0, 240 0 M0 0 C85.21 0, 170.41 0, 240 0 M240 0 C240 12.5, 240 25, 240 60 M240 0 C240 19.86, 240 39.72, 240 60 M240 60 C150.69 60, 61.38 60, 0 60 M240 60 C163.39 60, 86.77 60, 0 60 M0 60 C0 41.72, 0 23.44, 0 0 M0 60 C0 43.14, 0 26.29, 0 0" stroke="#000000" stroke-width="1" fill="none"></path></g><g transform="translate(1777.98046875 530.8) rotate(0 32.01953125 9.199999999999989)"><text x="32.01953125" y="0" font-family="Helvetica, Segoe UI Emoji" font-size="16px" fill="#000000" text-anchor="middle" style="white-space: pre;" direction="ltr" dominant-baseline="text-before-edge">32-bit S1</text></g><g stroke-linecap="round" transform="translate(1450 450) rotate(0 240 30)"><path d="M0 0 L480 0 L480 60 L0 60" stroke="none" stroke-width="0" fill="#4c6ef540"></path><path d="M0 0 C175.02 0, 350.05 0, 480 0 M0 0 C170.41 0, 340.83 0, 480 0 M480 0 C480 12.5, 480 25, 480 60 M480 0 C480 19.86, 480 39.72, 480 60 M480 60 C301.38 60, 122.75 60, 0 60 M480 60 C326.77 60, 173.54 60, 0 60 M0 60 C0 41.72, 0 23.44, 0 0 M0 60 C0 43.14, 0 26.29, 0 0" stroke="#000000" stroke-width="1" fill="none"></path></g><g transform="translate(1657.5390625 470.8) rotate(0 32.4609375 9.199999999999989)"><text x="32.4609375" y="0" font-family="Helvetica, Segoe UI Emoji" font-size="16px" fill="#000000" text-anchor="middle" style="white-space: pre;" direction="ltr" dominant-baseline="text-before-edge">64-bit D1</text></g><g stroke-linecap="round" transform="translate(10 70) rotate(0 120 30)"><path d="M0 0 L240 0 L240 60 L0 60" stroke="none" stroke-width="0" fill="#4c6ef540"></path><path d="M0 0 C87.51 0, 175.02 0, 240 0 M0 0 C85.21 0, 170.41 0, 240 0 M240 0 C240 12.5, 240 25, 240 60 M240 0 C240 19.86, 240 39.72, 240 60 M240 60 C150.69 60, 61.38 60, 0 60 M240 60 C163.39 60, 86.77 60, 0 60 M0 60 C0 41.72, 0 23.44, 0 0 M0 60 C0 43.14, 0 26.29, 0 0" stroke="#000000" stroke-width="1" fill="none"></path></g><g transform="translate(92.65234375 90.8) rotate(0 37.34765625 9.199999999999996)"><text x="37.34765625" y="0" font-family="Helvetica, Segoe UI Emoji" font-size="16px" fill="#000000" text-anchor="middle" style="white-space: pre;" direction="ltr" dominant-baseline="text-before-edge">X0 (64-bit)</text></g><g stroke-linecap="round" transform="translate(130 130) rotate(0 60 30)"><path d="M0 0 L120 0 L120 60 L0 60" stroke="none" stroke-width="0" fill="#15aabf40"></path><path d="M0 0 C43.76 0, 87.51 0, 120 0 M0 0 C42.6 0, 85.21 0, 120 0 M120 0 C120 12.5, 120 25, 120 60 M120 0 C120 19.86, 120 39.72, 120 60 M120 60 C75.34 60, 30.69 60, 0 60 M120 60 C81.69 60, 43.39 60, 0 60 M0 60 C0 41.72, 0 23.44, 0 0 M0 60 C0 43.14, 0 26.29, 0 0" stroke="#000000" stroke-width="1" fill="none"></path></g><g transform="translate(150.4375 150.8) rotate(0 39.5625 9.2)"><text x="39.5625" y="0" font-family="Helvetica, Segoe UI Emoji" font-size="16px" fill="#000000" text-anchor="middle" style="white-space: pre;" direction="ltr" dominant-baseline="text-before-edge">W0 (32-bit)</text></g><g stroke-linecap="round"><g transform="translate(2549 30.999999999999886) rotate(0 -19.146446609406667 19.14644660940681)"><path d="M0 0 C-8.46 8.46, -16.92 16.92, -38.29 38.29 M0 0 C-14.74 14.74, -29.47 29.47, -38.29 38.29" stroke="#000000" stroke-width="1" fill="none"></path></g><g transform="translate(2549 30.999999999999886) rotate(0 -19.146446609406667 19.14644660940681)"><path d="M-38.29 38.29 L-33.16 24.2 L-24.2 33.16 L-38.29 38.29" stroke="none" stroke-width="0" fill="#000000" fill-rule="evenodd"></path><path d="M-38.29 38.29 C-37.16 35.18, -36.03 32.07, -33.16 24.2 M-38.29 38.29 C-36.32 32.87, -34.34 27.44, -33.16 24.2 M-33.16 24.2 C-31.14 26.22, -29.12 28.24, -24.2 33.16 M-33.16 24.2 C-30.45 26.91, -27.74 29.62, -24.2 33.16 M-24.2 33.16 C-28.17 34.61, -32.15 36.06, -38.29 38.29 M-24.2 33.16 C-27.95 34.53, -31.7 35.89, -38.29 38.29 M-38.29 38.29 C-38.29 38.29, -38.29 38.29, -38.29 38.29 M-38.29 38.29 C-38.29 38.29, -38.29 38.29, -38.29 38.29" stroke="#000000" stroke-width="1" fill="none"></path></g></g><mask></mask><g transform="translate(2550 10) rotate(0 94.70703125 36.8)"><text x="0" y="0" font-family="Helvetica, Segoe UI Emoji" font-size="16px" fill="#000000" text-anchor="start" style="white-space: pre;" direction="ltr" dominant-baseline="text-before-edge">Encodings for X31 access</text><text x="0" y="18.4" font-family="Helvetica, Segoe UI Emoji" font-size="16px" fill="#000000" text-anchor="start" style="white-space: pre;" direction="ltr" dominant-baseline="text-before-edge">a zero register or the stack</text><text x="0" y="36.8" font-family="Helvetica, Segoe UI Emoji" font-size="16px" fill="#000000" text-anchor="start" style="white-space: pre;" direction="ltr" dominant-baseline="text-before-edge">pointer, depending on the</text><text x="0" y="55.199999999999996" font-family="Helvetica, Segoe UI Emoji" font-size="16px" fill="#000000" text-anchor="start" style="white-space: pre;" direction="ltr" dominant-baseline="text-before-edge">instruction.</text></g><g transform="translate(10 310) rotate(0 94.1240234375 16.099999999999994)"><text x="0" y="0" font-family="Helvetica, Segoe UI Emoji" font-size="28px" fill="#000000" text-anchor="start" style="white-space: pre;" direction="ltr" dominant-baseline="text-before-edge">ARMv8 NEON:</text></g><g transform="translate(10 10) rotate(0 172.7509765625 16.099999999999994)"><text x="0" y="0" font-family="Helvetica, Segoe UI Emoji" font-size="28px" fill="#000000" text-anchor="start" style="white-space: pre;" direction="ltr" dominant-baseline="text-before-edge">General Purpose Registers:</text></g><g transform="translate(10 50) rotate(0 522.5 9.200000000000003)"><text x="0" y="0" font-family="Helvetica, Segoe UI Emoji" font-size="16px" fill="#000000" text-anchor="start" style="white-space: pre;" direction="ltr" dominant-baseline="text-before-edge">In A32 we had R0-R31, smaller registers were packed into larger ones. Now they are mapped one-to-one to the low-order bits of the bigger register.</text></g><g transform="translate(10 350) rotate(0 405.9609375 9.200000000000003)"><text x="0" y="0" font-family="Helvetica, Segoe UI Emoji" font-size="16px" fill="#000000" text-anchor="start" style="white-space: pre;" direction="ltr" dominant-baseline="text-before-edge">In ARMv7, there were 32 64-bit registers D0, D1, ..., D31. In ARMv8, there are 32 128-bit registers V0, V1, ..., V31.</text></g><g stroke-linecap="round" transform="translate(1550 70) rotate(0 240 30)"><path d="M0 0 L480 0 L480 60 L0 60" stroke="none" stroke-width="0" fill="#4c6ef540"></path><path d="M0 0 C175.02 0, 350.05 0, 480 0 M0 0 C170.41 0, 340.83 0, 480 0 M480 0 C480 12.5, 480 25, 480 60 M480 0 C480 19.86, 480 39.72, 480 60 M480 60 C301.38 60, 122.75 60, 0 60 M480 60 C326.77 60, 173.54 60, 0 60 M0 60 C0 41.72, 0 23.44, 0 0 M0 60 C0 43.14, 0 26.29, 0 0" stroke="#000000" stroke-width="1" fill="none"></path></g><g transform="translate(1730.96875 81.6) rotate(0 59.03125 18.4)"><text x="59.03125" y="0" font-family="Helvetica, Segoe UI Emoji" font-size="16px" fill="#000000" text-anchor="middle" style="white-space: pre;" direction="ltr" dominant-baseline="text-before-edge">X30</text><text x="59.03125" y="18.4" font-family="Helvetica, Segoe UI Emoji" font-size="16px" fill="#000000" text-anchor="middle" style="white-space: pre;" direction="ltr" dominant-baseline="text-before-edge">LR "link register"</text></g><g stroke-linecap="round" transform="translate(1790 130) rotate(0 120 30)"><path d="M0 0 L240 0 L240 60 L0 60" stroke="none" stroke-width="0" fill="#15aabf40"></path><path d="M0 0 C87.51 0, 175.02 0, 240 0 M0 0 C85.21 0, 170.41 0, 240 0 M240 0 C240 12.5, 240 25, 240 60 M240 0 C240 19.86, 240 39.72, 240 60 M240 60 C150.69 60, 61.38 60, 0 60 M240 60 C163.39 60, 86.77 60, 0 60 M0 60 C0 41.72, 0 23.44, 0 0 M0 60 C0 43.14, 0 26.29, 0 0" stroke="#000000" stroke-width="1" fill="none"></path></g><g transform="translate(1865.98828125 150.8) rotate(0 44.01171875 9.2)"><text x="44.01171875" y="0" font-family="Helvetica, Segoe UI Emoji" font-size="16px" fill="#000000" text-anchor="middle" style="white-space: pre;" direction="ltr" dominant-baseline="text-before-edge">W30 (32-bit)</text></g><g stroke-linecap="round"><g transform="translate(970 90) rotate(0 40 0)"><path d="M0 0 C18.79 0, 37.58 0, 80 0" stroke="#000000" stroke-width="1.5" fill="none" stroke-dasharray="8 9"></path></g></g><mask></mask><g stroke-linecap="round" transform="translate(2030 70) rotate(0 240 30)"><path d="M0 0 L480 0 L480 60 L0 60" stroke="none" stroke-width="0" fill="#ced4da"></path><path d="M0 0 C175.02 0, 350.05 0, 480 0 M0 0 C170.41 0, 340.83 0, 480 0 M480 0 C480 12.5, 480 25, 480 60 M480 0 C480 19.86, 480 39.72, 480 60 M480 60 C301.38 60, 122.75 60, 0 60 M480 60 C326.77 60, 173.54 60, 0 60 M0 60 C0 41.72, 0 23.44, 0 0 M0 60 C0 43.14, 0 26.29, 0 0" stroke="#000000" stroke-width="1" fill="none"></path></g><g stroke-linecap="round" transform="translate(2270 130) rotate(0 120 30)"><path d="M0 0 L240 0 L240 60 L0 60" stroke="none" stroke-width="0" fill="#ced4da"></path><path d="M0 0 C87.51 0, 175.02 0, 240 0 M0 0 C85.21 0, 170.41 0, 240 0 M240 0 C240 12.5, 240 25, 240 60 M240 0 C240 19.86, 240 39.72, 240 60 M240 60 C150.69 60, 61.38 60, 0 60 M240 60 C163.39 60, 86.77 60, 0 60 M0 60 C0 41.72, 0 23.44, 0 0 M0 60 C0 43.14, 0 26.29, 0 0" stroke="#000000" stroke-width="1" fill="none"></path></g><g stroke-linecap="round" transform="translate(3610 510) rotate(0 120 40)"><path d="M0 0 L240 0 L240 80 L0 80" stroke="none" stroke-width="0" fill="#15aabf40"></path><path d="M0 0 C87.51 0, 175.02 0, 240 0 M0 0 C85.21 0, 170.41 0, 240 0 M240 0 C240 16.66, 240 33.33, 240 80 M240 0 C240 26.48, 240 52.95, 240 80 M240 80 C150.69 80, 61.38 80, 0 80 M240 80 C163.39 80, 86.77 80, 0 80 M0 80 C0 55.63, 0 31.25, 0 0 M0 80 C0 57.53, 0 35.05, 0 0" stroke="#000000" stroke-width="1" fill="none"></path></g><g transform="translate(3693.53125 540.8) rotate(0 36.46875 9.199999999999989)"><text x="36.46875" y="0" font-family="Helvetica, Segoe UI Emoji" font-size="16px" fill="#000000" text-anchor="middle" style="white-space: pre;" direction="ltr" dominant-baseline="text-before-edge">32-bit S31</text></g><g stroke-linecap="round" transform="translate(3370 450) rotate(0 240 30)"><path d="M0 0 L480 0 L480 60 L0 60" stroke="none" stroke-width="0" fill="#4c6ef540"></path><path d="M0 0 C175.02 0, 350.05 0, 480 0 M0 0 C170.41 0, 340.83 0, 480 0 M480 0 C480 12.5, 480 25, 480 60 M480 0 C480 19.86, 480 39.72, 480 60 M480 60 C301.38 60, 122.75 60, 0 60 M480 60 C326.77 60, 173.54 60, 0 60 M0 60 C0 41.72, 0 23.44, 0 0 M0 60 C0 43.14, 0 26.29, 0 0" stroke="#000000" stroke-width="1" fill="none"></path></g><g transform="translate(3573.08984375 470.8) rotate(0 36.91015625 9.199999999999989)"><text x="36.91015625" y="0" font-family="Helvetica, Segoe UI Emoji" font-size="16px" fill="#000000" text-anchor="middle" style="white-space: pre;" direction="ltr" dominant-baseline="text-before-edge">64-bit D31</text></g><g stroke-linecap="round" transform="translate(2890 390) rotate(0 480 30)"><path d="M0 0 L960 0 L960 60 L0 60" stroke="none" stroke-width="0" fill="#fd7e1440"></path><path d="M0 0 C350.05 0, 700.09 0, 960 0 M0 0 C340.83 0, 681.65 0, 960 0 M960 0 C960 12.5, 960 25, 960 60 M960 0 C960 19.86, 960 39.72, 960 60 M960 60 C602.75 60, 245.5 60, 0 60 M960 60 C653.54 60, 347.09 60, 0 60 M0 60 C0 41.72, 0 23.44, 0 0 M0 60 C0 43.14, 0 26.29, 0 0" stroke="#000000" stroke-width="1" fill="none"></path></g><g transform="translate(3329.08203125 410.8) rotate(0 40.91796875 9.200000000000003)"><text x="40.91796875" y="0" font-family="Helvetica, Segoe UI Emoji" font-size="16px" fill="#000000" text-anchor="middle" style="white-space: pre;" direction="ltr" dominant-baseline="text-before-edge">128-bit V31</text></g><g stroke-linecap="round"><g transform="translate(1930 410) rotate(0 480 0)"><path d="M0 0 C225.46 0, 450.92 0, 960 0" stroke="#000000" stroke-width="1.5" fill="none" stroke-dasharray="8 9"></path></g></g><mask></mask><g stroke-linecap="round" transform="translate(1070 70) rotate(0 240 30)"><path d="M0 0 L480 0 L480 60 L0 60" stroke="none" stroke-width="0" fill="#4c6ef540"></path><path d="M0 0 C175.02 0, 350.05 0, 480 0 M0 0 C170.41 0, 340.83 0, 480 0 M480 0 C480 12.5, 480 25, 480 60 M480 0 C480 19.86, 480 39.72, 480 60 M480 60 C301.38 60, 122.75 60, 0 60 M480 60 C326.77 60, 173.54 60, 0 60 M0 60 C0 41.72, 0 23.44, 0 0 M0 60 C0 43.14, 0 26.29, 0 0" stroke="#000000" stroke-width="1" fill="none"></path></g><g transform="translate(1244.7421875 81.6) rotate(0 65.2578125 18.4)"><text x="65.2578125" y="0" font-family="Helvetica, Segoe UI Emoji" font-size="16px" fill="#000000" text-anchor="middle" style="white-space: pre;" direction="ltr" dominant-baseline="text-before-edge">X29</text><text x="65.2578125" y="18.4" font-family="Helvetica, Segoe UI Emoji" font-size="16px" fill="#000000" text-anchor="middle" style="white-space: pre;" direction="ltr" dominant-baseline="text-before-edge">FP "frame pointer"</text></g><g stroke-linecap="round" transform="translate(1310 130) rotate(0 120 30)"><path d="M0 0 L240 0 L240 60 L0 60" stroke="none" stroke-width="0" fill="#15aabf40"></path><path d="M0 0 C87.51 0, 175.02 0, 240 0 M0 0 C85.21 0, 170.41 0, 240 0 M240 0 C240 12.5, 240 25, 240 60 M240 0 C240 19.86, 240 39.72, 240 60 M240 60 C150.69 60, 61.38 60, 0 60 M240 60 C163.39 60, 86.77 60, 0 60 M0 60 C0 41.72, 0 23.44, 0 0 M0 60 C0 43.14, 0 26.29, 0 0" stroke="#000000" stroke-width="1" fill="none"></path></g><g transform="translate(1385.98828125 150.8) rotate(0 44.01171875 9.2)"><text x="44.01171875" y="0" font-family="Helvetica, Segoe UI Emoji" font-size="16px" fill="#000000" text-anchor="middle" style="white-space: pre;" direction="ltr" dominant-baseline="text-before-edge">W30 (32-bit)</text></g><g stroke-linecap="round" transform="translate(430 570) rotate(0 30 30)"><path d="M0 0 L60 0 L60 60 L0 60" stroke="none" stroke-width="0" fill="#82c91e40"></path><path d="M0 0 C21.88 0, 43.76 0, 60 0 M0 0 C21.3 0, 42.6 0, 60 0 M60 0 C60 12.5, 60 25, 60 60 M60 0 C60 19.86, 60 39.72, 60 60 M60 60 C37.67 60, 15.34 60, 0 60 M60 60 C40.85 60, 21.69 60, 0 60 M0 60 C0 41.72, 0 23.44, 0 0 M0 60 C0 43.14, 0 26.29, 0 0" stroke="#000000" stroke-width="1" fill="none"></path></g><g transform="translate(437.765625 581.6) rotate(0 22.234375 18.400000000000006)"><text x="22.234375" y="0" font-family="Helvetica, Segoe UI Emoji" font-size="16px" fill="#000000" text-anchor="middle" style="white-space: pre;" direction="ltr" dominant-baseline="text-before-edge">16-bit </text><text x="22.234375" y="18.4" font-family="Helvetica, Segoe UI Emoji" font-size="16px" fill="#000000" text-anchor="middle" style="white-space: pre;" direction="ltr" dominant-baseline="text-before-edge">H0</text></g><g stroke-linecap="round" transform="translate(1810 570) rotate(0 60 30)"><path d="M0 0 L120 0 L120 60 L0 60" stroke="none" stroke-width="0" fill="#82c91e40"></path><path d="M0 0 C43.76 0, 87.51 0, 120 0 M0 0 C42.6 0, 85.21 0, 120 0 M120 0 C120 12.5, 120 25, 120 60 M120 0 C120 19.86, 120 39.72, 120 60 M120 60 C75.34 60, 30.69 60, 0 60 M120 60 C81.69 60, 43.39 60, 0 60 M0 60 C0 41.72, 0 23.44, 0 0 M0 60 C0 43.14, 0 26.29, 0 0" stroke="#000000" stroke-width="1" fill="none"></path></g><g transform="translate(1837.5390625 590.8) rotate(0 32.4609375 9.199999999999989)"><text x="32.4609375" y="0" font-family="Helvetica, Segoe UI Emoji" font-size="16px" fill="#000000" text-anchor="middle" style="white-space: pre;" direction="ltr" dominant-baseline="text-before-edge">16-bit H1</text></g><g stroke-linecap="round" transform="translate(3730 590) rotate(0 60 30)"><path d="M0 0 L120 0 L120 60 L0 60" stroke="none" stroke-width="0" fill="#82c91e40"></path><path d="M0 0 C43.76 0, 87.51 0, 120 0 M0 0 C42.6 0, 85.21 0, 120 0 M120 0 C120 12.5, 120 25, 120 60 M120 0 C120 19.86, 120 39.72, 120 60 M120 60 C75.34 60, 30.69 60, 0 60 M120 60 C81.69 60, 43.39 60, 0 60 M0 60 C0 41.72, 0 23.44, 0 0 M0 60 C0 43.14, 0 26.29, 0 0" stroke="#000000" stroke-width="1" fill="none"></path></g><g transform="translate(3753.08984375 610.8) rotate(0 36.91015625 9.199999999999989)"><text x="36.91015625" y="0" font-family="Helvetica, Segoe UI Emoji" font-size="16px" fill="#000000" text-anchor="middle" style="white-space: pre;" direction="ltr" dominant-baseline="text-before-edge">16-bit H31</text></g><g stroke-linecap="round" transform="translate(10 450) rotate(0 120 30)"><path d="M0 0 C87.51 0, 175.02 0, 240 0 M0 0 C85.21 0, 170.41 0, 240 0 M240 0 C240 12.5, 240 25, 240 60 M240 0 C240 19.86, 240 39.72, 240 60 M240 60 C150.69 60, 61.38 60, 0 60 M240 60 C163.39 60, 86.77 60, 0 60 M0 60 C0 41.72, 0 23.44, 0 0 M0 60 C0 43.14, 0 26.29, 0 0" stroke="#000000" stroke-width="1" fill="none"></path></g><g stroke-linecap="round" transform="translate(10 510) rotate(0 180 30)"><path d="M0 0 C131.27 0, 262.53 0, 360 0 M0 0 C127.81 0, 255.62 0, 360 0 M360 0 C360 12.5, 360 25, 360 60 M360 0 C360 19.86, 360 39.72, 360 60 M360 60 C226.03 60, 92.06 60, 0 60 M360 60 C245.08 60, 130.16 60, 0 60 M0 60 C0 41.72, 0 23.44, 0 0 M0 60 C0 43.14, 0 26.29, 0 0" stroke="#000000" stroke-width="1" fill="none"></path></g><g stroke-linecap="round" transform="translate(10 570) rotate(0 210 30)"><path d="M0 0 C153.14 0, 306.29 0, 420 0 M0 0 C149.11 0, 298.22 0, 420 0 M420 0 C420 12.5, 420 25, 420 60 M420 0 C420 19.86, 420 39.72, 420 60 M420 60 C263.7 60, 107.41 60, 0 60 M420 60 C285.93 60, 151.85 60, 0 60 M0 60 C0 41.72, 0 23.44, 0 0 M0 60 C0 43.14, 0 26.29, 0 0" stroke="#000000" stroke-width="1" fill="none"></path></g><g stroke-linecap="round" transform="translate(850 510) rotate(0 60 30)"><path d="M0 0 L120 0 L120 60 L0 60" stroke="none" stroke-width="0" fill="#15aabf40"></path><path d="M0 0 C43.76 0, 87.51 0, 120 0 M0 0 C42.6 0, 85.21 0, 120 0 M120 0 C120 12.5, 120 25, 120 60 M120 0 C120 19.86, 120 39.72, 120 60 M120 60 C75.34 60, 30.69 60, 0 60 M120 60 C81.69 60, 43.39 60, 0 60 M0 60 C0 41.72, 0 23.44, 0 0 M0 60 C0 43.14, 0 26.29, 0 0" stroke="#000000" stroke-width="1" fill="none"></path></g><g transform="translate(877.98046875 530.8) rotate(0 32.01953125 9.199999999999989)"><text x="32.01953125" y="0" font-family="Helvetica, Segoe UI Emoji" font-size="16px" fill="#000000" text-anchor="middle" style="white-space: pre;" direction="ltr" dominant-baseline="text-before-edge">32-bit S1</text></g><g stroke-linecap="round" transform="translate(730 450) rotate(0 120 30)"><path d="M0 0 L240 0 L240 60 L0 60" stroke="none" stroke-width="0" fill="#4c6ef540"></path><path d="M0 0 C87.51 0, 175.02 0, 240 0 M0 0 C85.21 0, 170.41 0, 240 0 M240 0 C240 12.5, 240 25, 240 60 M240 0 C240 19.86, 240 39.72, 240 60 M240 60 C150.69 60, 61.38 60, 0 60 M240 60 C163.39 60, 86.77 60, 0 60 M0 60 C0 41.72, 0 23.44, 0 0 M0 60 C0 43.14, 0 26.29, 0 0" stroke="#000000" stroke-width="1" fill="none"></path></g><g transform="translate(817.5390625 470.8) rotate(0 32.4609375 9.199999999999989)"><text x="32.4609375" y="0" font-family="Helvetica, Segoe UI Emoji" font-size="16px" fill="#000000" text-anchor="middle" style="white-space: pre;" direction="ltr" dominant-baseline="text-before-edge">64-bit D1</text></g><g stroke-linecap="round" transform="translate(490 390) rotate(0 240 30)"><path d="M0 0 L480 0 L480 60 L0 60" stroke="none" stroke-width="0" fill="#fd7e1440"></path><path d="M0 0 C175.02 0, 350.05 0, 480 0 M0 0 C170.41 0, 340.83 0, 480 0 M480 0 C480 12.5, 480 25, 480 60 M480 0 C480 19.86, 480 39.72, 480 60 M480 60 C301.38 60, 122.75 60, 0 60 M480 60 C326.77 60, 173.54 60, 0 60 M0 60 C0 41.72, 0 23.44, 0 0 M0 60 C0 43.14, 0 26.29, 0 0" stroke="#000000" stroke-width="1" fill="none"></path></g><g transform="translate(693.53125 410.8) rotate(0 36.46875 9.200000000000003)"><text x="36.46875" y="0" font-family="Helvetica, Segoe UI Emoji" font-size="16px" fill="#000000" text-anchor="middle" style="white-space: pre;" direction="ltr" dominant-baseline="text-before-edge">128-bit V1</text></g><g stroke-linecap="round" transform="translate(910 570) rotate(0 30 30)"><path d="M0 0 L60 0 L60 60 L0 60" stroke="none" stroke-width="0" fill="#82c91e40"></path><path d="M0 0 C21.88 0, 43.76 0, 60 0 M0 0 C21.3 0, 42.6 0, 60 0 M60 0 C60 12.5, 60 25, 60 60 M60 0 C60 19.86, 60 39.72, 60 60 M60 60 C37.67 60, 15.34 60, 0 60 M60 60 C40.85 60, 21.69 60, 0 60 M0 60 C0 41.72, 0 23.44, 0 0 M0 60 C0 43.14, 0 26.29, 0 0" stroke="#000000" stroke-width="1" fill="none"></path></g><g transform="translate(917.765625 581.6) rotate(0 22.234375 18.400000000000006)"><text x="22.234375" y="0" font-family="Helvetica, Segoe UI Emoji" font-size="16px" fill="#000000" text-anchor="middle" style="white-space: pre;" direction="ltr" dominant-baseline="text-before-edge">16-bit </text><text x="22.234375" y="18.4" font-family="Helvetica, Segoe UI Emoji" font-size="16px" fill="#000000" text-anchor="middle" style="white-space: pre;" direction="ltr" dominant-baseline="text-before-edge">H1</text></g><g stroke-linecap="round" transform="translate(490 450) rotate(0 120 30)"><path d="M0 0 C87.51 0, 175.02 0, 240 0 M0 0 C85.21 0, 170.41 0, 240 0 M240 0 C240 12.5, 240 25, 240 60 M240 0 C240 19.86, 240 39.72, 240 60 M240 60 C150.69 60, 61.38 60, 0 60 M240 60 C163.39 60, 86.77 60, 0 60 M0 60 C0 41.72, 0 23.44, 0 0 M0 60 C0 43.14, 0 26.29, 0 0" stroke="#000000" stroke-width="1" fill="none"></path></g><g stroke-linecap="round" transform="translate(490 510) rotate(0 180 30)"><path d="M0 0 C131.27 0, 262.53 0, 360 0 M0 0 C127.81 0, 255.62 0, 360 0 M360 0 C360 12.5, 360 25, 360 60 M360 0 C360 19.86, 360 39.72, 360 60 M360 60 C226.03 60, 92.06 60, 0 60 M360 60 C245.08 60, 130.16 60, 0 60 M0 60 C0 41.72, 0 23.44, 0 0 M0 60 C0 43.14, 0 26.29, 0 0" stroke="#000000" stroke-width="1" fill="none"></path></g><g stroke-linecap="round" transform="translate(490 570) rotate(0 210 30)"><path d="M0 0 C153.14 0, 306.29 0, 420 0 M0 0 C149.11 0, 298.22 0, 420 0 M420 0 C420 12.5, 420 25, 420 60 M420 0 C420 19.86, 420 39.72, 420 60 M420 60 C263.7 60, 107.41 60, 0 60 M420 60 C285.93 60, 151.85 60, 0 60 M0 60 C0 41.72, 0 23.44, 0 0 M0 60 C0 43.14, 0 26.29, 0 0" stroke="#000000" stroke-width="1" fill="none"></path></g><g stroke-linecap="round" transform="translate(250 70) rotate(0 120 30)"><path d="M0 0 L240 0 L240 60 L0 60" stroke="none" stroke-width="0" fill="#4c6ef540"></path><path d="M0 0 C87.51 0, 175.02 0, 240 0 M0 0 C85.21 0, 170.41 0, 240 0 M240 0 C240 12.5, 240 25, 240 60 M240 0 C240 19.86, 240 39.72, 240 60 M240 60 C150.69 60, 61.38 60, 0 60 M240 60 C163.39 60, 86.77 60, 0 60 M0 60 C0 41.72, 0 23.44, 0 0 M0 60 C0 43.14, 0 26.29, 0 0" stroke="#000000" stroke-width="1" fill="none"></path></g><g transform="translate(332.65234375 90.8) rotate(0 37.34765625 9.199999999999996)"><text x="37.34765625" y="0" font-family="Helvetica, Segoe UI Emoji" font-size="16px" fill="#000000" text-anchor="middle" style="white-space: pre;" direction="ltr" dominant-baseline="text-before-edge">X1 (64-bit)</text></g><g stroke-linecap="round" transform="translate(370 130) rotate(0 60 30)"><path d="M0 0 L120 0 L120 60 L0 60" stroke="none" stroke-width="0" fill="#15aabf40"></path><path d="M0 0 C43.76 0, 87.51 0, 120 0 M0 0 C42.6 0, 85.21 0, 120 0 M120 0 C120 12.5, 120 25, 120 60 M120 0 C120 19.86, 120 39.72, 120 60 M120 60 C75.34 60, 30.69 60, 0 60 M120 60 C81.69 60, 43.39 60, 0 60 M0 60 C0 41.72, 0 23.44, 0 0 M0 60 C0 43.14, 0 26.29, 0 0" stroke="#000000" stroke-width="1" fill="none"></path></g><g transform="translate(390.4375 150.8) rotate(0 39.5625 9.2)"><text x="39.5625" y="0" font-family="Helvetica, Segoe UI Emoji" font-size="16px" fill="#000000" text-anchor="middle" style="white-space: pre;" direction="ltr" dominant-baseline="text-before-edge">W1 (32-bit)</text></g></svg>