<svg version="1.1" xmlns="http://www.w3.org/2000/svg" viewBox="0 0 1380 400" width="1380" height="400">
  <!-- svg-source:excalidraw -->
  
  <defs>
    <style class="style-fonts">
      @font-face {
        font-family: "Virgil";
        src: url("https://file%2B.vscode-resource.vscode-cdn.net/home/andrewl/.vscode/extensions/pomdtr.excalidraw-editor-3.7.4/public//dist/excalidraw-assets/Virgil.woff2");
      }
      @font-face {
        font-family: "Cascadia";
        src: url("https://file%2B.vscode-resource.vscode-cdn.net/home/andrewl/.vscode/extensions/pomdtr.excalidraw-editor-3.7.4/public//dist/excalidraw-assets/Cascadia.woff2");
      }
      @font-face {
        font-family: "Assistant";
        src: url("https://file%2B.vscode-resource.vscode-cdn.net/home/andrewl/.vscode/extensions/pomdtr.excalidraw-editor-3.7.4/public//dist/excalidraw-assets/Assistant-Regular.woff2");
      }
    </style>
    
  </defs>
  <rect x="0" y="0" width="1380" height="400" fill="#ffffff"></rect><g stroke-linecap="round" transform="translate(110 50) rotate(0 100 50)"><path d="M0 0 L200 0 L200 100 L0 100" stroke="none" stroke-width="0" fill="#e7f5ff"></path><path d="M0 0 C58.97 0, 117.94 0, 200 0 M0 0 C62.99 0, 125.98 0, 200 0 M200 0 C200 33.6, 200 67.2, 200 100 M200 0 C200 22.4, 200 44.8, 200 100 M200 100 C154.29 100, 108.58 100, 0 100 M200 100 C153.98 100, 107.97 100, 0 100 M0 100 C0 64.13, 0 28.26, 0 0 M0 100 C0 68.72, 0 37.45, 0 0" stroke="#1e1e1e" stroke-width="2" fill="none"></path></g><g stroke-linecap="round" transform="translate(90 30) rotate(0 100 50)"><path d="M0 0 L200 0 L200 100 L0 100" stroke="none" stroke-width="0" fill="#e7f5ff"></path><path d="M0 0 C57.84 0, 115.69 0, 200 0 M0 0 C64.88 0, 129.76 0, 200 0 M200 0 C200 32.85, 200 65.7, 200 100 M200 0 C200 23.62, 200 47.23, 200 100 M200 100 C136.16 100, 72.31 100, 0 100 M200 100 C147.33 100, 94.66 100, 0 100 M0 100 C0 78.29, 0 56.59, 0 0 M0 100 C0 69.66, 0 39.32, 0 0" stroke="#1e1e1e" stroke-width="2" fill="none"></path></g><g stroke-linecap="round" transform="translate(310 50) rotate(0 100 50)"><path d="M0 0 L200 0 L200 100 L0 100" stroke="none" stroke-width="0" fill="#a5d8ff"></path><path d="M0 0 C44.73 0, 89.46 0, 200 0 M0 0 C46.33 0, 92.65 0, 200 0 M200 0 C200 35.12, 200 70.23, 200 100 M200 0 C200 24.49, 200 48.97, 200 100 M200 100 C155.31 100, 110.62 100, 0 100 M200 100 C130.88 100, 61.77 100, 0 100 M0 100 C0 73.15, 0 46.3, 0 0 M0 100 C0 69.73, 0 39.45, 0 0" stroke="#1e1e1e" stroke-width="2" fill="none"></path></g><g transform="translate(357.7392578125 88.5) rotate(0 52.2607421875 11.5)"><text x="52.2607421875" y="0" font-family="Helvetica, Segoe UI Emoji" font-size="20px" fill="#1e1e1e" text-anchor="middle" style="white-space: pre;" direction="ltr" dominant-baseline="text-before-edge">/dev/net/tun</text></g><g stroke-linecap="round" transform="translate(70 10) rotate(0 100 50)"><path d="M0 0 L200 0 L200 100 L0 100" stroke="none" stroke-width="0" fill="#e7f5ff"></path><path d="M0 0 C57.08 0, 114.16 0, 200 0 M0 0 C40.58 0, 81.15 0, 200 0 M200 0 C200 26.42, 200 52.84, 200 100 M200 0 C200 25.4, 200 50.8, 200 100 M200 100 C132.53 100, 65.06 100, 0 100 M200 100 C150.32 100, 100.64 100, 0 100 M0 100 C0 71.84, 0 43.67, 0 0 M0 100 C0 78.93, 0 57.85, 0 0" stroke="#1e1e1e" stroke-width="2" fill="none"></path></g><g transform="translate(109.404296875 48.5) rotate(0 60.595703125 11.5)"><text x="60.595703125" y="0" font-family="Helvetica, Segoe UI Emoji" font-size="20px" fill="#1e1e1e" text-anchor="middle" style="white-space: pre;" direction="ltr" dominant-baseline="text-before-edge">tap0 interface</text></g><g stroke-linecap="round"><g transform="translate(510 90) rotate(0 50 0)"><path d="M0 0 C33.91 0, 67.82 0, 100 0 M0 0 C37.76 0, 75.52 0, 100 0" stroke="#1e1e1e" stroke-width="2" fill="none"></path></g><g transform="translate(510 90) rotate(0 50 0)"><path d="M100 0 L86.41 6.34 L86.41 -6.34 L100 0" stroke="none" stroke-width="0" fill="#1e1e1e" fill-rule="evenodd"></path><path d="M100 0 C95.39 2.15, 90.78 4.3, 86.41 6.34 M100 0 C94.87 2.39, 89.73 4.79, 86.41 6.34 M86.41 6.34 C86.41 2.11, 86.41 -2.11, 86.41 -6.34 M86.41 6.34 C86.41 3, 86.41 -0.33, 86.41 -6.34 M86.41 -6.34 C90.75 -4.31, 95.09 -2.29, 100 0 M86.41 -6.34 C91.3 -4.06, 96.2 -1.77, 100 0 M100 0 C100 0, 100 0, 100 0 M100 0 C100 0, 100 0, 100 0" stroke="#1e1e1e" stroke-width="2" fill="none"></path></g></g><mask></mask><g stroke-linecap="round" transform="translate(610 70) rotate(0 100 20)"><path d="M0 0 L200 0 L200 40 L0 40" stroke="none" stroke-width="0" fill="#ffc9c9"></path><path d="M0 0 C52.42 0, 104.85 0, 200 0 M0 0 C61.39 0, 122.77 0, 200 0 M200 0 C200 13.37, 200 26.74, 200 40 M200 0 C200 8.88, 200 17.76, 200 40 M200 40 C139.93 40, 79.86 40, 0 40 M200 40 C126.12 40, 52.25 40, 0 40 M0 40 C0 24.24, 0 8.49, 0 0 M0 40 C0 30.99, 0 21.98, 0 0" stroke="#1e1e1e" stroke-width="2" fill="none"></path></g><g transform="translate(663.2958984375 78.5) rotate(0 46.7041015625 11.5)"><text x="46.7041015625" y="0" font-family="Helvetica, Segoe UI Emoji" font-size="20px" fill="#1e1e1e" text-anchor="middle" style="white-space: pre;" direction="ltr" dominant-baseline="text-before-edge">tap2stdout</text></g><g stroke-linecap="round"><g transform="translate(810 90) rotate(0 50 0)"><path d="M0 0 C34.5 0, 69.01 0, 100 0 M0 0 C23.85 0, 47.71 0, 100 0" stroke="#1e1e1e" stroke-width="2" fill="none"></path></g><g transform="translate(810 90) rotate(0 50 0)"><path d="M100 0 L86.41 6.34 L86.41 -6.34 L100 0" stroke="none" stroke-width="0" fill="#1e1e1e" fill-rule="evenodd"></path><path d="M100 0 C95.31 2.19, 90.62 4.37, 86.41 6.34 M100 0 C96.76 1.51, 93.51 3.02, 86.41 6.34 M86.41 6.34 C86.41 3.03, 86.41 -0.27, 86.41 -6.34 M86.41 6.34 C86.41 2.41, 86.41 -1.53, 86.41 -6.34 M86.41 -6.34 C90.41 -4.47, 94.41 -2.61, 100 0 M86.41 -6.34 C90.29 -4.53, 94.18 -2.71, 100 0 M100 0 C100 0, 100 0, 100 0 M100 0 C100 0, 100 0, 100 0" stroke="#1e1e1e" stroke-width="2" fill="none"></path></g></g><mask></mask><g stroke-linecap="round" transform="translate(910 70) rotate(0 100 20)"><path d="M0 0 L200 0 L200 40 L0 40" stroke="none" stroke-width="0" fill="#ffc9c9"></path><path d="M0 0 C69.77 0, 139.53 0, 200 0 M0 0 C73.94 0, 147.87 0, 200 0 M200 0 C200 15.84, 200 31.68, 200 40 M200 0 C200 8.68, 200 17.36, 200 40 M200 40 C145.8 40, 91.6 40, 0 40 M200 40 C155.53 40, 111.07 40, 0 40 M0 40 C0 26.71, 0 13.42, 0 0 M0 40 C0 31.1, 0 22.2, 0 0" stroke="#1e1e1e" stroke-width="2" fill="none"></path></g><g transform="translate(964.4140625 78.5) rotate(0 45.5859375 11.5)"><text x="45.5859375" y="0" font-family="Helvetica, Segoe UI Emoji" font-size="20px" fill="#1e1e1e" text-anchor="middle" style="white-space: pre;" direction="ltr" dominant-baseline="text-before-edge">stdint2hex</text></g><g transform="translate(530 50) rotate(0 23.9013671875 11.5)"><text x="0" y="0" font-family="Helvetica, Segoe UI Emoji" font-size="20px" fill="#1e1e1e" text-anchor="start" style="white-space: pre;" direction="ltr" dominant-baseline="text-before-edge">file fd</text></g><g transform="translate(839 50) rotate(0 18.90625 11.5)"><text x="0" y="0" font-family="Helvetica, Segoe UI Emoji" font-size="20px" fill="#1e1e1e" text-anchor="start" style="white-space: pre;" direction="ltr" dominant-baseline="text-before-edge">pipe</text></g><g stroke-linecap="round" transform="translate(610 170) rotate(0 380 34)"><path d="M0 0 L760 0 L760 68 L0 68" stroke="none" stroke-width="0" fill="#1e1e1e"></path><path d="M0 0 C254.76 0, 509.51 0, 760 0 M0 0 C224.07 0, 448.14 0, 760 0 M760 0 C760 24.13, 760 48.26, 760 68 M760 0 C760 14.47, 760 28.95, 760 68 M760 68 C508.83 68, 257.65 68, 0 68 M760 68 C596.01 68, 432.01 68, 0 68 M0 68 C0 45.19, 0 22.38, 0 0 M0 68 C0 47.45, 0 26.9, 0 0" stroke="#ffffff" stroke-width="2" fill="none"></path></g><g transform="translate(615 175.2) rotate(0 351.5625 28.799999999999983)"><text x="0" y="0" font-family="Cascadia, Segoe UI Emoji" font-size="16px" fill="#ffffff" text-anchor="start" style="white-space: pre;" direction="ltr" dominant-baseline="text-before-edge">00000000: FF FF FF FF FF FF D6 C3 87 EE 71 15 08 06 00 01  ..........q.....</text><text x="0" y="19.2" font-family="Cascadia, Segoe UI Emoji" font-size="16px" fill="#ffffff" text-anchor="start" style="white-space: pre;" direction="ltr" dominant-baseline="text-before-edge">00000010: 08 00 06 04 00 01 D6 C3 87 EE 71 15 C0 A8 7B 01  ..........q...{.</text><text x="0" y="38.4" font-family="Cascadia, Segoe UI Emoji" font-size="16px" fill="#ffffff" text-anchor="start" style="white-space: pre;" direction="ltr" dominant-baseline="text-before-edge">00000020: 00 00 00 00 00 00 C0 A8 7B 0A                    ........{.</text></g><g stroke-linecap="round"><g transform="translate(1010 110) rotate(0 0 30)"><path d="M0 0 C0 14.42, 0 28.83, 0 60 M0 0 C0 15.11, 0 30.23, 0 60" stroke="#1e1e1e" stroke-width="2" fill="none"></path></g><g transform="translate(1010 110) rotate(0 0 30)"><path d="M0 60 L-6.34 46.41 L6.34 46.41 L0 60" stroke="none" stroke-width="0" fill="#1e1e1e" fill-rule="evenodd"></path><path d="M0 60 C-1.52 56.73, -3.05 53.47, -6.34 46.41 M0 60 C-1.6 56.58, -3.19 53.15, -6.34 46.41 M-6.34 46.41 C-3.28 46.41, -0.23 46.41, 6.34 46.41 M-6.34 46.41 C-1.87 46.41, 2.59 46.41, 6.34 46.41 M6.34 46.41 C4.84 49.63, 3.33 52.85, 0 60 M6.34 46.41 C4.87 49.55, 3.41 52.69, 0 60 M0 60 C0 60, 0 60, 0 60 M0 60 C0 60, 0 60, 0 60" stroke="#1e1e1e" stroke-width="2" fill="none"></path></g></g><mask></mask><g transform="translate(1030 130) rotate(0 27.2412109375 11.5)"><text x="0" y="0" font-family="Helvetica, Segoe UI Emoji" font-size="20px" fill="#1e1e1e" text-anchor="start" style="white-space: pre;" direction="ltr" dominant-baseline="text-before-edge">stdout</text></g><g stroke-linecap="round" transform="translate(610 350) rotate(0 100 20)"><path d="M0 0 L200 0 L200 40 L0 40" stroke="none" stroke-width="0" fill="#ffc9c9"></path><path d="M0 0 C63.87 0, 127.74 0, 200 0 M0 0 C66.05 0, 132.09 0, 200 0 M200 0 C200 10.45, 200 20.9, 200 40 M200 0 C200 13.68, 200 27.37, 200 40 M200 40 C151.19 40, 102.38 40, 0 40 M200 40 C154.1 40, 108.19 40, 0 40 M0 40 C0 28.9, 0 17.79, 0 0 M0 40 C0 25.89, 0 11.79, 0 0" stroke="#1e1e1e" stroke-width="2" fill="none"></path></g><g transform="translate(691.09375 358.5) rotate(0 18.90625 11.5)"><text x="18.90625" y="0" font-family="Helvetica, Segoe UI Emoji" font-size="20px" fill="#1e1e1e" text-anchor="middle" style="white-space: pre;" direction="ltr" dominant-baseline="text-before-edge">ping</text></g><g stroke-linecap="round"><g transform="translate(610 370) rotate(0 -210 -130)"><path d="M0 0 C-90.18 0, -180.36 0, -420 0 M0 0 C-122.5 0, -245 0, -420 0 M-420 0 C-420 -97.02, -420 -194.04, -420 -260 M-420 0 C-420 -66.39, -420 -132.78, -420 -260" stroke="#1e1e1e" stroke-width="2" fill="none"></path></g><g transform="translate(610 370) rotate(0 -210 -130)"><path d="M-420 -260 L-413.66 -246.41 L-426.34 -246.41 L-420 -260" stroke="none" stroke-width="0" fill="#1e1e1e" fill-rule="evenodd"></path><path d="M-420 -260 C-418.64 -257.08, -417.28 -254.16, -413.66 -246.41 M-420 -260 C-418.15 -256.03, -416.3 -252.07, -413.66 -246.41 M-413.66 -246.41 C-418.39 -246.41, -423.12 -246.41, -426.34 -246.41 M-413.66 -246.41 C-416.9 -246.41, -420.14 -246.41, -426.34 -246.41 M-426.34 -246.41 C-424.64 -250.04, -422.95 -253.68, -420 -260 M-426.34 -246.41 C-424.82 -249.66, -423.3 -252.92, -420 -260 M-420 -260 C-420 -260, -420 -260, -420 -260 M-420 -260 C-420 -260, -420 -260, -420 -260" stroke="#1e1e1e" stroke-width="2" fill="none"></path></g></g><mask></mask><g transform="translate(390 340) rotate(0 40.01953125 11.5)"><text x="0" y="0" font-family="Helvetica, Segoe UI Emoji" font-size="20px" fill="#1e1e1e" text-anchor="start" style="white-space: pre;" direction="ltr" dominant-baseline="text-before-edge">socket fd</text></g><g stroke-linecap="round" transform="translate(10 150) rotate(0 250 30)"><path d="M0 0 L500 0 L500 60 L0 60" stroke="none" stroke-width="0" fill="#fff9db80"></path><path d="M0 0 C105.4 0, 210.81 0, 500 0 M0 0 C193.7 0, 387.4 0, 500 0 M500 0 C500 13.18, 500 26.36, 500 60 M500 0 C500 23.54, 500 47.07, 500 60 M500 60 C338.06 60, 176.13 60, 0 60 M500 60 C322.28 60, 144.57 60, 0 60 M0 60 C0 41.29, 0 22.58, 0 0 M0 60 C0 41.86, 0 23.71, 0 0" stroke="#1e1e1e" stroke-width="2" fill="none"></path></g><g transform="translate(198.8525390625 168.5) rotate(0 61.1474609375 11.5)"><text x="61.1474609375" y="0" font-family="Helvetica, Segoe UI Emoji" font-size="20px" fill="#1e1e1e" text-anchor="middle" style="white-space: pre;" direction="ltr" dominant-baseline="text-before-edge">tuntap driver?</text></g><g stroke-linecap="round" transform="translate(10 210) rotate(0 250 30)"><path d="M0 0 L500 0 L500 60 L0 60" stroke="none" stroke-width="0" fill="#ffec9980"></path><path d="M0 0 C122.91 0, 245.81 0, 500 0 M0 0 C124.98 0, 249.96 0, 500 0 M500 0 C500 18.83, 500 37.67, 500 60 M500 0 C500 15.94, 500 31.87, 500 60 M500 60 C373.92 60, 247.85 60, 0 60 M500 60 C382.91 60, 265.82 60, 0 60 M0 60 C0 40.54, 0 21.09, 0 0 M0 60 C0 44.83, 0 29.66, 0 0" stroke="#1e1e1e" stroke-width="2" fill="none"></path></g><g transform="translate(236.09375 228.5) rotate(0 23.90625 11.5)"><text x="23.90625" y="0" font-family="Helvetica, Segoe UI Emoji" font-size="20px" fill="#1e1e1e" text-anchor="middle" style="white-space: pre;" direction="ltr" dominant-baseline="text-before-edge">Linux</text></g></svg>